<?xml version="1.0" encoding="UTF-8"?>
<svg width="20px" height="20px" viewBox="0 0 20 20" version="1.1" xmlns="http://www.w3.org/2000/svg" xmlns:xlink="http://www.w3.org/1999/xlink">
    <!-- Generator: Sketch 64 (93537) - https://sketch.com -->
    <title>ic_hwp</title>
    <desc>Created with Sketch.</desc>
    <g id="Symbols" stroke="none" stroke-width="1" fill="none" fill-rule="evenodd">
        <g id="3.file-format/hwp_24px" transform="translate(-2.000000, -2.000000)">
            <rect id="ICON-Copy" x="0" y="0" width="24" height="24"></rect>
            <path d="M22,2 L22,22 L2,22 L2,2 L22,2 Z M9.43820233,15.043473 L8,15.043473 L8,18 L16,18 L16,16.8695653 L9.438,16.869 L9.43820233,15.043473 Z M12.044944,14.3478314 C11.5485082,14.3478314 11.1460676,14.737149 11.1460676,15.2173966 C11.1460676,15.6976443 11.5485082,16.0869619 12.044944,16.0869619 C12.5413797,16.0869619 12.9438204,15.6976443 12.9438204,15.2173966 C12.9438204,14.737149 12.5413797,14.3478314 12.044944,14.3478314 Z M12.044944,9.47826088 C10.5556367,9.47826088 9.34831466,10.4904866 9.34831466,11.7391304 C9.34831466,12.9877741 10.5556367,13.9999999 12.044944,13.9999999 C13.5342512,13.9999999 14.7415733,12.9877741 14.7415733,11.7391304 C14.7415733,10.4904866 13.5342512,9.47826088 12.044944,9.47826088 Z M12.0449549,10.6086983 C12.6903214,10.6086983 13.2134943,11.1148112 13.2134943,11.7391331 C13.2134943,12.3634549 12.6903214,12.8695678 12.0449549,12.8695678 C11.3995885,12.8695678 10.8764156,12.3634549 10.8764156,11.7391331 C10.8764156,11.1148112 11.3995885,10.6086983 12.0449549,10.6086983 Z M12.674163,6 L11.2359607,6 L11.235,7.739 L8.35954509,7.73913044 L8.35954509,8.86956519 L15.5505566,8.86956519 L15.5505566,7.73913044 L12.674,7.739 L12.674163,6 Z" id="ic_hwp" fill="#1D9AD6"></path>
        </g>
    </g>
</svg>
