<?xml version="1.0" encoding="UTF-8"?>
<svg width="17px" height="16px" viewBox="0 0 17 16" version="1.1" xmlns="http://www.w3.org/2000/svg" xmlns:xlink="http://www.w3.org/1999/xlink">
    <!-- Generator: Sketch 64 (93537) - https://sketch.com -->
    <title>1.material_custom/stack chart_2tone</title>
    <desc>Created with Sketch.</desc>
    <defs>
        <path d="M10,13 L14,13 L14,4 L10,4 L10,13 Z M4,15 L8,15 L8,11 L4,11 L4,15 Z M16,9 L16,16 L20,16 L20,9 L16,9 Z" id="path-1"></path>
        <path d="M10,20 L14,20 L14,13 L10,13 L10,20 Z M4,20 L8,20 L8,15 L4,15 L4,20 Z M16,16 L16,20 L20,20 L20,16 L16,16 Z" id="path-3"></path>
    </defs>
    <g id="Guide" stroke="none" stroke-width="1" fill="none" fill-rule="evenodd">
        <g id="guide-Toggles-1" transform="translate(-78.000000, -683.000000)">
            <g id="1.material_custom/stack-chart_2tone" transform="translate(74.500000, 679.000000)">
                <mask id="mask-2" fill="white">
                    <use xlink:href="#path-1"></use>
                </mask>
                <use id="av/equalizer_24px-copy" fill="#B0B6BD" fill-rule="evenodd" xlink:href="#path-1"></use>
                <mask id="mask-4" fill="white">
                    <use xlink:href="#path-3"></use>
                </mask>
                <use id="av/equalizer_24px" fill="#7E8793" fill-rule="evenodd" xlink:href="#path-3"></use>
            </g>
        </g>
    </g>
</svg>