<?xml version="1.0" encoding="UTF-8"?>
<svg width="22px" height="18px" viewBox="0 0 22 18" version="1.1" xmlns="http://www.w3.org/2000/svg" xmlns:xlink="http://www.w3.org/1999/xlink">
    <!-- Generator: Sketch 64 (93537) - https://sketch.com -->
    <title>gcp</title>
    <desc>Created with Sketch.</desc>
    <g id="Symbols" stroke="none" stroke-width="1" fill="none" fill-rule="evenodd">
        <g id="gcp" fill-rule="nonzero">
            <path d="M13.8701659,4.84408842 L14.5368325,4.84408842 L16.4368325,2.94408842 L16.5301659,2.13742175 C14.3173122,0.18427858 11.2527905,-0.48777811 8.42566925,0.36008694 C5.59854803,1.20795199 3.40963774,3.45553412 2.63683252,6.30408842 C2.84850103,6.21732943 3.08297549,6.20326096 3.30349919,6.26408842 L7.10349919,5.63742175 C7.10349919,5.63742175 7.29683252,5.31742175 7.39683252,5.33742175 C9.0871677,3.48099955 11.931855,3.26465128 13.8834992,4.84408842 L13.8701659,4.84408842 Z" id="Shape" fill="#EA4335"></path>
            <path d="M19.1434992,6.30408842 C18.7067748,4.69584377 17.8101051,3.25005077 16.5634992,2.14408842 L13.8968325,4.81075509 C15.0228756,5.7308384 15.6642853,7.1168731 15.6368325,8.5707551 L15.6368325,9.0440884 C16.9475883,9.0440884 18.0101659,10.1066659 18.0101659,11.4174218 C18.0101659,12.7281776 16.9475883,13.7907551 15.6368325,13.7907551 L10.8901659,13.7907551 L10.4168325,14.2707551 L10.4168325,17.1174218 L10.8901659,17.5907551 L15.6368325,17.5907551 C18.3583924,17.6119438 20.7727311,15.84833 21.5802446,13.2492419 C22.3877581,10.6501537 21.397901,7.8288867 19.1434992,6.30408842 Z" id="Shape" fill="#4285F4"></path>
            <path d="M6.13683252,17.5640884 L10.8834992,17.5640884 L10.8834992,13.7640884 L6.13683252,13.7640884 C5.79865402,13.7640137 5.46444121,13.6912599 5.15683252,13.5507551 L4.49016585,13.7574218 L2.57683252,15.6574218 L2.41016585,16.3240884 C3.48312042,17.1342931 4.79235156,17.5699228 6.13683252,17.5640884 L6.13683252,17.5640884 Z" id="Shape" fill="#34A853"></path>
            <path d="M6.13683252,5.23734362 C3.50022119,5.25317177 1.16464728,6.94171726 0.32318964,9.4405002 C-0.518268004,11.9392832 0.32015418,14.6966623 2.41016585,16.3040884 L5.16349919,13.5507551 C4.20152062,13.1161361 3.64221548,12.0983905 3.79103207,11.0533307 C3.93984866,10.0082709 4.76101498,9.1871046 5.80607481,9.038288 C6.85113464,8.8894714 7.86888019,9.4487765 8.30349919,10.4107551 L11.0568325,7.6574218 C9.8853573,6.12593666 8.06498019,5.2305479 6.13683252,5.23734362 Z" id="Shape" fill="#FBBC05"></path>
        </g>
    </g>
</svg>
