<?xml version="1.0" encoding="UTF-8"?>
<svg width="20px" height="16px" viewBox="0 0 20 16" version="1.1" xmlns="http://www.w3.org/2000/svg" xmlns:xlink="http://www.w3.org/1999/xlink">
    <!-- Generator: Sketch 64 (93537) - https://sketch.com -->
    <title>idc</title>
    <desc>Created with Sketch.</desc>
    <g id="Symbols" stroke="none" stroke-width="1" fill="none" fill-rule="evenodd">
        <g id="idc" fill="#667C9D" fill-rule="nonzero">
            <path d="M0,16 L20,16 L20,12 L0,12 L0,16 Z M2,13 L4,13 L4,15 L2,15 L2,13 Z M0,0 L0,4 L20,4 L20,0 L0,0 Z M4,3 L2,3 L2,1 L4,1 L4,3 Z M0,10 L20,10 L20,6 L0,6 L0,10 Z M2,7 L4,7 L4,9 L2,9 L2,7 Z" id="path-1"></path>
        </g>
    </g>
</svg>
