<?xml version="1.0" encoding="UTF-8"?>
<svg width="18px" height="18px" viewBox="0 0 18 18" version="1.1" xmlns="http://www.w3.org/2000/svg" xmlns:xlink="http://www.w3.org/1999/xlink">
    <!-- Generator: Sketch 64 (93537) - https://sketch.com -->
    <title>azure</title>
    <desc>Created with Sketch.</desc>
    <g id="Symbols" stroke="none" stroke-width="1" fill="none" fill-rule="evenodd">
        <g id="azure" fill-rule="nonzero">
            <path d="M0,0.01830752 C0.10557888,-0.00569021 0.21115777,-0.00089066 0.32153569,0.00395688 C2.87942412,0.00395688 5.44211158,-0.00093866 8,0.00395688 L8,7.9952005 C5.33653269,8.0047516 2.67306539,7.9952005 0.00959808,8 C-0.00484703,5.34100369 0.01439712,2.67725583 0,0.01830752" id="Fill-1" fill="#F25022"></path>
            <path d="M10,0.01495593 C10.0911818,-0.00422736 10.1871626,0.00052051 10.2783443,0.00052051 C12.8554289,0.00541225 15.4277145,0.00052051 18,0.00541225 C18,2.6670936 17.995201,5.32877496 18,7.9855646 C15.3413317,8.0095437 12.6778644,7.9807688 10.0191962,8 C9.9856029,7.8705608 10.0095981,7.731434 10,7.5971509 C10,5.06980056 10.0095981,2.54230631 10,0.01495593" id="Fill-5" fill="#7FBA00"></path>
            <path d="M0.00179522,14.3382803 C0.00659606,12.8937385 -0.00780647,11.4443978 0.00659606,10 C2.67106404,10.004751 5.33553202,10 8,10.004751 L8,17.995057 C5.33553202,18 2.67106404,17.995057 0.01139691,18 C-0.00785447,16.7809624 0.00659606,15.5620209 0.00179522,14.3382803" id="Fill-9" fill="#00A4EF"></path>
            <path d="M10,10.0163171 C10.1055789,9.9923277 10.2159568,10.0018755 10.3311338,10.0018755 L17.8608278,10.0018755 C17.8944211,10.0066734 17.9664067,10.0066734 18,10.0115192 C17.995201,12.6743462 18,15.3322792 18,17.9951062 C16.0803839,18 14.1655669,17.9951062 12.2459508,18 C11.4973005,17.9903562 10.7486503,18.0095958 10,17.9903562 C10.004751,15.3322792 10.004751,12.6743462 10,10.0163171" id="Fill-13" fill="#FFB900"></path>
        </g>
    </g>
</svg>
