<?xml version="1.0" encoding="UTF-8"?>
<svg width="22px" height="14px" viewBox="0 0 22 14" version="1.1" xmlns="http://www.w3.org/2000/svg" xmlns:xlink="http://www.w3.org/1999/xlink">
    <!-- Generator: Sketch 64 (93537) - https://sketch.com -->
    <title>alibaba</title>
    <desc>Created with Sketch.</desc>
    <g id="Symbols" stroke="none" stroke-width="1" fill="none" fill-rule="evenodd">
        <g id="alibaba" fill="#373C41" fill-rule="nonzero">
            <path d="M9.4274889,0 L8.89704444,2.15500628 L3.95519259,3.25932132 C3.50378519,3.36656891 3.16482222,3.77209887 3.14445185,4.26309175 C3.14292407,4.27565982 3.14282859,9.0638517 3.14416539,9.6740632 L3.14445185,9.7377461 C3.16482222,10.2279011 3.50378519,10.6334311 3.95519259,10.7406787 L3.95519259,10.7406787 L8.89704444,11.8458316 L9.4274889,14 L3.66756296,14 C1.64763704,14 0.00822963,12.3209049 8.148e-05,10.2454964 L8.148e-05,10.2454964 L8.148e-05,3.75450356 C0.00822963,1.6790951 1.64763704,0 3.66756296,0 L3.66756296,0 L9.4274889,0 Z M18.3334148,0 C20.3533407,0 21.9927481,1.6790951 22.0000815,3.75450356 L22.0000815,10.2454964 C21.9927481,12.3209049 20.3533407,14 18.3334148,14 L12.5734889,14 L13.1039333,11.8458316 L18.0457852,10.7406787 C18.4963778,10.6334311 18.8353407,10.2279011 18.8557111,9.7377461 C18.8581556,9.7235023 18.8581556,4.2764977 18.8557111,4.26309175 C18.8353407,3.77209887 18.4963778,3.36656891 18.0457852,3.25932132 L13.1039333,2.15500628 L12.5734889,0 L18.3334148,0 Z M13,6.5 L13,7.5 L9,7.5 L9,6.5 L13,6.5 Z" id="Combined-Shape"></path>
        </g>
    </g>
</svg>
