<svg xmlns="http://www.w3.org/2000/svg" width="80" height="80" viewBox="0 0 80 80">
    <g fill="none" fill-rule="evenodd">
        <g>
            <g>
                <g>
                    <path fill="#252F3E" d="M19.794 15.159c0 .858.093 1.553.255 2.063.185.51.417 1.066.742 1.669.116.185.162.37.162.533 0 .232-.14.463-.44.695l-1.46.974c-.21.139-.418.208-.603.208-.232 0-.464-.116-.696-.324-.324-.348-.602-.719-.834-1.09-.232-.394-.464-.834-.719-1.367-1.808 2.132-4.08 3.199-6.814 3.199-1.947 0-3.5-.557-4.636-1.67-1.136-1.112-1.715-2.595-1.715-4.45 0-1.97.695-3.57 2.109-4.774 1.414-1.206 3.291-1.808 5.679-1.808.788 0 1.6.07 2.457.185.857.116 1.738.301 2.665.51V8.02c0-1.762-.37-2.99-1.09-3.709-.74-.718-1.992-1.066-3.777-1.066-.811 0-1.646.093-2.504.301-.857.209-1.692.464-2.503.788-.37.163-.649.255-.811.302-.162.046-.278.07-.371.07-.324 0-.487-.232-.487-.72V2.852c0-.37.047-.649.163-.811.115-.163.324-.325.649-.487.81-.417 1.784-.765 2.92-1.043C9.271.209 10.476.07 11.751.07c2.758 0 4.775.625 6.073 1.877 1.275 1.252 1.924 3.152 1.924 5.702v7.51h.046zm-9.41 3.523c.764 0 1.552-.139 2.387-.417.834-.278 1.576-.788 2.202-1.484.37-.44.649-.927.788-1.483s.232-1.228.232-2.017v-.973c-.673-.162-1.391-.301-2.133-.394-.741-.093-1.46-.14-2.179-.14-1.553 0-2.688.302-3.453.928-.765.626-1.136 1.507-1.136 2.666 0 1.089.278 1.9.858 2.457.556.579 1.367.857 2.433.857zm18.612 2.503c-.417 0-.695-.07-.88-.231-.186-.14-.348-.464-.488-.904L22.181 2.132c-.139-.463-.208-.764-.208-.927 0-.37.185-.58.556-.58h2.272c.44 0 .741.07.904.233.185.139.324.463.463.904l3.894 15.344 3.616-15.344c.116-.464.255-.765.44-.904.186-.14.51-.232.928-.232H36.9c.44 0 .742.07.927.232.186.139.348.463.44.904l3.663 15.53 4.01-15.53c.139-.464.301-.765.463-.904.186-.14.487-.232.904-.232h2.156c.37 0 .58.185.58.58 0 .115-.024.231-.047.37-.023.14-.07.325-.162.58l-5.586 17.917c-.14.463-.302.765-.487.904-.186.139-.487.232-.88.232h-1.995c-.44 0-.741-.07-.927-.232-.185-.162-.347-.464-.44-.927L35.926 5.1l-3.57 14.926c-.115.464-.254.765-.44.928-.185.162-.51.231-.927.231h-1.993zm29.785.626c-1.206 0-2.41-.139-3.57-.417-1.159-.278-2.063-.58-2.665-.927-.371-.209-.626-.44-.719-.65-.093-.208-.139-.44-.139-.648v-1.182c0-.487.185-.719.533-.719.14 0 .278.023.417.07.14.046.348.139.58.232.788.347 1.646.625 2.55.81.927.186 1.83.279 2.758.279 1.46 0 2.596-.255 3.384-.765.788-.51 1.205-1.252 1.205-2.202 0-.649-.208-1.182-.626-1.622-.417-.44-1.205-.835-2.34-1.206l-3.362-1.043c-1.692-.533-2.943-1.321-3.708-2.364-.765-1.02-1.16-2.156-1.16-3.361 0-.973.21-1.831.627-2.573.417-.742.973-1.39 1.669-1.9.695-.534 1.483-.928 2.41-1.206.927-.278 1.9-.394 2.92-.394.51 0 1.044.023 1.553.093.534.07 1.02.162 1.507.255.464.116.904.232 1.321.37.417.14.742.279.974.418.324.185.556.37.695.58.14.185.209.44.209.764v1.09c0 .486-.185.741-.533.741-.186 0-.487-.092-.881-.278-1.321-.602-2.805-.904-4.45-.904-1.321 0-2.365.209-3.083.65-.719.44-1.09 1.112-1.09 2.062 0 .65.232 1.206.696 1.646.463.44 1.321.88 2.55 1.275l3.29 1.043c1.67.533 2.875 1.275 3.594 2.225.718.95 1.066 2.04 1.066 3.245 0 .997-.209 1.9-.603 2.689-.417.788-.973 1.483-1.692 2.04-.718.579-1.576.996-2.573 1.298-1.043.324-2.132.486-3.314.486z" transform="translate(-100.000000, -3350.000000) translate(100.000000, 3350.000000) translate(5.000000, 19.000000)"/>
                    <path fill="#F90" d="M63.161 33.076C55.535 38.71 44.456 41.7 34.93 41.7c-13.351 0-25.381-4.937-34.467-13.143-.719-.649-.07-1.53.788-1.02 9.828 5.702 21.95 9.156 34.49 9.156 8.46 0 17.755-1.762 26.308-5.377 1.275-.58 2.364.834 1.112 1.761zm3.176-3.616c-.974-1.251-6.444-.602-8.924-.301-.742.093-.858-.556-.185-1.043 4.357-3.06 11.52-2.179 12.354-1.159.835 1.043-.232 8.205-4.311 11.636-.626.533-1.229.255-.95-.44.926-2.295 2.99-7.464 2.016-8.693z" transform="translate(-100.000000, -3350.000000) translate(100.000000, 3350.000000) translate(5.000000, 19.000000)"/>
                </g>
            </g>
        </g>
    </g>
</svg>
