<svg xmlns="http://www.w3.org/2000/svg" width="80" height="80" viewBox="0 0 80 80">
    <g fill="none" fill-rule="evenodd">
        <g>
            <g>
                <g fill-rule="nonzero">
                    <g>
                        <path fill="#EA4335" d="M39.378 13.74h1.89l5.389-5.389.264-2.289c-10.03-8.853-25.336-7.897-34.19 2.133-2.46 2.784-4.242 6.1-5.217 9.687.599-.246 1.265-.287 1.89-.112l10.778-1.779s.547-.908.834-.852c4.793-5.266 12.861-5.88 18.399-1.4h-.037z" transform="translate(-460.000000, -3350.000000) translate(460.000000, 3350.000000) translate(9.000000, 15.000000) translate(0.000298, -0.000149)"/>
                        <path fill="#4285F4" d="M54.335 17.882c-1.24-4.563-3.782-8.664-7.317-11.797l-7.562 7.562c3.193 2.609 5.013 6.542 4.935 10.666v1.343c3.717 0 6.732 3.015 6.732 6.733 0 3.717-3.015 6.732-6.732 6.732H30.926l-1.343 1.362v8.076l1.343 1.343h13.465c9.668.075 17.569-7.703 17.643-17.372.045-5.873-2.847-11.366-7.7-14.648z" transform="translate(-460.000000, -3350.000000) translate(460.000000, 3350.000000) translate(9.000000, 15.000000) translate(0.000298, -0.000149)"/>
                        <path fill="#34A853" d="M17.443 49.817h13.464V39.039H17.443c-.96 0-1.906-.208-2.78-.607l-1.89.588-5.427 5.39-.472 1.89c3.04 2.3 6.754 3.535 10.569 3.517z" transform="translate(-460.000000, -3350.000000) translate(460.000000, 3350.000000) translate(9.000000, 15.000000) translate(0.000298, -0.000149)"/>
                        <path fill="#FBBC05" d="M17.443 14.856C7.77 14.912-.02 22.798.037 32.47c.034 5.4 2.553 10.484 6.837 13.774l7.807-7.808c-3.386-1.53-4.893-5.519-3.364-8.906 1.53-3.386 5.52-4.893 8.906-3.364 1.492.674 2.687 1.872 3.364 3.364l7.808-7.807c-3.32-4.347-8.485-6.889-13.952-6.867z" transform="translate(-460.000000, -3350.000000) translate(460.000000, 3350.000000) translate(9.000000, 15.000000) translate(0.000298, -0.000149)"/>
                    </g>
                </g>
            </g>
        </g>
    </g>
</svg>
