<svg xmlns="http://www.w3.org/2000/svg" width="585" height="293" viewBox="0 0 585 293">
    <defs>
        <linearGradient id="zu95v3thna" x1="50%" x2="50%" y1="-12.72%" y2="82.434%">
            <stop offset="0%" stop-color="#57E3FF" stop-opacity=".502"/>
            <stop offset="100%" stop-color="#2CC2FD" stop-opacity="0"/>
        </linearGradient>
        <linearGradient id="isqdlypxfb" x1="50%" x2="50%" y1="13.632%" y2="50%">
            <stop offset="0%" stop-color="#FFF" stop-opacity="0"/>
            <stop offset="100%" stop-color="#FFF"/>
        </linearGradient>
    </defs>
    <g fill="none" fill-rule="evenodd">
        <g>
            <g>
                <g>
                    <g opacity=".15">
                        <g>
                            <path stroke="#BCD7E1" stroke-width="2.494" d="M738 272.604L0 272.604 0 0" transform="translate(-975.000000, -4847.000000) translate(975.000000, 4765.000000) translate(-59.000000, 82.000000) translate(0.000000, 20.000000)"/>
                            <path fill="#14A9E5" d="M0 124.23c59.473-12.85 111.276-21.03 155.409-24.539 44.132-3.51 92.738 4.67 145.817 24.54 33.379-15.148 82.51-23.072 147.392-23.773 64.883-.701 160.698-.957 287.446-.767v74.385c-135.808-3.448-239.28-3.448-310.413 0-106.7 5.17-104.357 45.192-130.55 45.192-26.192 0-67.37-45.192-112.36-45.192-29.993 0-90.907 8.435-182.741 25.306V124.23z" opacity=".151" transform="translate(-975.000000, -4847.000000) translate(975.000000, 4765.000000) translate(-59.000000, 82.000000) translate(0.000000, 20.000000)"/>
                            <g transform="translate(-975.000000, -4847.000000) translate(975.000000, 4765.000000) translate(-59.000000, 82.000000) translate(0.000000, 20.000000) translate(0.000000, 56.747191)">
                                <path fill="url(#zu95v3thna)" stroke="#14A9E5" stroke-linecap="round" stroke-linejoin="round" stroke-width="4.989" d="M417.901 225.455L-6.53 225.455 114.068 7.669 228.137 51.817 295.101 142.635 417.901 16.871"/>
                                <ellipse cx="295.101" cy="142.635" fill="#00A5ED" rx="6.124" ry="6.135"/>
                                <ellipse cx="229.263" cy="53.68" fill="#00A5ED" rx="6.124" ry="6.135"/>
                            </g>
                            <path stroke="#14A9E5" stroke-dasharray="12.472" stroke-linecap="round" stroke-width="2.494" d="M0 162.188c80.922-7.165 135.035-14.771 162.338-22.819 27.303-8.047 71.657-.441 133.063 22.819 58.817-19.676 111.68-29.513 158.592-29.513h282.476" transform="translate(-975.000000, -4847.000000) translate(975.000000, 4765.000000) translate(-59.000000, 82.000000) translate(0.000000, 20.000000)"/>
                            <g>
                                <g transform="translate(-975.000000, -4847.000000) translate(975.000000, 4765.000000) translate(-59.000000, 82.000000) translate(0.000000, 20.000000) translate(108.304488, 56.747191) translate(300.099585, 6.134831)">
                                    <ellipse cx="10.718" cy="10.736" fill="#FF8AD3" opacity=".497" rx="10.718" ry="10.736"/>
                                    <ellipse cx="10.718" cy="10.736" fill="#FC5AA1" rx="6.124" ry="6.135"/>
                                </g>
                                <g fill="#FC5AA1" transform="translate(-975.000000, -4847.000000) translate(975.000000, 4765.000000) translate(-59.000000, 82.000000) translate(0.000000, 20.000000) translate(108.304488, 56.747191)">
                                    <ellipse cx="6.124" cy="6.135" rx="6.124" ry="6.135"/>
                                </g>
                            </g>
                        </g>
                    </g>
                    <path fill="url(#isqdlypxfb)" d="M36 215H735V287H36z" transform="translate(-975.000000, -4847.000000) translate(975.000000, 4765.000000) translate(-59.000000, 82.000000)"/>
                </g>
            </g>
        </g>
    </g>
</svg>
