<svg xmlns="http://www.w3.org/2000/svg" width="1200" height="447" viewBox="0 0 1200 447">
    <defs>
        <linearGradient id="sc1td4o2ha" x1="50%" x2="50%" y1="13.632%" y2="50%">
            <stop offset="0%" stop-color="#FFF" stop-opacity="0"/>
            <stop offset="100%" stop-color="#FFF"/>
        </linearGradient>
    </defs>
    <g fill="none" fill-rule="evenodd">
        <g>
            <g>
                <g>
                    <g opacity=".15">
                        <g>
                            <g>
                                <g>
                                    <path fill="#60C0F7" d="M4 45.196h34.831c2.21 0 4 1.79 4 4v284.556H0V49.196c0-2.21 1.79-4 4-4z" transform="translate(-360.000000, -1214.000000) translate(360.000000, 1133.000000) translate(-330.000000, 69.000000) translate(451.855604, 142.498208) translate(-0.000000, 0.000000)"/>
                                    <path fill="#1AE3BB" d="M57.54 114.727h34.83c2.21 0 4 1.791 4 4v215.025H53.54V118.727c0-2.209 1.79-4 4-4z" transform="translate(-360.000000, -1214.000000) translate(360.000000, 1133.000000) translate(-330.000000, 69.000000) translate(451.855604, 142.498208) translate(-0.000000, 0.000000)"/>
                                    <path fill="#FC5AA1" d="M111.079 0h34.831c2.21 0 4 1.79 4 4v329.752H107.08V4c0-2.21 1.79-4 4-4z" transform="translate(-360.000000, -1214.000000) translate(360.000000, 1133.000000) translate(-330.000000, 69.000000) translate(451.855604, 142.498208) translate(-0.000000, 0.000000)"/>
                                    <path fill="#A166F1" d="M164.618 135.587h34.831c2.21 0 4 1.79 4 4v194.165h-42.831V139.587c0-2.21 1.79-4 4-4z" transform="translate(-360.000000, -1214.000000) translate(360.000000, 1133.000000) translate(-330.000000, 69.000000) translate(451.855604, 142.498208) translate(-0.000000, 0.000000)"/>
                                </g>
                            </g>
                            <g>
                                <path fill="#60C0F7" d="M4 34.898h34.642c2.21 0 4 1.79 4 4v201.896H0V38.898c0-2.21 1.79-4 4-4z" transform="translate(-360.000000, -1214.000000) translate(360.000000, 1133.000000) translate(-330.000000, 69.000000) translate(844.531856, 235.207885)"/>
                                <path fill="#1AE3BB" d="M57.303 83.754h34.642c2.209 0 4 1.791 4 4v153.04H53.303V87.754c0-2.209 1.79-4 4-4z" transform="translate(-360.000000, -1214.000000) translate(360.000000, 1133.000000) translate(-330.000000, 69.000000) translate(844.531856, 235.207885)"/>
                                <path fill="#FC5AA1" d="M110.605 0h34.643c2.209 0 4 1.79 4 4v236.794h-42.643V4c0-2.21 1.791-4 4-4z" transform="translate(-360.000000, -1214.000000) translate(360.000000, 1133.000000) translate(-330.000000, 69.000000) translate(844.531856, 235.207885)"/>
                                <path fill="#A166F1" d="M163.908 97.713h34.642c2.21 0 4 1.791 4 4v139.081h-42.642v-139.08c0-2.21 1.791-4 4-4z" transform="translate(-360.000000, -1214.000000) translate(360.000000, 1133.000000) translate(-330.000000, 69.000000) translate(844.531856, 235.207885)"/>
                            </g>
                            <g>
                                <path fill="#60C0F7" d="M4 24.372h34.937c2.21 0 4 1.79 4 4v138.75H0V28.371c0-2.21 1.79-4 4-4z" transform="translate(-360.000000, -1214.000000) translate(360.000000, 1133.000000) translate(-330.000000, 69.000000) translate(1224.899991, 309.032258)"/>
                                <path fill="#1AE3BB" d="M57.672 55.707h34.937c2.21 0 4 1.791 4 4v107.414H53.672V59.707c0-2.209 1.79-4 4-4z" transform="translate(-360.000000, -1214.000000) translate(360.000000, 1133.000000) translate(-330.000000, 69.000000) translate(1224.899991, 309.032258)"/>
                                <path fill="#FC5AA1" d="M111.343 0h34.938c2.209 0 4 1.79 4 4v163.121h-42.938V4c0-2.21 1.791-4 4-4z" transform="translate(-360.000000, -1214.000000) translate(360.000000, 1133.000000) translate(-330.000000, 69.000000) translate(1224.899991, 309.032258)"/>
                                <path fill="#A166F1" d="M165.015 69.634h34.938c2.209 0 4 1.79 4 4v93.487h-42.938V73.634c0-2.21 1.791-4 4-4z" transform="translate(-360.000000, -1214.000000) translate(360.000000, 1133.000000) translate(-330.000000, 69.000000) translate(1224.899991, 309.032258)"/>
                            </g>
                        </g>
                    </g>
                    <path fill="url(#sc1td4o2ha)" d="M330 372H1530V495H330z" transform="translate(-360.000000, -1214.000000) translate(360.000000, 1133.000000) translate(-330.000000, 69.000000)"/>
                </g>
            </g>
        </g>
    </g>
</svg>
