<svg xmlns="http://www.w3.org/2000/svg" width="585" height="293" viewBox="0 0 585 293">
    <defs>
        <linearGradient id="6x5dytmija" x1="50%" x2="50%" y1="13.632%" y2="50%">
            <stop offset="0%" stop-color="#FFF" stop-opacity="0"/>
            <stop offset="100%" stop-color="#FFF"/>
        </linearGradient>
    </defs>
    <g fill="none" fill-rule="evenodd">
        <g>
            <g>
                <g>
                    <g opacity=".15">
                        <g>
                            <path stroke="#BCD7E1" stroke-width=".601" d="M1117 286.122L2.144 286.122" transform="translate(-975.000000, -5272.000000) translate(975.000000, 5190.000000) translate(-153.000000, 82.000000) translate(0.000000, 2.000000)"/>
                            <g>
                                <path fill="#60C0F7" d="M2.403 27.117h20.93c1.327 0 2.403 1.076 2.403 2.404v170.73H0V29.521c0-1.328 1.076-2.404 2.403-2.404z" transform="translate(-975.000000, -5272.000000) translate(975.000000, 5190.000000) translate(-153.000000, 82.000000) translate(0.000000, 2.000000) translate(271.502264, 85.498925)"/>
                                <path fill="#1AE3BB" d="M34.573 68.836h20.929c1.327 0 2.403 1.076 2.403 2.404V200.25H32.17V71.24c0-1.328 1.076-2.404 2.403-2.404z" transform="translate(-975.000000, -5272.000000) translate(975.000000, 5190.000000) translate(-153.000000, 82.000000) translate(0.000000, 2.000000) translate(271.502264, 85.498925)"/>
                                <path fill="#FC5AA1" d="M66.743 0h20.929c1.327 0 2.403 1.076 2.403 2.403v197.848H64.34V2.403C64.34 1.076 65.415 0 66.743 0z" transform="translate(-975.000000, -5272.000000) translate(975.000000, 5190.000000) translate(-153.000000, 82.000000) translate(0.000000, 2.000000) translate(271.502264, 85.498925)"/>
                                <path fill="#A166F1" d="M98.912 81.352h20.93c1.327 0 2.403 1.076 2.403 2.404V200.25H96.509V83.756c0-1.328 1.076-2.404 2.403-2.404z" transform="translate(-975.000000, -5272.000000) translate(975.000000, 5190.000000) translate(-153.000000, 82.000000) translate(0.000000, 2.000000) translate(271.502264, 85.498925)"/>
                            </g>
                            <g>
                                <path fill="#60C0F7" d="M2.403 20.939H23.22c1.327 0 2.403 1.076 2.403 2.403v121.134H0V23.342c0-1.327 1.076-2.403 2.403-2.403z" transform="translate(-975.000000, -5272.000000) translate(975.000000, 5190.000000) translate(-153.000000, 82.000000) translate(0.000000, 2.000000) translate(507.445983, 141.124731)"/>
                                <path fill="#1AE3BB" d="M34.43 50.253h20.816c1.327 0 2.404 1.076 2.404 2.403v91.82H32.028v-91.82c0-1.327 1.076-2.403 2.403-2.403z" transform="translate(-975.000000, -5272.000000) translate(975.000000, 5190.000000) translate(-153.000000, 82.000000) translate(0.000000, 2.000000) translate(507.445983, 141.124731)"/>
                                <path fill="#FC5AA1" d="M66.458 0h20.816c1.327 0 2.403 1.076 2.403 2.403v142.073H64.055V2.403C64.055 1.076 65.131 0 66.458 0z" transform="translate(-975.000000, -5272.000000) translate(975.000000, 5190.000000) translate(-153.000000, 82.000000) translate(0.000000, 2.000000) translate(507.445983, 141.124731)"/>
                                <path fill="#A166F1" d="M98.486 58.628h20.815c1.327 0 2.404 1.076 2.404 2.404v83.444H96.083V61.032c0-1.328 1.076-2.404 2.403-2.404z" transform="translate(-975.000000, -5272.000000) translate(975.000000, 5190.000000) translate(-153.000000, 82.000000) translate(0.000000, 2.000000) translate(507.445983, 141.124731)"/>
                            </g>
                            <g fill="#60C0F7">
                                <path d="M2.403 14.623h20.993c1.327 0 2.403 1.076 2.403 2.404v83.246H0V17.027c0-1.328 1.076-2.404 2.403-2.404z" transform="translate(-975.000000, -5272.000000) translate(975.000000, 5190.000000) translate(-153.000000, 82.000000) translate(0.000000, 2.000000) translate(735.994239, 185.419355)"/>
                            </g>
                        </g>
                    </g>
                    <path fill="url(#6x5dytmija)" d="M198.284 225.2H919.317V299H198.284z" transform="translate(-975.000000, -5272.000000) translate(975.000000, 5190.000000) translate(-153.000000, 82.000000)"/>
                </g>
            </g>
        </g>
    </g>
</svg>
