<svg xmlns="http://www.w3.org/2000/svg" width="585" height="292" viewBox="0 0 585 292">
    <defs>
        <linearGradient id="5bwzevfmna" x1="50%" x2="50%" y1="13.632%" y2="50%">
            <stop offset="0%" stop-color="#FFF" stop-opacity="0"/>
            <stop offset="100%" stop-color="#FFF"/>
        </linearGradient>
    </defs>
    <g fill="none" fill-rule="evenodd">
        <g>
            <g>
                <g>
                    <g>
                        <g opacity=".15">
                            <g>
                                <path stroke="#BCD7E1" d="M730 0L730 291.576 0 291.576 0 0" transform="translate(-975.000000, -810.000000) translate(975.000000, 728.000000) translate(-83.000000, 30.000000) translate(0.000000, 52.000000) translate(0.000000, 26.000000)"/>
                                <path stroke="#00A5ED" d="M466.546 0.82L466.546 291.18" transform="translate(-975.000000, -810.000000) translate(975.000000, 728.000000) translate(-83.000000, 30.000000) translate(0.000000, 52.000000) translate(0.000000, 26.000000)"/>
                                <g>
                                    <g>
                                        <path stroke="#14A9E5" stroke-linecap="round" stroke-linejoin="round" stroke-width="2" d="M6.088 47.573L100.691 117.292 146.513 77.101 221.549 63.759 290.166 6.562 328.708 77.101 442.717 134.517 475.44 93.506 542.171 41.011 614.942 86.732 674.349 100.067" transform="translate(-975.000000, -810.000000) translate(975.000000, 728.000000) translate(-83.000000, 30.000000) translate(0.000000, 52.000000) translate(0.000000, 26.000000) translate(23.829342, 16.404494) translate(0.000000, 42.651685)"/>
                                        <g fill="#14A9E5" transform="translate(-975.000000, -810.000000) translate(975.000000, 728.000000) translate(-83.000000, 30.000000) translate(0.000000, 52.000000) translate(0.000000, 26.000000) translate(23.829342, 16.404494) translate(0.000000, 42.651685)">
                                            <ellipse cx="616.132" cy="86.944" rx="6.469" ry="6.562"/>
                                            <ellipse cx="541.743" cy="41.011" rx="6.469" ry="6.562"/>
                                            <ellipse cx="475.44" cy="93.506" rx="6.469" ry="6.562"/>
                                            <ellipse cx="441.456" cy="132.876" rx="6.469" ry="6.562"/>
                                            <ellipse cx="326.663" cy="75.461" rx="6.469" ry="6.562"/>
                                            <ellipse cx="291.086" cy="6.562" rx="6.469" ry="6.562"/>
                                            <ellipse cx="221.549" cy="62.337" rx="6.469" ry="6.562"/>
                                            <ellipse cx="150.394" cy="75.461" rx="6.469" ry="6.562"/>
                                            <ellipse cx="100.287" cy="114.831" rx="6.469" ry="6.562"/>
                                        </g>
                                    </g>
                                    <g>
                                        <path stroke="#00E7DB" stroke-dasharray="4" stroke-linecap="round" stroke-linejoin="round" d="M6.088 109.91l94.603 69.72 53.365-125.495 73.961-8.202 73.2-41.012 76.005 159.124 63.611 32.809 67.378-42.652 75.197-108.27 31.534 103.137 59.407 13.335" transform="translate(-975.000000, -810.000000) translate(975.000000, 728.000000) translate(-83.000000, 30.000000) translate(0.000000, 52.000000) translate(0.000000, 26.000000) translate(23.829342, 16.404494) translate(0.000000, 27.887640)"/>
                                        <g fill="#00E7DB" transform="translate(-975.000000, -810.000000) translate(975.000000, 728.000000) translate(-83.000000, 30.000000) translate(0.000000, 52.000000) translate(0.000000, 26.000000) translate(23.829342, 16.404494) translate(0.000000, 27.887640)">
                                            <ellipse cx="616.132" cy="149.281" rx="6.469" ry="6.562"/>
                                            <ellipse cx="582.172" cy="47.573" rx="6.469" ry="6.562"/>
                                            <ellipse cx="509.4" cy="154.202" rx="6.469" ry="6.562"/>
                                            <ellipse cx="443.097" cy="196.854" rx="6.469" ry="6.562"/>
                                            <ellipse cx="375.177" cy="162.404" rx="6.469" ry="6.562"/>
                                            <ellipse cx="300.789" cy="6.562" rx="6.469" ry="6.562"/>
                                            <ellipse cx="226.4" cy="45.933" rx="6.469" ry="6.562"/>
                                            <ellipse cx="153.629" cy="54.135" rx="6.469" ry="6.562"/>
                                            <ellipse cx="98.646" cy="177.169" rx="6.469" ry="6.562"/>
                                        </g>
                                    </g>
                                    <g>
                                        <path stroke="#FE9CC7" stroke-dasharray="4" stroke-linecap="round" stroke-linejoin="round" d="M6.088 31.169l94.603 69.719 54.983-92.686 76.005 13.944 94.984-16.404 50.56 79.561h65.874l65.114-9.842 61.664-37.73 52.725-3.282 53.424 29.529" transform="translate(-975.000000, -810.000000) translate(975.000000, 728.000000) translate(-83.000000, 30.000000) translate(0.000000, 52.000000) translate(0.000000, 26.000000) translate(23.829342, 16.404494)"/>
                                        <g fill="#FC5AA1" transform="translate(-975.000000, -810.000000) translate(975.000000, 728.000000) translate(-83.000000, 30.000000) translate(0.000000, 52.000000) translate(0.000000, 26.000000) translate(23.829342, 16.404494)">
                                            <ellipse cx="620.983" cy="34.449" rx="6.469" ry="6.562"/>
                                            <ellipse cx="574.086" cy="36.09" rx="6.469" ry="6.562"/>
                                            <ellipse cx="509.4" cy="75.461" rx="6.469" ry="6.562"/>
                                            <ellipse cx="443.097" cy="85.303" rx="6.469" ry="6.562"/>
                                            <ellipse cx="376.794" cy="83.663" rx="6.469" ry="6.562"/>
                                            <ellipse cx="325.046" cy="6.562" rx="6.469" ry="6.562"/>
                                            <ellipse cx="231.252" cy="21.326" rx="6.469" ry="6.562"/>
                                            <ellipse cx="156.863" cy="6.562" rx="6.469" ry="6.562"/>
                                            <ellipse cx="98.646" cy="98.427" rx="6.469" ry="6.562"/>
                                        </g>
                                    </g>
                                </g>
                            </g>
                            <g>
                                <path fill="#FFF" stroke="#00E7DB" d="M102.368-81.563l7.08 10.899H122.5c.414 0 .79.168 1.06.44.272.27.44.646.44 1.06h0V122.5c0 .414-.168.79-.44 1.06-.27.272-.646.44-1.06.44h0-38c-.414 0-.79-.168-1.06-.44-.272-.27-.44-.646-.44-1.06h0V-69.164c0-.414.168-.79.44-1.06.27-.272.646-.44 1.06-.44h11.198l6.67-10.899z" transform="translate(-975.000000, -810.000000) translate(975.000000, 728.000000) translate(-83.000000, 30.000000) translate(0.000000, 52.000000) translate(0.000000, 26.000000) translate(246.000000, 220.000000) translate(103.500000, 21.000000) rotate(-270.000000) translate(-103.500000, -21.000000)"/>
                                <path fill="#666" fill-rule="nonzero" d="M23.166 27.307c3.63 0 5.82-2.503 5.82-6.661v-.316c0-4.335-2.19-6.68-5.76-6.68-3.65 0-5.84 2.503-5.84 6.66v.316c0 4.335 2.19 6.68 5.78 6.68zm.04-1.281c-2.96 0-4.143-2.208-4.143-5.4v-.61c0-2.957 1.361-5.085 4.084-5.085 2.998.02 4.162 2.187 4.162 5.4v.61c0 2.937-1.361 5.085-4.103 5.085zm9.666 1.064v-7.942c.809-.374 1.835-.71 2.762-.71 1.558 0 1.973.493 1.973 1.676v6.976h1.499v-7.292c0-1.891-.927-2.66-2.84-2.66-1.204 0-2.467.434-3.374 1.025h-.08v-.848h-1.44v9.775h1.5zm18.465 0c4.3 0 6.233-2.424 6.233-6.582v-.375c0-4.217-2.229-6.266-6.253-6.266H47.39V27.09h3.946zm.039-1.34H48.95V15.207h2.209c3.038 0 4.715 1.261 4.715 4.926v.592c0 3.527-1.381 5.025-4.498 5.025zm12.606 1.517c1.578 0 2.702-.493 3.294-.906v-1.124c-.888.414-1.756.73-3.058.73-2.09 0-3.255-.946-3.333-3.39h6.667v-.847c0-3.035-1.262-4.592-3.945-4.592-2.249 0-4.261 1.517-4.261 4.927v.275c0 3.055 1.558 4.927 4.636 4.927zm1.992-5.892h-5.09c.158-2.306 1.46-3.015 2.683-3.015 1.598 0 2.407.887 2.407 3.015zm5.346 5.715v-7.942c.79-.374 1.657-.71 2.486-.71 1.302 0 1.775.493 1.775 1.676v6.976h1.5v-7.292c0-.236-.02-.413-.06-.65.927-.414 1.756-.71 2.525-.71 1.322 0 1.796.493 1.796 1.676v6.976h1.48v-7.292c0-1.891-.987-2.66-2.684-2.66-1.105 0-2.249.394-3.314 1.084h-.079c-.454-.73-1.243-1.084-2.347-1.084-1.105 0-2.15.453-3.058 1.025h-.079v-.848h-1.44v9.775h1.5zm16.729.177c1.322 0 2.15-.473 2.604-1.025h.098l.158.848h1.223v-7.075c0-1.99-1.203-2.877-3.353-2.877-1.125 0-2.072.177-2.92.532v1.084c.612-.177 1.381-.315 2.328-.315 1.756 0 2.426.394 2.426 1.911v1.025l-2.643.315c-1.874.217-2.979 1.123-2.979 2.838 0 1.833 1.282 2.74 3.058 2.74zm.375-1.182c-1.125 0-1.855-.532-1.855-1.597 0-1.123.592-1.615 1.795-1.734l2.25-.256v2.877c-.415.414-1.283.71-2.19.71zm8.048 1.005v-7.942c.81-.374 1.835-.71 2.762-.71 1.559 0 1.973.493 1.973 1.676v6.976h1.5v-7.292c0-1.891-.928-2.66-2.842-2.66-1.203 0-2.466.434-3.373 1.025h-.079v-.848h-1.44v9.775h1.5zm12.566.177c1.322 0 2.27-.414 2.86-.985h.08l.177.808h1.263V12.98h-1.52v4.808c-.532-.315-1.36-.65-2.564-.65-2.525 0-4.36 1.537-4.36 5.084v.256c0 3.607 2.111 4.79 4.064 4.79zm.454-1.241c-1.756 0-2.94-.867-2.94-3.607v-.394c0-2.64 1.125-3.606 2.98-3.606 1.006 0 1.913.276 2.367.63v6.149c-.493.394-1.263.828-2.407.828z" transform="translate(-975.000000, -810.000000) translate(975.000000, 728.000000) translate(-83.000000, 30.000000) translate(0.000000, 52.000000) translate(0.000000, 26.000000) translate(246.000000, 220.000000)"/>
                                <path fill="#00E7DB" fill-rule="nonzero" d="M154.704 28.709V12.822h-1.496l-4.004 1.794v1.655l2.646-.529V28.71h2.854zm8.63 0V12.822h-1.495l-4.005 1.794v1.655l2.647-.529V28.71h2.854zm7.458.138c3.59 0 5.73-2.276 5.73-5.196 0-3.334-1.956-4.943-5.109-4.943-.598 0-1.45.138-1.98.276l.3-3.84h6.076v-2.207h-8.24l-.575 8.668c.737-.368 2.21-.85 3.2-.85 2.163 0 3.406.827 3.406 2.827 0 1.908-1.335 2.966-3.522 2.966-1.22 0-2.416-.437-3.268-.943l-.506 2.161c1.012.621 2.693 1.08 4.488 1.08z" transform="translate(-975.000000, -810.000000) translate(975.000000, 728.000000) translate(-83.000000, 30.000000) translate(0.000000, 52.000000) translate(0.000000, 26.000000) translate(246.000000, 220.000000)"/>
                            </g>
                        </g>
                        <path fill="url(#5bwzevfmna)" d="M80.5 211.5H675.5V334.5H80.5z" transform="translate(-975.000000, -810.000000) translate(975.000000, 728.000000) translate(-83.000000, 30.000000) translate(0.000000, 52.000000) translate(378.000000, 273.000000) rotate(-360.000000) translate(-378.000000, -273.000000)"/>
                    </g>
                </g>
            </g>
        </g>
    </g>
</svg>
