<svg xmlns="http://www.w3.org/2000/svg" width="584" height="293" viewBox="0 0 584 293">
    <g fill="none" fill-rule="evenodd" opacity=".15">
        <g>
            <g>
                <g>
                    <g>
                        <g>
                            <g>
                                <path fill="#999" fill-rule="nonzero" d="M39.233 268.747v-12.012H37.67v12.012h1.562zm-6.476-2.615c1.966 0 3.11-1.766 3.11-4.274 0-2.534-1.144-4.3-3.11-4.3-1.952 0-3.096 1.766-3.096 4.3 0 2.521 1.144 4.274 3.096 4.274zm0-1.267c-.902 0-1.561-1.12-1.561-3.007 0-1.9.66-3.033 1.561-3.033.93 0 1.602 1.132 1.602 3.033 0 1.888-.673 3.007-1.602 3.007zm18.098.58v-8.71h-1.561v3.209h-1.71v1.28h1.71v4.22h1.561zm-3.877-1.982v-6.027h-1.562v1.888h-2.504v-1.86h-1.588v5.999h5.654zm-1.562-1.254h-2.504v-1.658h2.504v1.658zm5.709 6.215v-1.24H44.54v-2.549h-1.575v3.789h8.159zm10.814-5.649v-2.36h1.71v-1.293h-1.71v-2.387h-1.588v6.04h1.588zm-7.808-.283c2.221 0 4.16-.135 5.29-.418-.08-.39-.147-.809-.215-1.213-1.238.283-2.92.364-4.684.377v-2.588h3.783v-1.254H52.96v5.096h1.171zm8.158 6.16v-1.266h-6.61v-.81h6.26v-3.221h-7.916v1.24h6.328v.836h-6.233v3.222h8.171zm14.791.095v-6.093h1.723v-1.294H77.08v-4.625h-1.562v12.012h1.562zm-8.697-2.629c1.239-.728 2.45-2.238 2.841-3.6.404 1.309 1.79 2.724 2.773 3.358.323-.391.606-.782.93-1.173-1.818-1.16-2.909-3.02-2.909-5.393v-1.563H70.39v1.644c0 2.4-1.023 4.328-2.975 5.581.337.378.646.755.97 1.146zm21.787-2.332v-1.254h-2.585v-1.415c.889-.418 1.36-1.052 1.36-1.793 0-1.335-1.494-2.319-4.2-2.319-2.68 0-4.187.984-4.187 2.319 0 .714.458 1.334 1.306 1.752v1.456h-2.531v1.254H90.17zm-5.425-3.37c-1.616 0-2.558-.459-2.558-1.092 0-.66.942-1.12 2.558-1.12 1.642 0 2.585.46 2.585 1.12 0 .633-.997 1.092-2.585 1.092zm1.265 2.116H83.44v-.997c.404.054.848.094 1.32.094.443 0 .86-.027 1.251-.08v.983zm-1.252 6.229c2.652 0 4.174-.863 4.174-2.252 0-1.361-1.522-2.224-4.187-2.224-2.639 0-4.16.863-4.16 2.224 0 1.389 1.521 2.252 4.173 2.252zm-.013-1.254c-1.548 0-2.545-.364-2.545-.984s.997-.984 2.545-.984c1.561 0 2.571.364 2.571.984s-1.01.984-2.571.984zm15.58-3.532v-1.699h1.548v-1.28h-1.548v-1.322h1.548v-1.28h-1.548v-1.659h-1.588v7.24h1.588zm-7.35-.485c1.629 0 3.823-.162 4.86-.405l-.202-1.213c-.916.256-3.177.364-4.672.364v-1.267h3.743v-3.586h-5.385v1.24h3.796v1.16h-3.742v3.707h1.602zm3.379 5.257c2.612 0 4.12-.89 4.12-2.305 0-1.416-1.508-2.319-4.12-2.319-2.598 0-4.106.903-4.106 2.319 0 1.415 1.508 2.305 4.106 2.305zm0-1.24c-1.575 0-2.49-.431-2.49-1.065 0-.634.915-1.079 2.49-1.079 1.602 0 2.49.445 2.49 1.079 0 .634-.888 1.065-2.49 1.065z" transform="translate(-360.000000, -4847.000000) translate(360.000000, 4765.000000) translate(0.000000, 30.000000) translate(0.000000, 52.000000) translate(30.909023, 12.169789)"/>
                                <g>
                                    <g>
                                        <g>
                                            <path fill="#2CC2FD" d="M132.993 -22.331L179.658 -22.331 179.658 153.717 132.993 153.717z" transform="translate(-360.000000, -4847.000000) translate(360.000000, 4765.000000) translate(0.000000, 30.000000) translate(0.000000, 52.000000) translate(30.909023, 12.169789) translate(65.590977, 122.241302) rotate(-270.000000) translate(-65.590977, -122.241302) translate(-56.650325, 56.650325) translate(0.000000, -0.000000) translate(0.000000, 0.000000) translate(156.325420, 65.692790) rotate(-90.000000) translate(-156.325420, -65.692790)"/>
                                            <path fill="#FC5AA1" d="M13.156 31.158H55.82c1.105 0 2 .896 2 2v66.977H11.156V33.158c0-1.104.895-2 2-2z" transform="translate(-360.000000, -4847.000000) translate(360.000000, 4765.000000) translate(0.000000, 30.000000) translate(0.000000, 52.000000) translate(30.909023, 12.169789) translate(65.590977, 122.241302) rotate(-270.000000) translate(-65.590977, -122.241302) translate(-56.650325, 56.650325) translate(0.000000, -0.000000) translate(0.000000, 0.000000) translate(34.488356, 65.646604) rotate(-90.000000) translate(-34.488356, -65.646604)"/>
                                            <path stroke="#E9EBED" d="M243.965 131.182L243.965 0" transform="translate(-360.000000, -4847.000000) translate(360.000000, 4765.000000) translate(0.000000, 30.000000) translate(0.000000, 52.000000) translate(30.909023, 12.169789) translate(65.590977, 122.241302) rotate(-270.000000) translate(-65.590977, -122.241302) translate(-56.650325, 56.650325) translate(0.000000, -0.000000) translate(0.000000, 0.000000)"/>
                                        </g>
                                    </g>
                                </g>
                            </g>
                            <g fill-rule="nonzero">
                                <g>
                                    <g>
                                        <path fill="#4A4A4A" d="M8.51 50.295V28.774H6.488l-5.414 2.43v2.242l3.578-.717v17.566H8.51zm17.153.218v-4.36h3.142v-2.834h-3.142V28.805h-2.614L12.254 43.91v2.243h9.8v4.36h3.609zm-3.578-7.194h-5.662l5.662-8.036v8.036zm14.663 7.163c4.854 0 7.747-3.083 7.747-7.039 0-4.516-2.644-6.696-6.907-6.696-.808 0-1.96.187-2.675.374l.404-5.201h8.214v-2.99H32.393l-.778 11.741c.996-.498 2.987-1.152 4.325-1.152 2.924 0 4.604 1.121 4.604 3.83 0 2.586-1.804 4.018-4.76 4.018-1.649 0-3.267-.591-4.418-1.276l-.684 2.927c1.369.841 3.64 1.464 6.066 1.464zm15.566.84L66.781 28.65h-2.302L50.012 51.323h2.302zm-.59-10.9c2.986 0 4.853-2.367 4.853-5.637v-.53c0-3.27-1.867-5.388-4.854-5.388-3.018 0-4.884 2.336-4.884 5.606v.53c0 3.332 1.866 5.42 4.884 5.42zm0-1.744c-1.65 0-2.49-1.152-2.49-3.675v-.779c0-2.46.903-3.581 2.49-3.581 1.555 0 2.457 1.152 2.457 3.612v.779c0 2.492-.84 3.644-2.458 3.644zm13.657 11.71c3.018 0 4.853-2.335 4.853-5.606v-.53c0-3.3-1.835-5.387-4.853-5.387-2.987 0-4.884 2.336-4.884 5.575v.53c0 3.332 1.897 5.419 4.884 5.419zm0-1.712c-1.618 0-2.489-1.153-2.489-3.707v-.747c0-2.46.933-3.613 2.489-3.613 1.556 0 2.458 1.183 2.458 3.644V45c0 2.523-.84 3.676-2.458 3.676z" transform="translate(-360.000000, -4847.000000) translate(360.000000, 4765.000000) translate(0.000000, 30.000000) translate(0.000000, 52.000000) translate(30.909023, 12.169789) translate(153.198829, 1.329326)"/>
                                        <path fill="#999" d="M9.68 12.025v-6.1h1.725V4.629H9.68V0H8.116v12.025H9.68zM.97 9.393c1.241-.728 2.454-2.24 2.845-3.603.405 1.309 1.793 2.726 2.777 3.36.324-.391.607-.782.93-1.174-1.82-1.16-2.911-3.023-2.911-5.398V1.012H2.979V2.66C2.98 5.06 1.955 6.99 0 8.246c.337.378.647.756.97 1.147zM22.789 7.06V5.803H20.2V4.386c.89-.418 1.361-1.052 1.361-1.795 0-1.336-1.496-2.321-4.206-2.321-2.683 0-4.193.985-4.193 2.321 0 .716.459 1.336 1.308 1.755v1.457h-2.534V7.06h10.852zm-5.433-3.375c-1.618 0-2.561-.458-2.561-1.093 0-.661.943-1.12 2.561-1.12 1.645 0 2.589.459 2.589 1.12 0 .635-.998 1.093-2.589 1.093zm1.267 2.12h-2.575v-1c.405.055.85.095 1.322.095.445 0 .862-.027 1.253-.08v.984zm-1.253 6.235c2.655 0 4.179-.864 4.179-2.254 0-1.363-1.524-2.227-4.193-2.227-2.642 0-4.166.864-4.166 2.227 0 1.39 1.524 2.254 4.18 2.254zm-.014-1.256c-1.55 0-2.548-.364-2.548-.985 0-.62.998-.985 2.548-.985 1.564 0 2.575.364 2.575.985s-1.011.985-2.575.985zm16.142 1.242V0h-1.564v12.025h1.564zm-3.653-2.97V.946h-1.591V3.86h-2.521V.972h-1.564v8.084h5.676zm-1.591-1.24h-2.521V5.101h2.52v2.712zM40.66 4.507c2.71 0 4.247-.864 4.247-2.146 0-1.31-1.537-2.16-4.247-2.16-2.723 0-4.247.85-4.247 2.16 0 1.282 1.524 2.146 4.247 2.146zm0-1.188c-1.672 0-2.615-.418-2.615-.958 0-.554.943-.958 2.615-.958 1.672 0 2.629.404 2.629.958 0 .54-.957.958-2.629.958zm4.409 8.651v-1.296h-6.903v-.58h6.471V7.1h-1.334v-.958h2.763V4.94H35.214v1.2h2.723V7.1H36.52v1.255h6.552v.621h-6.47v2.996h8.466zM41.725 7.1h-2.21v-.958h2.21v.958z" transform="translate(-360.000000, -4847.000000) translate(360.000000, 4765.000000) translate(0.000000, 30.000000) translate(0.000000, 52.000000) translate(30.909023, 12.169789) translate(153.198829, 1.329326)"/>
                                    </g>
                                    <g>
                                        <path fill="#4A4A4A" d="M7.073 50.482c4.853 0 7.87-2.46 7.87-6.385 0-3.177-1.866-4.703-4.542-5.232 2.334-.81 3.827-2.43 3.827-4.983 0-3.426-2.675-5.295-6.627-5.295-2.084 0-4.666.592-5.973 1.34l.436 2.833c1.275-.591 2.955-1.12 4.542-1.12 2.333 0 3.795.778 3.795 2.927 0 1.993-1.648 3.114-4.106 3.177l-1.96.03v2.773l2.209.062c2.706.031 4.417.965 4.417 3.24 0 2.397-1.68 3.58-4.542 3.58-1.586 0-3.889-.529-4.978-1.214L.82 48.987c1.214.779 3.702 1.495 6.254 1.495zm19.237.062c4.449 0 8.244-2.834 8.244-10.34v-1.34c0-7.505-3.795-10.277-8.213-10.277-4.387 0-8.307 2.74-8.307 10.371v1.34c0 7.256 3.609 10.246 8.276 10.246zm0-2.927c-2.894 0-4.294-2.367-4.294-7.32v-1.65c0-4.983 1.431-7.101 4.325-7.101 2.8 0 4.262 2.242 4.262 7.319v1.588c0 5.108-1.431 7.164-4.293 7.164zm24.806 2.554v-2.99H42.56l2.52-2.585c2.613-2.71 5.849-6.105 5.849-9.905 0-3.862-2.396-6.104-7.062-6.104-2.458 0-4.636.779-6.067 1.62l.622 2.834c1.182-.717 2.925-1.433 4.418-1.433 2.707 0 4.107.997 4.107 3.582 0 2.678-2.365 5.326-5.32 8.44l-4.076 4.298v2.243h13.565zm24.899-3.987V26.407h-2.77v8.378h-5.661v2.273h5.662v9.126h2.769zm-20.751-3.052c7.124-2.087 11.853-7.164 12.102-14.576H55.17v2.273h9.178c-.778 4.766-4.853 8.659-10.484 10.06l1.4 2.243zm21.373 9.81V50.7H61.019v-6.354H58.25v8.596h18.387z" transform="translate(-360.000000, -4847.000000) translate(360.000000, 4765.000000) translate(0.000000, 30.000000) translate(0.000000, 52.000000) translate(30.909023, 12.169789) translate(153.198829, 1.329326) translate(0.161778, 103.816794)"/>
                                        <path fill="#999" d="M10.07 7.342V0H8.494v1.714H6.997v1.188h1.496v1.133H6.997v1.188h1.496v2.119h1.578zM6.54 2.078V.823H.35v1.255h6.188zM.216 7.032c2.494 0 5.284-.176 6.794-.432l-.134-1.215c-.432.081-.917.135-1.443.175l.283-2.834-1.51-.148-.148 3.063-1.2.04-.135-3.117-1.55.176.27 2.969C.93 5.722.445 5.722 0 5.722l.216 1.31zm5.608 4.912c2.71 0 4.274-.864 4.274-2.28 0-1.431-1.564-2.295-4.274-2.295-2.696 0-4.26.864-4.26 2.294 0 1.417 1.564 2.281 4.26 2.281zm0-1.255c-1.618 0-2.615-.391-2.615-1.026 0-.648.997-1.039 2.615-1.039 1.645 0 2.615.391 2.615 1.04 0 .634-.97 1.025-2.615 1.025zm10.978-1.552V6.289h1.564v2.848h1.564V6.289h2.696V5.034H20.86c.297-1.174.378-2.605.378-4.494h-8.062V1.78h6.484c.014 1.229-.094 2.335-.323 3.253h-7.563V6.29h3.465v2.848h1.563zM21.4 11.7V10.46h-6.687V7.95h-1.564V11.7h8.25zm14.92.324v-6.1h1.725V4.629h-1.726V0h-1.564v12.025h1.564zm-8.71-2.632c1.24-.728 2.454-2.24 2.845-3.603.404 1.309 1.793 2.726 2.777 3.36.323-.391.607-.782.93-1.174-1.82-1.16-2.912-3.023-2.912-5.398V1.012H29.62V2.66c0 2.402-1.025 4.332-2.98 5.587.337.378.648.756.971 1.147zM49.428 7.06V5.803h-2.589V4.386c.89-.418 1.362-1.052 1.362-1.795C48.2 1.255 46.704.27 43.995.27c-2.683 0-4.193.985-4.193 2.321 0 .716.458 1.336 1.308 1.755v1.457h-2.535V7.06h10.853zm-5.433-3.375c-1.618 0-2.562-.458-2.562-1.093 0-.661.944-1.12 2.562-1.12 1.644 0 2.588.459 2.588 1.12 0 .635-.998 1.093-2.588 1.093zm1.267 2.12h-2.575v-1c.404.055.85.095 1.321.095.445 0 .863-.027 1.254-.08v.984zm-1.254 6.235c2.656 0 4.18-.864 4.18-2.254 0-1.363-1.524-2.227-4.193-2.227-2.643 0-4.166.864-4.166 2.227 0 1.39 1.523 2.254 4.179 2.254zm-.013-1.256c-1.55 0-2.548-.364-2.548-.985 0-.62.997-.985 2.548-.985 1.563 0 2.575.364 2.575.985s-1.012.985-2.575.985zm15.602-3.536v-1.7h1.55V4.265h-1.55V2.942h1.55V1.66h-1.55V0h-1.59v7.247h1.59zm-7.36-.485c1.63 0 3.828-.162 4.866-.405l-.202-1.215c-.917.256-3.182.364-4.678.364V4.238h3.748V.648h-5.393v1.241h3.802V3.05h-3.748v3.712h1.604zm3.383 5.263c2.616 0 4.125-.89 4.125-2.308 0-1.417-1.51-2.321-4.125-2.321-2.602 0-4.112.904-4.112 2.321 0 1.417 1.51 2.308 4.112 2.308zm0-1.242c-1.577 0-2.494-.431-2.494-1.066 0-.634.917-1.08 2.494-1.08 1.604 0 2.494.446 2.494 1.08 0 .635-.89 1.066-2.494 1.066z" transform="translate(-360.000000, -4847.000000) translate(360.000000, 4765.000000) translate(0.000000, 30.000000) translate(0.000000, 52.000000) translate(30.909023, 12.169789) translate(153.198829, 1.329326) translate(0.161778, 103.816794)"/>
                                    </g>
                                    <g>
                                        <path fill="#4A4A4A" d="M6.52 50.482c4.853 0 7.871-2.46 7.871-6.385 0-3.177-1.867-4.703-4.542-5.232 2.333-.81 3.826-2.43 3.826-4.983 0-3.426-2.675-5.295-6.626-5.295-2.085 0-4.667.592-5.974 1.34l.436 2.833c1.276-.591 2.956-1.12 4.542-1.12 2.334 0 3.796.778 3.796 2.927 0 1.993-1.65 3.114-4.107 3.177l-1.96.03v2.773l2.209.062c2.707.031 4.418.965 4.418 3.24 0 2.397-1.68 3.58-4.542 3.58-1.587 0-3.89-.529-4.978-1.214l-.622 2.772c1.213.779 3.702 1.495 6.253 1.495zm19.237.062c4.449 0 8.244-2.834 8.244-10.34v-1.34c0-7.505-3.795-10.277-8.213-10.277-4.387 0-8.307 2.74-8.307 10.371v1.34c0 7.256 3.61 10.246 8.276 10.246zm0-2.927c-2.893 0-4.293-2.367-4.293-7.32v-1.65c0-4.983 1.43-7.101 4.324-7.101 2.8 0 4.262 2.242 4.262 7.319v1.588c0 5.108-1.43 7.164-4.293 7.164zm20.046 2.927c4.449 0 8.244-2.834 8.244-10.34v-1.34c0-7.505-3.795-10.277-8.213-10.277-4.387 0-8.307 2.74-8.307 10.371v1.34c0 7.256 3.61 10.246 8.276 10.246zm0-2.927c-2.894 0-4.294-2.367-4.294-7.32v-1.65c0-4.983 1.432-7.101 4.325-7.101 2.8 0 4.262 2.242 4.262 7.319v1.588c0 5.108-1.431 7.164-4.293 7.164zm33.58-1.433V26.407h-2.77v8.378h-5.662v2.273h5.662v9.126h2.77zM58.63 43.132c7.124-2.087 11.853-7.164 12.102-14.576H58.538v2.273h9.177c-.777 4.766-4.853 8.659-10.484 10.06l1.4 2.243zm21.373 9.81V50.7H64.387v-6.354h-2.77v8.596h18.387z" transform="translate(-360.000000, -4847.000000) translate(360.000000, 4765.000000) translate(0.000000, 30.000000) translate(0.000000, 52.000000) translate(30.909023, 12.169789) translate(153.198829, 1.329326) translate(0.714519, 207.633588)"/>
                                        <path fill="#999" d="M8.965 12.025V5.911h1.685V4.616H8.965V0H7.388v12.025h1.577zM1.321 9.272c2.036 0 4.085-.135 5.352-.378L6.54 7.625c-1.55.284-3.762.351-4.908.351V5.533h3.896V1.026H0V2.28h3.95v1.997H.054v4.994H1.32zm19.822 2.753V0H19.58v12.025h1.563zM14.66 9.407c1.968 0 3.114-1.768 3.114-4.278 0-2.538-1.146-4.306-3.114-4.306-1.955 0-3.1 1.768-3.1 4.306 0 2.523 1.145 4.278 3.1 4.278zm0-1.269c-.903 0-1.564-1.12-1.564-3.01 0-1.902.66-3.036 1.564-3.036.93 0 1.604 1.134 1.604 3.037 0 1.889-.674 3.01-1.604 3.01zm18.137.58V0h-1.577v2.767h-2.063v1.268h2.063V8.72h1.577zm-9.167-1.35c1.132-.377 2.426-1.632 2.79-2.86.526 1.12 1.78 2.2 2.697 2.537.283-.405.593-.81.89-1.228-1.403-.459-2.778-1.957-2.778-3.793V.688h-1.645v1.417c0 1.795-1.132 3.361-2.885 4.009l.93 1.255zm9.423 4.333v-1.255h-6.606V7.922h-1.564v3.78h8.17zm2.445-4.885c1.658-.365 3.802-1.647 4.422-3.267.687 1.58 2.763 2.835 4.408 3.213l.796-1.229c-1.834-.31-4.368-1.889-4.368-4.008V.73H39.11v.796c0 2.132-2.386 3.725-4.355 4.008l.742 1.283zm9.855 3.644V9.204H34.499v1.256h10.853zm14.528 1.565V0h-1.496v12.025h1.496zm-2.4-.553V.229h-1.469v2.93h-1.227V4.44h1.227v1.7h-1.523v1.283h1.523v4.049h1.47zm-7.09-1.795c2.925-1.93 4.286-4.67 4.273-8.26H50.12v1.269h3.02c-.19 2.389-1.456 4.494-3.775 5.898l1.024 1.093zm20.307-2.645V5.479h1.577V4.17h-1.577V2.767h1.577V1.47h-1.577V0h-1.604v7.032h1.604zm-6.242-.702c1.753 0 3.1-1.08 3.1-2.78 0-1.688-1.36-2.875-3.1-2.875s-3.114 1.214-3.114 2.874c0 1.701 1.402 2.78 3.114 2.78zm0-1.201c-.944 0-1.564-.648-1.564-1.593 0-.85.62-1.566 1.564-1.566.984 0 1.59.689 1.59 1.566 0 .918-.646 1.593-1.59 1.593zm6.255 6.91V7.625h-7.9V8.88h6.31v3.159h1.59z" transform="translate(-360.000000, -4847.000000) translate(360.000000, 4765.000000) translate(0.000000, 30.000000) translate(0.000000, 52.000000) translate(30.909023, 12.169789) translate(153.198829, 1.329326) translate(0.714519, 207.633588)"/>
                                    </g>
                                </g>
                            </g>
                            <g>
                                <path fill="#999" fill-rule="nonzero" d="M10.537 12V0h-1.5v12h1.5zm-2.405-.553V.23H6.66V3.15H5.43v1.28h1.23v1.697H5.133v1.28H6.66v4.04h1.472zm-7.105-1.79c2.931-1.927 4.295-4.66 4.282-8.243H.756V2.68h3.026C3.593 5.064 2.323 7.165 0 8.565l1.027 1.091zm20.889-2.52V0h-1.58v2.869h-1.811v1.266h1.81v3.003h1.58zm-9.092-.188c1.162-.404 2.432-1.535 2.797-2.693.513 1.09 1.688 1.993 2.607 2.343.283-.417.58-.821.85-1.239-1.31-.43-2.525-1.549-2.647-3.219h2.283V.848h-6.336v1.293h2.392c-.095 1.71-1.203 2.977-2.891 3.583.324.404.621.808.945 1.225zm4.958 5.024c2.661 0 4.215-.916 4.215-2.37 0-1.495-1.554-2.411-4.215-2.411-2.661 0-4.215.916-4.215 2.41 0 1.455 1.554 2.37 4.215 2.37zm0-1.253c-1.635 0-2.594-.417-2.594-1.118 0-.727.96-1.144 2.594-1.144 1.662 0 2.607.417 2.607 1.144 0 .7-.945 1.118-2.607 1.118zm15.783-4.66V0h-1.567v1.468h-1.743v1.185h1.743v1.064h-1.743v1.185h1.743V6.06h1.567zm-3.89-.35V.498h-1.581v1.468h-2.5V.512H24V5.71h5.674zm-1.581-1.252h-2.5V3.205h2.5v1.253zm5.849 7.447V10.64h-6.7v-.808h6.322V6.613h-7.97v1.252h6.403v.822h-6.35v3.218h8.295zM48.217 12V5.912h1.73V4.62h-1.73V0H46.65v12h1.567zM39.49 9.373c1.243-.727 2.459-2.235 2.85-3.595.406 1.306 1.797 2.72 2.784 3.353.324-.39.607-.781.932-1.172-1.824-1.158-2.918-3.016-2.918-5.387V1.01h-1.635v1.643c0 2.397-1.026 4.323-2.985 5.576.338.377.648.754.972 1.144zm21.862-2.33V5.792h-2.594V4.377c.892-.418 1.365-1.05 1.365-1.791 0-1.334-1.5-2.317-4.215-2.317-2.688 0-4.201.983-4.201 2.317 0 .714.46 1.333 1.31 1.75v1.455h-2.54v1.253h10.875zm-5.444-3.366c-1.621 0-2.567-.458-2.567-1.091 0-.66.946-1.118 2.567-1.118 1.648 0 2.594.458 2.594 1.118 0 .633-1 1.09-2.594 1.09zm1.27 2.114h-2.58v-.997c.405.054.85.095 1.323.095.446 0 .865-.027 1.257-.081v.983zm-1.257 6.222c2.662 0 4.188-.862 4.188-2.249 0-1.36-1.526-2.222-4.201-2.222-2.648 0-4.174.862-4.174 2.222 0 1.387 1.526 2.25 4.187 2.25zm-.013-1.252c-1.554 0-2.553-.364-2.553-.984 0-.619 1-.983 2.553-.983 1.567 0 2.58.364 2.58.983 0 .62-1.013.984-2.58.984zm15.634-3.529V5.535h1.554v-1.28h-1.554v-1.32h1.554V1.658h-1.554V0h-1.594v7.232h1.594zm-7.376-.485c1.635 0 3.837-.161 4.877-.404l-.203-1.212c-.918.256-3.188.364-4.687.364V4.229h3.755V.646h-5.403v1.24h3.81v1.158h-3.756v3.703h1.607zM67.557 12c2.62 0 4.134-.89 4.134-2.303 0-1.414-1.513-2.317-4.134-2.317-2.607 0-4.12.903-4.12 2.317 0 1.414 1.513 2.303 4.12 2.303zm0-1.24c-1.58 0-2.5-.43-2.5-1.063s.92-1.078 2.5-1.078c1.608 0 2.5.445 2.5 1.078s-.892 1.064-2.5 1.064z" transform="translate(-360.000000, -4847.000000) translate(360.000000, 4765.000000) translate(0.000000, 30.000000) translate(0.000000, 52.000000) translate(30.909023, 12.169789) translate(267.199047, 7.326153)"/>
                                <path fill="#4A4A4A" fill-rule="nonzero" d="M2.758 42.587c.975 0 1.571-.32 1.935-.74h.087l.13.61h1.383V37.09c0-1.552-1.004-2.22-2.735-2.22-.975 0-1.775.131-2.473.407v1.146c.45-.102 1.09-.203 1.818-.203 1.266 0 1.717.232 1.717 1.247v.566l-1.76.203c-1.484.217-2.4.855-2.4 2.233 0 1.436.945 2.118 2.298 2.118zm.509-1.175c-.684 0-1.164-.32-1.164-1.03 0-.754.393-1.059 1.135-1.117l1.382-.145v1.842c-.276.261-.815.45-1.353.45zm8.108 1.175c1.033 0 1.731-.276 2.211-.58v-1.219c-.378.174-1.004.464-1.92.464-1.426 0-2.139-.725-2.139-2.436v-.334c0-1.494.771-2.277 2.023-2.277.887 0 1.338.16 1.964.406v-1.305c-.48-.261-1.077-.45-2.066-.45-2.08 0-3.652 1.219-3.652 3.8v.232c0 2.466 1.368 3.699 3.579 3.699zm6.799 0c1.033 0 1.73-.276 2.211-.58v-1.219c-.378.174-1.004.464-1.92.464-1.426 0-2.139-.725-2.139-2.436v-.334c0-1.494.771-2.277 2.022-2.277.888 0 1.339.16 1.964.406v-1.305c-.48-.261-1.076-.45-2.066-.45-2.08 0-3.651 1.219-3.651 3.8v.232c0 2.466 1.367 3.699 3.579 3.699zm6.77 0c2.094 0 3.549-1.378 3.549-3.786v-.203c0-2.378-1.295-3.742-3.535-3.742-2.11 0-3.564 1.393-3.564 3.786v.232c0 2.335 1.265 3.713 3.55 3.713zm.028-1.262c-1.047 0-1.862-.522-1.862-2.451v-.348c0-1.61.67-2.408 1.819-2.408 1.018 0 1.818.522 1.818 2.466v.362c0 1.61-.654 2.379-1.775 2.379zm7.265 1.262c.945 0 1.673-.334 2.298-.783h.073l.145.652h1.455v-7.47h-1.673v5.802c-.48.218-1.018.45-1.673.45-.93 0-1.222-.334-1.222-1.146v-5.105h-1.673v5.424c0 1.465.815 2.176 2.27 2.176zm7.584-.13v-5.802c.45-.218 1.105-.406 1.687-.406 1.019 0 1.266.304 1.266 1.058v5.15h1.688v-5.541c0-1.48-.742-2.06-2.183-2.06-.902 0-1.818.334-2.458.798h-.058v-.667h-1.615v7.47h1.673zm9.112.086c.698 0 1.105-.16 1.396-.304v-1.117c-.262.072-.567.116-.858.116-.786 0-1.018-.232-1.018-.856v-4.09h1.789v-1.305h-1.79v-1.755H46.81v1.755H45.76v1.305h1.048v4.322c0 1.407.829 1.93 2.124 1.93zm5.94-.029V32.492h-.946l-2.53 1.131v1.045l1.672-.334v8.18h1.804zM2.758 84.026c.975 0 1.571-.32 1.935-.74h.087l.13.609h1.383v-5.366c0-1.552-1.004-2.22-2.735-2.22-.975 0-1.775.131-2.473.407v1.146c.45-.102 1.09-.204 1.818-.204 1.266 0 1.717.233 1.717 1.248v.565l-1.76.203c-1.484.218-2.4.856-2.4 2.234 0 1.436.945 2.118 2.298 2.118zm.509-1.175c-.684 0-1.164-.32-1.164-1.03 0-.754.393-1.059 1.135-1.117l1.382-.145v1.842c-.276.261-.815.45-1.353.45zm8.108 1.175c1.033 0 1.731-.276 2.211-.58v-1.219c-.378.174-1.004.464-1.92.464-1.426 0-2.139-.725-2.139-2.436v-.334c0-1.494.771-2.277 2.023-2.277.887 0 1.338.16 1.964.406v-1.305c-.48-.261-1.077-.45-2.066-.45-2.08 0-3.652 1.218-3.652 3.8v.232c0 2.466 1.368 3.699 3.579 3.699zm6.799 0c1.033 0 1.73-.276 2.211-.58v-1.219c-.378.174-1.004.464-1.92.464-1.426 0-2.139-.725-2.139-2.436v-.334c0-1.494.771-2.277 2.022-2.277.888 0 1.339.16 1.964.406v-1.305c-.48-.261-1.076-.45-2.066-.45-2.08 0-3.651 1.218-3.651 3.8v.232c0 2.466 1.367 3.699 3.579 3.699zm6.77 0c2.094 0 3.549-1.378 3.549-3.786v-.203c0-2.379-1.295-3.742-3.535-3.742-2.11 0-3.564 1.392-3.564 3.786v.232c0 2.335 1.265 3.713 3.55 3.713zm.028-1.262c-1.047 0-1.862-.522-1.862-2.451v-.348c0-1.61.67-2.408 1.819-2.408 1.018 0 1.818.522 1.818 2.466v.362c0 1.61-.654 2.379-1.775 2.379zm7.265 1.262c.945 0 1.673-.334 2.298-.784h.073l.145.653h1.455v-7.47h-1.673v5.802c-.48.218-1.018.45-1.673.45-.93 0-1.222-.334-1.222-1.146v-5.105h-1.673v5.424c0 1.465.815 2.176 2.27 2.176zm7.584-.131v-5.801c.45-.218 1.105-.407 1.687-.407 1.019 0 1.266.305 1.266 1.06v5.148h1.688v-5.54c0-1.48-.742-2.06-2.183-2.06-.902 0-1.818.334-2.458.798h-.058v-.667h-1.615v7.469h1.673zm9.112.087c.698 0 1.105-.16 1.396-.305v-1.116c-.262.072-.567.116-.858.116-.786 0-1.018-.232-1.018-.856v-4.09h1.789v-1.305h-1.79V74.67H46.81v1.755H45.76v1.305h1.048v4.322c0 1.407.829 1.929 2.124 1.929zm9.01-.087v-1.392h-4.001l1.178-1.204c1.222-1.262 2.735-2.843 2.735-4.612 0-1.799-1.12-2.843-3.302-2.843-1.15 0-2.168.363-2.837.754l.291 1.32c.553-.334 1.368-.667 2.066-.667 1.266 0 1.92.464 1.92 1.668 0 1.247-1.105 2.48-2.487 3.93L51.6 82.851v1.044h6.343zm-55.185 41.57c.975 0 1.571-.32 1.935-.74h.087l.13.609h1.383v-5.366c0-1.552-1.004-2.22-2.735-2.22-.975 0-1.775.131-2.473.407v1.145c.45-.101 1.09-.203 1.818-.203 1.266 0 1.717.232 1.717 1.248v.565l-1.76.203c-1.484.218-2.4.856-2.4 2.234 0 1.436.945 2.117 2.298 2.117zm.509-1.175c-.684 0-1.164-.32-1.164-1.03 0-.754.393-1.059 1.135-1.117l1.382-.145v1.842c-.276.261-.815.45-1.353.45zm8.108 1.174c1.033 0 1.731-.275 2.211-.58v-1.218c-.378.174-1.004.464-1.92.464-1.426 0-2.139-.725-2.139-2.437v-.333c0-1.494.771-2.277 2.023-2.277.887 0 1.338.16 1.964.406v-1.305c-.48-.261-1.077-.45-2.066-.45-2.08 0-3.652 1.218-3.652 3.8v.232c0 2.466 1.368 3.698 3.579 3.698zm6.799 0c1.033 0 1.73-.275 2.211-.58v-1.218c-.378.174-1.004.464-1.92.464-1.426 0-2.139-.725-2.139-2.437v-.333c0-1.494.771-2.277 2.022-2.277.888 0 1.339.16 1.964.406v-1.305c-.48-.261-1.076-.45-2.066-.45-2.08 0-3.651 1.218-3.651 3.8v.232c0 2.466 1.367 3.698 3.579 3.698zm6.77 0c2.094 0 3.549-1.377 3.549-3.785v-.203c0-2.379-1.295-3.742-3.535-3.742-2.11 0-3.564 1.392-3.564 3.785v.232c0 2.336 1.265 3.713 3.55 3.713zm.028-1.261c-1.047 0-1.862-.523-1.862-2.452v-.348c0-1.61.67-2.407 1.819-2.407 1.018 0 1.818.522 1.818 2.465v.363c0 1.61-.654 2.379-1.775 2.379zm7.265 1.261c.945 0 1.673-.333 2.298-.783h.073l.145.653h1.455v-7.47h-1.673v5.802c-.48.218-1.018.45-1.673.45-.93 0-1.222-.334-1.222-1.146v-5.105h-1.673v5.424c0 1.465.815 2.175 2.27 2.175zm7.584-.13v-5.802c.45-.217 1.105-.406 1.687-.406 1.019 0 1.266.305 1.266 1.06v5.148h1.688v-5.54c0-1.48-.742-2.06-2.183-2.06-.902 0-1.818.334-2.458.798h-.058v-.667h-1.615v7.469h1.673zm9.112.087c.698 0 1.105-.16 1.396-.305V124c-.262.072-.567.116-.858.116-.786 0-1.018-.232-1.018-.856v-4.09h1.789v-1.305h-1.79v-1.755H46.81v1.755H45.76v1.305h1.048v4.322c0 1.407.829 1.929 2.124 1.929zm5.344.058c2.269 0 3.68-1.146 3.68-2.973 0-1.48-.873-2.19-2.124-2.437 1.091-.377 1.79-1.131 1.79-2.32 0-1.596-1.252-2.466-3.1-2.466-.974 0-2.181.275-2.792.624l.203 1.32c.597-.276 1.382-.523 2.124-.523 1.091 0 1.775.363 1.775 1.364 0 .928-.77 1.45-1.92 1.479l-.917.014v1.291l1.033.03c1.266.014 2.066.449 2.066 1.508 0 1.116-.786 1.668-2.124 1.668-.742 0-1.818-.247-2.328-.566l-.29 1.29c.567.363 1.73.697 2.924.697z" transform="translate(-360.000000, -4847.000000) translate(360.000000, 4765.000000) translate(0.000000, 30.000000) translate(0.000000, 52.000000) translate(30.909023, 12.169789) translate(267.199047, 7.326153)"/>
                                <g>
                                    <g>
                                        <path fill="#2CC2FD" d="M2 0h21.978c1.105 0 2 .895 2 2v110.92H0V2C0 .895.895 0 2 0z" transform="translate(-360.000000, -4847.000000) translate(360.000000, 4765.000000) translate(0.000000, 30.000000) translate(0.000000, 52.000000) translate(30.909023, 12.169789) translate(267.199047, 7.326153) translate(154.202800, 83.971683) rotate(-270.000000) translate(-154.202800, -83.971683) translate(100.687583, -0.459971) translate(0.000000, 55.942446)"/>
                                        <path fill="#FFF" fill-rule="nonzero" d="M7.305 21.856c2.107 0 3.418-1.064 3.418-2.761 0-1.374-.81-2.034-1.972-2.263 1.013-.35 1.661-1.05 1.661-2.154 0-1.482-1.162-2.29-2.877-2.29-.905 0-2.027.256-2.594.58l.19 1.225c.553-.256 1.283-.485 1.971-.485 1.014 0 1.649.337 1.649 1.266 0 .862-.716 1.347-1.784 1.374l-.85.013v1.199l.958.027c1.176.013 1.919.417 1.919 1.4 0 1.037-.73 1.55-1.973 1.55-.689 0-1.688-.23-2.161-.526l-.27 1.198c.527.337 1.607.647 2.715.647zm10.42-.135v-1.293H14.01l1.094-1.117c1.135-1.172 2.54-2.64 2.54-4.283 0-1.67-1.04-2.64-3.067-2.64-1.067 0-2.013.337-2.634.7l.27 1.226c.514-.31 1.27-.62 1.918-.62 1.176 0 1.784.431 1.784 1.55 0 1.157-1.027 2.302-2.31 3.649l-1.77 1.859v.97h5.89zm4.354.054V12.47h-.878l-2.35 1.05v.97l1.553-.31v7.596h1.675z" transform="translate(-360.000000, -4847.000000) translate(360.000000, 4765.000000) translate(0.000000, 30.000000) translate(0.000000, 52.000000) translate(30.909023, 12.169789) translate(267.199047, 7.326153) translate(154.202800, 83.971683) rotate(-270.000000) translate(-154.202800, -83.971683) translate(100.687583, -0.459971) translate(0.000000, 55.942446) translate(13.334468, 17.122014) rotate(-90.000000) translate(-13.334468, -17.122014)"/>
                                    </g>
                                    <g>
                                        <path fill="#2CC2FD" d="M2 0h21.978c1.105 0 2 .895 2 2v166.863H0V2C0 .895.895 0 2 0z" transform="translate(-360.000000, -4847.000000) translate(360.000000, 4765.000000) translate(0.000000, 30.000000) translate(0.000000, 52.000000) translate(30.909023, 12.169789) translate(267.199047, 7.326153) translate(154.202800, 83.971683) rotate(-270.000000) translate(-154.202800, -83.971683) translate(100.687583, -0.459971) translate(40.526087, -0.000000)"/>
                                        <path fill="#FFF" fill-rule="nonzero" d="M5.014 24.473c2.202 0 3.499-1.118 3.499-2.68 0-1.293-.973-1.967-2.054-2.33.96-.458 1.689-1.185 1.689-2.195 0-1.441-1.189-2.29-3.134-2.29-1.945 0-3.175.983-3.175 2.41 0 1.146.676 1.779 1.635 2.21C2.46 20 1.569 20.822 1.569 21.98c0 1.495 1.243 2.492 3.445 2.492zm.23-5.562c-1.149-.283-1.743-.768-1.743-1.563 0-.727.594-1.171 1.54-1.171 1.04 0 1.54.525 1.54 1.212 0 .74-.622 1.225-1.338 1.522zm-.27 4.35c-1.122 0-1.838-.526-1.838-1.414 0-.822.784-1.441 1.608-1.724 1.378.363 2.093.835 2.093 1.79 0 .795-.729 1.348-1.864 1.348zm8.041 1.212c2.202 0 3.5-1.118 3.5-2.68 0-1.293-.973-1.967-2.054-2.33.959-.458 1.688-1.185 1.688-2.195 0-1.441-1.188-2.29-3.134-2.29-1.945 0-3.174.983-3.174 2.41 0 1.146.675 1.779 1.634 2.21-1.013.403-1.904 1.225-1.904 2.383 0 1.495 1.243 2.492 3.444 2.492zm.23-5.562c-1.148-.283-1.743-.768-1.743-1.563 0-.727.595-1.171 1.54-1.171 1.04 0 1.54.525 1.54 1.212 0 .74-.62 1.225-1.337 1.522zm-.27 4.35c-1.121 0-1.837-.526-1.837-1.414 0-.822.783-1.441 1.607-1.724 1.378.363 2.094.835 2.094 1.79 0 .795-.73 1.348-1.864 1.348zm10.203 1.198v-1.885h1.365v-1.226h-1.365v-6.276h-1.134l-4.688 6.532v.97h4.255v1.885h1.567zm-1.553-3.11h-2.459l2.459-3.475v3.474z" transform="translate(-360.000000, -4847.000000) translate(360.000000, 4765.000000) translate(0.000000, 30.000000) translate(0.000000, 52.000000) translate(30.909023, 12.169789) translate(267.199047, 7.326153) translate(154.202800, 83.971683) rotate(-270.000000) translate(-154.202800, -83.971683) translate(100.687583, -0.459971) translate(40.526087, -0.000000) translate(13.055981, 19.725410) rotate(-90.000000) translate(-13.055981, -19.725410)"/>
                                    </g>
                                    <g>
                                        <path fill="#2CC2FD" d="M2 0h21.978c1.105 0 2 .895 2 2v14.576H0V2C0 .895.895 0 2 0z" transform="translate(-360.000000, -4847.000000) translate(360.000000, 4765.000000) translate(0.000000, 30.000000) translate(0.000000, 52.000000) translate(30.909023, 12.169789) translate(267.199047, 7.326153) translate(154.202800, 83.971683) rotate(-270.000000) translate(-154.202800, -83.971683) translate(100.687583, -0.459971) translate(81.052174, 152.287770)"/>
                                        <path fill="#FFF" fill-rule="nonzero" d="M13.803 12.56c1.932 0 3.58-1.226 3.58-4.472v-.58c0-3.245-1.648-4.444-3.566-4.444-1.905 0-3.607 1.186-3.607 4.485v.58c0 3.137 1.567 4.43 3.593 4.43zm0-1.267c-1.256 0-1.864-1.023-1.864-3.165v-.714c0-2.154.622-3.07 1.878-3.07 1.216 0 1.85.97 1.85 3.165v.687c0 2.208-.62 3.097-1.864 3.097z" transform="translate(-360.000000, -4847.000000) translate(360.000000, 4765.000000) translate(0.000000, 30.000000) translate(0.000000, 52.000000) translate(30.909023, 12.169789) translate(267.199047, 7.326153) translate(154.202800, 83.971683) rotate(-270.000000) translate(-154.202800, -83.971683) translate(100.687583, -0.459971) translate(81.052174, 152.287770) translate(13.796708, 7.811741) rotate(-90.000000) translate(-13.796708, -7.811741)"/>
                                    </g>
                                </g>
                            </g>
                        </g>
                    </g>
                </g>
            </g>
        </g>
    </g>
</svg>
