<svg xmlns="http://www.w3.org/2000/svg" width="1200" height="447" viewBox="0 0 1200 447">
    <defs>
        <linearGradient id="1ylebz869a" x1="50%" x2="50%" y1="13.632%" y2="50%">
            <stop offset="0%" stop-color="#FFF" stop-opacity="0"/>
            <stop offset="100%" stop-color="#FFF"/>
        </linearGradient>
    </defs>
    <g fill="none" fill-rule="evenodd">
        <g>
            <g>
                <g>
                    <g fill="#60C0F7" opacity=".15">
                        <g>
                            <path d="M4 0h55.084c2.21 0 4 1.79 4 4v421H0V4c0-2.21 1.79-4 4-4zM563.682 197h55.085c2.209 0 4 1.79 4 4v224h-63.085V201c0-2.21 1.791-4 4-4zM115.936 57h55.085c2.209 0 4 1.79 4 4v364h-63.085V61c0-2.21 1.791-4 4-4zM675.619 241h55.084c2.21 0 4 1.79 4 4v180H671.62V245c0-2.21 1.79-4 4-4zM227.873 88h55.084c2.21 0 4 1.79 4 4v333h-63.084V92c0-2.21 1.79-4 4-4zM787.555 274h55.085c2.209 0 4 1.79 4 4v147h-63.085V278c0-2.21 1.791-4 4-4zM339.81 123h55.084c2.209 0 4 1.79 4 4v298h-63.085V127c0-2.21 1.791-4 4-4zM899.492 298h55.084c2.21 0 4 1.79 4 4v123h-63.084V302c0-2.21 1.79-4 4-4zM451.746 171h55.084c2.21 0 4 1.79 4 4v250h-63.084V175c0-2.21 1.79-4 4-4zM1011.428 349h55.085c2.209 0 4 1.79 4 4v72h-63.085v-72c0-2.21 1.791-4 4-4z" transform="translate(-360.000000, -2331.000000) translate(360.000000, 2249.000000) translate(-330.000000, 82.000000) translate(0.000000, 14.000000) translate(392.855604, 43.250338)"/>
                        </g>
                    </g>
                    <path fill="url(#1ylebz869a)" d="M330 386H1530V509H330z" transform="translate(-360.000000, -2331.000000) translate(360.000000, 2249.000000) translate(-330.000000, 82.000000)"/>
                </g>
            </g>
        </g>
    </g>
</svg>
