<svg xmlns="http://www.w3.org/2000/svg" width="587" height="292" viewBox="0 0 587 292">
    <defs>
        <linearGradient id="ezglsatdxa" x1="50%" x2="50%" y1="13.632%" y2="50%">
            <stop offset="0%" stop-color="#FFF" stop-opacity="0"/>
            <stop offset="100%" stop-color="#FFF"/>
        </linearGradient>
    </defs>
    <g fill="none" fill-rule="evenodd">
        <g>
            <g>
                <g>
                    <g>
                        <g>
                            <g opacity=".15">
                                <g>
                                    <g>
                                        <path fill="#2CC2FD" d="M2 0h35.808c1.105 0 2 .895 2 2v358H0V2C0 .895.895 0 2 0z" transform="translate(-358.000000, -810.000000) translate(360.000000, 728.000000) translate(-58.000000, 30.000000) translate(0.000000, 52.000000) translate(0.000000, 0.000000) translate(16.112676, 28.944251) translate(180.000000, 113.055749) rotate(-270.000000) translate(-180.000000, -113.055749) translate(66.944251, -66.944251) translate(0.000000, 0.000000)"/>
                                        <path fill="#FFF" fill-rule="nonzero" d="M9.912 43.657V29.36H8.566l-3.602 1.614v1.49l2.38-.476v11.669h2.568zm7.624 0V29.36h-1.345l-3.602 1.614v1.49l2.38-.476v11.669h2.567zm6.88.124c3.229 0 5.237-1.634 5.237-4.241 0-2.11-1.242-3.125-3.022-3.476 1.552-.538 2.546-1.614 2.546-3.31 0-2.277-1.78-3.518-4.41-3.518-1.386 0-3.104.393-3.974.89l.29 1.882c.849-.393 1.967-.744 3.022-.744 1.553 0 2.526.517 2.526 1.944 0 1.325-1.097 2.07-2.733 2.11l-1.304.022v1.841l1.47.041c1.8.021 2.94.642 2.94 2.152 0 1.593-1.118 2.38-3.023 2.38-1.056 0-2.587-.352-3.312-.807l-.414 1.841c.807.517 2.463.993 4.16.993zm11.806-.124V29.36h-1.346l-3.601 1.614v1.49l2.38-.476v11.669h2.567z" transform="translate(-358.000000, -810.000000) translate(360.000000, 728.000000) translate(-58.000000, 30.000000) translate(0.000000, 52.000000) translate(0.000000, 0.000000) translate(16.112676, 28.944251) translate(180.000000, 113.055749) rotate(-270.000000) translate(-180.000000, -113.055749) translate(66.944251, -66.944251) translate(0.000000, 0.000000) translate(20.593131, 36.508556) rotate(-90.000000) translate(-20.593131, -36.508556)"/>
                                    </g>
                                    <g>
                                        <path fill="#2CC2FD" d="M2 0h35.808c1.105 0 2 .895 2 2v171.479H0V2C0 .895.895 0 2 0z" transform="translate(-358.000000, -810.000000) translate(360.000000, 728.000000) translate(-58.000000, 30.000000) translate(0.000000, 52.000000) translate(0.000000, 0.000000) translate(16.112676, 28.944251) translate(180.000000, 113.055749) rotate(-270.000000) translate(-180.000000, -113.055749) translate(66.944251, -66.944251) translate(62.101045, 186.521127)"/>
                                        <path fill="#FFF" fill-rule="nonzero" d="M11.194 33.577c3.23 0 5.237-1.635 5.237-4.242 0-2.11-1.242-3.124-3.022-3.476 1.553-.537 2.546-1.613 2.546-3.31 0-2.276-1.78-3.517-4.409-3.517-1.387 0-3.105.393-3.974.89l.29 1.882c.848-.393 1.966-.745 3.022-.745 1.552 0 2.525.518 2.525 1.945 0 1.324-1.097 2.07-2.732 2.11l-1.305.021v1.842l1.47.041c1.801.02 2.94.642 2.94 2.152 0 1.593-1.118 2.38-3.023 2.38-1.055 0-2.587-.352-3.312-.808l-.414 1.842c.808.517 2.464.993 4.161.993zm15.967-.207v-1.986h-5.693l1.677-1.718c1.739-1.8 3.892-4.055 3.892-6.579 0-2.566-1.594-4.055-4.7-4.055-1.635 0-3.084.517-4.036 1.076l.414 1.882c.787-.475 1.946-.951 2.94-.951 1.8 0 2.732.662 2.732 2.38 0 1.778-1.573 3.537-3.54 5.606l-2.711 2.855v1.49h9.025zm6.672.083V19.156h-1.345l-3.602 1.614v1.49l2.38-.476v11.669h2.567z" transform="translate(-358.000000, -810.000000) translate(360.000000, 728.000000) translate(-58.000000, 30.000000) translate(0.000000, 52.000000) translate(0.000000, 0.000000) translate(16.112676, 28.944251) translate(180.000000, 113.055749) rotate(-270.000000) translate(-180.000000, -113.055749) translate(66.944251, -66.944251) translate(62.101045, 186.521127) translate(20.433367, 26.304331) rotate(-90.000000) translate(-20.433367, -26.304331)"/>
                                    </g>
                                    <g>
                                        <path fill="#2CC2FD" d="M2 0h35.808c1.105 0 2 .895 2 2v257.423H0V2C0 .895.895 0 2 0z" transform="translate(-358.000000, -810.000000) translate(360.000000, 728.000000) translate(-58.000000, 30.000000) translate(0.000000, 52.000000) translate(0.000000, 0.000000) translate(16.112676, 28.944251) translate(180.000000, 113.055749) rotate(-270.000000) translate(-180.000000, -113.055749) translate(66.944251, -66.944251) translate(124.202091, 100.577465)"/>
                                        <path fill="#FFF" fill-rule="nonzero" d="M7.683 37.597c3.374 0 5.361-1.717 5.361-4.117 0-1.986-1.49-3.02-3.146-3.58 1.47-.703 2.587-1.82 2.587-3.372 0-2.214-1.821-3.517-4.802-3.517-2.98 0-4.865 1.51-4.865 3.703 0 1.759 1.035 2.731 2.505 3.393-1.552.621-2.919 1.883-2.919 3.662 0 2.297 1.905 3.828 5.279 3.828zm.352-8.545c-1.76-.434-2.67-1.18-2.67-2.4 0-1.117.91-1.8 2.36-1.8 1.593 0 2.36.807 2.36 1.862 0 1.138-.953 1.883-2.05 2.338zm-.414 6.683c-1.718 0-2.815-.807-2.815-2.172 0-1.263 1.2-2.214 2.463-2.649 2.111.559 3.209 1.283 3.209 2.752 0 1.22-1.118 2.07-2.857 2.07zm12.324 1.862c3.374 0 5.36-1.717 5.36-4.117 0-1.986-1.49-3.02-3.146-3.58 1.47-.703 2.588-1.82 2.588-3.372 0-2.214-1.822-3.517-4.802-3.517-2.981 0-4.865 1.51-4.865 3.703 0 1.759 1.035 2.731 2.505 3.393-1.553.621-2.92 1.883-2.92 3.662 0 2.297 1.905 3.828 5.28 3.828zm.351-8.545c-1.76-.434-2.67-1.18-2.67-2.4 0-1.117.91-1.8 2.36-1.8 1.594 0 2.36.807 2.36 1.862 0 1.138-.952 1.883-2.05 2.338zm-.414 6.683c-1.718 0-2.815-.807-2.815-2.172 0-1.263 1.2-2.214 2.464-2.649 2.11.559 3.208 1.283 3.208 2.752 0 1.22-1.118 2.07-2.857 2.07zm15.636 1.841V34.68h2.09v-1.883h-2.09v-9.642H33.78L26.596 33.19v1.49h6.52v2.896h2.402zm-2.38-4.779H29.37l3.768-5.338v5.338z" transform="translate(-358.000000, -810.000000) translate(360.000000, 728.000000) translate(-58.000000, 30.000000) translate(0.000000, 52.000000) translate(0.000000, 0.000000) translate(16.112676, 28.944251) translate(180.000000, 113.055749) rotate(-270.000000) translate(-180.000000, -113.055749) translate(66.944251, -66.944251) translate(124.202091, 100.577465) translate(20.006621, 30.303894) rotate(-90.000000) translate(-20.006621, -30.303894)"/>
                                    </g>
                                    <g>
                                        <path fill="#2CC2FD" d="M2 0h35.808c1.105 0 2 .895 2 2v158.746H0V2C0 .895.895 0 2 0z" transform="translate(-358.000000, -810.000000) translate(360.000000, 728.000000) translate(-58.000000, 30.000000) translate(0.000000, 52.000000) translate(0.000000, 0.000000) translate(16.112676, 28.944251) translate(180.000000, 113.055749) rotate(-270.000000) translate(-180.000000, -113.055749) translate(66.944251, -66.944251) translate(186.303136, 199.253521)"/>
                                        <path fill="#FFF" fill-rule="nonzero" d="M10.966 31.985c3.23 0 5.238-1.634 5.238-4.241 0-2.11-1.242-3.124-3.023-3.476 1.553-.538 2.546-1.614 2.546-3.31 0-2.276-1.78-3.518-4.409-3.518-1.387 0-3.105.393-3.974.89l.29 1.883c.848-.393 1.966-.745 3.022-.745 1.552 0 2.525.517 2.525 1.945 0 1.324-1.097 2.069-2.732 2.11l-1.304.02v1.842l1.47.042c1.8.02 2.939.641 2.939 2.151 0 1.594-1.118 2.38-3.022 2.38-1.056 0-2.588-.352-3.312-.807l-.414 1.841c.807.517 2.463.993 4.16.993zm11.807-.124V17.564h-1.346l-3.602 1.614v1.49l2.38-.476v11.67h2.568zm6.879.124c3.23 0 5.237-1.634 5.237-4.241 0-2.11-1.242-3.124-3.022-3.476 1.552-.538 2.546-1.614 2.546-3.31 0-2.276-1.78-3.518-4.41-3.518-1.386 0-3.104.393-3.974.89l.29 1.883c.849-.393 1.967-.745 3.022-.745 1.553 0 2.526.517 2.526 1.945 0 1.324-1.097 2.069-2.733 2.11l-1.304.02v1.842l1.47.042c1.8.02 2.94.641 2.94 2.151 0 1.594-1.118 2.38-3.023 2.38-1.056 0-2.587-.352-3.312-.807l-.414 1.841c.807.517 2.463.993 4.16.993z" transform="translate(-358.000000, -810.000000) translate(360.000000, 728.000000) translate(-58.000000, 30.000000) translate(0.000000, 52.000000) translate(0.000000, 0.000000) translate(16.112676, 28.944251) translate(180.000000, 113.055749) rotate(-270.000000) translate(-180.000000, -113.055749) translate(66.944251, -66.944251) translate(186.303136, 199.253521) translate(20.847374, 24.712782) rotate(-90.000000) translate(-20.847374, -24.712782)"/>
                                    </g>
                                </g>
                            </g>
                            <path fill="url(#ezglsatdxa)" d="M-89.5 89.5H212.5V212.5H-89.5z" transform="translate(-358.000000, -810.000000) translate(360.000000, 728.000000) translate(-58.000000, 30.000000) translate(0.000000, 52.000000) translate(0.000000, 0.000000) translate(61.500000, 151.000000) rotate(-270.000000) translate(-61.500000, -151.000000)"/>
                        </g>
                    </g>
                </g>
            </g>
        </g>
    </g>
</svg>
