<svg xmlns="http://www.w3.org/2000/svg" width="83" height="82" viewBox="0 0 83 82">
    <g fill="none" fill-rule="evenodd">
        <g fill="#FFF">
            <g>
                <g>
                    <g transform="translate(-940.000000, -410.000000) translate(732.000000, 366.000000) translate(208.000000, 44.000000) translate(3.704102, 3.000000)">
                        <circle cx="26.796" cy="27" r="22" opacity=".553"/>
                        <path stroke="#4A4A4A" stroke-width="3" d="M44.021 39.117l29.352 29.347-4.568 5.267-29.352-29.347 4.568-5.267z"/>
                        <path stroke="#4A4A4A" stroke-width="3" d="M53.555 58.575l5.235-5.236c.781-.78 2.048-.78 2.829 0l.036.037L74.742 67.16c.747.786.731 2.024-.036 2.791l-5.235 5.236c-.781.78-2.047.78-2.829 0l-.036-.037L53.52 61.366c-.747-.786-.731-2.024.036-2.791zM26.671-1.5c7.78 0 14.822 3.153 19.92 8.251 5.098 5.098 8.251 12.141 8.251 19.92 0 7.78-3.153 14.822-8.25 19.92-5.099 5.098-12.141 8.251-19.92 8.251-7.78 0-14.823-3.153-19.92-8.25C1.652 41.492-1.5 34.45-1.5 26.671c0-7.78 3.153-14.823 8.251-19.92C11.85 1.652 18.892-1.5 26.671-1.5zm0 7.52c-5.702 0-10.865 2.312-14.602 6.049-3.737 3.737-6.048 8.9-6.048 14.602 0 5.703 2.311 10.865 6.048 14.602 3.737 3.738 8.9 6.049 14.602 6.049 5.703 0 10.865-2.311 14.602-6.049 3.738-3.737 6.049-8.9 6.049-14.602S45.01 15.806 41.273 12.07c-3.737-3.737-8.9-6.048-14.602-6.048z"/>
                    </g>
                </g>
            </g>
        </g>
    </g>
</svg>
