<svg xmlns="http://www.w3.org/2000/svg" width="182" height="146" viewBox="0 0 182 146">
    <defs>
        <linearGradient id="qvt2y7k9la" x1="50%" x2="50%" y1="0%" y2="100%">
            <stop offset="0%" stop-color="#00A5ED"/>
            <stop offset="100%" stop-color="#7FD8FF"/>
        </linearGradient>
    </defs>
    <g fill="none" fill-rule="evenodd">
        <g>
            <g>
                <g>
                    <g>
                        <path fill="#00A5ED" d="M12 0L63 0 63 98.775 75 110 75 112 0 112 0 110 12 100.121z" transform="translate(-868.000000, -366.000000) translate(732.000000, 366.000000) translate(136.000000, 0.000000) translate(53.500000, 34.000000)"/>
                        <path fill="url(#qvt2y7k9la)" d="M12 64.361h51v24.693c0 4.968 1.85 9.76 5.188 13.44L75 110H0l6.07-6.009C9.865 100.235 12 95.117 12 89.777V64.361z" transform="translate(-868.000000, -366.000000) translate(732.000000, 366.000000) translate(136.000000, 0.000000) translate(53.500000, 34.000000)"/>
                    </g>
                    <g transform="translate(-868.000000, -366.000000) translate(732.000000, 366.000000) translate(136.000000, 0.000000) translate(0.378981, 0.000000)">
                        <rect width="178.242" height="111" x="1.621" y="1.5" fill="#E5F7FF" stroke="#00A5ED" stroke-width="3" rx="8"/>
                        <g>
                            <path fill="#FF5454" d="M28.789 3.578l23.764 47.528c.494.988.093 2.189-.895 2.683-.277.139-.584.211-.894.211H3.236c-1.105 0-2-.895-2-2 0-.31.072-.617.211-.894L25.211 3.578c.494-.988 1.695-1.389 2.683-.895.387.194.701.508.895.895z" transform="translate(64.121019, 33.000000)"/>
                            <path fill="#FFF" fill-rule="nonzero" d="M28.48 40.024L28.9 27h-3.813l.42 13.024h2.973zM26.994 46c.602 0 1.088-.185 1.455-.555.367-.37.551-.839.551-1.407 0-.576-.184-1.05-.551-1.42-.367-.37-.853-.555-1.455-.555-.595 0-1.076.187-1.443.562-.367.374-.551.845-.551 1.413 0 .568.184 1.037.551 1.407.367.37.848.555 1.443.555z" transform="translate(64.121019, 33.000000)"/>
                        </g>
                        <path fill="#00A5ED" d="M173.242 0c4.418 0 8 3.582 8 8v9H0V8c0-4.418 3.582-8 8-8h165.242zM10.621 6c-1.38 0-2.5 1.12-2.5 2.5s1.12 2.5 2.5 2.5 2.5-1.12 2.5-2.5-1.12-2.5-2.5-2.5zm8 0c-1.38 0-2.5 1.12-2.5 2.5s1.12 2.5 2.5 2.5 2.5-1.12 2.5-2.5-1.12-2.5-2.5-2.5zm8 0c-1.38 0-2.5 1.12-2.5 2.5s1.12 2.5 2.5 2.5 2.5-1.12 2.5-2.5-1.12-2.5-2.5-2.5z"/>
                    </g>
                </g>
            </g>
        </g>
    </g>
</svg>
