<svg width="121" height="120" viewBox="0 0 121 120" fill="none" xmlns="http://www.w3.org/2000/svg">
    <path d="m82.143 56.998 2.31-27.705H45.25l2.31 27.705A12 12 0 0 0 59.52 68h10.666a12 12 0 0 0 11.958-11.002z" fill="url(#0ijw5rl50a)"/>
    <path d="M83.954 28.916c0 .913-.456 1.832-1.386 2.72-.93.888-2.304 1.712-4.043 2.414-3.474 1.403-8.308 2.282-13.674 2.282-5.365 0-10.199-.88-13.673-2.282-1.739-.702-3.112-1.526-4.043-2.415-.93-.887-1.386-1.806-1.386-2.72 0-.912.456-1.831 1.386-2.72.93-.888 2.304-1.711 4.043-2.413 3.474-1.404 8.308-2.283 13.673-2.283 5.366 0 10.2.88 13.674 2.283 1.739.702 3.112 1.525 4.043 2.414.93.887 1.386 1.807 1.386 2.72z" fill="url(#u568ezx9eb)" stroke="#fff"/>
    <mask id="lp0fhmjubc" fill="#fff">
        <path fill-rule="evenodd" clip-rule="evenodd" d="M84.358 29.704c.064-.26.096-.522.096-.788 0-4.372-8.776-7.917-19.602-7.917-10.643 0-19.304 3.425-19.595 7.695h-.034l.029.347c.003.098.012.196.024.293L47.57 56.77a12 12 0 0 0 11.958 11h10.93a12 12 0 0 0 11.969-11.141l1.931-26.925z"/>
    </mask>
    <path d="m84.358 29.704-.971-.238-.02.082-.006.084.997.072zm-39.101-1.01v1h.934l.063-.932-.997-.068zm-.034 0v-1h-1.087l.09 1.083.997-.083zm.029.347.999-.039v-.022l-.003-.023-.996.084zm.024.293.997-.083-.002-.022-.003-.023-.992.128zM47.57 56.77l.997-.084-.997.084zm34.857-.142-.998-.071.998.072zm1.027-27.712c0 .183-.022.367-.067.55l1.942.476c.082-.335.125-.678.125-1.026h-2zm-18.602-6.917c5.317 0 10.085.873 13.486 2.246 1.704.688 3.015 1.482 3.885 2.313.867.828 1.231 1.625 1.231 2.358h2c0-1.453-.733-2.739-1.85-3.805-1.114-1.064-2.673-1.976-4.517-2.72-3.693-1.492-8.727-2.392-14.235-2.392v2zm-18.598 6.763c.05-.724.46-1.515 1.361-2.33.901-.814 2.227-1.588 3.924-2.256 3.39-1.334 8.086-2.177 13.313-2.177v-2c-5.416 0-10.372.87-14.046 2.316-1.835.722-3.395 1.605-4.532 2.634-1.137 1.027-1.919 2.265-2.015 3.677l1.995.136zm-.997-1.068h-.034v2h.034v-2zm-1.03 1.083.028.347 1.993-.167-.029-.347-1.993.167zm2.041.43a2.25 2.25 0 0 1-.017-.205l-1.999.077c.005.128.016.256.032.383l1.984-.256zm-1.988.21 2.294 27.436 1.993-.166-2.294-27.436-1.993.167zm2.294 27.436A13 13 0 0 0 59.528 68.77v-2a11 11 0 0 1-10.961-10.083l-1.993.166zM59.528 68.77h10.93v-2h-10.93v2zm10.93 0c6.819 0 12.478-5.269 12.966-12.07l-1.995-.143A11 11 0 0 1 70.459 66.77v2zM83.424 56.7l1.932-26.925-1.995-.143-1.931 26.925 1.994.143z" fill="#CCC" mask="url(#lp0fhmjubc)"/>
    <mask id="593bomc6gd" fill="#fff">
        <path d="M57.843 76.447a33.38 33.38 0 0 1 4.255-65.927l.126 1.565a31.81 31.81 0 0 0-4.055 62.826l-.326 1.536z"/>
    </mask>
    <path d="M57.843 76.447a33.38 33.38 0 0 1 4.255-65.927l.126 1.565a31.81 31.81 0 0 0-4.055 62.826l-.326 1.536z" stroke="#00A5ED" stroke-width="4" mask="url(#593bomc6gd)"/>
    <path d="m59.795 8.283 3.196 3.196-3.196 3.196" stroke="#00A5ED" stroke-width="2" stroke-linecap="round"/>
    <mask id="5t91zi9moe" fill="#fff">
        <path d="M70.864 9.836a33.38 33.38 0 0 1-4.255 65.927l-.126-1.565a31.81 31.81 0 0 0 4.055-62.826l.326-1.536z"/>
    </mask>
    <path d="M70.864 9.836a33.38 33.38 0 0 1-4.255 65.927l-.126-1.565a31.81 31.81 0 0 0 4.055-62.826l.326-1.536z" stroke="#00A5ED" stroke-width="4" mask="url(#5t91zi9moe)"/>
    <path d="m68.912 78-3.196-3.196 3.196-3.196" stroke="#00A5ED" stroke-width="2" stroke-linecap="round"/>
    <path d="m44.059 100.927 1.536-18.41H19.518l1.536 18.41a8 8 0 0 0 7.972 7.335h7.06a8 8 0 0 0 7.973-7.335z" fill="url(#nwjntbgh4f)"/>
    <path d="M45.095 82.266c0 .546-.273 1.117-.87 1.687-.599.572-1.492 1.11-2.636 1.572-2.287.923-5.48 1.506-9.033 1.506-3.552 0-6.745-.583-9.032-1.506-1.144-.462-2.037-1-2.636-1.572-.598-.57-.87-1.14-.87-1.688 0-.547.273-1.117.87-1.688.599-.571 1.492-1.109 2.636-1.571 2.287-.924 5.48-1.506 9.032-1.506 3.553 0 6.746.582 9.033 1.506 1.144.462 2.037 1 2.636 1.572.597.57.87 1.14.87 1.688z" fill="url(#n2e1fljmrg)" stroke="#fff"/>
    <mask id="2b41wstknh" fill="#fff">
        <path fill-rule="evenodd" clip-rule="evenodd" d="M45.53 82.79c.043-.172.064-.347.064-.525 0-2.908-5.837-5.265-13.038-5.265-7.078 0-12.84 2.278-13.033 5.118H19.5l.02.234c.002.063.007.126.015.188l1.525 18.235a8 8 0 0 0 7.972 7.334h7.236a8 8 0 0 0 7.98-7.428l1.282-17.89z"/>
    </mask>
    <path d="m45.53 82.79-.97-.238-.021.083-.006.084.997.072zm-26.007-.672v1h.934l.064-.932-.998-.068zm-.023 0v-1h-1.087l.09 1.083.997-.083zm.02.234.999-.04-.001-.022-.002-.021-.996.083zm.015.188.997-.083-.002-.021-.003-.022-.992.126zm1.525 18.235-.997.084.997-.084zm23.187-.094-.997-.071.997.071zm.347-18.415c0 .094-.011.19-.035.286l1.943.477c.06-.249.092-.504.092-.763h-2zM32.556 78c3.505 0 6.632.576 8.845 1.47 1.11.448 1.94.956 2.478 1.47.535.51.715.958.715 1.326h2c0-1.088-.55-2.024-1.334-2.773-.782-.747-1.86-1.373-3.11-1.878C39.645 76.603 36.252 76 32.556 76v2zm-12.035 4.186c.024-.366.235-.817.795-1.324.56-.506 1.402-1.002 2.508-1.437C26.03 78.556 29.11 78 32.556 78v-2c-3.634 0-6.973.583-9.465 1.564-1.243.489-2.32 1.095-3.116 1.814-.795.72-1.378 1.618-1.45 2.672l1.996.136zm-.998-1.068H19.5v2h.023v-2zm-1.02 1.083.02.235 1.993-.167-.02-.234-1.992.166zm2.024.213a1.166 1.166 0 0 1-.008-.102l-1.999.08c.004.092.012.184.023.275l1.984-.253zm-1.988.21 1.524 18.235 1.994-.167-1.525-18.235-1.993.167zm1.524 18.235a9 9 0 0 0 8.97 8.25v-2a7 7 0 0 1-6.977-6.417l-1.993.167zm8.97 8.25h7.235v-2h-7.236v2zm7.235 0a9 9 0 0 0 8.977-8.356l-1.995-.143a7 7 0 0 1-6.982 6.499v2zm8.977-8.356 1.283-17.89-1.995-.144-1.283 17.891 1.995.143z" fill="#CCC" mask="url(#2b41wstknh)"/>
    <circle cx="28.5" cy="102" r="2.5" stroke="#999"/>
    <path d="M33.46 103.5 36 99.872l2.54 3.628h-5.08z" stroke="#999"/>
    <path stroke="#00A5ED" d="M30 91.5h5v5h-5z"/>
    <path d="m25.5 68.919 3 3.081m0 0 3-3.081M28.5 72V44H44M104 68.919 101 72m0 0-3-3.081M101 72V44H85.5" stroke="#999" stroke-width="2" stroke-linecap="round"/>
    <rect x="88" y="84.5" width="23" height="26" rx=".5" fill="url(#3zxsbw222i)" stroke="#CCC"/>
    <rect x="94" y="77.5" width="10" height="5" rx="1.5" stroke="#D9D9D9"/>
    <rect x="85" y="80.5" width="28" height="5" rx=".5" fill="url(#otmil243zj)" stroke="#CCC"/>
    <path fill="#fff" d="M93.5 91h1v14h-1z"/>
    <path fill="#EAEAEA" d="M94.5 91h1v14h-1z"/>
    <path fill="#fff" d="M98.5 91h1v14h-1z"/>
    <path fill="#EAEAEA" d="M99.5 91h1v14h-1z"/>
    <path fill="#fff" d="M103.5 91h1v14h-1z"/>
    <path fill="#EAEAEA" d="M104.5 91h1v14h-1z"/>
    <path d="m14.5 94.5 2 2m0 0 2-2m-2 2V82M9.5 88.5l2 2m0 0 2-2m-2 2V76" stroke="#999" stroke-linecap="round"/>
    <circle cx="15" cy="75.5" r="9.5" fill="#00A5ED"/>
    <path d="m13.935 82.008.154-1.47c-.774-.075-1.456-.275-2.044-.602v-.98a5.678 5.678 0 0 0 2.142.602l.35-3.514-.364-.126c-.7-.233-1.222-.541-1.568-.924-.336-.383-.504-.92-.504-1.61 0-.756.252-1.363.756-1.82.514-.467 1.251-.705 2.212-.714l.07-.812h.896l-.084.868c.402.065.878.22 1.428.462v.994a6.76 6.76 0 0 0-1.526-.448l-.322 3.234.112.028c.784.27 1.358.597 1.722.98.364.383.546.947.546 1.694 0 .821-.242 1.475-.728 1.96-.485.476-1.222.733-2.212.77l-.14 1.428h-.896zm2.744-4.046c0-.42-.093-.751-.28-.994-.186-.243-.518-.453-.994-.63l-.322 3.22c.523-.065.92-.238 1.19-.518.271-.28.406-.64.406-1.078zm-3.36-4.69c0 .439.089.77.266.994.178.224.537.425 1.078.602l.294-2.996c-.513.01-.914.14-1.204.392-.289.252-.434.588-.434 1.008z" fill="#fff"/>
    <defs>
        <linearGradient id="0ijw5rl50a" x1="81.438" y1="49.683" x2="58.066" y2="49.683" gradientUnits="userSpaceOnUse">
            <stop stop-color="#D9D9D9"/>
            <stop offset="1" stop-color="#fff"/>
        </linearGradient>
        <linearGradient id="u568ezx9eb" x1="47.134" y1="29.293" x2="72.391" y2="35.324" gradientUnits="userSpaceOnUse">
            <stop stop-color="#EAEAEA"/>
            <stop offset="1" stop-color="#fff"/>
        </linearGradient>
        <linearGradient id="nwjntbgh4f" x1="43.589" y1="96.079" x2="28.043" y2="96.079" gradientUnits="userSpaceOnUse">
            <stop stop-color="#D9D9D9"/>
            <stop offset="1" stop-color="#fff"/>
        </linearGradient>
        <linearGradient id="n2e1fljmrg" x1="20.772" y1="82.516" x2="37.571" y2="86.528" gradientUnits="userSpaceOnUse">
            <stop stop-color="#EAEAEA"/>
            <stop offset="1" stop-color="#fff"/>
        </linearGradient>
        <linearGradient id="3zxsbw222i" x1="111.5" y1="96" x2="87.5" y2="95.5" gradientUnits="userSpaceOnUse">
            <stop stop-color="#F4F4F4"/>
            <stop offset="1" stop-color="#fff"/>
        </linearGradient>
        <linearGradient id="otmil243zj" x1="114.5" y1="83" x2="84.498" y2="82.583" gradientUnits="userSpaceOnUse">
            <stop stop-color="#EEE"/>
            <stop offset="1" stop-color="#fff"/>
        </linearGradient>
    </defs>
</svg>
