<svg width="25" height="25" viewBox="0 0 25 25" fill="none" xmlns="http://www.w3.org/2000/svg">
    <path fill-rule="evenodd" clip-rule="evenodd" d="M6.41 12.69c0-.329.266-.594.594-.594h10.689a.593.593 0 1 1 0 1.187H7.004a.594.594 0 0 1-.593-.594z" fill="#000"/>
    <path fill-rule="evenodd" clip-rule="evenodd" d="M17.505 8.024a.594.594 0 0 1 .402.737l-2.33 7.954a.593.593 0 0 1-1.137.006l-1.893-6.202-2.099 6.119a.593.593 0 0 1-1.132-.03L7.072 8.758a.594.594 0 1 1 1.142-.326l1.724 6.035 2.08-6.065a.594.594 0 0 1 1.13.02l1.848 6.056 1.772-6.05a.593.593 0 0 1 .737-.403z" fill="#000"/>
    <path fill-rule="evenodd" clip-rule="evenodd" d="M3.023 1.284c-.26 0-.554.246-.554.656v21.185c0 .411.294.656.554.656h.06a1.843 1.843 0 0 1 3.21 0h.853a1.843 1.843 0 0 1 3.21 0h.851a1.842 1.842 0 0 1 3.21 0h.853a1.843 1.843 0 0 1 3.21 0h.852a1.842 1.842 0 0 1 3.061-.223.708.708 0 0 0 .139-.432V1.94c0-.41-.296-.656-.555-.656H3.023zm-1.742.656c0-.969.734-1.843 1.742-1.843h18.954c1.008 0 1.742.874 1.742 1.843v21.186c0 .887-.607 1.683-1.482 1.822a.594.594 0 0 1-.666-.431.657.657 0 0 0-1.27.007.594.594 0 0 1-.574.444h-1.642a.593.593 0 0 1-.574-.445.657.657 0 0 0-1.271 0 .594.594 0 0 1-.575.445h-1.642a.593.593 0 0 1-.574-.444.658.658 0 0 0-1.273 0 .594.594 0 0 1-.574.444h-1.64a.593.593 0 0 1-.576-.445.657.657 0 0 0-1.27 0 .593.593 0 0 1-.575.445H5.898a.594.594 0 0 1-.574-.444.659.659 0 0 0-1.273 0 .594.594 0 0 1-.574.444h-.454c-1.007 0-1.742-.872-1.742-1.843V1.94z" fill="#000"/>
</svg>
