<svg width="60" height="60" viewBox="0 0 60 60" fill="none" xmlns="http://www.w3.org/2000/svg">
    <path d="M8.53333 11H51.4667C51.7821 11 52 11.2445 52 11.5V38.5C52 38.7555 51.7821 39 51.4667 39H8.53333C8.21795 39 8 38.7555 8 38.5V11.5C8 11.2445 8.21795 11 8.53333 11Z" stroke="#666666" stroke-width="2"/>
    <path d="M38.5691 50.4146L38.5919 50.4182L38.6148 50.4208C38.9951 50.4631 39.3478 50.646 39.6042 50.936C39.6227 50.9569 39.6405 50.9782 39.6578 51H19.3422C19.3595 50.9782 19.3773 50.9569 19.3958 50.936C19.6522 50.646 20.0049 50.4631 20.3852 50.4208L20.4081 50.4182L20.4309 50.4146C21.7736 50.2019 22.8398 49.6321 23.6535 48.775C24.4529 47.933 24.9609 46.8647 25.2921 45.7182C25.8633 43.7411 25.959 41.3338 25.974 39H33.0007C33.0171 41.3355 33.1184 43.7429 33.6959 45.7209C34.0306 46.8675 34.5422 47.9351 35.3438 48.7764C36.1595 49.6324 37.2266 50.202 38.5691 50.4146Z" stroke="#666666" stroke-width="2"/>
    <path d="M30 14V24.7044V35" stroke="#666666" stroke-width="2"/>
    <path d="M21 19.355L30 14.1549L39 19.355V29.6491L30 34.8453L21 29.6491V19.355Z" stroke="#666666" stroke-width="2"/>
    <path d="M30 14.1653L38.0563 18.9853L30 23.8329L21.9437 18.9853L30 14.1653Z" fill="white" stroke="#666666" stroke-width="2"/>
</svg>
