<svg width="13" height="21" viewBox="0 0 13 21" fill="none" xmlns="http://www.w3.org/2000/svg">
    <path d="M6.392 20.292h-.01a.947.947 0 0 1-.076-.003l-.03-.002-.016-.002-.018-.002-.06-.008-.043-.008-.007-.001-.024-.006-.042-.01-.05-.013-.024-.008-.07-.026a.578.578 0 0 1-.05-.02l-.066-.031-.035-.019s-.002 0-.003-.002l-.014-.007c-.019-.01-.037-.022-.056-.034l-.038-.025-.01-.007-.018-.013-.037-.028-.038-.031-.017-.015-.017-.015-.014-.013-.013-.012-.034-.035-.023-.024-.016-.019-.012-.012-4.094-4.776a1.293 1.293 0 0 1 1.865-1.784l.097.102 1.822 2.125V2.098a1.292 1.292 0 0 1 2.576-.132l.007.132.001 13.472 1.844-2.101a1.292 1.292 0 0 1 2.029 1.594l-.087.11-4.108 4.68-.018.02-.024.025-.03.03-.027.025-.024.022-.007.006-.01.008-.025.02a.636.636 0 0 1-.066.05l-.056.037-.048.029-.075.04-.04.017-.018.008-.055.022-.059.02-.005.002-.012.004-.042.011-.063.015-.006.002-.014.002-.053.01-.051.006-.01.001-.016.002-.069.003h-.03l-.018.002z" fill="#2CB5FD"/>
</svg>
