<svg xmlns="http://www.w3.org/2000/svg" width="16" height="16" viewBox="0 0 16 16">
    <g fill="none" fill-rule="evenodd">
        <g>
            <g>
                <g>
                    <g>
                        <g transform="translate(-482.000000, -314.000000) translate(362.000000, 257.000000) translate(20.000000, 49.000000) translate(100.000000, 8.197531) translate(1.120000, 1.135802)">
                            <path stroke="#999" stroke-linecap="round" stroke-width=".751" d="M2.38.148L2.4 2.074M5.38.148L5.4 2.074M8.38.148L8.4 2.074M11.38.148L11.4 2.074"/>
                            <rect width="13.6" height="12.247" x=".08" y="1.141" stroke="#999" stroke-width=".751" rx=".79"/>
                            <path stroke="#999" stroke-linecap="round" stroke-width=".751" d="M0.18 3.506L13.38 3.506"/>
                            <path fill="#999" fill-rule="nonzero" d="M6.174 10.383c.094.002.187 0 .279-.009.272-.012.546-.046.822-.103.276-.058.522-.165.738-.323.208-.15.366-.332.474-.546.108-.213.182-.432.222-.657.02-.13.035-.265.045-.403.01-.139.011-.273.003-.403-.016-.21-.066-.422-.15-.637-.084-.216-.2-.41-.348-.584-.148-.174-.326-.317-.534-.43-.208-.112-.444-.172-.708-.18l-1.002-.024c-.032.016-.061.02-.087.015-.026-.006-.051-.005-.075.003l-.066.026c-.024.01-.048.025-.072.045-.028.02-.05.053-.066.1-.016.036-.028.082-.036.137-.008.024-.012.047-.012.071v3.46l.003.051.009.056.021.069c.006.021.015.042.027.062.008.02.018.04.03.059.012.02.028.036.048.047.036.032.09.054.162.066.088.02.179.03.273.032zm.237-.809v-1.6c0-.134.002-.272.006-.414v-.338c0-.107-.002-.218-.006-.332.116 0 .235.006.357.018.122.012.237.032.345.062.108.03.206.072.294.127.088.056.16.127.216.214.072.118.128.253.168.406.04.152.062.308.066.468.004.16-.012.317-.048.47-.036.155-.092.291-.168.41-.076.114-.159.204-.249.27-.09.065-.188.115-.294.15-.106.036-.216.059-.33.069-.114.01-.233.016-.357.02z"/>
                        </g>
                    </g>
                </g>
            </g>
        </g>
    </g>
</svg>
