<svg xmlns="http://www.w3.org/2000/svg" width="67" height="91" viewBox="0 0 67 91">
    <defs>
        <linearGradient id="up96rx3c6a" x1="50%" x2="50%" y1="0%" y2="100%">
            <stop offset="0%" stop-color="#57E3FF"/>
            <stop offset="100%" stop-color="#2CC2FD"/>
        </linearGradient>
        <linearGradient id="er4cnnj18b" x1="50%" x2="50%" y1="-13.148%" y2="100%">
            <stop offset="0%" stop-color="#FCDB00"/>
            <stop offset="100%" stop-color="#F7B500"/>
        </linearGradient>
    </defs>
    <g fill="none" fill-rule="evenodd">
        <g>
            <g>
                <g>
                    <g>
                        <g>
                            <path fill="url(#up96rx3c6a)" d="M36.503 20.33c0-5.826-3.211-11.397-10.436-11.397-6.193 0-8.539 3.385-9.888 5.57-.518.844-.91 1.76-1.164 2.718C11.424 18.256 6.8 21.194 6.8 27.415c0 7.388 6.805 9.852 11.385 9.852H35.7c3.87 0 9.633-2.388 9.633-8.082 0-4.752-4.47-8.856-8.83-8.856z" transform="translate(-1081.000000, -1892.000000) translate(360.000000, 1862.000000) translate(610.000000, 0.000000) translate(36.335526, 30.000000) translate(75.000000, 0.000000) translate(26.066667, 23.100000) rotate(-34.000000) translate(-26.066667, -23.100000)"/>
                            <path fill="#60D67D" d="M51.663 33.44c1.174 0 2.125.951 2.125 2.125v7.083c0 1.174-.951 2.125-2.125 2.125l-30.126-.204c-1.166-.353-1.749-.993-1.749-1.92v-7.084c0-1.174.952-2.125 2.125-2.125h29.75zm-4.675 5.667c-.626 0-1.133.507-1.133 1.133s.507 1.133 1.133 1.133 1.134-.507 1.134-1.133-.508-1.133-1.134-1.133zm3.4 0c-.626 0-1.133.507-1.133 1.133s.507 1.133 1.133 1.133 1.134-.507 1.134-1.133-.508-1.133-1.134-1.133zM25.455 36.84c-1.252 0-2.267 1.015-2.267 2.267 0 1.251 1.015 2.266 2.267 2.266s2.267-1.015 2.267-2.266c0-1.252-1.015-2.267-2.267-2.267zm20.4-1.133c-.626 0-1.133.507-1.133 1.133s.507 1.133 1.133 1.133 1.133-.507 1.133-1.133-.507-1.133-1.133-1.133zm3.4 0c-.626 0-1.133.507-1.133 1.133s.507 1.133 1.133 1.133 1.133-.507 1.133-1.133-.507-1.133-1.133-1.133z" transform="translate(-1081.000000, -1892.000000) translate(360.000000, 1862.000000) translate(610.000000, 0.000000) translate(36.335526, 30.000000) translate(75.000000, 0.000000) translate(36.788261, 39.106624) rotate(-41.000000) translate(-36.788261, -39.106624)"/>
                            <path fill="#60D67D" d="M68.063 34.307c1.174 0 2.125.951 2.125 2.125v7.083c0 1.174-.951 2.125-2.125 2.125l-30.126-.204c-1.166-.354-1.749-.994-1.749-1.921v-7.083c0-1.174.952-2.125 2.125-2.125h29.75zm-4.675 5.666c-.626 0-1.133.508-1.133 1.134 0 .626.507 1.133 1.133 1.133s1.134-.507 1.134-1.133-.508-1.134-1.134-1.134zm3.4 0c-.626 0-1.133.508-1.133 1.134 0 .626.507 1.133 1.133 1.133s1.134-.507 1.134-1.133-.508-1.134-1.134-1.134zm-24.933-2.266c-1.252 0-2.267 1.014-2.267 2.266s1.015 2.267 2.267 2.267 2.267-1.015 2.267-2.267-1.015-2.266-2.267-2.266zm20.4-1.134c-.626 0-1.133.508-1.133 1.134 0 .626.507 1.133 1.133 1.133s1.133-.507 1.133-1.133-.507-1.134-1.133-1.134zm3.4 0c-.626 0-1.133.508-1.133 1.134 0 .626.507 1.133 1.133 1.133s1.133-.507 1.133-1.133-.507-1.134-1.133-1.134z" transform="translate(-1081.000000, -1892.000000) translate(360.000000, 1862.000000) translate(610.000000, 0.000000) translate(36.335526, 30.000000) translate(75.000000, 0.000000) translate(53.188261, 39.973290) rotate(-65.000000) translate(-53.188261, -39.973290)"/>
                            <g fill="url(#er4cnnj18b)" fill-rule="nonzero" transform="translate(-1081.000000, -1892.000000) translate(360.000000, 1862.000000) translate(610.000000, 0.000000) translate(36.335526, 30.000000) translate(75.000000, 0.000000) translate(0.946879, 29.454964)">
                                <g>
                                    <path d="M54.15 53.262c0 3.313-2.685 6-6 6-3.313 0-6-2.687-6-6 0-3.314 2.687-6 6-6 3.315 0 6 2.686 6 6zm-36-6c-3.313 0-6 2.686-6 6 0 3.313 2.687 6 6 6 3.315 0 6-2.687 6-6 0-3.314-2.685-6-6-6zm40.5-41H11.31l-1.68-3C8.556 1.398 6.564.253 4.41.262H1.65c-.827 0-1.5.671-1.5 1.5v3c0 .828.673 1.5 1.5 1.5h2.76l12.84 22.47c.235.376.506.728.81 1.05l-5.58 11.1c-.346.667-.346 1.462 0 2.13l.66 1.14c.422.705 1.19 1.129 2.01 1.11h37.5c.83 0 1.5-.672 1.5-1.5v-3c0-.829-.67-1.5-1.5-1.5H20.01l3-6.27c.628.165 1.273.256 1.92.27h18.69c3.138-.063 6.005-1.788 7.53-4.53l7.05-12.39c1.257-2.15 1.93-4.59 1.95-7.08v-1.5c0-.829-.67-1.5-1.5-1.5z" transform="translate(0.566667, 0.283333)"/>
                                </g>
                            </g>
                        </g>
                    </g>
                </g>
            </g>
        </g>
    </g>
</svg>
