<svg width="81" height="80" viewBox="0 0 81 80" fill="none" xmlns="http://www.w3.org/2000/svg">
    <g clip-path="url(#c2ygv11bda)">
        <path d="M13.072 26.5V59c0 8.837 7.163 16 16 16h22c8.836 0 16-7.163 16-16V26.5" stroke="#666" stroke-width="2"/>
        <mask id="j6dt467bdb" style="mask-type:alpha" maskUnits="userSpaceOnUse" x="12" y="16" width="57" height="21">
            <path fill-rule="evenodd" clip-rule="evenodd" d="M12.072 16h20v14h16V16h20v21h-56V16z" fill="#D9D9D9"/>
        </mask>
        <g mask="url(#j6dt467bdb)">
            <path d="M67.072 27c0 .972-.55 2.034-1.846 3.128-1.292 1.091-3.22 2.119-5.692 3.001C54.601 34.891 47.72 36 40.072 36c-7.649 0-14.53-1.109-19.463-2.87-2.471-.883-4.4-1.91-5.692-3.002-1.297-1.095-1.845-2.156-1.845-3.128s.548-2.034 1.845-3.128c1.292-1.091 3.22-2.119 5.692-3.001C25.542 19.109 32.423 18 40.07 18c7.649 0 14.53 1.109 19.463 2.87 2.471.883 4.4 1.91 5.692 3.002 1.297 1.095 1.846 2.156 1.846 3.128z" stroke="#666" stroke-width="2"/>
        </g>
        <path fill-rule="evenodd" clip-rule="evenodd" d="M40.012 72.646a.5.5 0 0 0 .707 0l2.793-2.792a.5.5 0 0 0-.354-.854h-1.793v-2h-2v2h-1.793a.5.5 0 0 0-.353.854l2.793 2.792zm-.647-19.853h2v-2h1.793a.5.5 0 0 0 .354-.854l-2.793-2.793a.5.5 0 0 0-.707 0l-2.793 2.793a.5.5 0 0 0 .354.854h1.792v2zM25.012 63.646a.5.5 0 0 0 .707 0l2.793-2.792a.5.5 0 0 0-.354-.854h-1.793v-2h-2v2h-1.792a.5.5 0 0 0-.354.854l2.793 2.792zm-.647-19.853h2v-2h1.793a.5.5 0 0 0 .354-.854l-2.793-2.793a.5.5 0 0 0-.707 0l-2.793 2.793a.5.5 0 0 0 .354.854h1.792v2zM56.012 68.646a.5.5 0 0 0 .707 0l2.793-2.792a.5.5 0 0 0-.354-.854h-1.793v-2h-2v2h-1.793a.5.5 0 0 0-.353.854l2.793 2.792zm-.647-19.853h2v-2h1.793a.5.5 0 0 0 .354-.854l-2.793-2.793a.5.5 0 0 0-.707 0l-2.793 2.793a.5.5 0 0 0 .354.854h1.792v2z" fill="#666"/>
        <path fill-rule="evenodd" clip-rule="evenodd" d="M39.718 26.646a.5.5 0 0 0 .707 0l3.793-3.793a.5.5 0 0 0-.353-.853h-2.793v-3h-2v3h-2.793a.5.5 0 0 0-.354.854l3.793 3.792zM39.072 3h2v3h-2V3z" fill="#00A5ED"/>
        <path stroke="#00A5ED" stroke-width="2" d="M36.072 55h9v9h-9zM52.088 60l4.233-7.056L60.556 60h-8.467zM27.755 47l2.4 4-2.4 4h-4.867l-2.4-4 2.4-4h4.867z"/>
        <path d="M43.694 18.914c-.904.724-2.26 1.086-4.067 1.086-1.807 0-3.326-.29-4.556-.869v-1.915a11.87 11.87 0 0 0 4.334.83c1.94 0 2.911-.66 2.911-1.976 0-.552-.163-.967-.489-1.244-.311-.276-.889-.533-1.733-.77l-1.445-.355c-1.14-.29-2.007-.73-2.6-1.323-.578-.592-.866-1.435-.866-2.528 0-1.184.43-2.119 1.288-2.803C37.346 6.349 38.62 6 40.294 6c1.585 0 2.896.244 3.933.73v1.896c-1.2-.447-2.496-.671-3.889-.671-.8 0-1.415.145-1.844.434-.43.29-.645.705-.645 1.244 0 .54.134.948.4 1.225.282.263.8.487 1.556.67l1.422.396c1.304.329 2.267.783 2.889 1.362.637.566.956 1.415.956 2.548 0 1.316-.46 2.343-1.378 3.08z" fill="#00A5ED"/>
        <mask id="p1kucmn4hc" style="mask-type:alpha" maskUnits="userSpaceOnUse" x="0" y="6" width="81" height="21">
            <path fill-rule="evenodd" clip-rule="evenodd" d="M34.072 6h-34v21h34V6zm46 0h-34v21h34V6z" fill="#D9D9D9"/>
        </mask>
        <g mask="url(#p1kucmn4hc)">
            <path d="M1.072 23c7.94-8.387 22.435-14 39-14 16.564 0 31.059 5.613 39 14" stroke="#00A5ED" stroke-dasharray="2 2"/>
        </g>
    </g>
    <defs>
        <clipPath id="c2ygv11bda">
            <path fill="#fff" transform="translate(.072)" d="M0 0h80v80H0z"/>
        </clipPath>
    </defs>
</svg>
