<svg xmlns="http://www.w3.org/2000/svg" width="32" height="32" viewBox="0 0 32 32">
    <g fill="none" fill-rule="evenodd">
        <g fill="#00A5ED" fill-rule="nonzero">
            <g>
                <g>
                    <g>
                        <path d="M9.378 8.236L16 14.858l6.622-6.622c.286-.286.735-.312 1.051-.078l.09.078c.316.316.316.827 0 1.142L17.143 16l6.622 6.622c.315.315.315.826 0 1.142-.316.315-.827.315-1.142 0L16 17.142l-6.622 6.622c-.286.286-.735.312-1.051.078l-.09-.078c-.316-.316-.316-.827 0-1.142L14.857 16 8.236 9.378c-.315-.315-.315-.826 0-1.142.316-.315.827-.315 1.142 0z" transform="translate(-1224.000000, -305.000000) translate(635.000000, 276.000000) translate(50.000000, 29.000000) translate(539.000000, 0.000000)"/>
                    </g>
                </g>
            </g>
        </g>
    </g>
</svg>
