<svg xmlns="http://www.w3.org/2000/svg" width="25" height="25" viewBox="0 0 25 25">
    <g fill="none" fill-rule="evenodd" stroke-linecap="round">
        <g stroke="#FFF">
            <g>
                <g>
                    <g>
                        <path fill-rule="nonzero" stroke-width="1.218" d="M5.71 16.522C2.668 16.522.2 14.054.2 11.01c0-3.044 2.467-5.512 5.51-5.512.104 0 .216.012.338.037l.503.1.081-.507C7.085 2.305 9.532.2 12.423.2c3.24 0 5.865 2.626 5.865 5.865 0 .56-.078 1.11-.231 1.636l-.193.665.796-.039.13-.002c2.256 0 4.09 1.836 4.09 4.099 0 2.215-1.76 4.028-3.968 4.096l-.215.002" transform="translate(-448.000000, -928.000000) translate(360.000000, 908.000000) translate(88.000000, 20.000000) translate(1.000000, 3.000000)"/>
                        <g stroke-width="1.218">
                            <path d="M1.781 7.329L1.781 0M0 2.029L1.781 0M3.557 2.071L1.781 0" transform="translate(-448.000000, -928.000000) translate(360.000000, 908.000000) translate(88.000000, 20.000000) translate(1.000000, 3.000000) translate(7.687466, 11.408351)"/>
                        </g>
                        <g stroke-width="1.218">
                            <path d="M1.781 7.329L1.781 0M0 2.029L1.781 0M3.557 2.071L1.781 0" transform="translate(-448.000000, -928.000000) translate(360.000000, 908.000000) translate(88.000000, 20.000000) translate(1.000000, 3.000000) translate(13.471769, 15.100918) rotate(-180.000000) translate(-13.471769, -15.100918) translate(10.971769, 11.100918)"/>
                        </g>
                        <path stroke-width="1.143" d="M4.176 5.754c2.088-.534 3.69-.018 4.803 1.549" transform="translate(-448.000000, -928.000000) translate(360.000000, 908.000000) translate(88.000000, 20.000000) translate(1.000000, 3.000000)"/>
                    </g>
                </g>
            </g>
        </g>
    </g>
</svg>
