<svg xmlns="http://www.w3.org/2000/svg" width="12" height="21" viewBox="0 0 12 21">
    <g fill="none" fill-rule="evenodd">
        <g fill="#e02020" fill-rule="nonzero">
            <g>
                <g>
                    <g>
                        <g>
                            <path d="M6.108.708h.01c.026 0 .051.001.076.003l.03.002.016.002.018.002.06.008.043.008.007.001.024.006.042.01.05.013.024.008.07.026c.018.006.034.013.05.02l.066.031.035.019s.002 0 .003.002l.014.007c.019.01.037.022.056.034l.038.025.01.007.018.013.037.028.038.031.017.015.017.015.014.013.013.012.034.035.023.024.016.019.012.012 4.094 4.776c.464.542.401 1.358-.14 1.822-.506.433-1.25.408-1.725-.038l-.097-.102-1.822-2.125v13.41c0 .713-.578 1.292-1.291 1.292-.67 0-1.22-.509-1.285-1.16l-.007-.132L4.815 5.43 2.971 7.531c-.47.536-1.287.59-1.823.119-.5-.44-.58-1.18-.206-1.713l.087-.11 4.108-4.68.018-.02.024-.025.03-.03.027-.025.024-.022.007-.006.01-.008.025-.02c.021-.018.043-.035.066-.05l.056-.037.048-.029.075-.04.04-.017.018-.008.055-.022.059-.02.005-.002.012-.004.042-.011.063-.015.006-.002.014-.002.053-.01.051-.006.01-.001.016-.002L6.06.71h.03l.018-.001z" transform="translate(-1112.000000, -226.000000) translate(364.000000, 111.000000) translate(622.000000, 81.000000) translate(126.000000, 34.000000) translate(6.000000, 10.500000) rotate(-180.000000) translate(-6.000000, -10.500000)"/>
                        </g>
                    </g>
                </g>
            </g>
        </g>
    </g>
</svg>
