<svg width="32" height="32" viewBox="0 0 32 32" fill="none" xmlns="http://www.w3.org/2000/svg">
    <rect x="5" y="5" width="22" height="22" rx="4" stroke="#666" stroke-width="1.2"/>
    <rect x="9" y="9" width="14" height="14" rx="2" stroke="#666" stroke-width="1.2"/>
    <path fill-rule="evenodd" clip-rule="evenodd" d="M10.6 2.6a.6.6 0 1 0-1.2 0v2h1.2v-2zM13 2a.6.6 0 0 1 .6.6v2h-1.2v-2A.6.6 0 0 1 13 2zm3.6.6a.6.6 0 1 0-1.2 0v2h1.2v-2zM19 2a.6.6 0 0 1 .6.6v2h-1.2v-2A.6.6 0 0 1 19 2zm3 0a.6.6 0 0 1 .6.6v2h-1.2v-2A.6.6 0 0 1 22 2zM21.4 29a.6.6 0 1 0 1.2 0v-2h-1.2v2zm-2.4.6a.6.6 0 0 1-.6-.6v-2h1.2v2a.6.6 0 0 1-.6.6zm-3.6-.6a.6.6 0 1 0 1.2 0v-2h-1.2v2zm-2.4.6a.6.6 0 0 1-.6-.6v-2h1.2v2a.6.6 0 0 1-.6.6zm-3 0a.6.6 0 0 1-.6-.6v-2h1.2v2a.6.6 0 0 1-.6.6zM29.2 10.4a.6.6 0 0 0 0-1.2h-2v1.2h2zm.6 2.4a.6.6 0 0 1-.6.6h-2v-1.2h2a.6.6 0 0 1 .6.6zm-.6 3.6a.6.6 0 0 0 0-1.2h-2v1.2h2zm.6 2.4a.6.6 0 0 1-.6.6h-2v-1.2h2a.6.6 0 0 1 .6.6zm0 3a.6.6 0 0 1-.6.6h-2v-1.2h2a.6.6 0 0 1 .6.6zM2.8 21.2a.6.6 0 0 0 0 1.2h2v-1.2h-2zm-.6-2.4a.6.6 0 0 1 .6-.6h2v1.2h-2a.6.6 0 0 1-.6-.6zm.6-3.6a.6.6 0 0 0 0 1.2h2v-1.2h-2zm-.6-2.4a.6.6 0 0 1 .6-.6h2v1.2h-2a.6.6 0 0 1-.6-.6zm0-3a.6.6 0 0 1 .6-.6h2v1.2h-2a.6.6 0 0 1-.6-.6z" fill="#666"/>
</svg>
