<svg xmlns="http://www.w3.org/2000/svg" width="8" height="8" viewBox="0 0 8 8">
    <g fill="none" fill-rule="evenodd">
        <g fill="#5BA9CA">
            <g>
                <g>
                    <g>
                        <g>
                            <g>
                                <g>
                                    <g>
                                        <path d="M2.072 6.834l.055-.336.226-1.386c.012-.076.027-.15.035-.227.003-.021-.007-.05-.02-.066l-.953-.967-.346-.35c-.056-.058-.086-.126-.06-.208.028-.085.09-.125.173-.137.574-.086 1.147-.174 1.721-.256.077-.01.117-.04.152-.113.262-.558.53-1.114.796-1.671.031-.066.071-.115.148-.117.064-.001.114.026.143.086l.194.407.649 1.363c.006.014.024.029.039.031.423.065.846.13 1.27.193l.536.083c.081.012.137.057.161.138.024.077-.001.144-.056.2l-.797.809c-.169.17-.336.341-.506.51-.023.024-.022.046-.017.073l.15.92.16.976c.011.071-.01.13-.065.174-.059.046-.12.048-.185.013l-.713-.39c-.308-.168-.616-.336-.923-.506-.028-.015-.049-.014-.076.001-.539.297-1.079.592-1.618.888-.101.055-.194.036-.245-.054-.015-.027-.02-.059-.028-.08" transform="translate(-441.000000, -290.000000) translate(-2.000000, 0.000000) translate(362.000000, 121.000000) translate(1.000000, 47.000000) translate(-0.500000, 23.000000) translate(0.000000, 49.000000) translate(0.000000, 50.000000) translate(80.500000, 0.000000)"/>
                                    </g>
                                </g>
                            </g>
                        </g>
                    </g>
                </g>
            </g>
        </g>
    </g>
</svg>
