<svg width="32" height="32" viewBox="0 0 32 32" fill="none" xmlns="http://www.w3.org/2000/svg">
    <path fill-rule="evenodd" clip-rule="evenodd" d="M23 12.407c-.33.447-.735.858-1.2 1.226V20c0 .267-.248.832-1.387 1.402-1.067.533-2.626.898-4.413.898-1.787 0-3.346-.365-4.413-.898-1.14-.57-1.387-1.135-1.387-1.402v-6.367A6.482 6.482 0 0 1 9 12.407V20c0 1.933 3.134 3.5 7 3.5s7-1.567 7-3.5v-7.593z" fill="#666"/>
    <path d="M22.4 12.5c0 .617-.516 1.337-1.719 1.938-1.167.584-2.821.962-4.681.962-1.86 0-3.514-.378-4.681-.962C10.116 13.837 9.6 13.117 9.6 12.5s.516-1.337 1.719-1.938C12.486 9.978 14.14 9.6 16 9.6c1.86 0 3.514.378 4.681.962 1.203.601 1.719 1.321 1.719 1.938z" stroke="#666" stroke-width="1.2"/>
    <path fill-rule="evenodd" clip-rule="evenodd" d="M2.4 3v-.6H7a.6.6 0 0 1 0 1.2H4.448l4.976 4.976a.6.6 0 0 1-.848.848L3.6 4.448V7a.6.6 0 0 1-1.2 0V3zM29.8 3v-.6h-4.6a.6.6 0 0 0 0 1.2h2.352l-4.976 4.976a.6.6 0 1 0 .848.848L28.6 4.248V7a.6.6 0 0 0 1.2 0V3zM29.8 29.2v.6h-4.6a.6.6 0 0 1 0-1.2h2.552l-4.976-4.976a.6.6 0 0 1 .848-.848L28.6 27.75V25.2a.6.6 0 0 1 1.2 0v4zM2.4 29.2v.6H7a.6.6 0 1 0 0-1.2H4.648l4.976-4.976a.6.6 0 0 0-.848-.849L3.6 27.951V25.2a.6.6 0 1 0-1.2 0v4z" fill="#666"/>
</svg>
