<svg xmlns="http://www.w3.org/2000/svg" xmlns:xlink="http://www.w3.org/1999/xlink" width="161" height="37" viewBox="0 0 161 37">
    <defs>
        <path id="6qgaml6pta" d="M0 0L159.852 0 159.852 36.726 0 36.726z"/>
    </defs>
    <g fill="none" fill-rule="evenodd">
        <g>
            <g>
                <g>
                    <g>
                        <g transform="translate(-727.000000, -1927.000000) translate(360.000000, 1862.000000) translate(305.000000, 0.000000) translate(44.335526, 65.000000) translate(18.000000, 0.000000)">
                            <mask id="41cy730zwb" fill="#fff">
                                <use xlink:href="#6qgaml6pta"/>
                            </mask>
                            <path fill="#0ACD7F" d="M14.277 0c1.97 0 3.823.377 5.563 1.132 1.74.755 3.25 1.773 4.53 3.053 1.28 1.28 2.297 2.79 3.051 4.529.755 1.74 1.133 3.594 1.133 5.563 0 1.97-.378 3.824-1.133 5.563-.754 1.74-1.772 3.25-3.052 4.53-1.28 1.28-2.79 2.297-4.53 3.052-1.739.754-3.593 1.132-5.562 1.132-1.97 0-3.824-.378-5.563-1.132-1.74-.755-3.25-1.773-4.53-3.053-1.28-1.28-2.297-2.79-3.052-4.529C.377 18.1 0 16.246 0 14.277c0-1.97.377-3.824 1.132-5.563.755-1.74 1.773-3.25 3.053-4.53 1.28-1.28 2.79-2.297 4.529-3.052C10.454.377 12.308 0 14.277 0zm-.05 23.63c1.28 0 2.454-.237 3.52-.713 1.067-.476 1.994-1.132 2.782-1.97.788-.836 1.395-1.813 1.822-2.929.426-1.115.64-2.313.64-3.593 0-1.28-.214-2.478-.64-3.594-.427-1.116-1.034-2.093-1.822-2.93-.788-.836-1.715-1.501-2.781-1.993-1.067-.493-2.24-.739-3.52-.739-1.28 0-2.454.246-3.52.739C9.64 6.4 8.73 7.065 7.975 7.902c-.755.836-1.345 1.813-1.772 2.929-.427 1.116-.64 2.314-.64 3.594 0 1.28.213 2.478.64 3.593.427 1.116 1.017 2.093 1.772 2.93.755.837 1.666 1.493 2.733 1.969 1.066.476 2.24.714 3.52.714zm30.18 0c1.246 0 2.297-.5 3.15-1.5.853-1.002 1.28-2.24 1.28-3.718 0-1.477-.427-2.675-1.28-3.594s-1.904-1.378-3.15-1.378c-1.248 0-2.331.451-3.25 1.354-.92.902-1.379 2.109-1.379 3.618 0 .755.123 1.453.37 2.093.246.64.582 1.19 1.009 1.649.427.46.919.82 1.477 1.083.558.262 1.148.394 1.772.394zm-4.629 12.505c0 .394-.197.591-.59.591h-4.382c-.394 0-.59-.197-.59-.59V9.205c0-.394.196-.59.59-.59h2.855c.296 0 .526.196.69.59l.541 1.625c1.149-1.083 2.224-1.764 3.225-2.043 1-.28 1.977-.419 2.93-.419 1.345 0 2.592.263 3.74.788 1.15.525 2.142 1.239 2.98 2.141.836.903 1.484 1.961 1.944 3.176.46 1.214.689 2.51.689 3.89 0 1.378-.23 2.682-.69 3.913-.459 1.23-1.09 2.314-1.895 3.25-.804.935-1.756 1.673-2.855 2.215-1.1.541-2.306.812-3.619.812-.82 0-1.764-.131-2.83-.394-1.067-.263-1.978-.673-2.733-1.23v9.205zm18.807-9.501l-.148-.148c-.066-.065-.099-.164-.099-.295 0-.066.017-.132.05-.197l1.033-3.348c.033-.098.148-.148.345-.148.099 0 .18.017.246.05.197.098.476.23.837.394s.796.32 1.305.467c.508.148 1.075.28 1.698.394.624.115 1.264.172 1.92.172.197 0 .443-.016.739-.049.295-.033.582-.098.861-.197.28-.098.517-.221.715-.369.196-.148.294-.353.294-.615 0-.427-.246-.763-.737-1.01-.493-.246-1.1-.476-1.823-.689-.722-.213-1.517-.451-2.387-.714-.87-.262-1.666-.631-2.388-1.107s-1.33-1.108-1.821-1.896c-.493-.787-.739-1.821-.739-3.101 0-.985.205-1.846.615-2.585.41-.738.969-1.354 1.674-1.846.706-.492 1.543-.853 2.511-1.083.968-.23 2.01-.345 3.127-.345 1.214 0 2.379.14 3.495.419 1.116.279 1.936.533 2.461.763.099.065.198.18.296.344 0 .132-.017.214-.05.247l-1.034 3.643c-.065.164-.196.246-.393.246-.033 0-.066-.008-.099-.025-.033-.016-.082-.024-.148-.024-.59-.197-1.345-.361-2.264-.493-.92-.131-1.756-.197-2.51-.197-.985 0-1.585.107-1.798.32-.212.214-.32.484-.32.813 0 .393.246.713.739.96.492.246 1.1.492 1.821.738.722.246 1.518.509 2.388.788.87.279 1.665.648 2.388 1.107.722.46 1.329 1.026 1.821 1.699s.739 1.534.739 2.585c0 1.181-.247 2.174-.739 2.978-.492.804-1.124 1.452-1.895 1.945-.772.492-1.641.837-2.609 1.033-.969.197-1.929.296-2.88.296-1.215 0-2.413-.123-3.594-.37-1.182-.246-2.396-.762-3.643-1.55zM102.892.344c.394 0 .591.198.591.591v26.782c0 .394-.197.59-.59.59H98.51c-.394 0-.591-.196-.591-.59v-9.108l-12.948-8.418v17.526c0 .394-.197.59-.59.59H80c-.394 0-.59-.196-.59-.59V.59c0-.361.229-.542.688-.542L97.92 12.062V.935c0-.393.197-.59.59-.59h4.382zm16.05 8.025c1.345 0 2.617.263 3.815.788s2.248 1.239 3.15 2.141c.903.903 1.617 1.961 2.142 3.176.525 1.214.788 2.51.788 3.89 0 1.378-.263 2.682-.788 3.913-.525 1.23-1.239 2.314-2.141 3.25-.903.935-1.953 1.673-3.151 2.215-1.198.541-2.47.812-3.816.812-1.41 0-2.74-.27-3.987-.812-1.247-.542-2.339-1.28-3.274-2.216-.935-.935-1.674-2.018-2.215-3.25-.542-1.23-.813-2.534-.813-3.913 0-1.378.271-2.675.813-3.89.541-1.214 1.28-2.272 2.215-3.175.935-.902 2.027-1.616 3.274-2.141 1.247-.525 2.576-.788 3.987-.788zm-.05 15.262c.591 0 1.149-.132 1.675-.394.524-.263.992-.624 1.402-1.083.41-.46.73-1.01.96-1.65.23-.64.345-1.337.345-2.092 0-1.51-.435-2.7-1.305-3.569-.87-.87-1.895-1.305-3.077-1.305-1.28 0-2.38.427-3.298 1.28-.92.854-1.379 2.052-1.379 3.594 0 .755.123 1.453.37 2.093.246.64.582 1.19 1.009 1.649.426.46.919.82 1.477 1.083.558.262 1.165.394 1.821.394zm26.93-5.514c-.132 0-.222.025-.271.074-.05.049-.14.172-.271.369l-5.07 9.502c-.23.23-.477.344-.738.344-.264 0-.51-.115-.74-.344l-6.941-18.856c0-.394.197-.59.59-.59h4.087c.197 0 .36.057.492.172.131.115.23.254.295.418l3.151 8.616 4.43-8.911c.132-.263.304-.419.518-.468.213-.05.369-.074.467-.074.099 0 .255.025.468.074.213.05.386.205.517.468l4.48 8.91 3.102-8.615c.065-.164.164-.303.295-.418.131-.115.295-.173.492-.173h4.086c.394 0 .591.197.591.591l-6.842 18.856c-.23.23-.477.344-.74.344-.262 0-.508-.115-.738-.344l-5.169-9.502c-.131-.197-.222-.32-.27-.37-.05-.048-.14-.073-.272-.073z" mask="url(#41cy730zwb)"/>
                        </g>
                    </g>
                </g>
            </g>
        </g>
    </g>
</svg>
