<svg width="81" height="80" viewBox="0 0 81 80" fill="none" xmlns="http://www.w3.org/2000/svg">
    <mask id="k4mg1xz09a" style="mask-type:alpha" maskUnits="userSpaceOnUse" x="10" y="25" width="63" height="53">
        <path d="M10.928 25h62v23h-23v30l-39-2.5V25z" fill="#D9D9D9"/>
    </mask>
    <g mask="url(#k4mg1xz09a)">
        <path d="M13.928 26.5V59c0 8.837 7.164 16 16 16h22c8.837 0 16-7.163 16-16V26.5" stroke="#666" stroke-width="2"/>
    </g>
    <mask id="80q8mht0vb" style="mask-type:alpha" maskUnits="userSpaceOnUse" x="15" y="33" width="51" height="10">
        <path d="M15.928 38v-4.5l10.5 3 13.5 1.5 20-2 5.5-2.5V39l-14 3.5-26-.5-9.5-4z" fill="#000"/>
    </mask>
    <g mask="url(#80q8mht0vb)">
        <path d="M67.928 32c0 .972-.549 2.033-1.845 3.128-1.292 1.091-3.221 2.119-5.692 3.001C55.458 39.891 48.577 41 40.928 41c-7.648 0-14.53-1.109-19.462-2.87-2.471-.883-4.4-1.91-5.692-3.002-1.297-1.095-1.846-2.156-1.846-3.128s.55-2.034 1.846-3.128c1.292-1.091 3.22-2.119 5.692-3.001C26.399 24.109 33.28 23 40.928 23c7.649 0 14.53 1.109 19.463 2.87 2.47.883 4.4 1.91 5.692 3.002 1.296 1.095 1.845 2.156 1.845 3.128z" stroke="#00A5ED" stroke-width="2"/>
    </g>
    <path d="m60.522 52 2.646 2.646a.5.5 0 0 0 .707 0L66.522 52M66.522 73l-3-3m0 0-3 3m3-3V54.5M52.928 59.848l3.615-.969a.5.5 0 0 0 .354-.612l-.969-3.615M74.115 65.152l-4.098 1.098m0 0 1.098 4.098m-1.098-4.098L56.593 58.5M55.928 70.348l.969-3.615a.5.5 0 0 0-.354-.612l-3.615-.97M71.115 54.652l-1.098 4.098m0 0 4.098 1.098m-4.098-1.098L56.593 66.5" stroke="#00A5ED" stroke-width="2" stroke-linecap="round" stroke-linejoin="round"/>
    <path d="M67.928 27c0 .972-.549 2.034-1.845 3.128-1.292 1.091-3.221 2.119-5.692 3.001C55.458 34.891 48.577 36 40.928 36c-7.648 0-14.53-1.109-19.462-2.87-2.471-.883-4.4-1.91-5.692-3.002-1.297-1.095-1.846-2.156-1.846-3.128s.55-2.034 1.846-3.128c1.292-1.091 3.22-2.119 5.692-3.001C26.399 19.109 33.28 18 40.928 18c7.649 0 14.53 1.109 19.463 2.87 2.47.883 4.4 1.91 5.692 3.002 1.296 1.095 1.845 2.156 1.845 3.128z" fill="#fff" stroke="#666" stroke-width="2"/>
    <mask id="scw7rqrrpc" style="mask-type:alpha" maskUnits="userSpaceOnUse" x="16" y="19" width="51" height="10">
        <path d="m18.282 28.354-1.901-1.901a.5.5 0 0 1 .096-.782l4.386-2.632a.5.5 0 0 1 .14-.057l14.355-3.465a.502.502 0 0 1 .143-.013l19.34.992a.499.499 0 0 1 .167.037l11.294 4.706a.5.5 0 0 1 .192.782l-1.916 2.3a.5.5 0 0 1-.384.179H18.635a.5.5 0 0 1-.353-.146z" fill="#00A5ED"/>
    </mask>
    <g mask="url(#scw7rqrrpc)">
        <path d="M67.928 31c0 .972-.549 2.033-1.845 3.128-1.292 1.091-3.221 2.119-5.692 3.001C55.458 38.891 48.577 40 40.928 40c-7.648 0-14.53-1.109-19.462-2.87-2.471-.883-4.4-1.91-5.692-3.002-1.297-1.095-1.846-2.156-1.846-3.128s.55-2.034 1.846-3.128c1.292-1.091 3.22-2.119 5.692-3.001C26.399 23.109 33.28 22 40.928 22c7.649 0 14.53 1.109 19.463 2.87 2.47.883 4.4 1.91 5.692 3.002 1.296 1.095 1.845 2.156 1.845 3.128z" stroke="#00A5ED" stroke-width="2"/>
    </g>
    <path d="m30.428 23-7 7M60.428 25.5l-4.5 4.5M36.428 26.5l-5 5M25.928 37l-1.5 1.5" stroke="#00A5ED" stroke-width="2" stroke-linecap="round"/>
    <circle cx="65.428" cy="15.5" r="2.5" stroke="#00A5ED" stroke-width="2"/>
    <circle cx="20.428" cy="5.5" r="2.5" stroke="#00A5ED" stroke-width="2"/>
    <circle cx="12.428" cy="71.5" r="2.5" stroke="#00A5ED" stroke-width="2"/>
    <circle cx="10.428" cy="13.5" r="2.5" stroke="#666" stroke-width="2"/>
</svg>
