<svg width="121" height="120" viewBox="0 0 121 120" fill="none" xmlns="http://www.w3.org/2000/svg">
    <path fill-rule="evenodd" clip-rule="evenodd" d="M74.382 51.897H39.218v-.021c-5.613-.345-10.051-4.704-10.051-10.03 0-4.395 3.022-8.13 7.232-9.496-.035-.42-.053-.844-.053-1.273C36.346 22.75 43.096 16 51.423 16c6.349 0 11.78 3.924 14.003 9.478a6.462 6.462 0 0 1 9.652 4.902c5.631.351 10.089 5.03 10.089 10.748 0 5.707-4.438 10.376-10.051 10.746v.023h-.734z" fill="#E3EBF1"/>
    <path d="m75.087 76.998 2.311-27.705H38.193l2.311 27.705a12 12 0 0 0 11.959 11.003h10.666a12 12 0 0 0 11.958-11.003z" fill="url(#q6dvu3zoza)"/>
    <path d="M76.898 48.916c0 .913-.456 1.833-1.386 2.72-.93.889-2.304 1.712-4.043 2.414-3.474 1.404-8.308 2.283-13.673 2.283s-10.2-.88-13.674-2.283c-1.739-.702-3.112-1.525-4.043-2.414-.93-.888-1.386-1.807-1.386-2.72 0-.913.457-1.832 1.386-2.72.931-.888 2.304-1.712 4.043-2.414 3.474-1.403 8.309-2.282 13.674-2.282s10.2.88 13.673 2.282c1.739.702 3.113 1.526 4.043 2.415.93.887 1.386 1.806 1.386 2.72z" fill="url(#7tkm2ukjsb)" stroke="#fff"/>
    <mask id="u4kntnxfjc" fill="#fff">
        <path fill-rule="evenodd" clip-rule="evenodd" d="M77.302 49.705c.064-.26.096-.523.096-.789 0-4.372-8.776-7.916-19.602-7.916-10.642 0-19.304 3.425-19.595 7.694h-.034l.029.347c.004.099.012.197.025.294l2.293 27.436a12 12 0 0 0 11.959 11h10.929a12 12 0 0 0 11.97-11.142l1.93-26.924z"/>
    </mask>
    <path d="m77.302 49.705-.97-.238-.02.082-.007.084.997.072zm-39.1-1.01v1h.933l.064-.932-.998-.069zm-.035 0v-1H37.08l.09 1.083.997-.084zm.029.346 1-.038-.002-.022-.002-.023-.996.083zm.025.294.996-.083-.002-.023-.003-.022-.992.128zm2.293 27.436.997-.084-.997.084zm34.857-.142-.997-.071.997.071zm1.027-27.713c0 .184-.022.367-.067.55l1.943.476c.082-.335.124-.677.124-1.026h-2zM57.796 42c5.317 0 10.085.872 13.486 2.246 1.704.688 3.016 1.482 3.885 2.312.868.828 1.231 1.625 1.231 2.358h2c0-1.453-.733-2.738-1.85-3.804-1.114-1.064-2.672-1.976-4.517-2.72C68.338 40.9 63.305 40 57.796 40v2zm-18.597 6.763c.05-.724.459-1.515 1.36-2.33.902-.815 2.227-1.588 3.924-2.256C47.873 42.843 52.57 42 57.796 42v-2c-5.416 0-10.371.87-14.045 2.316-1.835.722-3.395 1.605-4.533 2.633-1.136 1.028-1.918 2.266-2.015 3.678l1.996.136zm-.998-1.069h-.034v2h.034v-2zm-1.03 1.084.029.347 1.992-.167-.029-.347-1.992.167zm2.041.43a2.293 2.293 0 0 1-.017-.205l-1.998.077c.005.128.015.256.032.383l1.983-.256zm-1.988.21 2.294 27.436 1.993-.167-2.294-27.435-1.993.166zm2.294 27.436A13 13 0 0 0 52.473 88.77v-2A11 11 0 0 1 41.51 76.687l-1.993.167zM52.473 88.77h10.929v-2h-10.93v2zm10.929 0c6.819 0 12.479-5.269 12.967-12.07l-1.995-.143A11 11 0 0 1 63.402 86.77v2zM76.369 76.7l1.93-26.925-1.994-.143-1.931 26.925 1.995.143z" fill="#CCC" mask="url(#u4kntnxfjc)"/>
    <path d="m53.167 46.5 2 2m0 0 2-2m-2 2V34M62.167 33l-2-2m0 0-2 2m2-2v14.5" stroke="#00A5ED" stroke-linecap="round"/>
    <path d="M97.167 19h8m0 0v8.5m0-8.5-22 22M24.167 107h-8m0 0v-8.5m0 8.5 22-22" stroke="#00A5ED" stroke-width="2"/>
    <path d="M29.42 74.686c0 4.592-4.31 8.314-9.626 8.314-5.317 0-9.627-3.722-9.627-8.314 0-4.592 4.31-10.94 9.627-10.94 5.317 0 9.627 6.348 9.627 10.94z" fill="#00A5ED"/>
    <path d="m19.319 79.36.132-1.26c-.664-.063-1.248-.235-1.752-.515v-.84c.56.288 1.172.46 1.836.516l.3-3.012-.312-.108c-.6-.2-1.048-.464-1.344-.792-.288-.328-.432-.788-.432-1.38 0-.648.216-1.168.648-1.56.44-.4 1.072-.604 1.896-.612l.06-.696h.768l-.072.744c.344.056.752.188 1.224.396v.852c-.464-.192-.9-.32-1.308-.384l-.276 2.772.096.024c.672.232 1.164.512 1.476.84.312.328.468.812.468 1.452 0 .704-.208 1.264-.624 1.68-.416.408-1.048.628-1.896.66l-.12 1.224h-.768zm2.352-3.467c0-.36-.08-.644-.24-.852-.16-.208-.444-.388-.852-.54l-.276 2.76c.448-.056.788-.204 1.02-.444.232-.24.348-.548.348-.924zm-2.88-4.02c0 .376.076.66.228.852.152.192.46.364.924.516l.252-2.568c-.44.008-.784.12-1.032.336-.248.216-.372.504-.372.864z" fill="#fff"/>
    <path d="m15.74 65.497-2.947-5.106 5.527 1.532 1.474-2.553 2.21 2.553 4.791-1.532-2.58 5.106H15.74z" fill="#00A5ED"/>
    <path d="M15.418 65.059h9.19c.874-.438 2.1-2.625 3.5-.875s3.209-.146 3.938-1.313" stroke="#CCC"/>
    <mask id="j09aa21u1d" fill="#fff">
        <path d="M35.966 67.527a15.999 15.999 0 1 0-30.745 3.184l1.248-.477a14.664 14.664 0 1 1 28.178-2.918l1.32.211z"/>
    </mask>
    <path d="M35.966 67.527a15.999 15.999 0 1 0-30.745 3.184l1.248-.477a14.664 14.664 0 1 1 28.178-2.918l1.32.211z" stroke="#00A5ED" stroke-width="2" mask="url(#j09aa21u1d)"/>
    <path d="m32.667 65 2.5 2.5 2.5-2.5" stroke="#00A5ED"/>
    <path d="M84.167 65h5.063l4.78 9.429h3.938l5.063 9.142h8.156m0 0-1.125-1.428m1.125 1.428L110.042 85" stroke="#CCC"/>
    <path fill="#00A5ED" d="M84.167 71h4v25h-4zM93.167 78h4v18h-4zM103.167 87h4v9h-4z"/>
    <path d="M81.167 71.5v27h28.5" stroke="#CCC"/>
    <defs>
        <linearGradient id="q6dvu3zoza" x1="74.382" y1="69.684" x2="51.01" y2="69.684" gradientUnits="userSpaceOnUse">
            <stop stop-color="#D9D9D9"/>
            <stop offset="1" stop-color="#fff"/>
        </linearGradient>
        <linearGradient id="7tkm2ukjsb" x1="40.078" y1="49.293" x2="65.335" y2="55.325" gradientUnits="userSpaceOnUse">
            <stop stop-color="#EAEAEA"/>
            <stop offset="1" stop-color="#fff"/>
        </linearGradient>
    </defs>
</svg>
