<svg xmlns="http://www.w3.org/2000/svg" width="28" height="28" viewBox="0 0 28 28">
    <g fill="none" fill-rule="evenodd">
        <g>
            <g>
                <g>
                    <g>
                        <g>
                            <g stroke="#000" stroke-width="1.33" transform="translate(-364.000000, -121.000000) translate(-2.000000, 0.000000) translate(362.000000, 121.000000) translate(4.000000, 0.000000) translate(2.100000, 3.850000) translate(0.323802, 0.000000)">
                                <path stroke-linecap="round" d="M18.226 13.149v-.693c0-1.853 1.489-3.356 3.325-3.356 1.837 0 3.325 1.503 3.325 3.356v.844" transform="translate(21.551198, 11.200000) rotate(-270.000000) translate(-21.551198, -11.200000)"/>
                                <path stroke-linecap="round" d="M-1.024 13.149v-.693c0-1.853 1.489-3.356 3.325-3.356 1.837 0 3.325 1.503 3.325 3.356v.844" transform="translate(2.301198, 11.200000) scale(-1, 1) rotate(-270.000000) translate(-2.301198, -11.200000)"/>
                                <path stroke-linecap="round" d="M4.401 7.875L4.401 14.175M19.451 7.875L19.451 14.175M3.701 7.48c0-3.842 4.218-7.35 8.4-7.35s8.4 3.508 8.4 7.35"/>
                                <path stroke-linecap="round" d="M3.126 15.453c.48 1.124 1.352 2.01 2.616 2.656 1.898.97 4.498.322 4.498.322" transform="translate(6.683197, 17.047931) rotate(14.000000) translate(-6.683197, -17.047931)"/>
                                <rect width="4.9" height="2.8" x="9.8" y="17.85" rx="1.4"/>
                            </g>
                        </g>
                    </g>
                </g>
            </g>
        </g>
    </g>
</svg>
