<svg width="32" height="32" viewBox="0 0 32 32" fill="none" xmlns="http://www.w3.org/2000/svg">
    <circle cx="9" cy="8.963" r="4.4" stroke="#00A5ED" stroke-width="1.2"/>
    <circle cx="9" cy="22.927" r="4.4" stroke="#00A5ED" stroke-width="1.2"/>
    <path fill-rule="evenodd" clip-rule="evenodd" d="m28.898 9.635.425-.423-.422-.426-2.82-2.837a.6.6 0 1 0-.851.846l1.651 1.662-12.877-.093a.6.6 0 0 0-.008 1.2l13.175.095-1.956 1.945a.6.6 0 1 0 .846.85l2.837-2.82zM28.898 23.598l.425-.423-.422-.425-2.82-2.837a.6.6 0 0 0-.851.846l1.651 1.661-12.877-.093a.6.6 0 0 0-.008 1.2l13.175.095-1.956 1.945a.6.6 0 1 0 .846.851l2.837-2.82z" fill="#00A5ED"/>
</svg>
