<svg xmlns="http://www.w3.org/2000/svg" width="63" height="80" viewBox="0 0 63 80">
    <defs>
        <linearGradient id="salh0gnbva" x1="31.393%" x2="66.391%" y1="0%" y2="100%">
            <stop offset="0%" stop-color="#A7F6C0"/>
            <stop offset="100%" stop-color="#60D67D"/>
        </linearGradient>
        <linearGradient id="qlfzie494b" x1="31.988%" x2="50%" y1="0%" y2="100%">
            <stop offset="0%" stop-color="#FCDB00"/>
            <stop offset="100%" stop-color="#F7B500"/>
        </linearGradient>
        <linearGradient id="51r7y2wurc" x1="23.904%" x2="50%" y1="0%" y2="100%">
            <stop offset="0%" stop-color="#FCDB00"/>
            <stop offset="100%" stop-color="#F7B500"/>
        </linearGradient>
    </defs>
    <g fill="none" fill-rule="evenodd">
        <g>
            <g>
                <g>
                    <g>
                        <g>
                            <path fill="url(#salh0gnbva)" d="M30.95 0L6.188 11.361c1.413 16.102 3.493 26.855 6.24 32.26C15.181 49.033 21.354 54.493 30.95 60c9.763-6.036 16.034-11.496 18.814-16.38 3.073-5.398 5.215-16.15 6.426-32.259L30.949 0z" transform="translate(-474.000000, -1904.000000) translate(360.000000, 1862.000000) translate(44.335526, 42.000000) translate(70.435810, 0.000000) translate(0.809761, 0.000000)"/>
                            <g fill="#FFF">
                                <path d="M9.177.575c3.472 0 6.305 2.736 6.426 6.161l.004.23v4.11h-2.85v-4.11c0-1.953-1.6-3.541-3.58-3.541C7.26 3.425 5.7 4.912 5.6 6.778l-.005.188v4.137h12.008c.414 0 .75.336.75.75V25.25c0 .414-.336.75-.75.75H.75c-.414 0-.75-.336-.75-.75V11.853c0-.414.336-.75.75-.75h1.996V6.966c0-3.532 2.882-6.391 6.43-6.391zm.187 13.657c-1.383 0-2.503 1.111-2.503 2.482 0 .786.367 1.486.94 1.94l.137.101v2.282l.007.137c.07.723.678 1.288 1.419 1.288.74 0 1.349-.565 1.418-1.288l.007-.137v-2.282c.651-.448 1.077-1.195 1.077-2.04 0-1.372-1.12-2.483-2.502-2.483z" transform="translate(-474.000000, -1904.000000) translate(360.000000, 1862.000000) translate(44.335526, 42.000000) translate(70.435810, 0.000000) translate(0.809761, 0.000000) translate(22.012201, 12.250000)"/>
                            </g>
                            <path fill="url(#qlfzie494b)" d="M46.77 48.606l1.055 4.119c1.728.407 3.315 1.183 4.673 2.239l3.496-1.628 2.43 3-2.335 3.14c.723 1.558 1.126 3.295 1.126 5.126 0 .086 0 .172-.002.257l3.073 1.568-.869 3.763-3.598.085c-.838 1.593-2.018 2.979-3.442 4.058l.802 3.785-3.47 1.693-2.694-3.169c-.652.108-1.32.164-2.003.164-.826 0-1.632-.082-2.411-.239l-2.71 3.225-3.47-1.692.839-4.073c-1.267-1.043-2.32-2.337-3.084-3.806l-3.965-.072-.869-3.763 3.467-1.793c0-1.728.361-3.372 1.01-4.861l-2.579-3.428 2.43-3 3.769 1.728c1.287-1.02 2.786-1.786 4.419-2.222l1.051-4.204h3.861zm-2.03 10.267c-3.313 0-5.999 2.687-5.999 6 0 3.314 2.686 6 6 6 3.313 0 6-2.686 6-6 .026-2.071-.866-3.737-2.676-4.995-.951-.635-2.095-1.005-3.324-1.005z" transform="translate(-474.000000, -1904.000000) translate(360.000000, 1862.000000) translate(44.335526, 42.000000) translate(70.435810, 0.000000) translate(0.809761, 0.000000)"/>
                            <path fill="url(#51r7y2wurc)" d="M17.77 42.606l1.055 4.119c1.728.407 3.315 1.183 4.673 2.239l3.496-1.628 2.43 3-2.335 3.14c.723 1.558 1.126 3.295 1.126 5.126 0 .086 0 .172-.002.257l3.073 1.568-.869 3.763-3.598.085c-.838 1.593-2.018 2.979-3.442 4.058l.802 3.785-3.47 1.693-2.694-3.169c-.652.108-1.32.164-2.003.164-.826 0-1.632-.082-2.411-.239l-2.71 3.225-3.47-1.692.839-4.073c-1.267-1.043-2.32-2.337-3.084-3.806l-3.965-.072-.869-3.763 3.467-1.793c0-1.728.361-3.372 1.01-4.861L2.24 50.304l2.43-3 3.769 1.728c1.287-1.02 2.786-1.786 4.419-2.222l1.051-4.204h3.861zm-2.03 10.267c-3.313 0-5.999 2.687-5.999 6 0 3.314 2.686 6 6 6 3.313 0 6-2.686 6-6 .026-2.071-.866-3.737-2.676-4.995-.951-.635-2.095-1.005-3.324-1.005z" transform="translate(-474.000000, -1904.000000) translate(360.000000, 1862.000000) translate(44.335526, 42.000000) translate(70.435810, 0.000000) translate(0.809761, 0.000000)"/>
                        </g>
                    </g>
                </g>
            </g>
        </g>
    </g>
</svg>
