<svg xmlns="http://www.w3.org/2000/svg" width="18" height="12" viewBox="0 0 18 12">
    <g fill="none" fill-rule="evenodd" stroke-linecap="round">
        <g>
            <g>
                <g>
                    <g>
                        <g>
                            <g>
                                <g>
                                    <g>
                                        <path stroke="#999" d="M9.7 11c0 .552-.448 1-1 1h-5c-1.105 0-2-.895-2-2V4c0-1.105.895-2 2-2h5c.552 0 1 .448 1 1" transform="translate(-897.000000, -524.000000) translate(361.000000, 443.000000) translate(0.000000, 48.000000) translate(30.000000, 30.000000) translate(337.000000, 1.000000) translate(111.000000, 0.000000) translate(57.000000, 1.249003) translate(0.300218, 0.000000)"/>
                                        <path stroke="#999" stroke-dasharray="2" d="M16.7 12h-5c-1.105 0-2-.895-2-2V4c0-1.105.895-2 2-2h5c.552 0 1 .448 1 1" transform="translate(-897.000000, -524.000000) translate(361.000000, 443.000000) translate(0.000000, 48.000000) translate(30.000000, 30.000000) translate(337.000000, 1.000000) translate(111.000000, 0.000000) translate(57.000000, 1.249003) translate(0.300218, 0.000000) translate(13.699782, 7.000000) scale(-1, 1) translate(-13.699782, -7.000000)"/>
                                        <g stroke="#979797" stroke-linejoin="round">
                                            <path d="M0 1.681L5.591 1.681 4.136 0M4.136 3.172L5.591 1.681" transform="translate(-897.000000, -524.000000) translate(361.000000, 443.000000) translate(0.000000, 48.000000) translate(30.000000, 30.000000) translate(337.000000, 1.000000) translate(111.000000, 0.000000) translate(57.000000, 1.249003) translate(0.300218, 0.000000) translate(7.000000, 5.318693)"/>
                                        </g>
                                    </g>
                                </g>
                            </g>
                        </g>
                    </g>
                </g>
            </g>
        </g>
    </g>
</svg>
