<svg width="121" height="120" viewBox="0 0 121 120" fill="none" xmlns="http://www.w3.org/2000/svg">
    <path fill-rule="evenodd" clip-rule="evenodd" d="M105.833 44.984a7.5 7.5 0 0 0 7-7.484 7.5 7.5 0 0 0-9.002-7.35c.002-.05.002-.1.002-.15a5 5 0 0 0-7-4.584 9.5 9.5 0 0 0-9.5-9.416c-4.453 0-8.19 3.064-9.219 7.198a8.031 8.031 0 0 0-1.78-.198c-4.143 0-7.5 3.134-7.5 7 0 .695.108 1.366.31 2h-.31v13h36.999v-.016z" fill="#E3EBF1"/>
    <path d="m80.954 83.845 3.743-44.873H28.103l3.743 44.873a12 12 0 0 0 11.958 11.003h25.192a12 12 0 0 0 11.958-11.003z" fill="url(#kow9z5fv4a)"/>
    <path d="M84.197 38.428c0 1.398-.7 2.779-2.069 4.086-1.37 1.31-3.38 2.51-5.906 3.53-5.048 2.04-12.056 3.311-19.822 3.311s-14.774-1.272-19.822-3.31c-2.525-1.02-4.535-2.222-5.906-3.53-1.37-1.309-2.069-2.69-2.069-4.087 0-1.398.7-2.78 2.069-4.087 1.37-1.309 3.381-2.51 5.906-3.53C41.626 28.772 48.634 27.5 56.4 27.5s14.774 1.272 19.822 3.31c2.525 1.02 4.535 2.222 5.906 3.531 1.37 1.308 2.07 2.689 2.07 4.087z" fill="url(#43ofg4dqwb)" stroke="#fff"/>
    <mask id="kj568z12wc" fill="#fff">
        <path fill-rule="evenodd" clip-rule="evenodd" d="M84.559 39.569c.092-.376.139-.756.139-1.141C84.698 32.116 72.029 27 56.401 27c-15.363 0-27.866 4.944-28.286 11.107h-.05l.043.514c.005.133.017.266.033.398l3.72 44.497a12 12 0 0 0 11.959 11h25.628a12 12 0 0 0 11.969-11.142l3.142-43.805z"/>
    </mask>
    <path d="m84.559 39.569-.971-.239-.02.083-.007.084.998.072zm-56.444-1.462v1h.934l.064-.932-.998-.068zm-.05 0v-1h-1.087l.09 1.084.997-.084zm.043.514.999-.041v-.021l-.003-.021-.996.083zm.033.398.997-.083-.002-.021-.003-.021-.992.125zm3.72 44.497.997-.084-.996.084zm49.556-.142-.998-.071.998.071zm2.281-44.946c0 .302-.037.603-.11.902l1.942.477a5.77 5.77 0 0 0 .168-1.38h-2zM56.401 28c7.718 0 14.66 1.265 19.634 3.274 2.49 1.006 4.439 2.178 5.749 3.429 1.307 1.248 1.914 2.507 1.914 3.725h2c0-1.938-.977-3.686-2.533-5.172-1.554-1.484-3.75-2.774-6.38-3.836C71.517 27.293 64.31 26 56.4 26v2zM29.112 38.175c.082-1.196.756-2.437 2.11-3.661 1.353-1.224 3.318-2.365 5.798-3.341C41.977 29.223 48.814 28 56.401 28v-2c-7.776 0-14.872 1.25-20.113 3.312-2.618 1.03-4.818 2.28-6.407 3.718-1.59 1.436-2.636 3.124-2.764 5.01l1.995.135zm-.997-1.068h-.05v2h.05v-2zm-1.047 1.084.043.513 1.993-.166-.043-.514-1.993.167zm2.065.703a3.715 3.715 0 0 1-.026-.314l-1.998.082c.006.162.02.323.04.483l1.984-.251zm-1.988.209 3.72 44.496 1.993-.167-3.72-44.496-1.993.167zm3.72 44.496A13 13 0 0 0 43.82 95.516v-2a11 11 0 0 1-10.962-10.084l-1.993.167zM43.82 95.516h25.628v-2H43.82v2zm25.628 0c6.818 0 12.478-5.269 12.966-12.07l-1.995-.143a11 11 0 0 1-10.971 10.213v2zm12.966-12.07 3.142-43.806-1.995-.143-3.142 43.806 1.995.143z" fill="#CCC" mask="url(#kj568z12wc)"/>
    <path d="m79.077 78.632 3.786 3.786a.5.5 0 0 0 .707 0l3.786-3.786M87.356 107.609l-4.14-4.14m0 0-4.14 4.14m4.14-4.14V82.081M68.6 89.46l5.17-1.385a.5.5 0 0 0 .355-.612l-1.386-5.172M97.834 96.78l-5.655 1.515m0 0 1.515 5.655m-1.515-5.655L73.656 87.6M72.739 103.95l1.386-5.172a.5.5 0 0 0-.354-.613l-5.172-1.385M93.694 82.291l-1.515 5.655m0 0 5.655 1.515m-5.655-1.515L73.657 98.64" stroke="#00A5ED" stroke-width="2" stroke-linecap="round" stroke-linejoin="round"/>
    <path fill-rule="evenodd" clip-rule="evenodd" d="M36.334 82h-24.5v-.015c-3.91-.24-7-3.276-7-6.985 0-3.06 2.104-5.663 5.036-6.614a10.64 10.64 0 0 1-.036-.886c0-5.799 4.7-10.5 10.5-10.5 4.42 0 8.204 2.733 9.752 6.6a4.5 4.5 0 0 1 6.722 3.414 7.5 7.5 0 0 1 .025 14.97V82h-.5z" fill="#E3EBF1"/>
    <rect x="49.834" y="31" width="2" height="10" rx="1" fill="#00A5ED"/>
    <rect x="62.834" y="39" width="2" height="6" rx="1" fill="#00A5ED"/>
    <rect x="41.834" y="17" width="2" height="6" rx="1" fill="#00A5ED"/>
    <rect x="55.834" y="35" width="2" height="10" rx="1" transform="rotate(90 55.834 35)" fill="#00A5ED"/>
    <rect x="66.834" y="41" width="2" height="6" rx="1" transform="rotate(90 66.834 41)" fill="#00A5ED"/>
    <rect x="45.834" y="19" width="2" height="6" rx="1" transform="rotate(90 45.834 19)" fill="#00A5ED"/>
    <circle cx="97.834" cy="46" r="10" fill="#fff"/>
    <path d="m27.334 74 2.5 2.5-2.5 2.5" stroke="#00A5ED" stroke-width="2" stroke-linecap="round"/>
    <mask id="34ev8j07xd" style="mask-type:alpha" maskUnits="userSpaceOnUse" x="15" y="75" width="20" height="11">
        <rect x="16.834" y="76.5" width="17" height="8" rx="4" stroke="#D9D9D9" stroke-width="2"/>
    </mask>
    <g mask="url(#34ev8j07xd)">
        <path d="m29.334 76.5-.5-1.5-5.5-1-8 .5c-.5 2-1.5 6.1-1.5 6.5 0 .4 2 2 3 3l3-2 9.5-5.5z" fill="#00A5ED"/>
    </g>
    <path d="m21.334 88-2.5-2.5 2.5-2.5" stroke="#00A5ED" stroke-width="2" stroke-linecap="round"/>
    <mask id="34r8xmxk5e" style="mask-type:alpha" maskUnits="userSpaceOnUse" x="13" y="76" width="20" height="11">
        <rect x="31.834" y="85.5" width="17" height="8" rx="4" transform="rotate(-180 31.834 85.5)" stroke="#D9D9D9" stroke-width="2"/>
    </mask>
    <g mask="url(#34r8xmxk5e)">
        <path d="m19.334 85.5.5 1.5 5.5 1 8-.5c.5-2 1.5-6.1 1.5-6.5 0-.4-2-2-3-3l-3 2-9.5 5.5z" fill="#00A5ED"/>
    </g>
    <path d="M89.334 55.5v-3h3" stroke="#00A5ED"/>
    <mask id="uowsg77q0f" fill="#fff">
        <path d="M89.326 53.292a10.5 10.5 0 1 0-2.49-6.59l.876-.017a9.623 9.623 0 1 1 2.283 6.04l-.669.567z"/>
    </mask>
    <path d="M89.326 53.292a10.5 10.5 0 1 0-2.49-6.59l.876-.017a9.623 9.623 0 1 1 2.283 6.04l-.669.567z" stroke="#00A5ED" stroke-width="2" mask="url(#uowsg77q0f)"/>
    <path d="M96.834 42v4.5l4.499 4.5M96.834 38v1.5M96.834 53v1.5M105.083 46.25h-1.5M90.084 46.25h-1.5" stroke="#999"/>
    <defs>
        <linearGradient id="kow9z5fv4a" x1="80.344" y1="68.406" x2="46.605" y2="68.406" gradientUnits="userSpaceOnUse">
            <stop stop-color="#D9D9D9"/>
            <stop offset="1" stop-color="#fff"/>
        </linearGradient>
        <linearGradient id="43ofg4dqwb" x1="30.824" y1="38.972" x2="67.284" y2="47.679" gradientUnits="userSpaceOnUse">
            <stop stop-color="#EAEAEA"/>
            <stop offset="1" stop-color="#fff"/>
        </linearGradient>
    </defs>
</svg>
