<svg width="81" height="80" viewBox="0 0 81 80" fill="none" xmlns="http://www.w3.org/2000/svg">
    <path d="M13.5 26.5V59c0 8.837 7.163 16 16 16h22c8.837 0 16-7.163 16-16V26.5" stroke="#666" stroke-width="2"/>
    <mask id="bxlj0qn9wa" style="mask-type:alpha" maskUnits="userSpaceOnUse" x="12" y="13" width="57" height="24">
        <path fill-rule="evenodd" clip-rule="evenodd" d="M12.5 13h16v18h24V13h16v24h-56V13z" fill="#D9D9D9"/>
    </mask>
    <g mask="url(#bxlj0qn9wa)">
        <path d="M67.5 27c0 .972-.549 2.034-1.846 3.128-1.291 1.091-3.22 2.119-5.691 3.001C55.029 34.891 48.148 36 40.5 36c-7.648 0-14.53-1.109-19.463-2.87-2.47-.883-4.4-1.91-5.691-3.002C14.048 29.033 13.5 27.972 13.5 27s.549-2.034 1.845-3.128c1.292-1.091 3.221-2.119 5.692-3.001C25.971 19.109 32.852 18 40.5 18c7.648 0 14.53 1.109 19.463 2.87 2.47.883 4.4 1.91 5.691 3.002C66.951 24.967 67.5 26.028 67.5 27z" stroke="#666" stroke-width="2"/>
    </g>
    <path d="m33.687 43 3.643 6-3.643 6h-7.374l-3.643-6 3.643-6h7.374z" stroke="#00A5ED" stroke-width="2"/>
    <path d="m40.454 62.913.254 3.446-2.84 1.968-3.086-1.475-.253-3.446 2.84-1.967 3.085 1.474z" stroke="#00A5ED"/>
    <path d="m51.445 53.522 4.398 1.497.811 4.575-3.618 3.104-4.399-1.497-.81-4.575 3.618-3.104zM48.5 12.21c0 2.352-.953 6.147-2.533 9.361-.787 1.6-1.7 2.993-2.673 3.972C42.313 26.53 41.37 27 40.5 27c-.87 0-1.813-.47-2.794-1.457-.974-.979-1.886-2.373-2.673-3.971-1.58-3.215-2.533-7.01-2.533-9.361C32.5 7.653 36.103 4 40.5 4s8 3.654 8 8.21z" stroke="#00A5ED" stroke-width="2"/>
    <circle cx="40.5" cy="12" r="3" fill="#00A5ED"/>
</svg>
