<svg width="32" height="32" viewBox="0 0 32 32" fill="none" xmlns="http://www.w3.org/2000/svg">
    <mask id="5g2rjc474a" style="mask-type:alpha" maskUnits="userSpaceOnUse" x="1" y="3" width="29" height="19">
        <path d="M9.5 14.5v6l-2.5 1H1.5V3H30v17.5c0 .8-1 1-1.5 1l-6-.5v-7l-1-1-3-1.5H15l-2 .5c-.833.333-2.6 1.1-3 1.5-.4.4-.5.833-.5 1z" fill="#000"/>
    </mask>
    <g mask="url(#5g2rjc474a)" stroke="#666">
        <path d="M16 4H4a1 1 0 0 0-1 1v2.5c.5 0 1.5.5 1.5 1.5s-1 1.5-1.5 1.5V19a1 1 0 0 0 1 1h12M16 4h12a1 1 0 0 1 1 1v2.5c-.5 0-1.5.5-1.5 1.5s1 1.5 1.5 1.5V19a1 1 0 0 1-1 1H16"/>
        <rect x="7.5" y="7" width="2" height="8" rx=".5"/>
        <rect x="26.5" y="18" width="2" height="21" rx=".5" transform="rotate(90 26.5 18)"/>
        <rect x="17.5" y="7" width="2" height="8" rx=".5"/>
        <rect x="22.5" y="7" width="2" height="8" rx=".5"/>
        <rect x="12.5" y="7" width="2" height="8" rx=".5"/>
    </g>
    <path fill-rule="evenodd" clip-rule="evenodd" d="M23 14.406c-.33.447-.735.858-1.2 1.226V26c0 .267-.248.832-1.387 1.401-1.067.534-2.626.899-4.413.899-1.787 0-3.346-.365-4.413-.899-1.14-.57-1.387-1.134-1.387-1.401V15.632A6.482 6.482 0 0 1 9 14.406V26c0 1.933 3.134 3.5 7 3.5s7-1.567 7-3.5V14.406z" fill="#666"/>
    <path d="M22.4 14.5c0 .617-.516 1.337-1.719 1.938-1.167.584-2.821.962-4.681.962-1.86 0-3.514-.378-4.681-.962C10.116 15.837 9.6 15.117 9.6 14.5s.516-1.337 1.719-1.938c1.167-.584 2.821-.962 4.681-.962 1.86 0 3.514.378 4.681.962 1.203.601 1.719 1.321 1.719 1.938zM22.4 22c0 1.657-2.698 3-6.15 3-3.452 0-6.65-1.343-6.65-3M22.4 18c0 1.657-2.698 3-6.15 3-3.452 0-6.65-1.343-6.65-3" stroke="#666" stroke-width="1.2"/>
</svg>
