<svg width="16" height="16" viewBox="0 0 16 16" fill="none" xmlns="http://www.w3.org/2000/svg">
    <rect x="5.6" y="4.6" width="8.8" height="10.8" rx="1.4" stroke="#999" stroke-width="1.2"/>
    <mask id="7hwc41kxba" fill="#fff">
        <path fill-rule="evenodd" clip-rule="evenodd" d="M3 1.2h6a.8.8 0 0 1 .8.8v1H11V2a2 2 0 0 0-2-2H3a2 2 0 0 0-2 2v8a2 2 0 0 0 2 2h1v-1.2H3a.8.8 0 0 1-.8-.8V2a.8.8 0 0 1 .8-.8z"/>
    </mask>
    <path fill-rule="evenodd" clip-rule="evenodd" d="M3 1.2h6a.8.8 0 0 1 .8.8v1H11V2a2 2 0 0 0-2-2H3a2 2 0 0 0-2 2v8a2 2 0 0 0 2 2h1v-1.2H3a.8.8 0 0 1-.8-.8V2a.8.8 0 0 1 .8-.8z" fill="#fff"/>
    <path d="M9.8 3H8.6v1.2h1.2V3zM11 3v1.2h1.2V3H11zm-7 9v1.2h1.2V12H4zm0-1.2h1.2V9.6H4v1.2zM9 0H3v2.4h6V0zm2 2a2 2 0 0 0-2-2v2.4a.4.4 0 0 1-.4-.4H11zm0 1V2H8.6v1H11zM9.8 4.2H11V1.8H9.8v2.4zM12.2 3V2H9.8v1h2.4zm0-1A3.2 3.2 0 0 0 9-1.2v2.4a.8.8 0 0 1 .8.8h2.4zM9-1.2H3v2.4h6v-2.4zm-6 0A3.2 3.2 0 0 0-.2 2h2.4a.8.8 0 0 1 .8-.8v-2.4zM-.2 2v8h2.4V2H-.2zm0 8A3.2 3.2 0 0 0 3 13.2v-2.4a.8.8 0 0 1-.8-.8H-.2zM3 13.2h1v-2.4H3v2.4zM5.2 12v-1.2H2.8V12h2.4zM3 12h1V9.6H3V12zm-2-2a2 2 0 0 0 2 2V9.6c.22 0 .4.18.4.4H1zm0-8v8h2.4V2H1zm2-2a2 2 0 0 0-2 2h2.4a.4.4 0 0 1-.4.4V0z" fill="#999" mask="url(#7hwc41kxba)"/>
</svg>
