<svg width="32" height="32" viewBox="0 0 32 32" fill="none" xmlns="http://www.w3.org/2000/svg">
    <mask id="smtjs01u3c" style="mask-type:alpha" maskUnits="userSpaceOnUse" x="5" y="2" width="19" height="28">
        <mask id="8cm8w9xgwa" style="mask-type:alpha" maskUnits="userSpaceOnUse" x="4" y="11" width="23" height="13">
            <path d="m9.5 12.5-2.5-1-2 .5v3l-1 5.5 4 2 10 1 7-3 1.5-5.5-4-3.5-1.5 1-6 1-5.5-1z" fill="#000"/>
        </mask>
        <g mask="url(#8cm8w9xgwa)">
            <path fill-rule="evenodd" clip-rule="evenodd" d="M5.5 13.568V18.6h.004C5.64 20.487 9.616 22 14.5 22s8.86-1.513 8.996-3.4h.004V13.258c-.322.43-.726.833-1.2 1.202V18.514c-.004.044-.038.222-.367.508-.326.283-.849.587-1.58.863-1.455.552-3.52.915-5.853.915-2.333 0-4.398-.363-5.854-.915-.73-.277-1.253-.58-1.579-.863-.329-.286-.363-.464-.367-.508v-3.867a6.94 6.94 0 0 1-1.2-1.08z" fill="#666"/>
            <path d="M22.9 13.5c0 .259-.132.57-.513.92-.382.351-.967.695-1.74.996-1.544.6-3.717.984-6.147.984s-4.603-.384-6.146-.984c-.774-.301-1.36-.645-1.74-.995-.382-.35-.514-.662-.514-.921s.132-.57.513-.92c.382-.351.967-.695 1.74-.996 1.544-.6 3.717-.984 6.147-.984s4.603.384 6.146.984c.774.301 1.36.645 1.74.995.382.35.514.662.514.921z" stroke="#666" stroke-width="1.2"/>
        </g>
        <mask id="1y7b7t63ub" style="mask-type:alpha" maskUnits="userSpaceOnUse" x="4" y="19" width="23" height="13">
            <path d="m9.5 20.5-2.5-1-2 .5v3l-1 5.5 4 2 10 1 7-3 1.5-5.5-4-3.5-1.5 1-6 1-5.5-1z" fill="#000"/>
        </mask>
        <g mask="url(#1y7b7t63ub)">
            <path fill-rule="evenodd" clip-rule="evenodd" d="M5.5 21.568V26.6h.004C5.64 28.487 9.616 30 14.5 30s8.86-1.513 8.996-3.4h.004V21.258c-.322.43-.726.833-1.2 1.202V26.514c-.004.044-.038.222-.367.508-.326.283-.849.587-1.58.863-1.455.552-3.52.915-5.853.915-2.333 0-4.398-.363-5.854-.915-.73-.277-1.253-.58-1.579-.863-.329-.286-.363-.464-.367-.508v-3.867a6.94 6.94 0 0 1-1.2-1.08z" fill="#666"/>
            <path d="M22.9 21.5c0 .259-.132.57-.513.92-.382.351-.967.695-1.74.996-1.544.6-3.717.984-6.147.984s-4.603-.384-6.146-.984c-.774-.301-1.36-.645-1.74-.995-.382-.35-.514-.662-.514-.921s.132-.57.513-.92c.382-.351.967-.695 1.74-.996 1.544-.6 3.717-.984 6.147-.984s4.603.384 6.146.984c.774.301 1.36.645 1.74.995.382.35.514.662.514.921z" stroke="#666" stroke-width="1.2"/>
        </g>
        <path fill-rule="evenodd" clip-rule="evenodd" d="M5.5 5.568V10.6h.004C5.64 12.487 9.616 14 14.5 14s8.86-1.513 8.996-3.4h.004V5.258c-.322.43-.726.833-1.2 1.202V10.514c-.004.043-.038.222-.367.508-.326.283-.849.586-1.58.863-1.455.552-3.52.915-5.853.915-2.333 0-4.398-.363-5.854-.915-.73-.277-1.253-.58-1.579-.863-.329-.286-.363-.465-.367-.508V6.647a6.942 6.942 0 0 1-1.2-1.08z" fill="#666"/>
        <path d="M22.9 5.5c0 .259-.132.57-.513.92-.382.351-.967.695-1.74.996-1.544.6-3.717.984-6.147.984s-4.603-.384-6.146-.984c-.774-.301-1.36-.645-1.74-.995-.382-.35-.514-.662-.514-.921s.132-.57.513-.92c.382-.351.967-.695 1.74-.996 1.544-.6 3.717-.984 6.147-.984s4.603.384 6.146.984c.774.301 1.36.645 1.74.995.382.35.514.662.514.921z" stroke="#666" stroke-width="1.2"/>
    </mask>
    <g mask="url(#smtjs01u3c)">
        <path d="M14.5 13.348 18.545 5H24l3.242-3.5L8 1 1.5 6.5 4 30l20.5 1 .5-8.5-1.5-7-8.5 8 3.545-10.152H14.5z" fill="#666"/>
    </g>
    <path d="M24.444 10.991h3.498l-11.6 10.488 2.77-7.933.278-.798h-3.933L18.921 5.6h7.107L23.9 10.137l-.401.854h.944z" stroke="#666" stroke-width="1.2"/>
</svg>
