<svg width="14" height="7" viewBox="0 0 14 7" fill="none" xmlns="http://www.w3.org/2000/svg">
    <g clip-path="url(#9uht0xygha)">
        <rect x="-118" y="-9" width="139" height="25.245" rx="2" fill="#fff" stroke="#DDD"/>
        <path d="m7 5.104-.31.392a.5.5 0 0 0 .62 0L7 5.104zM12.228.979l-.31-.392.31.392zm.785.62.31.392-.31-.392zm-5.579 4.4.31.393L7.434 6zM7 6.128l.03-.5a.5.5 0 0 0-.06 0l.03.5zM6.565 6l-.31.392.31-.392zM.987 1.599l.31-.393-.31.393zm.785-.62.31-.392-.31.392zM7.31 5.496l5.228-4.124-.62-.785L6.69 4.71l.62.785zm5.228-4.124c.035-.028.13-.028.165 0l.62-.785a1.164 1.164 0 0 0-1.405 0l.62.785zm.165 0c.002.002-.027-.025-.027-.083s.03-.085.027-.083l.62.785a.895.895 0 0 0 .352-.702.895.895 0 0 0-.352-.702l-.62.785zm0-.166L7.125 5.607l.62.785 5.578-4.4-.62-.786zM7.125 5.607a.154.154 0 0 1-.095.02l-.06.999c.259.015.544-.053.774-.234l-.62-.785zm-.155.02a.154.154 0 0 1-.095-.02l-.62.785c.23.181.516.25.775.234l-.06-.998zm-.095-.02-5.579-4.4-.619.784 5.579 4.401.619-.785zm-5.579-4.4c-.002-.003.028.024.028.082s-.03.085-.028.083L.677.587a.895.895 0 0 0-.353.702c0 .282.138.533.353.702l.62-.785zm0 .165c.036-.028.131-.028.166 0l.62-.785a1.164 1.164 0 0 0-1.405 0l.62.785zm.166 0L6.69 5.496l.62-.785L2.082.587l-.62.785z" fill="#999"/>
    </g>
    <defs>
        <clipPath id="9uht0xygha">
            <path fill="#fff" transform="translate(-118 -9)" d="M0 0h139v25.245H0z"/>
        </clipPath>
    </defs>
</svg>
