<svg xmlns="http://www.w3.org/2000/svg" xmlns:xlink="http://www.w3.org/1999/xlink" width="89" height="35" viewBox="0 0 89 35">
    <defs>
        <path id="ckw7j9kt9b" d="M0.023 0.664L12.338 0.664 12.338 8.702 0.023 8.702z"/>
        <path id="4tcmmouogd" d="M0 0.055L10.314 0.055 10.314 15 0 15z"/>
        <filter id="un37n513ua">
            <feColorMatrix in="SourceGraphic" values="0 0 0 0 0.600000 0 0 0 0 0.600000 0 0 0 0 0.600000 0 0 0 1.000000 0"/>
        </filter>
    </defs>
    <g fill="none" fill-rule="evenodd">
        <g>
            <g>
                <g filter="url(#un37n513ua)" transform="translate(-363.000000, -2287.000000) translate(0.000000, 2197.000000) translate(363.000000, 30.000000)">
                    <g>
                        <g transform="translate(0.000000, 60.000000) translate(76.000000, 25.015600)">
                            <mask id="aeo68552zc" fill="#fff">
                                <use xlink:href="#ckw7j9kt9b"/>
                            </mask>
                            <path fill="#EE7B11" d="M9.693.664c-1.729 0-2.618 1.141-2.759 1.312C6.5 1.152 5.697.664 4.644.664c-1.522 0-2.388.885-2.529 1.027-.064-.236-.375-.88-1.358-.88-.284 0-.7.09-.734.097.041.185.228 1.084.228 2.326v5.468h2V3.13c.04-.036.79-.794 1.69-.794.917 0 1.346.671 1.346 1.59v4.777h2.01V3.127c.04-.039.773-.792 1.687-.792.915 0 1.334.671 1.334 1.59v4.777h2.02V3.613c0-1.786-1.017-2.949-2.645-2.949" mask="url(#aeo68552zc)"/>
                        </g>
                        <path fill="#EE7B11" d="M63.743 32.273c-1.36 0-2.33-1.075-2.33-2.479 0-1.564 1.102-2.496 2.33-2.496.66 0 .94.203 1.378.203.468 0 .717-.228.948-.678l.204-.394c-.099-.063-1.114-.75-2.834-.75-2.523 0-4.03 1.807-4.03 4.115 0 2.52 1.724 4.1 4.03 4.1 1.672 0 2.686-.683 2.865-.81l-.696-1.37c-.153.098-.869.56-1.865.56M40.246 28.919c0-.9.631-1.733 1.515-1.733.99 0 1.533.86 1.55 1.733h-3.065zm1.546-3.238c-1.919 0-3.537 1.56-3.537 4.115 0 2.616 1.57 4.1 3.915 4.1 1.863 0 2.83-.816 2.945-.892l-.232-.378c-.262-.43-.56-.566-.89-.566-.659 0-.744.274-1.64.274-1.532 0-2.064-1.197-2.1-1.995h5.135v-.594c0-2.45-1.41-4.064-3.596-4.064zM48.814 31.505v-8.188c0-.924-.617-1.64-1.574-1.64h-.429v10.632c0 .978.607 1.587 1.66 1.587 1.298 0 1.69-.925 1.69-1.795-.056.029-.33.139-.609.139-.464 0-.738-.268-.738-.735M35.426 31.229v-3.895H37.1l.583-1.506h-2.257v-2.354s-.18-.003-.187 0c-.891 0-1.815.378-1.815 2.335v.02h-1.48v1.505h1.48v4.585c0 1.3.768 1.976 1.856 1.976.882 0 2.018-.27 2.018-2.014-.068.041-.495.319-.963.319-.652 0-.91-.399-.91-.972M52.81 28.919c0-.9.63-1.733 1.515-1.733.989 0 1.533.86 1.548 1.733H52.81zm1.545-3.238c-1.918 0-3.536 1.56-3.536 4.115 0 2.616 1.568 4.1 3.914 4.1 1.863 0 2.83-.816 2.946-.892l-.232-.378c-.262-.43-.56-.566-.89-.566-.66 0-.744.274-1.64.274-1.532 0-2.064-1.197-2.101-1.995h5.136v-.594c0-2.45-1.411-4.064-3.597-4.064zM70.892 32.353c1.229 0 1.936-1.056 1.936-2.563 0-1.494-.692-2.57-1.936-2.57-1.21 0-1.934 1.046-1.934 2.57 0 1.47.69 2.563 1.934 2.563m0 1.541c-2.451 0-3.926-1.617-3.926-4.103 0-2.477 1.455-4.113 3.926-4.113 2.476 0 3.928 1.636 3.928 4.113 0 2.34-1.344 4.104-3.928 4.104" transform="translate(0.000000, 60.000000)"/>
                        <g transform="translate(0.000000, 60.000000) translate(0.000000, 19.015600)">
                            <mask id="o45rrm778e" fill="#fff">
                                <use xlink:href="#4tcmmouogd"/>
                            </mask>
                            <path fill="#DC062B" d="M6.398 5.951c-1.21-.566-2.203-1.023-2.203-1.947 0-.705.564-1.22 1.682-1.22.41 0 .748.048 1.093.112.182.032.375.06.537.06.973 0 1.524-.583 1.89-1.687l.15-.45C9.391.755 7.8.054 5.721.054 2.416.055.672 2.175.673 4.373c0 1.11.35 1.912.893 2.547.7.814 1.7 1.345 2.631 1.802C5.56 9.39 6.79 9.885 6.79 10.875c0 .88-.907 1.38-2.12 1.38-1.666 0-3.119-.952-3.304-1.068L0 13.748C.242 13.885 2.002 15 4.894 15c3.086 0 5.42-1.768 5.42-4.488 0-2.709-2.164-3.713-3.916-4.56" mask="url(#o45rrm778e)"/>
                        </g>
                        <path fill="#DC062B" d="M18.46 26.229l5.595-6.86h-3.987l-4.461 5.92h-.066v-5.92h-3.287l.002 14.532h.193c1.422 0 3.114-.657 3.114-3.03v-3.335h.066l4.549 6.184h4.18l-5.897-7.491zM31.836 13.895l.619.023c.289.018.615.038 1.059.036 3.043-.014 5.02-1.088 6.103-1.69-2.5-1.574-6.115-3.162-10.584-3.342-.295.833-2.593 7.224-2.767 7.738.027.032.429.485.93 1.361.699 1.136 1.09 2.11 1.357 2.842.572-.962.67-2.45.726-4.154.057-1.42.3-2.806 2.557-2.814" transform="translate(0.000000, 60.000000)"/>
                        <path fill="#EE7B11" d="M43.415 15.447c-.197-.324-1.213-1.4-2.903-2.588l-.047.027c-1.332.735-3.559 1.965-6.854 1.98-.433 0-.687-.017-.91-.03l-.599-.022c-1.553.008-1.866.666-1.92 1.957l-.01.35-.018.648c-.058 1.426-.244 3.035-1.166 4.153l-.041.048c.039.094.074.176.112.24.082.137.191.2.322.2.082 0 .183-.029.295-.08.273-.125 11.111-5.17 12.743-5.924.238-.115.687-.314.836-.4.154-.088.224-.217.224-.346-.002-.072-.023-.147-.064-.213" transform="translate(0.000000, 60.000000)"/>
                        <path fill="#DC062B" d="M24.361 3.898l-.098.02c-1.076.201-2.78 1.197-2.775 3.011.002.762.3 1.395.613 2.065.362.773.772 1.648.774 2.853.007 1.824-1.04 2.873-1.78 3.383.336-.023.698-.039 1.088-.039 1.012-.004 1.623.094 1.66.1l5.19-6.37c-1.408-2.107-3.045-3.752-4.672-5.023" transform="translate(0.000000, 60.000000)"/>
                        <path fill="#EE7B11" d="M20.059 14.914c.953-.55 1.883-1.496 1.879-3.09-.004-.955-.342-1.68-.697-2.449-.35-.756-.713-1.537-.715-2.539-.008-2.178 1.754-3.299 2.86-3.643C19.876.766 16.593-.002 15.986 0c-.211 0-.391.144-.391.422 0 .172.067.652.094.914.19 1.8 1.49 13.672 1.523 13.973.035.3.166.476.43.474.039 0 .088-.002.14-.007.186-.018.565-.073 1.003-.24.515-.2.853-.38 1.275-.622" transform="translate(0.000000, 60.000000)"/>
                    </g>
                </g>
            </g>
        </g>
    </g>
</svg>
