<svg width="25" height="25" viewBox="0 0 25 25" fill="none" xmlns="http://www.w3.org/2000/svg">
    <path d="M22.188 1.625H2.813c-.69 0-1.25.56-1.25 1.25V7.25c0 .69.56 1.25 1.25 1.25h19.375c.69 0 1.25-.56 1.25-1.25V2.875c0-.69-.56-1.25-1.25-1.25z" stroke="#000" stroke-width="1.188"/>
    <path d="M6.354 3.605a1.406 1.406 0 1 1 0 2.812 1.406 1.406 0 0 1 0-2.812zM7 17.5H2.812c-.69 0-1.25-.56-1.25-1.25v-4.375c0-.69.56-1.25 1.25-1.25h19.375c.69 0 1.25.56 1.25 1.25v4.375c0 .69-.56 1.25-1.25 1.25H18.5" stroke="#000" stroke-width="1.188"/>
    <path d="M6.354 12.605a1.406 1.406 0 1 1 0 2.812 1.406 1.406 0 0 1 0-2.812z" stroke="#000" stroke-width="1.188"/>
    <path d="M17 4h4M17 13h4M17 6h4M19 15h2" stroke="#000"/>
    <path d="M10.781 23.329V16m0 0L9 18.029M10.781 16l1.776 2.071M15.503 16.363v7.33m0 0 1.781-2.03m-1.78 2.03-1.777-2.072" stroke="#000" stroke-width="1.218" stroke-linecap="round"/>
</svg>
