<svg xmlns="http://www.w3.org/2000/svg" width="25" height="25" viewBox="0 0 25 25">
    <g fill="none" fill-rule="evenodd">
        <g>
            <g>
                <g>
                    <g>
                        <g stroke="#000" stroke-linecap="round" stroke-width="1.188">
                            <path d="M5.312 16.563H1.25c-.69 0-1.25-.56-1.25-1.25V1.25C0 .56.56 0 1.25 0H22.5c.69 0 1.25.56 1.25 1.25v14.063c0 .69-.56 1.25-1.25 1.25h-2.645 0M20.234 5.125L20.234 10.875M17.109 6.719L17.109 10.875M13.984 3.406L13.984 10.875" transform="translate(-364.000000, -443.000000) translate(361.000000, 443.000000) translate(3.000000, 0.000000) translate(0.000000, 0.625000) translate(0.625000, 0.000000)"/>
                        </g>
                        <g>
                            <g stroke="#000" stroke-width="1.188">
                                <g>
                                    <path stroke-linejoin="round" d="M5.446 0l.331 1.287c.54.128 1.035.37 1.46.7l1.092-.51.759.939-.73.98c.226.488.352 1.03.352 1.603v.08l.96.49-.272 1.176-1.124.027c-.262.497-.63.93-1.075 1.267l.25 1.183-1.085.53-.841-.99c-.204.033-.413.05-.626.05-.258 0-.51-.025-.753-.074l-.847 1.008-1.085-.53.263-1.271c-.396-.326-.726-.731-.964-1.19L.27 6.732 0 5.556l1.083-.56c0-.54.113-1.055.316-1.52l-.806-1.07.76-.938 1.178.54c.402-.319.87-.558 1.38-.694L4.24 0h1.206z" transform="translate(-364.000000, -443.000000) translate(361.000000, 443.000000) translate(3.000000, 0.000000) translate(0.000000, 0.625000) translate(0.000000, 2.812500) translate(8.228234, 10.938805)"/>
                                    <path stroke-linecap="round" d="M5.678 3.783c-.248-.166-.546-.262-.866-.262-.863 0-1.562.7-1.562 1.562 0 .863.7 1.563 1.562 1.563.863 0 1.562-.7 1.562-1.563.007-.54-.225-.973-.696-1.3z" transform="translate(-364.000000, -443.000000) translate(361.000000, 443.000000) translate(3.000000, 0.000000) translate(0.000000, 0.625000) translate(0.000000, 2.812500) translate(8.228234, 10.938805)"/>
                                </g>
                                <g>
                                    <path stroke-linejoin="round" d="M5.446 0l.331 1.287c.54.128 1.035.37 1.46.7l1.092-.51.759.939-.73.98c.226.488.352 1.03.352 1.603v.08l.96.49-.272 1.176-1.124.027c-.262.497-.63.93-1.075 1.267l.25 1.183-1.085.53-.841-.99c-.204.033-.413.05-.626.05-.258 0-.51-.025-.753-.074l-.847 1.008-1.085-.53.263-1.271c-.396-.326-.726-.731-.964-1.19L.27 6.732 0 5.556l1.083-.56c0-.54.113-1.055.316-1.52l-.806-1.07.76-.938 1.178.54c.402-.319.87-.558 1.38-.694L4.24 0h1.206z" transform="translate(-364.000000, -443.000000) translate(361.000000, 443.000000) translate(3.000000, 0.000000) translate(0.000000, 0.625000) translate(0.000000, 2.812500) translate(6.957301, 6.954430) rotate(30.000000) translate(-6.957301, -6.954430) translate(1.957301, 1.954430)"/>
                                    <path stroke-linecap="round" d="M5.678 3.783c-.248-.166-.546-.262-.866-.262-.863 0-1.562.7-1.562 1.562 0 .863.7 1.563 1.562 1.563.863 0 1.562-.7 1.562-1.563.007-.54-.225-.973-.696-1.3z" transform="translate(-364.000000, -443.000000) translate(361.000000, 443.000000) translate(3.000000, 0.000000) translate(0.000000, 0.625000) translate(0.000000, 2.812500) translate(6.957301, 6.954430) rotate(30.000000) translate(-6.957301, -6.954430) translate(1.957301, 1.954430)"/>
                                </g>
                            </g>
                        </g>
                    </g>
                </g>
            </g>
        </g>
    </g>
</svg>
