<svg xmlns="http://www.w3.org/2000/svg" width="88" height="65" viewBox="0 0 88 65">
    <defs>
        <linearGradient id="nijh4xz8ea" x1="30.954%" x2="50%" y1="22.172%" y2="77.828%">
            <stop offset="0%" stop-color="#57E3FF"/>
            <stop offset="100%" stop-color="#2CC2FD"/>
        </linearGradient>
    </defs>
    <g fill="none" fill-rule="evenodd">
        <g>
            <g>
                <g>
                    <g>
                        <g>
                            <g>
                                <path fill="#2CC2FD" d="M65.94 25.34C65.94 12.385 58.856 0 42.919 0c-13.661 0-18.835 7.526-21.81 12.386-1.144 1.874-2.01 3.91-2.57 6.041C10.62 20.73.42 27.262.42 41.095.419 57.522 15.429 63 25.533 63h38.636c8.539 0 21.25-5.308 21.25-17.97 0-10.566-9.863-19.69-19.48-19.69z" opacity=".145" transform="translate(-1372.000000, -1913.000000) translate(360.000000, 1862.000000) translate(915.000000, 0.000000) translate(39.335526, 51.000000) translate(58.435810, 0.000000) translate(0.809761, 0.000000)"/>
                                <path fill="url(#nijh4xz8ea)" d="M59.981 28.904C59.981 19.241 54.731 10 42.92 10c-10.125 0-13.96 5.615-16.165 9.24-.848 1.399-1.49 2.917-1.905 4.507-5.87 1.718-13.43 6.592-13.43 16.911C11.419 52.913 22.544 57 30.033 57h28.636c6.329 0 15.75-3.96 15.75-13.406 0-7.882-7.31-14.69-14.438-14.69z" transform="translate(-1372.000000, -1913.000000) translate(360.000000, 1862.000000) translate(915.000000, 0.000000) translate(39.335526, 51.000000) translate(58.435810, 0.000000) translate(0.809761, 0.000000)"/>
                                <g fill="#FFF">
                                    <path d="M9.177.575c3.472 0 6.305 2.736 6.426 6.161l.004.23v4.11h-2.85v-4.11c0-1.953-1.6-3.541-3.58-3.541C7.26 3.425 5.7 4.912 5.6 6.778l-.005.188v4.137h12.008c.414 0 .75.336.75.75V25.25c0 .414-.336.75-.75.75H.75c-.414 0-.75-.336-.75-.75V11.853c0-.414.336-.75.75-.75h1.996V6.966c0-3.532 2.882-6.391 6.43-6.391zm.187 13.657c-1.383 0-2.503 1.111-2.503 2.482 0 .786.367 1.486.94 1.94l.137.101v2.282l.007.137c.07.723.678 1.288 1.419 1.288.74 0 1.349-.565 1.418-1.288l.007-.137v-2.282c.651-.448 1.077-1.195 1.077-2.04 0-1.372-1.12-2.483-2.502-2.483z" transform="translate(-1372.000000, -1913.000000) translate(360.000000, 1862.000000) translate(915.000000, 0.000000) translate(39.335526, 51.000000) translate(58.435810, 0.000000) translate(0.809761, 0.000000) translate(33.012201, 21.250000)"/>
                                </g>
                            </g>
                        </g>
                    </g>
                </g>
            </g>
        </g>
    </g>
</svg>
