<svg width="81" height="80" viewBox="0 0 81 80" fill="none" xmlns="http://www.w3.org/2000/svg">
    <mask id="ap60hgr68a" fill="#fff">
        <path fill-rule="evenodd" clip-rule="evenodd" d="M32.648 10.747a6.75 6.75 0 0 1 8.438 7.822A7.502 7.502 0 0 1 38.214 33h-28.5a7.5 7.5 0 0 1 0-15 4.5 4.5 0 0 1 6.082-4.214 9.002 9.002 0 0 1 16.852-3.039z"/>
    </mask>
    <path d="m32.648 10.747-1.762.947.758 1.41 1.541-.43-.537-1.927zm8.438 7.822-1.962-.388-.319 1.608 1.514.628.767-1.848zM9.714 18v2h2v-2h-2zm6.082-4.214-.703 1.872 2.35.882.335-2.487-1.982-.267zM34.465 8.5c-.813 0-1.603.111-2.354.32l1.074 3.854a4.758 4.758 0 0 1 1.28-.174v-4zm8.75 8.75a8.75 8.75 0 0 0-8.75-8.75v4a4.75 4.75 0 0 1 4.75 4.75h4zm-.167 1.708c.11-.554.167-1.125.167-1.708h-4c0 .32-.032.631-.091.93l3.924.778zm4.666 6.542a9.502 9.502 0 0 0-5.862-8.778l-1.532 3.695a5.502 5.502 0 0 1 3.394 5.083h4zm-9.5 9.5a9.5 9.5 0 0 0 9.5-9.5h-4a5.5 5.5 0 0 1-5.5 5.5v4zm-28.5 0h28.5v-4h-28.5v4zm-9.5-9.5a9.5 9.5 0 0 0 9.5 9.5v-4a5.5 5.5 0 0 1-5.5-5.5h-4zm9.5-9.5a9.5 9.5 0 0 0-9.5 9.5h4a5.5 5.5 0 0 1 5.5-5.5v-4zm-2 2h4-4zm6.5-6.5a6.5 6.5 0 0 0-6.5 6.5h4a2.5 2.5 0 0 1 2.5-2.5v-4zm2.285.413a6.49 6.49 0 0 0-2.285-.413v4c.313 0 .608.056.879.158l1.406-3.745zm1.279 2.14A7.002 7.002 0 0 1 24.714 8V4c-5.573 0-10.175 4.143-10.9 9.518l3.964.535zM24.714 8a6.998 6.998 0 0 1 6.172 3.694L34.41 9.8A10.998 10.998 0 0 0 24.714 4v4z" fill="#00A5ED" mask="url(#ap60hgr68a)"/>
    <mask id="wafh58a70b" style="mask-type:alpha" maskUnits="userSpaceOnUse" x="29" y="23" width="50" height="37">
        <path d="M29.214 23h49v28l-24.5 9h-24.5V23z" fill="#D9D9D9"/>
    </mask>
    <g mask="url(#wafh58a70b)">
        <path d="M75.214 25v31c0 8.284-6.715 15-15 15h-14c-8.284 0-15-6.716-15-15V25h44z" fill="#fff" stroke="#666" stroke-width="2"/>
    </g>
    <path d="M75.214 24c0 1.048-.484 2.126-1.524 3.195-1.044 1.074-2.605 2.087-4.61 2.959C65.07 31.897 59.461 33 53.213 33c-6.247 0-11.855-1.103-15.864-2.846-2.007-.872-3.567-1.885-4.611-2.959-1.04-1.069-1.525-2.147-1.525-3.195s.485-2.126 1.525-3.195c1.044-1.074 2.605-2.087 4.61-2.959C41.36 16.103 46.968 15 53.215 15c6.248 0 11.856 1.103 15.865 2.846 2.006.872 3.567 1.885 4.611 2.959 1.04 1.069 1.524 2.147 1.524 3.195z" fill="#fff" stroke="#666" stroke-width="2"/>
    <path d="m62.808 54 2.646 2.646a.5.5 0 0 0 .707 0L68.808 54M68.808 75l-3-3m0 0-3 3m3-3V56.5M55.214 61.848l3.616-.969a.5.5 0 0 0 .353-.612l-.969-3.615M76.4 67.152l-4.097 1.098m0 0 1.098 4.098m-1.098-4.098L58.879 60.5M58.214 72.348l.969-3.615a.5.5 0 0 0-.353-.612l-3.616-.97M73.4 56.652l-1.097 4.098m0 0 4.098 1.098m-4.098-1.098L58.879 68.5M28.214 45h14M22.214 49h26" stroke="#00A5ED" stroke-width="2" stroke-linecap="round" stroke-linejoin="round"/>
    <path d="M3.214 74c.461-3.528 3.552-9.695 12.22-6.606a.535.535 0 0 0 .635-.226c2.845-4.744 11.869-10.927 20.145-.168M33.214 69.354c2.955-2.917 10.228-4.475 15 3.646" stroke="#666" stroke-width="2" stroke-linecap="round" stroke-linejoin="round"/>
    <path d="m14.214 34.714 1.938-13.286a.5.5 0 0 1 .495-.428h8.159a.5.5 0 0 1 .463.688l-3.055 7.54h4l-8 15.772.667-10.286h-4.667z" fill="#fff" stroke="#666" stroke-width="2" stroke-linejoin="round"/>
</svg>
