<svg xmlns="http://www.w3.org/2000/svg" width="29" height="29" viewBox="0 0 29 29">
    <g fill="none" fill-rule="evenodd">
        <g stroke="#000" stroke-width="1.377">
            <g>
                <g>
                    <g>
                        <g>
                            <g stroke-linecap="round">
                                <path d="M0.124 4.751L12.523 4.751" transform="translate(-363.000000, -120.000000) translate(-2.000000, 0.000000) translate(365.000000, 120.000000) translate(0.000000, 0.000000) translate(2.175000, 0.800299) translate(5.825881, 9.168451)"/>
                                <path stroke-linejoin="round" d="M0.865 0L3.468 9.108 6.592 0 9.408 9.227 12.111 0" transform="translate(-363.000000, -120.000000) translate(-2.000000, 0.000000) translate(365.000000, 120.000000) translate(0.000000, 0.000000) translate(2.175000, 0.800299) translate(5.825881, 9.168451)"/>
                            </g>
                            <path stroke-linejoin="round" d="M23.318 0c.735 0 1.332.65 1.332 1.45v24.575c0 .729-.494 1.332-1.138 1.434-.167-.618-.73-1.072-1.4-1.072-.675 0-1.242.462-1.404 1.087h-1.904c-.161-.625-.729-1.087-1.404-1.087-.675 0-1.243.462-1.404 1.087h-1.904c-.162-.625-.73-1.087-1.405-1.087s-1.242.462-1.404 1.087H9.38c-.161-.625-.729-1.087-1.404-1.087-.675 0-1.243.462-1.404 1.087H4.667c-.162-.625-.73-1.087-1.404-1.087-.676 0-1.243.462-1.405 1.087h-.526c-.735 0-1.332-.648-1.332-1.45V1.45C0 .65.597 0 1.332 0h21.986z" transform="translate(-363.000000, -120.000000) translate(-2.000000, 0.000000) translate(365.000000, 120.000000) translate(0.000000, 0.000000) translate(2.175000, 0.800299)"/>
                        </g>
                    </g>
                </g>
            </g>
        </g>
    </g>
</svg>
