<svg width="16" height="16" viewBox="0 0 16 16" fill="none" xmlns="http://www.w3.org/2000/svg">
<path fill-rule="evenodd" clip-rule="evenodd" d="M8.74264 2.25C8.4665 2.25 8.24264 2.47386 8.24264 2.75C8.24264 3.02614 8.4665 3.25 8.74264 3.25L11.7782 3.25L6.26777 8.76041C6.0725 8.95567 6.0725 9.27225 6.26777 9.46751C6.46303 9.66278 6.77961 9.66278 6.97487 9.46751L12.4853 3.95711V6.99264C12.4853 7.26878 12.7091 7.49264 12.9853 7.49264C13.2614 7.49264 13.4853 7.26878 13.4853 6.99264V2.75V2.25H12.9853H8.74264ZM3.5 5.12887C3.5 4.85273 3.72386 4.62887 4 4.62887H6.5C6.77614 4.62887 7 4.40501 7 4.12887C7 3.85273 6.77614 3.62887 6.5 3.62887H4C3.17157 3.62887 2.5 4.30044 2.5 5.12887V12.1289C2.5 12.9573 3.17157 13.6289 4 13.6289H11C11.8284 13.6289 12.5 12.9573 12.5 12.1289V9.62887C12.5 9.35273 12.2761 9.12887 12 9.12887C11.7239 9.12887 11.5 9.35273 11.5 9.62887V12.1289C11.5 12.405 11.2761 12.6289 11 12.6289H4C3.72386 12.6289 3.5 12.405 3.5 12.1289V5.12887Z" fill="black"/>
</svg>
