<svg xmlns="http://www.w3.org/2000/svg" width="31" height="30" viewBox="0 0 31 30">
    <g fill="none" fill-rule="evenodd">
        <g fill="#FFF" fill-rule="nonzero">
            <g>
                <g>
                    <path d="M8.792 7.222L15 13.429l6.208-6.207c.269-.269.69-.293.985-.074l.085.074c.296.295.296.774 0 1.07L16.071 14.5l6.207 6.208c.296.296.296.775 0 1.07-.295.296-.774.296-1.07 0L15 15.571l-6.208 6.207c-.269.269-.69.293-.985.074l-.085-.074c-.296-.295-.296-.774 0-1.07l6.207-6.208-6.207-6.208c-.296-.296-.296-.775 0-1.07.295-.296.774-.296 1.07 0z" transform="translate(-1494.000000, -2441.000000) translate(343.000000, 2428.000000) translate(1151.500000, 13.000000)"/>
                </g>
            </g>
        </g>
    </g>
</svg>
