<svg xmlns="http://www.w3.org/2000/svg" width="18" height="12" viewBox="0 0 18 12">
    <g fill="none" fill-rule="evenodd">
        <g>
            <g>
                <g>
                    <g>
                        <g>
                            <g>
                                <g>
                                    <path stroke="#999" stroke-dasharray="2" stroke-linecap="round" d="M12.013 5h0v2.999c0 1.104-.896 2-2 2h-6c-1.105 0-2-.896-2-2v-2.97h0" transform="translate(-801.000000, -524.000000) translate(361.000000, 443.000000) translate(0.000000, 48.000000) translate(30.000000, 30.000000) translate(337.000000, 1.000000) translate(73.000000, 2.000000) translate(1.987322, 1.001070)"/>
                                    <path stroke="#999" d="M12.013 0h0v2.999c0 1.104-.896 2-2 2h-6c-1.105 0-2-.896-2-2V.029h0" transform="translate(-801.000000, -524.000000) translate(361.000000, 443.000000) translate(0.000000, 48.000000) translate(30.000000, 30.000000) translate(337.000000, 1.000000) translate(73.000000, 2.000000) translate(1.987322, 1.001070) translate(7.012678, 2.499465) rotate(-180.000000) translate(-7.012678, -2.499465)"/>
                                    <path stroke="#979797" stroke-linecap="round" d="M0 5.097L14.201 5.097" transform="translate(-801.000000, -524.000000) translate(361.000000, 443.000000) translate(0.000000, 48.000000) translate(30.000000, 30.000000) translate(337.000000, 1.000000) translate(73.000000, 2.000000) translate(1.987322, 1.001070)"/>
                                </g>
                            </g>
                        </g>
                    </g>
                </g>
            </g>
        </g>
    </g>
</svg>
