<svg xmlns="http://www.w3.org/2000/svg" width="25" height="25" viewBox="0 0 25 25">
    <g fill="none" fill-rule="evenodd">
        <g>
            <g>
                <g>
                    <g>
                        <g>
                            <g>
                                <path stroke="#666" stroke-linecap="round" stroke-width="1.188" d="M12.344 15.781L20.469 15.781M16.406 12.969L20.505 12.969" transform="translate(-900.000000, -188.000000) translate(-2.000000, 0.000000) translate(362.000000, 121.000000) translate(0.000000, 47.000000) translate(540.000000, 20.000000) translate(0.625000, 0.625000)"/>
                                <path stroke="#666" stroke-linecap="round" stroke-linejoin="round" stroke-width="1.188" d="M16.563 10.127c0 .614-.491 1.108-1.102 1.108H6.967l-.897.818-.324.295-1.881 1.714v-2.827H1.102C.494 11.235 0 10.737 0 10.127V1.108C0 .906.057.719.15.556.34.225.692 0 1.102 0h14.359c.406 0 .759.226.95.556.093.163.151.35.151.552v9.019z" transform="translate(-900.000000, -188.000000) translate(-2.000000, 0.000000) translate(362.000000, 121.000000) translate(0.000000, 47.000000) translate(540.000000, 20.000000) translate(0.625000, 0.625000)"/>
                                <path stroke="#666" stroke-linecap="round" stroke-linejoin="round" stroke-width="1.188" d="M7.188 11.43v7.447c0 .614.49 1.108 1.101 1.108h8.494l.897.818.324.295 1.881 1.715V19.985h2.763c.608 0 1.102-.498 1.102-1.108V9.858c0-.202-.057-.389-.15-.552-.19-.331-.542-.556-.952-.556h-5.523" transform="translate(-900.000000, -188.000000) translate(-2.000000, 0.000000) translate(362.000000, 121.000000) translate(0.000000, 47.000000) translate(540.000000, 20.000000) translate(0.625000, 0.625000)"/>
                                <path fill="#666" fill-rule="nonzero" d="M8.475 7.475v-.4c0-.47.26-.67.75-1.05.72-.61 1.01-1.07 1.01-1.92 0-1.22-.9-1.7-1.99-1.7-.66 0-1.14.1-1.59.3v.77c.42-.14.74-.25 1.33-.25.75 0 1.18.25 1.18.93 0 .56-.17.99-.59 1.34-.67.53-1.02.81-1.02 1.5v.48h.92zm.1 2.09v-1.08h-1.1v1.08h1.1z" transform="translate(-900.000000, -188.000000) translate(-2.000000, 0.000000) translate(362.000000, 121.000000) translate(0.000000, 47.000000) translate(540.000000, 20.000000) translate(0.625000, 0.625000)"/>
                            </g>
                        </g>
                    </g>
                </g>
            </g>
        </g>
    </g>
</svg>
