<svg width="81" height="80" viewBox="0 0 81 80" fill="none" xmlns="http://www.w3.org/2000/svg">
    <path d="M13.786 26.5V59c0 8.837 7.163 16 16 16h22c8.836 0 16-7.163 16-16V26.5" stroke="#666" stroke-width="2"/>
    <mask id="y8co5b0ila" style="mask-type:alpha" maskUnits="userSpaceOnUse" x="12" y="13" width="57" height="24">
        <path fill-rule="evenodd" clip-rule="evenodd" d="M12.786 13h20v18h16V13h20v24h-56V13z" fill="#D9D9D9"/>
    </mask>
    <g mask="url(#y8co5b0ila)">
        <path d="M67.786 27c0 .972-.55 2.034-1.846 3.128-1.292 1.091-3.22 2.119-5.692 3.001C55.315 34.891 48.434 36 40.786 36c-7.649 0-14.53-1.109-19.463-2.87-2.471-.883-4.4-1.91-5.692-3.002-1.296-1.095-1.845-2.156-1.845-3.128s.549-2.034 1.845-3.128c1.292-1.091 3.221-2.119 5.692-3.001C26.256 19.109 33.137 18 40.786 18c7.648 0 14.529 1.109 19.462 2.87 2.471.883 4.4 1.91 5.692 3.002 1.297 1.095 1.846 2.156 1.846 3.128z" stroke="#666" stroke-width="2"/>
    </g>
    <path fill="#00A5ED" d="M39.786 9h2v2h-2zM39.786 17h2v2h-2zM39.786 13h2v2h-2zM39.786 21h2v2h-2zM40.432 2.354a.5.5 0 0 1 .707 0l4.793 4.792a.5.5 0 0 1-.354.854h-9.585a.5.5 0 0 1-.354-.854l4.793-4.792zM41.14 29.646a.5.5 0 0 1-.708 0l-4.793-4.793a.5.5 0 0 1 .354-.853h9.586a.5.5 0 0 1 .353.854l-4.793 4.792z"/>
    <path stroke="#00A5ED" stroke-width="2" d="M31.786 58h9v9h-9zM50.552 56l4.234-7.056L59.019 56h-8.467zM29.22 43l2.4 4-2.4 4h-4.868l-2.4-4 2.4-4h4.867z"/>
</svg>
