<svg xmlns="http://www.w3.org/2000/svg" width="19" height="16" viewBox="0 0 19 16">
    <g fill="none" fill-rule="evenodd">
        <g>
            <g>
                <g>
                    <g>
                        <g>
                            <g>
                                <g>
                                    <path stroke="#666" stroke-linecap="round" stroke-linejoin="round" stroke-width="1.188" d="M16.563 10.127c0 .614-.491 1.108-1.102 1.108H6.967l-.897.818-.324.295-1.881 1.714v-2.827H1.102C.494 11.235 0 10.737 0 10.127V1.108C0 .906.057.719.15.556.34.225.692 0 1.102 0h14.359c.406 0 .759.226.95.556.093.163.151.35.151.552v9.019z" transform="translate(-390.000000, -268.000000) translate(-2.000000, 0.000000) translate(362.000000, 121.000000) translate(1.000000, 47.000000) translate(29.500000, -1.000000) translate(0.500000, 96.000000) translate(0.000000, 6.000000)"/>
                                    <path fill="#666" fill-rule="nonzero" d="M8.475 7.475v-.4c0-.47.26-.67.75-1.05.72-.61 1.01-1.07 1.01-1.92 0-1.22-.9-1.7-1.99-1.7-.66 0-1.14.1-1.59.3v.77c.42-.14.74-.25 1.33-.25.75 0 1.18.25 1.18.93 0 .56-.17.99-.59 1.34-.67.53-1.02.81-1.02 1.5v.48h.92zm.1 2.09v-1.08h-1.1v1.08h1.1z" transform="translate(-390.000000, -268.000000) translate(-2.000000, 0.000000) translate(362.000000, 121.000000) translate(1.000000, 47.000000) translate(29.500000, -1.000000) translate(0.500000, 96.000000) translate(0.000000, 6.000000)"/>
                                </g>
                            </g>
                        </g>
                    </g>
                </g>
            </g>
        </g>
    </g>
</svg>
