<svg xmlns="http://www.w3.org/2000/svg" width="26" height="25" viewBox="0 0 26 25">
    <defs>
        <filter id="v01jwhoewa">
            <feColorMatrix in="SourceGraphic" values="0 0 0 0 1.000000 0 0 0 0 1.000000 0 0 0 0 1.000000 0 0 0 1.000000 0"/>
        </filter>
    </defs>
    <g fill="none" fill-rule="evenodd">
        <g>
            <g>
                <g>
                    <g filter="url(#v01jwhoewa)" transform="translate(-1831.000000, -2409.000000) translate(1800.000000, 2288.000000) translate(0.000000, 105.000000) translate(23.000000, 16.000000)">
                        <g>
                            <g fill="#FFF">
                                <path d="M15.46 0c.407 0 .76.226.95.556.094.163.152.35.152.552v9.02c0 .613-.49 1.107-1.101 1.107H6.967l-.897.818-.324.295-1.881 1.714v-2.827H1.102C.494 11.235 0 10.737 0 10.127v-9.02C0 .907.057.72.15.558.34.224.692 0 1.102 0h14.359zM8.28 7.806c-.158 0-.298.07-.42.202-.123.122-.184.27-.184.455 0 .166.061.315.184.455.122.13.262.192.42.192.157 0 .306-.061.429-.192.13-.14.192-.29.192-.455 0-.175-.061-.324-.192-.455-.123-.132-.272-.202-.43-.202zM7.247 2.285c-.376.175-.682.49-.813.884-.105.297-.097.621-.053.927.061.412.534.919.945.516.254-.236.061-.516.044-.804-.026-.473.56-.762.98-.744.472.026.822.525.761.971-.061.49-.402.718-.7 1.059-.271.324-.464.691-.534 1.102-.052.341-.07.989.412 1.006.367.01.463-.27.498-.595.044-.34.044-.595.298-.866.219-.245.507-.437.7-.708 0-.01.009-.018.009-.018.48-.744.533-1.829-.202-2.459-.665-.577-1.557-.639-2.345-.271z" transform="translate(8.000000, 0.000000) translate(0.625000, 0.625000)"/>
                                <path d="M23.648 8.75c.41 0 .762.225.952.556.093.163.15.35.15.552v9.02c0 .61-.494 1.107-1.102 1.107h-2.763v2.828l-1.88-1.715-.325-.295-.897-.818H9.29c-.61 0-1.101-.494-1.101-1.108v-7.002H16.5c.387 0 .7-.313.7-.7V8.75zm-2.18 6.438h-8.124l-.097.007c-.282.046-.497.291-.497.586 0 .328.266.594.594.594h8.125l.096-.008c.282-.046.497-.29.497-.586 0-.328-.265-.594-.593-.594zm.037-2.813h-4.099l-.096.008c-.282.046-.497.29-.497.586 0 .328.265.594.593.594h4.1l.096-.008c.282-.046.497-.291.497-.586 0-.328-.266-.594-.594-.594z" transform="translate(8.000000, 0.000000) translate(0.625000, 0.625000)"/>
                            </g>
                        </g>
                    </g>
                </g>
            </g>
        </g>
    </g>
</svg>
