<svg width="32" height="32" viewBox="0 0 32 32" fill="none" xmlns="http://www.w3.org/2000/svg">
    <g clip-path="url(#wjc89lhqja)">
        <path d="M3.203 19.096 6.5 17.193l3.297 1.903v3.808L6.5 24.807l-3.297-1.903v-3.808zM22.203 19.096l3.297-1.903 3.297 1.903v3.808L25.5 24.807l-3.297-1.903v-3.808zM12.203 3.096 15.5 1.193l3.297 1.903v3.808L15.5 8.807l-3.297-1.903V3.096zM20.7 15.846l-6.75 3.898a.4.4 0 0 1-.6-.347v-7.794a.4.4 0 0 1 .6-.346l6.75 3.897a.4.4 0 0 1 0 .692z" stroke="#666" stroke-width="1.2"/>
        <path fill-rule="evenodd" clip-rule="evenodd" d="M11.268 27.313a.6.6 0 1 0-.536 1.073l5 2.5.268.134.268-.134 5-2.5a.6.6 0 1 0-.537-1.073L16.6 29.378V24.35a.6.6 0 0 0-1.2 0v5.03l-4.132-2.067zM7.795 5.74a.6.6 0 0 0-.74-.945l-4.398 3.45-.236.186.006.3.122 5.588a.6.6 0 1 0 1.2-.026l-.101-4.618 4.546 2.151a.6.6 0 1 0 .513-1.085l-4.546-2.15 3.634-2.852zM28.322 14.278a.6.6 0 1 0 1.2.014l.066-5.59.003-.3-.238-.182-4.432-3.407a.6.6 0 0 0-.732.952l3.663 2.814-4.524 2.196a.6.6 0 1 0 .524 1.08l4.524-2.196-.054 4.619z" fill="#666"/>
    </g>
    <defs>
        <clipPath id="wjc89lhqja">
            <path fill="#fff" d="M0 0h32v32H0z"/>
        </clipPath>
    </defs>
</svg>
