<svg width="32" height="32" viewBox="0 0 32 32" fill="none" xmlns="http://www.w3.org/2000/svg">
    <circle cx="16" cy="16" r="13.4" stroke="#666" stroke-width="1.2"/>
    <path d="M26.415 16.09a.5.5 0 0 1 0 .82l-3.628 2.54a.5.5 0 0 1-.787-.41v-5.08a.5.5 0 0 1 .787-.41l3.628 2.54zM11.54 10.116a.5.5 0 0 1 0 .768l-1.72 1.433a.5.5 0 0 1-.82-.385V9.069a.5.5 0 0 1 .82-.385l1.72 1.433zM11.54 16.116a.5.5 0 0 1 0 .768l-1.72 1.433a.5.5 0 0 1-.82-.384v-2.865a.5.5 0 0 1 .82-.385l1.72 1.433zM11.54 22.116a.5.5 0 0 1 0 .768l-1.72 1.433a.5.5 0 0 1-.82-.384v-2.866a.5.5 0 0 1 .82-.384l1.72 1.433z" fill="#666"/>
    <path d="M13 10.5h4v12h-3.5m-.5-6h8" stroke="#666" stroke-width="1.2" stroke-linecap="round"/>
</svg>
