<svg xmlns="http://www.w3.org/2000/svg" width="43" height="43" viewBox="0 0 43 43">
    <g fill="none" fill-rule="evenodd">
        <g fill="#000" fill-rule="nonzero">
            <g>
                <g>
                    <g>
                        <path d="M17.512 5.625c1.036 0 1.875.84 1.875 1.875 0 1.036-.839 1.875-1.875 1.875H7.5c-1.036 0-1.875.84-1.875 1.875V37.5c0 1.036.84 1.875 1.875 1.875h26.25c1.036 0 1.875-.84 1.875-1.875V27.488c0-1.036.84-1.875 1.875-1.875 1.036 0 1.875.839 1.875 1.875V37.5c0 3.107-2.518 5.625-5.625 5.625H7.5c-3.107 0-5.625-2.518-5.625-5.625V11.25c0-3.107 2.518-5.625 5.625-5.625zm17.564-3.2l7.5 7.5c.732.731.732 1.919 0 2.65l-18.75 18.75c-.352.352-.829.55-1.326.55H15c-1.036 0-1.875-.84-1.875-1.875v-7.5c0-.497.198-.974.55-1.326l18.75-18.75c.731-.732 1.919-.732 2.65 0zM33.75 6.401L16.875 23.277v4.848h4.848L38.598 11.25 33.75 6.402z" transform="translate(-789 -521) translate(655 328) translate(30 113) translate(103 79)"/>
                    </g>
                </g>
            </g>
        </g>
    </g>
</svg>
