<svg width="16" height="16" viewBox="0 0 16 16" fill="none" xmlns="http://www.w3.org/2000/svg">
    <mask id="8un7vuh2ia" fill="#fff">
        <path fill-rule="evenodd" clip-rule="evenodd" d="M5.668 2a1 1 0 0 1 1-1h2.2a1 1 0 0 1 1 1v.807a5.598 5.598 0 0 1 1.496.9 2 2 0 0 1 2.654.775l.1.173a2 2 0 0 1-.732 2.732l-.048.028a5.68 5.68 0 0 1-.008 1.24 2 2 0 0 1 .663 2.69l-.1.173a2 2 0 0 1-2.575.814 5.597 5.597 0 0 1-1.45.861V14a1 1 0 0 1-1 1h-2.2a1 1 0 0 1-1-1v-.807a5.587 5.587 0 0 1-1.21-.676 2 2 0 0 1-2.464-.862l-.1-.173A2 2 0 0 1 2.26 9.02a5.633 5.633 0 0 1-.017-1.945 2 2 0 0 1-.476-2.557l.1-.173a2 2 0 0 1 2.544-.828 5.591 5.591 0 0 1 1.256-.71V2zm2.181 8.45a2.625 2.625 0 1 0 0-5.25 2.625 2.625 0 0 0 0 5.25z"/>
    </mask>
    <path d="M9.868 2.807h-4v2.696l2.5 1.012 1.5-3.708zm1.496.9-2.57 3.065 2.047 1.717 2.37-1.234-1.847-3.548zm2.654.775 3.464-2-3.464 2zm.1.173-3.464 2 3.464-2zm-.732 2.732 2 3.464-2-3.464zm-.048.028-2-3.464-2.246 1.297.267 2.58 3.979-.413zm-.008 1.24-3.973-.463-.29 2.5 2.126 1.344 2.137-3.381zm.663 2.69-3.465-2 3.465 2zm-.1.173 3.464 2-3.464-2zm-2.575.814 1.69-3.626-2.282-1.063-1.945 1.596 2.537 3.093zm-1.45.861-1.5-3.708-2.5 1.012v2.696h4zm-4.2 0h4v-2.696L7.17 9.485l-1.5 3.708zm-1.21-.676 2.367-3.224-1.78-1.307-2.055.81 1.467 3.721zm-2.464-.862 3.464-2-3.464 2zm-.1-.173-3.464 2 3.464-2zM2.26 9.02l2.727 2.926 1.603-1.494-.396-2.156-3.934.724zm-.017-1.945 3.946.656.384-2.307L4.752 3.96 2.244 7.075zm-.476-2.557 3.464 2-3.464-2zm.1-.173-3.464-2 3.464 2zm2.544-.828L2.784 7.17l2.147.957 1.88-1.41-2.399-3.2zm1.256-.71L7.17 6.515l2.5-1.012V2.807h-4zm1-5.807a5 5 0 0 0-5 5h8a3 3 0 0 1-3 3v-8zm2.2 0h-2.2v8h2.2v-8zm5 5a5 5 0 0 0-5-5v8a3 3 0 0 1-3-3h8zm0 .807V2h-8v.807h8zm.066-2.165A9.598 9.598 0 0 0 11.37-.9L8.367 6.515c.154.062.298.149.427.257l5.14-6.13zm3.548 1.84A6 6 0 0 0 9.518.16l3.693 7.096a2 2 0 0 1-2.657-.773l6.928-4zm.1.173-.1-.173-6.928 4 .1.173 6.928-4zm-2.196 8.196a6 6 0 0 0 2.196-8.196l-6.928 4a2 2 0 0 1 .732-2.732l4 6.928zm-.048.028.048-.028-4-6.928-.048.028 4 6.928zM17.368 8c0-.336-.017-.669-.051-.998l-7.958.826c.006.055.01.113.01.172h8zm-.065 1.117c.043-.368.065-.74.065-1.117h-8c0 .067-.004.13-.01.192l7.945.925zm.154 4.228a6 6 0 0 0-1.99-8.072l-4.274 6.763a2 2 0 0 1-.665-2.691l6.929 4zm-.1.173.1-.173-6.929-4-.1.173 6.929 4zm-7.73 2.44a6 6 0 0 0 7.73-2.44l-6.928-4a2 2 0 0 1 2.579-.812l-3.38 7.251zm1.742.943a9.596 9.596 0 0 0 2.486-1.477L8.78 9.24a1.597 1.597 0 0 1-.414.246l3.002 7.416zm2.5-2.901v-.807h-8V14h8zm-5 5a5 5 0 0 0 5-5h-8a3 3 0 0 1 3-3v8zm-2.2 0h2.2v-8h-2.2v8zm-5-5a5 5 0 0 0 5 5v-8a3 3 0 0 1 3 3h-8zm0-.807V14h8v-.807h-8zm.421 2.548a9.592 9.592 0 0 0 2.077 1.16L7.17 9.485a1.59 1.59 0 0 1-.344-.192L2.09 15.74zm-3.56-2.086a6 6 0 0 0 7.395 2.583L2.99 8.796a2 2 0 0 1 2.468.86l-6.928 4zm-.1-.173.1.173 6.928-4-.1-.173-6.928 4zm1.104-7.388a6 6 0 0 0-1.104 7.388l6.928-4a2 2 0 0 1-.37 2.464L-.466 6.094zM-1.832 8c0 .592.054 1.175.159 1.744l7.868-1.448A1.632 1.632 0 0 1 6.168 8h-8zm.13-1.581A9.639 9.639 0 0 0-1.832 8h8c0-.094.008-.184.022-.27L-1.702 6.42zm.006-3.901a6 6 0 0 0 1.432 7.673l5.016-6.232a2 2 0 0 1 .48 2.559l-6.928-4zm.1-.173-.1.173 6.928 4 .1-.173-6.928-4zM6.04-.137a6 6 0 0 0-7.636 2.482l6.928 4a2 2 0 0 1-2.548.825L6.04-.137zM4.167-.901A9.592 9.592 0 0 0 2.013.316l4.799 6.401c.11-.083.23-.15.357-.202L4.167-.901zM1.668 2v.807h8V2h-8zm4.806 5.825c0-.76.616-1.375 1.375-1.375v8a6.625 6.625 0 0 0 6.626-6.625h-8zM7.85 9.2c-.759 0-1.375-.616-1.375-1.375h8A6.625 6.625 0 0 0 7.85 1.2v8zm1.375-1.375c0 .76-.615 1.375-1.375 1.375v-8a6.625 6.625 0 0 0-6.625 6.625h8zM7.85 6.45c.76 0 1.375.615 1.375 1.375h-8A6.625 6.625 0 0 0 7.85 14.45v-8z" fill="#00A5ED" mask="url(#8un7vuh2ia)"/>
</svg>
