<svg xmlns="http://www.w3.org/2000/svg" width="21" height="20" viewBox="0 0 21 20">
    <g fill="none" fill-rule="evenodd">
        <g fill="#E02020">
            <g>
                <g>
                    <g>
                        <g>
                            <g>
                                <g>
                                    <path d="M3.433 16.275c-.525 0-.853-.569-.59-1.023L9.16 4.34c.263-.453.917-.453 1.18 0l6.317 10.912c.263.454-.065 1.023-.59 1.023H3.433c-.35 0-.35 0 0 0zm6.999-2.047h-.638l-.044.002c-.015 0-.03 0-.044-.002h-.638v-1.363h1.364v1.363zm0-2.725H9.068v-3.41h1.364v3.41z" transform="translate(-493.000000, -1541.000000) translate(360.000000, 1387.000000) translate(30.623364, 95.440917) translate(19.418701, 20.439898) translate(1.304624, 0.000000) translate(81.903311, 34.093705) translate(0.000000, 4.025480)"/>
                                </g>
                            </g>
                        </g>
                    </g>
                </g>
            </g>
        </g>
    </g>
</svg>
