<svg width="81" height="80" viewBox="0 0 81 80" fill="none" xmlns="http://www.w3.org/2000/svg">
    <mask id="4cxem0v1za" style="mask-type:alpha" maskUnits="userSpaceOnUse" x="4" y="23" width="76" height="56">
        <path d="M27.643 55V25.5l30.5-2.5 21 1.5-2.5 52.5-21.5 1.5-1.5-11-3.5-4-15-7-7.5-1.5z" fill="#00A5ED"/>
    </mask>
    <g mask="url(#4cxem0v1za)">
        <path d="M29.643 27v33c0 8.837 7.163 16 16 16h14c8.836 0 16-7.163 16-16V27" stroke="#666" stroke-width="2"/>
    </g>
    <mask id="gdqa0tsaeb" style="mask-type:alpha" maskUnits="userSpaceOnUse" x="31" y="34" width="43" height="10">
        <path d="M31.643 39v-4.5l8.822 3L51.807 39l16.804-2 4.62-2.5V40L61.47 43.5 39.624 43l-7.981-4z" fill="#000"/>
    </mask>
    <g mask="url(#gdqa0tsaeb)">
        <path d="M75.172 33c0 1.04-.491 2.116-1.557 3.187-1.07 1.076-2.67 2.09-4.724 2.964C64.785 40.896 59.042 42 52.647 42s-12.137-1.104-16.243-2.85c-2.055-.873-3.654-1.887-4.724-2.963-1.066-1.071-1.558-2.147-1.558-3.187s.492-2.116 1.558-3.187c1.07-1.076 2.669-2.09 4.724-2.964C40.51 25.104 46.252 24 52.647 24c6.395 0 12.138 1.104 16.244 2.85 2.055.873 3.654 1.887 4.724 2.963 1.066 1.071 1.557 2.147 1.557 3.187z" stroke="#00A5ED" stroke-width="2"/>
    </g>
    <path d="m11.66 42 1.63 1.629a.5.5 0 0 0 .706 0L15.626 42M15.625 55.877l-1.982-1.983m0 0-1.982 1.983m1.982-1.983V43.652M6.643 47.186l2.225-.596a.5.5 0 0 0 .353-.613l-.596-2.225M20.643 50.69l-2.708.726m0 0 .725 2.708m-.725-2.708-8.87-5.12M8.625 54.124l.596-2.225a.5.5 0 0 0-.353-.612l-2.225-.596M18.66 43.752l-.725 2.708m0 0 2.708.726m-2.708-.726-8.87 5.121" stroke="#00A5ED" stroke-width="2" stroke-linecap="round" stroke-linejoin="round"/>
    <path d="m43.66 3 1.63 1.629a.5.5 0 0 0 .706 0L47.626 3M47.625 16.877l-1.982-1.983m0 0-1.983 1.983m1.983-1.983V4.652M38.643 8.186l2.225-.596a.5.5 0 0 0 .353-.613l-.596-2.225M52.643 11.69l-2.708.726m0 0 .725 2.708m-.725-2.708-8.87-5.12M40.625 15.124l.596-2.225a.5.5 0 0 0-.353-.612l-2.225-.596M50.66 4.752l-.725 2.708m0 0 2.708.726m-2.708-.726-8.87 5.122" stroke="#666" stroke-width="2" stroke-linecap="round" stroke-linejoin="round"/>
    <path d="M75.643 28c0 1.032-.498 2.106-1.588 3.18-1.093 1.077-2.727 2.093-4.826 2.968C65.035 35.895 59.17 37 52.643 37c-6.529 0-12.392-1.105-16.586-2.852-2.1-.875-3.733-1.89-4.826-2.968-1.09-1.074-1.588-2.148-1.588-3.18s.498-2.106 1.588-3.18c1.093-1.077 2.727-2.093 4.826-2.968C40.25 20.105 46.114 19 52.643 19c6.528 0 12.392 1.105 16.586 2.852 2.099.875 3.733 1.89 4.826 2.968 1.09 1.074 1.588 2.148 1.588 3.18z" fill="#fff" stroke="#666" stroke-width="2"/>
    <mask id="tkjxfkldyc" style="mask-type:alpha" maskUnits="userSpaceOnUse" x="31" y="20" width="44" height="10">
        <path d="m33.594 29.322-1.603-1.908a.5.5 0 0 1 .092-.728l3.693-2.636a.5.5 0 0 1 .152-.074l12.024-3.452a.502.502 0 0 1 .169-.019l16.205.989a.502.502 0 0 1 .191.05l9.476 4.698a.5.5 0 0 1 .187.735l-1.618 2.31a.5.5 0 0 1-.41.213H33.977a.5.5 0 0 1-.383-.178z" fill="#00A5ED"/>
    </mask>
    <g mask="url(#tkjxfkldyc)">
        <path d="M75.195 32c0 1.04-.491 2.115-1.558 3.187-1.07 1.076-2.67 2.09-4.727 2.964C64.802 39.896 59.057 41 52.658 41c-6.398 0-12.144-1.104-16.252-2.85-2.056-.873-3.656-1.887-4.727-2.963-1.066-1.072-1.558-2.148-1.558-3.187 0-1.04.492-2.115 1.558-3.187 1.071-1.075 2.67-2.09 4.727-2.964C40.514 24.104 46.26 23 52.658 23c6.399 0 12.144 1.104 16.252 2.85 2.057.873 3.656 1.887 4.727 2.963 1.067 1.072 1.558 2.148 1.558 3.187z" stroke="#00A5ED" stroke-width="2"/>
    </g>
    <path d="m68.643 27-4 4M60.643 27l-8 7M56.643 23l-8 7" stroke="#00A5ED" stroke-width="2" stroke-linecap="round"/>
    <circle cx="28.143" cy="15.5" r="2.5" stroke="#00A5ED" stroke-width="2"/>
    <circle cx="21.143" cy="34.5" r="2.5" stroke="#666" stroke-width="2"/>
    <path d="M18.643 76.127c.166-1.833 1.6-5.1 6-3.5 3.5-4.167 12.5-7.627 18 3.5" stroke="#666" stroke-width="2" stroke-linecap="round"/>
    <path d="M4.143 73c1.166-3.5 5.7-9.7 14.5-6.5 3.166-4.833 12-13 23.5-2 3.5-.833 7.5-1 8.5 5.5" stroke="#00A5ED" stroke-width="2" stroke-linecap="round"/>
</svg>
