<svg xmlns="http://www.w3.org/2000/svg" width="25" height="25" viewBox="0 0 25 25">
    <g fill="none" fill-rule="evenodd">
        <g stroke="#666" stroke-width="1.188">
            <g>
                <g>
                    <g>
                        <g>
                            <g>
                                <path stroke-linecap="round" stroke-linejoin="round" d="M0 12.344h1.568m11.25 0h10.469" transform="translate(-1300.000000, -188.000000) translate(-2.000000, 0.000000) translate(362.000000, 121.000000) translate(0.000000, 47.000000) translate(940.000000, 20.000000) translate(0.932186, 5.000000)"/>
                                <g transform="translate(-1300.000000, -188.000000) translate(-2.000000, 0.000000) translate(362.000000, 121.000000) translate(0.000000, 47.000000) translate(940.000000, 20.000000) translate(0.932186, 5.000000) translate(1.567814, 2.500000)">
                                    <circle cx="5.675" cy="2.786" r="2.786"/>
                                    <path stroke-linecap="round" d="M0 12.191V9.393c0-1.14.924-2.064 2.064-2.064h6.81c1.14 0 2.063.924 2.063 2.064v2.798"/>
                                </g>
                                <g transform="translate(-1300.000000, -188.000000) translate(-2.000000, 0.000000) translate(362.000000, 121.000000) translate(0.000000, 47.000000) translate(940.000000, 20.000000) translate(0.932186, 5.000000) translate(10.942814, 0.000000)">
                                    <circle cx="5.675" cy="2.786" r="2.786"/>
                                    <path stroke-linecap="round" d="M0 9.76v-.367c0-1.14.924-2.064 2.064-2.064h6.81c1.14 0 2.063.924 2.063 2.064v2.798"/>
                                </g>
                            </g>
                        </g>
                    </g>
                </g>
            </g>
        </g>
    </g>
</svg>
