<svg xmlns="http://www.w3.org/2000/svg" width="25" height="24" viewBox="0 0 25 24" fill="none">
<path fill-rule="evenodd" clip-rule="evenodd" d="M2.41016 12C2.41016 6.47701 6.88717 2 12.4102 2C17.9331 2 22.4102 6.47701 22.4102 12C22.4102 17.523 17.9331 22 12.4102 22C6.88717 22 2.41016 17.523 2.41016 12Z" fill="#BBBBBB"/>
<path fill-rule="evenodd" clip-rule="evenodd" d="M8.87492 8.46428C9.26545 8.07376 9.89861 8.07376 10.2891 8.46428L12.4105 10.5857L14.5319 8.46428C14.9224 8.07376 15.5556 8.07376 15.9461 8.46428C16.3367 8.8548 16.3367 9.48797 15.9461 9.87849L13.8247 11.9999L15.9461 14.1213C16.3367 14.5118 16.3367 15.145 15.9461 15.5355C15.5556 15.926 14.9224 15.926 14.5319 15.5355L12.4105 13.4141L10.2891 15.5355C9.89861 15.926 9.26545 15.926 8.87492 15.5355C8.4844 15.145 8.4844 14.5118 8.87492 14.1213L10.9963 11.9999L8.87492 9.87849C8.4844 9.48797 8.4844 8.8548 8.87492 8.46428Z" fill="white"/>
</svg>
