<svg xmlns="http://www.w3.org/2000/svg" width="25" height="26" viewBox="0 0 25 26">
    <g fill="none" fill-rule="evenodd">
        <g stroke="#666" stroke-width="1.188">
            <g>
                <g>
                    <g>
                        <g>
                            <g>
                                <g transform="translate(-515.000000, -189.000000) translate(-2.000000, 0.000000) translate(362.000000, 121.000000) translate(0.000000, 47.000000) translate(155.000000, 21.000000) translate(0.000000, 0.312500) translate(0.625000, 3.437500)">
                                    <path stroke-linecap="round" stroke-linejoin="round" d="M15.625 3.973V1.25c0-.69.56-1.25 1.25-1.25h1.563c.69 0 1.25.56 1.25 1.25v15c0 .69-.56 1.25-1.25 1.25h-1.563c-.69 0-1.25-.56-1.25-1.25V6.805h0"/>
                                    <rect width="3.125" height="6.875" y="5.313" stroke-linejoin="round" rx=".625"/>
                                    <path stroke-linejoin="round" d="M10.313 13.947V17.5c0 .345-.28.625-.626.625H7.813c-.346 0-.625-.28-.625-.625v-5.364"/>
                                    <path stroke-linecap="round" d="M3.359 7.344L15.625 1.786M3.125 10.47L15.625 15.867M21.298 11.719L23.125 12.5M21.298 8.594L23.219 8.594M21.298 5.469L23.219 4.668"/>
                                </g>
                            </g>
                        </g>
                    </g>
                </g>
            </g>
        </g>
    </g>
</svg>
