<svg width="32" height="32" viewBox="0 0 32 32" fill="none" xmlns="http://www.w3.org/2000/svg">
    <rect x="9" y="9" width="14" height="14" rx="2" stroke="#00A5ED" stroke-width="1.2"/>
    <path d="M5 17H4a2 2 0 0 0-2 2v9a2 2 0 0 0 2 2h9a2 2 0 0 0 2-2v-1M27 15h1a2 2 0 0 0 2-2V4a2 2 0 0 0-2-2h-9a2 2 0 0 0-2 2v1" stroke="#00A5ED" stroke-width="1.2"/>
    <path fill-rule="evenodd" clip-rule="evenodd" d="M6.4 13a.6.6 0 0 1 .6-.6h2v1.2H7a.6.6 0 0 1-.6-.6zM6.4 16a.6.6 0 0 1 .6-.6h2v1.2H7a.6.6 0 0 1-.6-.6zM6.4 19a.6.6 0 0 1 .6-.6h2v1.2H7a.6.6 0 0 1-.6-.6zM25.6 19a.6.6 0 0 1-.6.6h-2v-1.2h2a.6.6 0 0 1 .6.6zM25.6 16a.6.6 0 0 1-.6.6h-2v-1.2h2a.6.6 0 0 1 .6.6zM25.6 13a.6.6 0 0 1-.6.6h-2v-1.2h2a.6.6 0 0 1 .6.6zM19 6.4a.6.6 0 0 1 .6.6v2h-1.2V7a.6.6 0 0 1 .6-.6zM16 6.4a.6.6 0 0 1 .6.6v2h-1.2V7a.6.6 0 0 1 .6-.6zM13 6.4a.6.6 0 0 1 .6.6v2h-1.2V7a.6.6 0 0 1 .6-.6zM13 25.6a.6.6 0 0 1-.6-.6v-2h1.2v2a.6.6 0 0 1-.6.6zM16 25.6a.6.6 0 0 1-.6-.6v-2h1.2v2a.6.6 0 0 1-.6.6zM19 25.6a.6.6 0 0 1-.6-.6v-2h1.2v2a.6.6 0 0 1-.6.6z" fill="#00A5ED"/>
</svg>
