<svg width="25" height="25" viewBox="0 0 25 25" fill="none" xmlns="http://www.w3.org/2000/svg">
    <path d="M20 13.736V21c0 .552-.433.999-.966.999H5.966C5.432 22 5 21.553 5 21V6.953L9 3h10.03c.534-.002.968.444.97.995v9.824" stroke="#666" stroke-width="1.19" stroke-linecap="round"/>
    <path clip-rule="evenodd" d="M9 3v4H5l4-4z" stroke="#666" stroke-width="1.19" stroke-linecap="round" stroke-linejoin="round"/>
    <path d="M8 11.997c0-.677.158-1.18.473-1.507.32-.327.75-.49 1.293-.49.561 0 1 .163 1.315.49.319.324.478.826.478 1.507 0 .678-.16 1.18-.478 1.508-.316.326-.745.49-1.288.49-.56 0-1-.162-1.32-.485-.315-.327-.473-.831-.473-1.513zm1.205-.01c0 .492.06.822.181.991a.446.446 0 0 0 .38.186.452.452 0 0 0 .385-.186c.117-.168.176-.499.176-.99 0-.493-.059-.822-.176-.987a.447.447 0 0 0-.385-.19.446.446 0 0 0-.38.185c-.12.169-.181.5-.181.991zm1.738 5.998H9.8L14.095 10h1.112l-4.264 7.985zm2.498-1.988c0-.677.157-1.18.473-1.507.319-.327.754-.49 1.304-.49.553 0 .988.163 1.303.49.32.327.479.83.479 1.507 0 .682-.16 1.186-.479 1.513-.315.327-.744.49-1.287.49-.561 0-1.001-.163-1.32-.49-.316-.327-.473-.831-.473-1.513zm1.204-.005c0 .492.061.82.182.986.092.127.218.191.38.191a.437.437 0 0 0 .38-.186c.12-.168.18-.499.18-.99 0-.493-.058-.823-.175-.992a.452.452 0 0 0-.385-.185.437.437 0 0 0-.38.185c-.121.169-.181.5-.181.991z" fill="#666"/>
</svg>
