<svg xmlns="http://www.w3.org/2000/svg" width="19" height="19" viewBox="0 0 19 19">
    <defs>
        <filter id="glyw9cdnha">
            <feColorMatrix in="SourceGraphic" values="0 0 0 0 1.000000 0 0 0 0 1.000000 0 0 0 0 1.000000 0 0 0 1.000000 0"/>
        </filter>
    </defs>
    <g fill="none" fill-rule="evenodd">
        <g>
            <g>
                <g filter="url(#glyw9cdnha)" transform="translate(-363.000000, -2446.000000) translate(343.000000, 2428.000000) translate(20.000000, 18.000000)">
                    <g stroke="#000" transform="translate(0.468750, 2.812500)">
                        <path stroke-linecap="round" stroke-linejoin="round" d="M11.719 2.98V.938c0-.518.42-.938.937-.938h1.172c.518 0 .938.42.938.938v11.25c0 .517-.42.937-.938.937h-1.172c-.518 0-.937-.42-.937-.938V5.104h0"/>
                        <rect width="2.344" height="5.156" y="3.984" stroke-linejoin="round" rx=".375"/>
                        <path stroke-linejoin="round" d="M7.734 10.46v2.665c0 .259-.21.469-.468.469H5.859c-.259 0-.468-.21-.468-.469V9.102"/>
                        <path stroke-linecap="round" d="M2.52 5.508L11.719 1.34M2.344 7.853L11.719 11.9M15.973 8.789L17.344 9.375M15.973 6.445L17.414 6.445M15.973 4.102L17.414 3.501"/>
                    </g>
                </g>
            </g>
        </g>
    </g>
</svg>
