<svg width="26" height="26" viewBox="0 0 26 26" fill="none" xmlns="http://www.w3.org/2000/svg">
    <path clip-rule="evenodd" d="m18.819 12.5.308 1.198c.502.119.963.344 1.359.651l1.016-.474.706.874-.68.912c.211.454.329.958.329 1.492v.074l.893.456-.253 1.095-1.046.025a3.565 3.565 0 0 1-1 1.179l.232 1.101-1.01.493-.783-.921a3.647 3.647 0 0 1-1.283-.022l-.788.938-1.01-.494.245-1.183a3.56 3.56 0 0 1-.898-1.107l-1.155-.021-.251-1.095 1.008-.521c0-.503.105-.982.294-1.415l-.75-.996.707-.873 1.097.503c.374-.297.81-.52 1.284-.646l.306-1.223h1.123z" stroke="#666" stroke-width="1.188" stroke-linejoin="round"/>
    <path clip-rule="evenodd" d="M19.035 16.02a1.454 1.454 0 1 0 .648 1.21c.006-.502-.21-.905-.648-1.21z" stroke="#666" stroke-width="1.188" stroke-linecap="round"/>
    <path d="M20.75 10.5v-5a1 1 0 0 0-1-1h-14a1 1 0 0 0-1 1v14a1 1 0 0 0 1 1h6" stroke="#666" stroke-width="1.19" stroke-linecap="round"/>
    <path fill="#666" d="M4.75 8.5h16v1.19h-16z"/>
    <circle cx="7.25" cy="7" r=".5" fill="#666"/>
    <circle cx="9.25" cy="7" r=".5" fill="#666"/>
    <circle cx="11.25" cy="7" r=".5" fill="#666"/>
</svg>
