<svg xmlns="http://www.w3.org/2000/svg" width="26" height="26" viewBox="0 0 26 26">
    <defs>
        <filter id="bjp2od6txa">
            <feColorMatrix in="SourceGraphic" values="0 0 0 0 1.000000 0 0 0 0 1.000000 0 0 0 0 1.000000 0 0 0 1.000000 0"/>
        </filter>
    </defs>
    <g fill="none" fill-rule="evenodd">
        <g>
            <g>
                <g filter="url(#bjp2od6txa)" transform="translate(-1832.000000, -2303.000000) translate(1800.000000, 2288.000000) translate(28.000000, 15.000000)">
                    <g>
                        <g fill="#FFF">
                            <path d="M16.392.42c1.243 0 2.25 1.161 2.25 2.594v18.811c0 1.433-1.007 2.595-2.25 2.595h-13.5c-1.243 0-2.25-1.162-2.25-2.595V3.015C.642 1.58 1.649.42 2.892.42h13.5zM9.951 19.21H5.012c-.681 0-1.234.553-1.234 1.234 0 .682.553 1.235 1.234 1.235h4.939c.681 0 1.234-.553 1.234-1.235 0-.681-.553-1.234-1.234-1.234zm4.63 0c-.683 0-1.235.553-1.235 1.234 0 .682.552 1.235 1.234 1.235.682 0 1.235-.553 1.235-1.235 0-.681-.553-1.234-1.235-1.234zm-9.877-4.63c-.682 0-1.235.553-1.235 1.235s.553 1.234 1.235 1.234 1.234-.552 1.234-1.234c0-.682-.552-1.235-1.234-1.235zm9.876 0c-.682 0-1.234.553-1.234 1.235s.552 1.234 1.234 1.234c.682 0 1.235-.552 1.235-1.234 0-.682-.553-1.235-1.235-1.235zm-4.938 0c-.682 0-1.235.553-1.235 1.235s.553 1.234 1.235 1.234 1.235-.552 1.235-1.234c0-.682-.553-1.235-1.235-1.235zM4.704 9.95c-.682 0-1.235.553-1.235 1.235s.553 1.235 1.235 1.235 1.234-.553 1.234-1.235-.552-1.234-1.234-1.234zm9.876 0c-.682 0-1.234.553-1.234 1.235s.552 1.235 1.234 1.235c.682 0 1.235-.553 1.235-1.235s-.553-1.234-1.235-1.234zm-4.938 0c-.682 0-1.235.553-1.235 1.235s.553 1.235 1.235 1.235 1.235-.553 1.235-1.235-.553-1.234-1.235-1.234zm5.1-6.48h-10.2c-.592 0-1.073.552-1.073 1.234v2.16c0 .682.48 1.235 1.074 1.235H14.74c.593 0 1.074-.553 1.074-1.235v-2.16c0-.682-.48-1.235-1.074-1.235z" transform="translate(4.000000, 0.000000) translate(3.703704, 0.234568)"/>
                        </g>
                    </g>
                </g>
            </g>
        </g>
    </g>
</svg>
