<svg width="71" height="20" viewBox="0 0 71 20" fill="none" xmlns="http://www.w3.org/2000/svg">
    <rect width="71" height="20" rx="10" fill="#44D7B6"/>
    <path d="M17.186 14.496V6.444h.96v3.492h4.032V6.444h.948v8.052h-.948V10.74h-4.032v3.756h-.96zm10.287.108c-.92 0-1.62-.264-2.1-.792s-.72-1.264-.72-2.208v-.168c0-.984.248-1.728.744-2.232.496-.512 1.112-.768 1.848-.768 1.6 0 2.4.932 2.4 2.796v.516H25.59c.024.728.204 1.256.54 1.584.336.32.832.48 1.488.48.608 0 1.228-.148 1.86-.444v.684c-.528.368-1.196.552-2.004.552zm-.252-5.424c-.424 0-.792.144-1.104.432-.304.288-.48.756-.528 1.404h3.096c0-.64-.12-1.104-.36-1.392-.24-.296-.608-.444-1.104-.444zm5.236 5.424c-.56 0-1.012-.14-1.356-.42-.336-.288-.504-.704-.504-1.248 0-1.016.604-1.592 1.812-1.728l1.608-.192v-.624c0-.448-.108-.752-.324-.912-.216-.168-.6-.252-1.152-.252-.504 0-.976.064-1.416.192v-.66c.52-.216 1.112-.324 1.776-.324 1.36 0 2.04.584 2.04 1.752v4.308h-.744l-.096-.516h-.06c-.344.416-.872.624-1.584.624zm.228-.72c.6 0 1.044-.144 1.332-.432V11.7l-1.368.156c-.376.04-.652.144-.828.312-.176.16-.264.408-.264.744 0 .32.1.564.3.732.2.16.476.24.828.24zm3.984.612V5.904h.925v8.592h-.925zm4.56.072c-1.033 0-1.549-.472-1.549-1.416v-3.84h-.852v-.756h.852V7.14h.912v1.416h1.524v.756h-1.524v3.696c0 .296.06.504.18.624.128.12.36.18.696.18.272 0 .528-.036.768-.108v.624c-.352.16-.688.24-1.008.24zm2.29-.072V5.904h.913V9.06h.06c.576-.416 1.244-.624 2.004-.624.592 0 1.028.132 1.308.396.28.256.42.668.42 1.236v4.428h-.912v-4.248c0-.368-.084-.628-.252-.78-.168-.16-.484-.24-.948-.24-.512 0-1.072.148-1.68.444v4.824h-.912zm6.87 1.788a1.64 1.64 0 0 1-.744-.168v-.684c.336.056.528.084.576.084.32 0 .568-.048.744-.144.176-.096.324-.296.444-.6l.18-.492-2.28-5.736h.984l1.752 4.524h.024l1.608-4.524h.924l-2.34 6.324c-.2.528-.44.896-.72 1.104-.272.208-.656.312-1.152.312z" fill="#fff"/>
</svg>
