<?xml version="1.0" encoding="utf-8"?>
<!-- Generator: Adobe Illustrator 28.1.0, SVG Export Plug-In . SVG Version: 6.00 Build 0)  -->
<svg version="1.1" id="Layer_1" xmlns="http://www.w3.org/2000/svg" xmlns:xlink="http://www.w3.org/1999/xlink" x="0px" y="0px"
	 width="81" height="80" viewBox="0 0 81 80" style="enable-background:new 0 0 81 80;" xml:space="preserve">
<style type="text/css">
	.st0{fill:none;stroke:#666666;stroke-width:2;}
	.st1{fill:#00A5ED;}
	.st2{fill-rule:evenodd;clip-rule:evenodd;fill:#666666;}
	.st3{fill:none;stroke:#00A5ED;stroke-width:2;}
</style>
<path class="st0" d="M13.4,26.5V59c0,8.8,7.2,16,16,16h22c8.8,0,16-7.2,16-16V26.5"/>
<path class="st0" d="M67.4,27c0,1-0.5,2-1.8,3.1c-1.3,1.1-3.2,2.1-5.7,3C54.9,34.9,48,36,40.4,36s-14.5-1.1-19.5-2.9
	c-2.5-0.9-4.4-1.9-5.7-3C13.9,29,13.4,28,13.4,27s0.5-2,1.8-3.1c1.3-1.1,3.2-2.1,5.7-3c4.9-1.8,11.8-2.9,19.5-2.9
	c7.6,0,14.5,1.1,19.5,2.9c2.5,0.9,4.4,1.9,5.7,3C66.8,25,67.4,26,67.4,27z"/>
<path class="st1" d="M48.4,2h2v2h-2V2z M48.4,10h2v2h-2V10z M48.4,6h2v2h-2V6z M48.4,14h2v2h-2V14z M29.4,5h2v2h-2V5z M29.4,13h2v2
	h-2V13z M29.4,9h2v2h-2V9z M29.4,17h2v2h-2V17z"/>
<path class="st2" d="M24.4,14h-2v25h-3.8c-0.3,0-0.5,0.2-0.5,0.5c0,0.1,0.1,0.3,0.1,0.4l4.8,4.8c0.2,0.2,0.5,0.2,0.7,0l4.8-4.8
	c0.2-0.2,0.2-0.5,0-0.7c-0.1-0.1-0.2-0.1-0.4-0.1h-3.8V14z M40.7,2.4c-0.2-0.2-0.5-0.2-0.7,0l-4.8,4.8c-0.2,0.2-0.2,0.5,0,0.7
	C35.3,7.9,35.4,8,35.6,8h3.8v20h2V8h3.8c0.3,0,0.5-0.2,0.5-0.5c0-0.1-0.1-0.3-0.1-0.4L40.7,2.4z M58.4,2h-2v22h-3.8
	c-0.3,0-0.5,0.2-0.5,0.5c0,0.1,0.1,0.3,0.1,0.4l4.8,4.8c0.2,0.2,0.5,0.2,0.7,0l4.8-4.8c0.2-0.2,0.2-0.5,0-0.7
	c-0.1-0.1-0.2-0.1-0.4-0.1h-3.8C58.4,24,58.4,2,58.4,2z"/>
<path class="st3" d="M35.4,61h9v9h-9V61z M50.1,61l4.2-7l4.2,7.1L50.1,61z M28.8,50l2.4,4l-2.4,4h-4.9l-2.4-4l2.4-4L28.8,50z"/>
</svg>
