<?xml version="1.0" encoding="UTF-8"?>
<svg width="12px" height="15px" viewBox="0 0 12 15" version="1.1" xmlns="http://www.w3.org/2000/svg" xmlns:xlink="http://www.w3.org/1999/xlink">
    <title>ico_delete</title>
    <g id="OCP_design" stroke="none" stroke-width="1" fill="none" fill-rule="evenodd">
        <g id="고객지원-1:1문의/등록" transform="translate(-928.000000, -613.000000)" fill="#999999" fill-rule="nonzero">
            <g id="Group-13" transform="translate(928.000000, 613.000000)">
                <path d="M12,1.87499943 L12,2.6249992 C12,2.83210591 11.8321032,3 11.6249964,3 L0.374999885,3 C0.167893167,3 0,2.83210591 0,2.6249992 L0,1.87499943 C0,1.66789271 0.167893167,1.5 0.374999885,1.5 L3.74999885,1.5 L3.74999885,0.74999977 C3.74999885,0.335786335 4.08578519,0 4.5,0 L7.5,0 C7.91421114,0 8.24999747,0.335786335 8.24999747,0.74999977 L8.24999747,1.5 L11.6249964,1.5 C11.8321032,1.5 12,1.66789271 12,1.87499943 Z M1.40249957,13.6049958 C1.45773409,14.3921588 2.11340306,15.0019309 2.90249911,14.9999986 L9.11249721,14.9999986 C9.90159326,15.0019309 10.5572622,14.3921588 10.6124967,13.6049958 L11.2499998,4.49999862 L0.74999977,4.49999862 L1.40249957,13.6049958 Z" id="Icon-color"></path>
            </g>
        </g>
    </g>
</svg>