<?xml version="1.0" encoding="UTF-8"?>
<svg width="20px" height="20px" viewBox="0 0 20 20" version="1.1" xmlns="http://www.w3.org/2000/svg" xmlns:xlink="http://www.w3.org/1999/xlink">
    <title>ico_person_data</title>
    <g id="Cloudradar" stroke="none" stroke-width="1" fill="none" fill-rule="evenodd" stroke-linecap="round" stroke-linejoin="round">
        <g id="OCP-dashboard_수정" transform="translate(-1486.000000, -238.000000)" stroke="#4A4A4A" stroke-width="1.0368">
            <g id="Group-83-Copy" transform="translate(1471.000000, 214.000000)">
                <g id="ico_person_data" transform="translate(15.000000, 24.000000)">
                    <g id="Group-51" transform="translate(1.000000, 1.000000)">
                        <path d="M4.76485594,12.248012 L6.19156539,14.0662887 C6.33482627,14.2488682 6.41268868,14.4742335 6.41268868,14.7063088 L6.41268868,17 L6.41268868,17 L12.5698758,17 L12.5698758,14.3481003 C13.1828387,14.3481003 13.8908642,14.3481003 14.6939521,14.3481003 C15.7308361,14.3481003 16.3521986,14.0518031 16.3521986,12.7836394 C16.3521986,11.938197 16.3521986,11.0621737 16.3521986,10.1555697 L17.3088,10.1555697 C17.6905392,10.1555697 18,9.84610889 18,9.46436967 L18,9.35931183 L18,9.35931183 L16.3521986,6.7029243 L16.3521986,5.54787245 C15.5961713,2.5649545 13.9897013,0.789133463 11.5327885,0.220409346 C10.2445176,-0.0777985279 9.0636203,-0.0734059741 7.99009663,0.233586723" id="Path-19"></path>
                        <g id="settings" transform="translate(0.000000, 1.092952)">
                            <ellipse id="Oval" cx="4.57457442" cy="4.63098352" rx="1.2476112" ry="1.26299551"></ellipse>
                            <path d="M7.65201539,5.89397903 C7.53875456,6.15377302 7.59310074,6.45719641 7.78925262,6.6601963 L7.81420484,6.68545621 C7.97038667,6.84338812 8.05814332,7.0576953 8.05814332,7.28116909 C8.05814332,7.50464288 7.97038667,7.71895006 7.81420484,7.87688197 C7.65819667,8.03498968 7.44649993,8.12382846 7.22574823,8.12382846 C7.00499652,8.12382846 6.79329978,8.03498968 6.63729161,7.87688197 L6.61233938,7.85162206 C6.41181219,7.65305143 6.11208475,7.5980351 5.85545525,7.71269255 C5.60407382,7.82175991 5.44067564,8.07153361 5.43958485,8.34840029 L5.43958485,8.41997004 C5.43958485,8.88499214 5.06720181,9.26196704 4.60784405,9.26196704 C4.14848629,9.26196704 3.77610325,8.88499214 3.77610325,8.41997004 L3.77610325,8.38208017 C3.76951445,8.0969256 3.59140346,7.84482932 3.32696321,7.74637243 C3.07033372,7.63171498 2.77060627,7.68673131 2.57007908,7.88530194 L2.54512686,7.91056185 C2.38911868,8.06866956 2.17742194,8.15750834 1.95667024,8.15750834 C1.73591854,8.15750834 1.52422179,8.06866956 1.36821362,7.91056185 C1.21203179,7.75262994 1.12427514,7.53832276 1.12427514,7.31484897 C1.12427514,7.09137518 1.21203179,6.877068 1.36821362,6.71913609 L1.39316585,6.69387618 C1.58931772,6.49087629 1.64366391,6.1874529 1.53040308,5.92765891 C1.42266425,5.67317769 1.175933,5.50776464 0.902438771,5.5066604 L0.831740803,5.5066604 C0.372383042,5.5066604 0,5.12968551 0,4.6646634 C0,4.1996413 0.372383042,3.8226664 0.831740803,3.8226664 L0.869169139,3.8226664 C1.1508503,3.81599635 1.39987584,3.63568908 1.49713345,3.36798801 C1.61039428,3.10819402 1.55604809,2.80477063 1.35989621,2.60177074 L1.33494399,2.57651083 C1.17876216,2.41857892 1.09100551,2.20427174 1.09100551,1.98079795 C1.09100551,1.75732416 1.17876216,1.54301698 1.33494399,1.38508507 C1.49095216,1.22697736 1.70264891,1.13813859 1.92340061,1.13813859 C2.14415231,1.13813859 2.35584905,1.22697736 2.51185723,1.38508507 L2.53680945,1.41034498 C2.73733664,1.60891561 3.03706408,1.66393194 3.29369358,1.54927449 L3.32696321,1.54927449 C3.57834465,1.44020713 3.74174282,1.19043343 3.74283361,0.913566749 L3.74283361,0.841997004 C3.74283361,0.376974899 4.11521666,0 4.57457442,0 C5.03393218,0 5.40631522,0.376974899 5.40631522,0.841997004 L5.40631522,0.879886869 C5.40740601,1.15675355 5.57080419,1.40652725 5.82218562,1.51559461 C6.07881512,1.63025206 6.37854256,1.57523573 6.57906975,1.3766651 L6.60402198,1.35140519 C6.76003015,1.19329748 6.97172689,1.10445871 7.19247859,1.10445871 C7.4132303,1.10445871 7.62492704,1.19329748 7.78093521,1.35140519 C7.93711704,1.5093371 8.02487369,1.72364428 8.02487369,1.94711807 C8.02487369,2.17059186 7.93711704,2.38489904 7.78093521,2.54283095 L7.75598299,2.56809086 C7.55983111,2.77109075 7.50548493,3.07451414 7.61874576,3.33430813 L7.61874576,3.36798801 C7.72648459,3.62246924 7.97321584,3.78788228 8.24671006,3.78898652 L8.31740803,3.78898652 C8.77676579,3.78898652 9.14914883,4.16596142 9.14914883,4.63098352 C9.14914883,5.09600562 8.77676579,5.47298052 8.31740803,5.47298052 L8.27997969,5.47298052 C8.00648547,5.47408476 7.75975422,5.63949781 7.65201539,5.89397903 Z" id="Shape"></path>
                        </g>
                    </g>
                </g>
            </g>
        </g>
    </g>
</svg>