<?xml version="1.0" encoding="UTF-8"?>
<svg width="165px" height="115px" viewBox="0 0 165 115" version="1.1" xmlns="http://www.w3.org/2000/svg" xmlns:xlink="http://www.w3.org/1999/xlink">
    <title>img_sensitivity_typ03</title>
    <g id="Cloudradar" stroke="none" stroke-width="1" fill="none" fill-rule="evenodd">
        <g id="OCP-Asset_수정" transform="translate(-490.000000, -421.000000)">
            <g id="민감도-설정-기본" transform="translate(100.000000, 207.000000)">
                <g id="Group-11-Copy" transform="translate(0.000000, 59.000000)">
                    <g id="높은민감도" transform="translate(388.593796, 155.000000)">
                        <rect id="Rectangle" stroke="#E3EBF1" stroke-width="2" fill="#FFFFFF" x="2.4062038" y="1" width="163" height="113" rx="2"></rect>
                        <g id="Group-24" transform="translate(0.000000, 21.000000)">
                            <g id="Group-25" transform="translate(0.000000, 4.946073)">
                                <path d="M3.52190479,37.0588024 C11.4764277,33.9109695 17.9090862,31.3379486 22.8198804,29.3397395 C35.0252688,24.3733496 48.7958979,19.092199 58.3033162,18.561782 C81.4746415,17.2690583 87.3687968,27.7490834 101.545313,27.7490834 C115.721829,27.7490834 125.559197,21.8272184 140.78676,20.0814267 C150.938469,18.9175655 160.310763,19.3218573 168.903644,21.2943019 L167.687582,28.1804102 C156.682253,26.5831069 146.339142,26.5831069 136.658251,28.1804102 C122.136915,30.5763652 109.491197,36.6571472 99.0665739,36.6571472 C88.6419509,36.6571472 83.7097318,29.0343365 64.8206108,26.1694735 C55.1755854,24.706638 40.2335653,31.8072806 26.4285067,37.0588024 C21.3290894,38.9986493 13.6935555,42.2999045 3.52190479,46.9625678 L3.52190479,37.0588024 Z" id="Path-5" fill="#14A9E5" opacity="0.150854202"></path>
                                <polygon id="Path" stroke="#14A9E5" stroke-linecap="round" stroke-linejoin="round" points="167.687582 92.0215707 -4.21852446e-17 92.0215707 0.724156127 72.0215707 39.8467434 6.73340422 76.8511168 16.0247158 98.5746469 45.3127753 139.296651 -4.76921117e-13 169.670573 13.5125192"></polygon>
                                <path d="M3.0993123,42.6421856 C29.8280585,30.1926747 48.6377499,23.4607342 59.5283867,22.446364 C75.8643418,20.9248086 88.8961707,32.4708946 99.0665739,32.4752089 C109.236977,32.4795232 127.29267,23.8001967 150.119862,23.8001967 C165.337991,23.8001967 171.522191,23.8001967 168.672464,23.8001967" id="Path-6" stroke="#14A9E5" stroke-linecap="round" stroke-dasharray="2.434475806451613"></path>
                                <ellipse id="Oval-Copy-2" fill="#FC5AA1" cx="99.0665739" cy="45.8073827" rx="2.478739" ry="2.47303661"></ellipse>
                                <ellipse id="Oval-Copy-4" fill="#FC5AA1" cx="77.7083449" cy="17.120158" rx="2.478739" ry="2.47303661"></ellipse>
                            </g>
                            <g id="Group-28" transform="translate(36.985385, 0.000000)">
                                <g id="Group-27" transform="translate(96.362292, 0.000000)">
                                    <ellipse id="Oval-Copy-2" fill="#FF8AD3" opacity="0.496564593" cx="4.95747801" cy="4.94607322" rx="4.95747801" ry="4.94607322"></ellipse>
                                    <ellipse id="Oval-Copy-2" fill="#FC5AA1" cx="4.9603436" cy="4.94607322" rx="2.478739" ry="2.47303661"></ellipse>
                                </g>
                                <g id="Group-27-Copy" transform="translate(0.000000, 9.206441)" fill="#FC5AA1">
                                    <ellipse id="Oval-Copy-2" cx="2.478739" cy="2.47303661" rx="2.478739" ry="2.47303661"></ellipse>
                                </g>
                            </g>
                        </g>
                    </g>
                </g>
            </g>
        </g>
    </g>
</svg>