<?xml version="1.0" encoding="UTF-8"?>
<svg width="165px" height="115px" viewBox="0 0 165 115" version="1.1" xmlns="http://www.w3.org/2000/svg" xmlns:xlink="http://www.w3.org/1999/xlink">
    <title>img_sensitivity_typ02</title>
    <g id="Cloudradar" stroke="none" stroke-width="1" fill="none" fill-rule="evenodd">
        <g id="OCP-Asset_수정" transform="translate(-310.000000, -421.000000)">
            <g id="민감도-설정-기본" transform="translate(100.000000, 207.000000)">
                <g id="Group-11-Copy" transform="translate(0.000000, 59.000000)">
                    <g id="중간민감도" transform="translate(208.633864, 155.000000)">
                        <rect id="Rectangle" stroke="#E3EBF1" stroke-width="2" fill="#FFFFFF" x="2.36613571" y="1" width="163" height="113" rx="2"></rect>
                        <g id="Group-24" transform="translate(0.000000, 21.000000)">
                            <g id="Group-25" transform="translate(0.000000, 4.948875)">
                                <path d="M3.36613571,24.3852709 C11.2679762,21.2256618 17.6862924,18.8071905 22.6210844,17.1298569 C36.7590111,12.3243818 47.0953763,9.25321926 57.0778161,9.25321926 C78.9518736,9.25321926 87.3155784,16.098519 101.438254,16.098519 C115.56093,16.098519 124.768283,12.0899476 139.046219,12.0899476 C148.564843,12.0899476 157.992546,12.77941 167.329326,14.1583349 L167.329326,43.3588957 C156.473732,39.7707938 146.223873,38.7758469 136.579749,40.3740551 C122.113562,42.7713674 115.763836,49.1042306 98.9689292,49.1042306 C82.174022,49.1042306 76.4676931,43.7137738 60.4634924,40.3740551 C50.977329,38.394505 40.3593588,41.0875896 26.6067296,46.3420865 C21.5266791,48.2830324 13.7798145,51.8839448 3.36613571,57.1448238 L3.36613571,24.3852709 Z" id="Path-5" fill="#14A9E5" opacity="0.150854202"></path>
                                <polygon id="Path" stroke="#14A9E5" stroke-linecap="round" stroke-linejoin="round" points="167.329326 92.0623722 0.605317808 92.0623722 2.07752666e-17 72.0623722 39.974006 6.73721881 76.8378428 16.0337941 98.4788704 45.3384458 139.046219 -4.90199373e-13 169.304786 13.5201743"></polygon>
                                <path d="M3.36613571,42.6663431 C29.9933704,30.2097794 48.7316257,23.4740251 59.5809016,22.4590802 C75.8548154,20.9366629 88.8371515,32.4892899 98.9689292,32.4936066 C109.100707,32.4979234 127.087827,23.8136799 149.828325,23.8136799 C164.988658,23.8136799 171.149372,23.8136799 168.310468,23.8136799" id="Path-6" stroke="#14A9E5" stroke-linecap="round" stroke-dasharray="3.75"></path>
                                <ellipse id="Oval-Copy-2" fill="#00A5ED" cx="98.9689292" cy="45.8333333" rx="2.46932515" ry="2.47443763"></ellipse>
                                <ellipse id="Oval-Copy-4" fill="#00A5ED" cx="77.6918153" cy="17.1298569" rx="2.46932515" ry="2.47443763"></ellipse>
                            </g>
                            <g id="Group-28" transform="translate(38.111245, 0.000000)">
                                <g id="Group-27" transform="translate(95.996324, 0.000000)">
                                    <ellipse id="Oval-Copy-2" fill="#FF8AD3" opacity="0.496564593" cx="4.93865031" cy="4.94887526" rx="4.93865031" ry="4.94887526"></ellipse>
                                    <ellipse id="Oval-Copy-2" fill="#FC5AA1" cx="4.94150502" cy="4.94887526" rx="2.46932515" ry="2.47443763"></ellipse>
                                </g>
                                <g id="Group-27-Copy" transform="translate(0.000000, 9.211656)" fill="#FC5AA1">
                                    <ellipse id="Oval-Copy-2" cx="2.46932515" cy="2.47443763" rx="2.46932515" ry="2.47443763"></ellipse>
                                </g>
                            </g>
                        </g>
                    </g>
                </g>
            </g>
        </g>
    </g>
</svg>