<?xml version="1.0" encoding="UTF-8"?>
<svg width="165px" height="115px" viewBox="0 0 165 115" version="1.1" xmlns="http://www.w3.org/2000/svg" xmlns:xlink="http://www.w3.org/1999/xlink">
    <title>img_sensitivity_typ01</title>
    <g id="Cloudradar" stroke="none" stroke-width="1" fill="none" fill-rule="evenodd">
        <g id="OCP-Asset_수정" transform="translate(-130.000000, -421.000000)">
            <g id="민감도-설정-기본" transform="translate(100.000000, 207.000000)">
                <g id="Group-11-Copy" transform="translate(0.000000, 59.000000)">
                    <g id="낮은-민감도-copy" transform="translate(28.633864, 155.000000)">
                        <rect id="Rectangle" stroke="#E3EBF1" stroke-width="2" fill="#FFFFFF" x="2.36613571" y="1" width="163" height="113" rx="2"></rect>
                        <g id="Group-24" transform="translate(0.000000, 16.512781)">
                            <g id="Group-25">
                                <path d="M3.11016923,17.3941718 C11.335125,11.9661086 17.8387634,8.36244515 22.6210844,6.58318156 C38.1112451,0.820063866 47.105394,0 57.0778161,0 C75.2224902,0 86.2719095,5.86006669 98.9689292,9.77965235 C115.619597,14.9197342 131.131096,15.4418694 139.049074,14.9197342 C148.635253,14.2875927 158.062004,12.2199376 167.329326,8.71676892 L167.329326,68.3573939 C155.580495,66.8434924 145.330636,66.8434924 136.579749,68.3573939 C123.453418,70.6282462 115.763836,73.8539293 98.9689292,73.8539293 C82.174022,73.8539293 77.6918153,67.4267338 60.4634924,65.1237538 C50.5123761,63.7935476 40.3593588,65.8372883 26.6067296,71.0917852 C21.5266791,73.0327311 13.7798145,76.0295953 3.36613571,80.0823779 L3.11016923,17.3941718 Z" id="Path-5" fill="#14A9E5" opacity="0.150854202"></path>
                                <polygon id="Path" stroke="#14A9E5" stroke-linecap="round" stroke-linejoin="round" points="169.329326 109.205805 1 109.205805 3.39977283e-14 81.00409 39.974006 15.6789366 76.8378428 24.9755119 98.4788704 54.2801636 139.046219 8.94171779 169.304786 22.4618921"></polygon>
                                <path d="M3.36613571,51.6080609 C29.9933704,39.1514972 48.7316257,32.4157429 59.5809016,31.400798 C75.8548154,29.8783807 88.8371515,41.4310077 98.9689292,41.4353244 C109.100707,41.4396412 127.087827,32.7553977 149.828325,32.7553977 C164.988658,32.7553977 171.149372,32.7553977 168.310468,32.7553977" id="Path-6" stroke="#14A9E5" stroke-linecap="round" stroke-dasharray="3.75"></path>
                                <ellipse id="Oval-Copy-2" fill="#00A5ED" cx="98.9689292" cy="54.7750511" rx="2.46932515" ry="2.47443763"></ellipse>
                                <ellipse id="Oval-Copy-4" fill="#00A5ED" cx="77.6918153" cy="26.0715746" rx="2.46932515" ry="2.47443763"></ellipse>
                            </g>
                            <g id="Group-28" transform="translate(38.111245, 3.992843)">
                                <g id="Group-27" transform="translate(95.996324, 0.000000)">
                                    <ellipse id="Oval-Copy-2" fill="#FF8AD3" opacity="0.496564593" cx="4.93865031" cy="4.94887526" rx="4.93865031" ry="4.94887526"></ellipse>
                                    <ellipse id="Oval-Copy-2" fill="#FC5AA1" cx="4.94150502" cy="4.94887526" rx="2.46932515" ry="2.47443763"></ellipse>
                                </g>
                                <g id="Group-27-Copy" transform="translate(0.000000, 9.211656)" fill="#00A5ED">
                                    <ellipse id="Oval-Copy-2" cx="2.46932515" cy="2.47443763" rx="2.46932515" ry="2.47443763"></ellipse>
                                </g>
                            </g>
                        </g>
                    </g>
                </g>
            </g>
        </g>
    </g>
</svg>