<svg width="17" height="16" viewBox="0 0 17 16" fill="none" xmlns="http://www.w3.org/2000/svg">
<g id="&#237;&#153;&#148;&#236;&#130;&#180;&#237;&#145;&#156;">
<path id="Vector" d="M8.29475 11.3429C8.38549 11.4335 8.50848 11.4844 8.63672 11.4844C8.76496 11.4844 8.88795 11.4335 8.97868 11.3429L13.4952 6.82634C13.5628 6.75867 13.6088 6.67248 13.6274 6.57866C13.6461 6.48485 13.6365 6.38762 13.5999 6.29925C13.5633 6.21088 13.5014 6.13533 13.4219 6.08215C13.3424 6.02897 13.2489 6.00055 13.1532 6.00046L4.12021 6.00046C4.02456 6.00055 3.93108 6.02897 3.85158 6.08215C3.77208 6.13533 3.71012 6.21088 3.67353 6.29925C3.63694 6.38762 3.62736 6.48485 3.64599 6.57866C3.66463 6.67248 3.71065 6.75867 3.77824 6.82634L8.29475 11.3429Z" fill="#1AE3BB"/>
</g>
</svg>
