<svg width="25" height="25" viewBox="0 0 25 25" fill="none" xmlns="http://www.w3.org/2000/svg">
    <rect x="3" y="9" width="19" height="13" rx="2" fill="#93BBCD"/>
    <path fill="#EAEAEA" d="M5 3h15v17H5z"/>
    <path d="M11.594 15.229c.536.39.544 1.58.008 1.971l-6.17 4.494c-.886.646-2.43.2-2.43-.702v-8.988c0-.902-.07-2.5.818-1.854l7.774 5.079z" fill="#8ED5F4"/>
    <path d="M11.594 15.229c.536.39.544 1.58.008 1.971l-6.17 4.494c-.886.646-2.43.2-2.43-.702v-8.988c0-.902-.07-2.5.818-1.854l7.774 5.079z" fill="#B2DFF2"/>
    <path d="M12.45 15.229c-.595.39-.603 1.58-.007 1.971l6.854 4.494c.985.646 2.702.2 2.702-.702v-8.988c0-.902.076-2.5-.91-1.854l-8.638 5.079z" fill="#8ED5F4"/>
    <path d="M12.45 15.229c-.595.39-.603 1.58-.007 1.971l6.854 4.494c.985.646 2.702.2 2.702-.702v-8.988c0-.902.076-2.5-.91-1.854l-8.638 5.079z" fill="#B2DFF2"/>
    <path d="M11.288 15.313c.675-.417 1.75-.417 2.424 0l7.76 4.796c1.116.69.346 1.891-1.212 1.891H4.74c-1.558 0-2.328-1.201-1.212-1.89l7.76-4.797z" fill="#8ED5F4"/>
    <path d="M11.288 15.313c.675-.417 1.75-.417 2.424 0l7.76 4.796c1.116.69.346 1.891-1.212 1.891H4.74c-1.558 0-2.328-1.201-1.212-1.89l7.76-4.797z" fill="#8ED5F4"/>
</svg>
