<svg xmlns="http://www.w3.org/2000/svg" width="8" height="8" viewBox="0 0 8 8" fill="none">
<path d="M6.59735 4.80533L6.59479 4.80413L6.59751 4.79941L5.21271 3.99989L6.60391 3.19669L6.60351 3.19597C6.63916 3.17396 6.66485 3.13893 6.67511 3.09831C6.68537 3.05769 6.6794 3.01466 6.65847 2.97837C6.65751 2.97669 6.65615 2.97533 6.65511 2.97365L6.65599 2.97317L6.21439 2.20821L6.21383 2.20853C6.19232 2.17348 6.15822 2.14799 6.11852 2.13728C6.07882 2.12657 6.03652 2.13145 6.00031 2.15093L5.99999 2.15045L4.60631 2.95541V1.34349H4.60551C4.60426 1.30166 4.58678 1.26195 4.55676 1.23279C4.52675 1.20363 4.48656 1.18729 4.44471 1.18725C4.44271 1.18725 4.44087 1.18773 4.43887 1.18781V1.18677H3.55567V1.18733C3.51455 1.1884 3.47541 1.20518 3.44628 1.23423C3.41716 1.26327 3.40028 1.30237 3.39911 1.34349H3.39863V2.95269L2.00263 2.14669L2.00215 2.14749C1.96531 2.12757 1.92215 2.12282 1.88185 2.13423C1.84156 2.14565 1.80731 2.17233 1.78639 2.20861C1.78543 2.21029 1.78495 2.21213 1.78399 2.21381L1.78319 2.21333L1.34159 2.97829L1.34199 2.97853C1.30135 3.05373 1.32631 3.14733 1.39895 3.19229L1.39879 3.19253L1.40159 3.19413L1.40287 3.19501L1.40431 3.19565L2.79719 3.99981L1.43495 4.78637C1.42307 4.78983 1.41163 4.79467 1.40087 4.80077C1.36401 4.82204 1.33706 4.85703 1.32593 4.89811C1.31479 4.93918 1.32036 4.98299 1.34143 5.01997L1.34087 5.02029L1.79775 5.81165L1.80031 5.81013C1.8246 5.83922 1.85837 5.85882 1.89568 5.86547C1.93299 5.87213 1.97145 5.86542 2.00431 5.84653L2.00671 5.84485L2.00927 5.84933L3.39879 5.04717V6.61461C3.39581 6.62668 3.39426 6.63906 3.39415 6.65149C3.39415 6.74013 3.46575 6.81189 3.55415 6.81261V6.81317H4.46791V6.81021C4.50528 6.80379 4.53918 6.78438 4.56362 6.7554C4.58807 6.72641 4.60149 6.68972 4.60151 6.65181L4.60119 6.64901H4.60647V5.04453L5.96383 5.82821C5.97279 5.83661 5.98247 5.84437 5.99351 5.85077C6.03035 5.87202 6.0741 5.87786 6.11523 5.86701C6.15636 5.85617 6.19154 5.82951 6.21311 5.79285L6.21351 5.79309L6.65623 5.02613L6.65647 5.02581L6.65663 5.02549L6.67047 5.00157L6.66807 5.00013C6.68098 4.96452 6.68097 4.9255 6.66805 4.8899C6.65512 4.85429 6.6301 4.82436 6.59735 4.80533Z" fill="#EA1718"/>
</svg>
