<svg xmlns="http://www.w3.org/2000/svg" width="12" height="13" viewBox="0 0 12 13" fill="none">
<path d="M11.8912 12.1755L8.15326 8.0346C8.94201 7.19441 9.43069 6.06273 9.43069 4.81959C9.43069 2.22187 7.31307 0.104248 4.71535 0.104248C2.11762 0.104248 0 2.23044 0 4.82817C0 7.4259 2.11762 9.54351 4.71535 9.54351C5.7613 9.54351 6.73009 9.19201 7.51883 8.60902L11.2568 12.7499C11.3426 12.8443 11.454 12.8957 11.574 12.8957C11.6769 12.8957 11.7798 12.8614 11.857 12.7842C12.037 12.6213 12.0456 12.3556 11.8912 12.1755ZM0.857336 4.82817C0.857336 2.70198 2.58915 0.970157 4.71535 0.970157C6.84154 0.970157 8.57336 2.70198 8.57336 4.82817C8.57336 6.95436 6.84154 8.68618 4.71535 8.68618C2.58915 8.68618 0.857336 6.95436 0.857336 4.82817Z" fill="#999999"/>
</svg>
