<svg width="24" height="24" viewBox="0 0 24 24" fill="none" xmlns="http://www.w3.org/2000/svg">
    <mask id="fa6adm7r8a" fill="#fff">
        <path fill-rule="evenodd" clip-rule="evenodd" d="M8.748 3a1 1 0 0 1 1-1h4a1 1 0 0 1 1 1v1.582c.78.316 1.5.751 2.135 1.283l.633-.365a2 2 0 0 1 2.732.732l1 1.732a2 2 0 0 1-.732 2.732l-.81.468a8.096 8.096 0 0 1-.012 1.769l.643.37a2 2 0 0 1 .732 2.733l-1 1.732a2 2 0 0 1-2.732.732l-.527-.304a7.994 7.994 0 0 1-2.062 1.223V21a1 1 0 0 1-1 1h-4a1 1 0 0 1-1-1v-1.581a7.983 7.983 0 0 1-1.702-.946l-.386.223a2 2 0 0 1-2.732-.732l-1-1.732A2 2 0 0 1 3.66 13.5l.207-.12a8.051 8.051 0 0 1-.016-2.666l-.37-.214a2 2 0 0 1-.733-2.732l1-1.732a2 2 0 0 1 2.732-.732l.487.281a7.988 7.988 0 0 1 1.781-1.003V3zM12 15a3 3 0 1 0 0-6 3 3 0 0 0 0 6z"/>
    </mask>
    <path d="M14.748 4.582h-1.3v.876l.813.329.487-1.205zm2.135 1.283-.835.997.698.584.787-.455-.65-1.126zm.633-.365.65 1.126-.65-1.126zm2.732.732-1.126.65 1.126-.65zm1 1.732 1.126-.65-1.126.65zm-.732 2.732-.65-1.126.65 1.126zm-.81.468-.65-1.125-.731.421.087.839 1.293-.135zm-.012 1.769-1.29-.15-.1.849.74.427.65-1.126zm.643.37.65-1.125-.65 1.126zm.732 2.733 1.126.65-1.126-.65zm-1 1.732 1.126.65-1.126-.65zm-2.732.732-.65 1.126.65-1.126zm-.527-.304.65-1.126-.778-.45-.695.57.823 1.006zm-2.062 1.223-.487-1.205-.813.328v.877h1.3zm-6 0h1.3v-.877l-.812-.328-.488 1.205zm-1.702-.946.765-1.051-.683-.497-.732.422.65 1.126zm-.386.223.65 1.126-.65-1.126zm-2.732-.732 1.126-.65-1.126.65zm-1-1.732 1.126-.65-1.126.65zM3.66 13.5l.65 1.126-.65-1.126zm.207-.12.65 1.126.786-.454-.155-.894-1.281.222zm-.016-2.666 1.283.207.143-.884-.776-.449-.65 1.126zm-.37-.214-.65 1.126.65-1.126zm-.733-2.732-1.126-.65 1.126.65zm1-1.732-1.126-.65 1.126.65zm2.732-.732.65-1.126-.65 1.126zm.487.281-.65 1.126.742.428.686-.512-.778-1.042zm1.781-1.003.488 1.205.812-.33v-.875h-1.3zm1-3.882a2.3 2.3 0 0 0-2.3 2.3h2.6a.3.3 0 0 1-.3.3V.7zm4 0h-4v2.6h4V.7zm2.3 2.3a2.3 2.3 0 0 0-2.3-2.3v2.6a.3.3 0 0 1-.3-.3h2.6zm0 1.582V3h-2.6v1.582h2.6zm1.67.287a9.296 9.296 0 0 0-2.482-1.492l-.976 2.41a6.697 6.697 0 0 1 1.788 1.075l1.67-1.993zm-.852-.495-.633.366 1.3 2.251.633-.365-1.3-2.252zm4.508 1.208a3.3 3.3 0 0 0-4.508-1.208l1.3 2.252a.7.7 0 0 1 .956.256l2.252-1.3zm1 1.732-1-1.732-2.252 1.3 1 1.732 2.252-1.3zm-1.208 4.508a3.3 3.3 0 0 0 1.208-4.508l-2.252 1.3a.7.7 0 0 1-.256.956l1.3 2.252zm-.81.468.81-.468-1.3-2.252-.81.469 1.3 2.251zm.692-.29c0-.327-.017-.65-.05-.97l-2.586.269c.024.23.036.464.036.701h2.6zm-.062 1.083c.041-.356.062-.717.062-1.083h-2.6c0 .265-.015.527-.045.783l2.583.3zm0-.905-.642-.37-1.3 2.25.643.372 1.3-2.252zm1.209 4.508a3.3 3.3 0 0 0-1.208-4.508l-1.3 2.252a.7.7 0 0 1 .256.956l2.252 1.3zm-1 1.732 1-1.732-2.252-1.3-1 1.732 2.252 1.3zm-4.508 1.208a3.3 3.3 0 0 0 4.508-1.208l-2.252-1.3a.7.7 0 0 1-.956.256l-1.3 2.252zm-.527-.304.527.304 1.3-2.252-.527-.304-1.3 2.252zm-.924 1.302a9.294 9.294 0 0 0 2.397-1.422l-1.646-2.013a6.695 6.695 0 0 1-1.726 1.025l.975 2.41zm.812.376v-1.581h-2.6V21h2.6zm-2.3 2.3a2.3 2.3 0 0 0 2.3-2.3h-2.6a.3.3 0 0 1 .3-.3v2.6zm-4 0h4v-2.6h-4v2.6zm-2.3-2.3a2.3 2.3 0 0 0 2.3 2.3v-2.6a.3.3 0 0 1 .3.3h-2.6zm0-1.581V21h2.6v-1.581h-2.6zm-1.167.105a9.285 9.285 0 0 0 1.98 1.1l.975-2.41a6.686 6.686 0 0 1-1.425-.792l-1.53 2.102zm1.029.298.386-.223-1.3-2.252-.386.223 1.3 2.252zm-4.508-1.208a3.3 3.3 0 0 0 4.508 1.208l-1.3-2.252a.7.7 0 0 1-.956-.256l-2.252 1.3zm-1-1.732 1 1.732 2.252-1.3-1-1.732-2.252 1.3zm1.208-4.508a3.3 3.3 0 0 0-1.208 4.508l2.252-1.3a.7.7 0 0 1 .256-.956l-1.3-2.252zm.207-.12-.207.12 1.3 2.252.207-.12-1.3-2.251zM2.448 12c0 .546.047 1.082.138 1.603l2.562-.445a6.752 6.752 0 0 1-.1-1.158h-2.6zm.12-1.493c-.079.487-.12.986-.12 1.493h2.6c0-.368.03-.728.086-1.079l-2.566-.414zm.262 1.119.371.214 1.3-2.252-.37-.214-1.3 2.252zM1.622 7.118a3.3 3.3 0 0 0 1.208 4.508l1.3-2.252a.7.7 0 0 1-.256-.956l-2.252-1.3zm1-1.732-1 1.732 2.252 1.3 1-1.732-2.252-1.3zM7.13 4.178a3.3 3.3 0 0 0-4.508 1.208l2.252 1.3a.7.7 0 0 1 .956-.256l1.3-2.252zm.487.281-.487-.281-1.3 2.252.487.281 1.3-2.252zm.643-1.082c-.743.3-1.438.694-2.07 1.166l1.555 2.084c.456-.34.957-.624 1.491-.84l-.976-2.41zM7.448 3v1.582h2.6V3h-2.6zm6.252 9a1.7 1.7 0 0 1-1.7 1.7v2.6a4.3 4.3 0 0 0 4.3-4.3h-2.6zM12 10.3a1.7 1.7 0 0 1 1.7 1.7h2.6A4.3 4.3 0 0 0 12 7.7v2.6zM10.3 12a1.7 1.7 0 0 1 1.7-1.7V7.7A4.3 4.3 0 0 0 7.7 12h2.6zm1.7 1.7a1.7 1.7 0 0 1-1.7-1.7H7.7a4.3 4.3 0 0 0 4.3 4.3v-2.6z" fill="#00A5ED" mask="url(#fa6adm7r8a)"/>
</svg>
