<svg width="24" height="24" viewBox="0 0 24 24" fill="none" xmlns="http://www.w3.org/2000/svg">
    <mask id="3517wpbona" fill="#fff">
        <path fill-rule="evenodd" clip-rule="evenodd" d="M8.748 3a1 1 0 0 1 1-1h4a1 1 0 0 1 1 1v1.582c.78.316 1.5.751 2.135 1.283l.633-.365a2 2 0 0 1 2.732.732l1 1.732a2 2 0 0 1-.732 2.732l-.81.468a8.096 8.096 0 0 1-.012 1.769l.643.37a2 2 0 0 1 .732 2.733l-1 1.732a2 2 0 0 1-2.732.732l-.527-.304a7.994 7.994 0 0 1-2.062 1.223V21a1 1 0 0 1-1 1h-4a1 1 0 0 1-1-1v-1.581a7.983 7.983 0 0 1-1.702-.946l-.386.223a2 2 0 0 1-2.732-.732l-1-1.732A2 2 0 0 1 3.66 13.5l.207-.12a8.051 8.051 0 0 1-.016-2.666l-.37-.214a2 2 0 0 1-.733-2.732l1-1.732a2 2 0 0 1 2.732-.732l.487.281a7.988 7.988 0 0 1 1.781-1.003V3zm3.116 12.5a3.75 3.75 0 1 0 0-7.5 3.75 3.75 0 0 0 0 7.5z"/>
    </mask>
    <path d="M14.748 4.582h-4v2.696l2.5 1.011 1.5-3.707zm2.135 1.283-2.569 3.066 2.145 1.798 2.424-1.4-2-3.464zm.633-.365 2 3.464-2-3.464zm2.732.732-3.464 2 3.464-2zm1 1.732 3.464-2-3.464 2zm-.732 2.732-2-3.464 2 3.464zm-.81.468-2-3.464-2.247 1.297.268 2.58 3.978-.413zm-.012 1.769-3.973-.461-.303 2.61 2.276 1.315 2-3.464zm.643.37 2-3.463-2 3.464zm.732 2.733 3.464 2-3.464-2zm-1 1.732 3.464 2-3.464-2zm-2.732.732-2 3.464 2-3.464zm-.527-.304 2-3.464-2.394-1.382-2.139 1.75 2.533 3.096zm-2.062 1.223-1.5-3.708-2.5 1.011v2.697h4zm-6 0h4v-2.697l-2.499-1.011-1.5 3.708zm-1.702-.946L9.4 15.24l-2.102-1.53-2.252 1.3 2 3.464zm-.386.223 2 3.464-2-3.464zm-2.732-.732 3.464-2-3.464 2zm-1-1.732 3.464-2-3.464 2zM3.66 13.5l2 3.464-2-3.464zm.207-.12 2 3.464 2.42-1.396-.48-2.753-3.94.685zm-.016-2.666 3.949.638.44-2.723L5.85 7.25l-2 3.464zm-.37-.214-2 3.464 2-3.464zm-.733-2.732-3.464-2 3.464 2zm1-1.732-3.464-2 3.464 2zm2.732-.732 2-3.464-2 3.464zm.487.281-2 3.464 2.282 1.318L9.36 8.79 6.967 5.585zm1.781-1.003 1.501 3.707 2.5-1.011V4.582h-4zm1-6.582a5 5 0 0 0-5 5h8a3 3 0 0 1-3 3v-8zm4 0h-4v8h4v-8zm5 5a5 5 0 0 0-5-5v8a3 3 0 0 1-3-3h8zm0 1.582V3h-8v1.582h8zm.704-1.782A11.996 11.996 0 0 0 16.25.874l-3.002 7.415c.388.157.748.375 1.067.642L19.452 2.8zm-3.936-.764-.633.365 4 6.929.633-.366-4-6.928zm8.196 2.196a6 6 0 0 0-8.196-2.196l4 6.928a2 2 0 0 1-2.732-.732l6.928-4zm1 1.732-1-1.732-6.928 4 1 1.732 6.928-4zm-2.196 8.196a6 6 0 0 0 2.196-8.196l-6.928 4a2 2 0 0 1 .732-2.732l4 6.928zm-.81.469.81-.469-4-6.928-.81.468 4 6.929zM23.747 12c0-.42-.021-.837-.064-1.248l-7.958.825c.015.138.022.28.022.423h8zm-.08 1.395c.053-.46.08-.925.08-1.395h-8c0 .161-.01.318-.027.472l7.947.923zM22.337 9.84l-.643-.371-4 6.928.643.371 4-6.928zm2.196 8.196a6 6 0 0 0-2.196-8.196l-4 6.928a2 2 0 0 1-.732-2.732l6.928 4zm-1 1.732 1-1.732-6.928-4-1 1.732 6.928 4zm-8.196 2.196a6 6 0 0 0 8.196-2.196l-6.928-4a2 2 0 0 1 2.732-.732l-4 6.928zm-.527-.304.527.304 4-6.928-.527-.304-4 6.928zm1.44 1.466a12 12 0 0 0 3.092-1.834l-5.065-6.193c-.31.254-.657.461-1.03.612l3.002 7.415zM18.747 21v-1.581h-8V21h8zm-5 5a5 5 0 0 0 5-5h-8a3 3 0 0 1 3-3v8zm-4 0h4v-8h-4v8zm-5-5a5 5 0 0 0 5 5v-8a3 3 0 0 1 3 3h-8zm0-1.581V21h8v-1.581h-8zm-.055 2.288c.783.57 1.64 1.05 2.554 1.42l3.002-7.416a3.993 3.993 0 0 1-.85-.472l-4.706 6.468zm3.967.453.386-.223-4-6.928-.386.223 4 6.928zM.464 19.964A6 6 0 0 0 8.66 22.16l-4-6.928a2 2 0 0 1 2.732.732l-6.928 4zm-1-1.732 1 1.732 6.928-4-1-1.732-6.928 4zm2.196-8.196a6 6 0 0 0-2.196 8.196l6.928-4a2 2 0 0 1-.732 2.732l-4-6.928zm.207-.12-.207.12 4 6.928.207-.12-4-6.928zM-.252 12c0 .702.06 1.392.178 2.066l7.882-1.37a4.052 4.052 0 0 1-.06-.696h-8zm.154-1.924A12.058 12.058 0 0 0-.252 12h8c0-.223.018-.44.052-.648l-7.898-1.276zm1.578 3.888.371.214 4-6.928-.37-.214-4 6.928zM-.716 5.768a6 6 0 0 0 2.196 8.196l4-6.928a2 2 0 0 1 .732 2.732l-6.928-4zm1-1.732-1 1.732 6.928 4 1-1.732-6.928-4zM8.48 1.84A6 6 0 0 0 .284 4.036l6.928 4a2 2 0 0 1-2.732.732l4-6.928zm.487.281L8.48 1.84l-4 6.928.487.281 4-6.928zM7.247.874c-.96.389-1.857.897-2.672 1.506L9.36 8.79c.273-.203.572-.372.89-.5L7.246.873zM4.748 3v1.582h8V3h-8zm6.866 8.75a.25.25 0 0 1 .25-.25v8a7.75 7.75 0 0 0 7.75-7.75h-8zm.25.25a.25.25 0 0 1-.25-.25h8A7.75 7.75 0 0 0 11.864 4v8zm.25-.25a.25.25 0 0 1-.25.25V4a7.75 7.75 0 0 0-7.75 7.75h8zm-.25-.25a.25.25 0 0 1 .25.25h-8a7.75 7.75 0 0 0 7.75 7.75v-8z" fill="#00A5ED" mask="url(#3517wpbona)"/>
</svg>
