<svg xmlns="http://www.w3.org/2000/svg" width="99" height="25" viewBox="0 0 99 25">
    <g fill="none" fill-rule="evenodd">
        <g>
            <g>
                <path fill="#ED7522" d="M60.26.013c-1.771 0-3.423.332-4.91.985-1.486.655-2.788 1.561-3.872 2.697-1.082 1.131-1.942 2.467-2.55 3.963-.606 1.496-.915 3.123-.915 4.836v.07c0 1.777.304 3.444.902 4.952.596 1.513 1.441 2.835 2.515 3.933 1.074 1.102 2.382 1.975 3.875 2.593 1.493.619 3.175.934 4.988.934 2.121 0 4.035-.378 5.686-1.121 1.643-.743 3.078-1.652 4.27-2.704l.057-.046V10.528H59.95v4.85h5.096v3.2l-.27.175c-1.197.776-2.647 1.17-4.316 1.17-1.003 0-1.922-.184-2.735-.547-.813-.364-1.535-.882-2.143-1.543-.606-.664-1.081-1.457-1.41-2.352-.334-.902-.503-1.9-.503-2.968v-.07c0-1.001.169-1.955.503-2.832.33-.876.792-1.65 1.383-2.302.583-.65 1.271-1.176 2.046-1.563.771-.384 1.612-.577 2.497-.577.637 0 1.232.056 1.766.165.533.11 1.035.268 1.493.466.453.195.904.442 1.334.732.43.288.866.629 1.296 1.007l.15.132 3.402-4.248-.11-.096c-.59-.521-1.217-.996-1.864-1.412-.644-.414-1.34-.763-2.073-1.039-.73-.275-1.533-.49-2.385-.64-.856-.148-1.813-.223-2.848-.223" transform="translate(-31.000000, -22.000000) translate(31.000000, 22.000000)"/>
                <path fill="#CD0E2C" d="M49.33 4.724S51.806.684 55.951.05L37.743.05l-.69 12.218 3.08 2.043c.575-.254 1.206-.468 1.886-.641.684-.173 1.403-.26 2.166-.26 1.269 0 2.3.29 3.098.87.797.58 1.195 1.391 1.195 2.434v.072c0 1.09-.363 1.925-1.09 2.505-.73.58-1.714.87-2.962.87-1.084 0-2.088-.231-3.013-.692-.922-.46-1.846-1.109-2.768-1.94l-3.22 3.835c1.176 1.123 2.495 2.006 3.948 2.648 1.455.64 3.163.962 5.124.962 1.382 0 2.88-.224 4.024-.615 1.148-.393 2.216-.922 3.019-1.65.803-.723 1.423-1.6 1.866-2.623.44-1.026.66-2.183.66-3.473v-.07c0-1.359-.22-2.528-.66-3.506-.443-.978-1.052-1.78-1.832-2.401-.779-.622-1.681-1.082-2.711-1.38-1.032-.302-2.462-.452-3.64-.452-.67 0-1.244.04-1.732.12-.483.082-.968.178-1.452.292l.275-4.493h7.016z" transform="translate(-31.000000, -22.000000) translate(31.000000, 22.000000)"/>
                <path fill="#8B1C1E" d="M54.064 16.614v-.07c0-1.359-.22-2.528-.661-3.506-.443-.977-1.052-1.78-1.831-2.401-.78-.622-1.682-1.083-2.712-1.38-.135-.04-.277-.077-.424-.111-.28 1.068-.426 2.187-.426 3.348v.07c0 1.777.305 3.444.902 4.952.596 1.513 1.441 2.835 2.515 3.933.224.23.462.448.706.658.52-.592.944-1.266 1.27-2.02.441-1.026.66-2.183.66-3.473" transform="translate(-31.000000, -22.000000) translate(31.000000, 22.000000)"/>
                <path fill="#CD0E2C" d="M93.304 9.136l4.29-4.289c1.109-1.109 1.109-2.906 0-4.015-1.11-1.11-2.907-1.11-4.016 0L89.29 5.12c-1.11 1.109-1.11 2.906 0 4.015 1.109 1.109 2.907 1.109 4.015 0M97.593 20.128l-6.403-6.404c-.645-.645-1.953-.918-2.837-.034-.885.885-2.232 1.544-3.688.089-1.456-1.456-.795-2.803.089-3.687.884-.885.611-2.193-.034-2.838L78.298.832c-1.11-1.11-2.907-1.11-4.016 0-1.109 1.108-1.109 2.906 0 4.015l7.64 7.64-7.64 7.641c-1.109 1.109-1.109 2.907 0 4.015 1.109 1.11 2.907 1.11 4.016 0l7.64-7.64 7.64 7.64c1.109 1.11 2.907 1.11 4.016 0 1.109-1.108 1.109-2.906 0-4.015" transform="translate(-31.000000, -22.000000) translate(31.000000, 22.000000)"/>
                <path fill="#3C3C3B" d="M5.197 5.024c1.969 0 3.511.702 4.879 1.766L8.734 8.855c-1.222-.798-2.442-1.38-3.59-1.38-.986 0-1.591.58-1.591 1.308 0 .869.459 1.243 2.774 1.81 2.735.657 4.267 1.685 4.267 4.027 0 2.589-2.042 4.044-4.941 4.044-2.06 0-4.066-.675-5.653-2.076l1.623-2.093c1.24.958 2.626 1.632 4.084 1.632 1.185 0 1.957-.483 1.957-1.298 0-.727-.462-1.22-2.686-1.753C2.243 12.42.492 11.551.492 8.996c0-2.394 1.951-3.972 4.705-3.972M29.638 7.939L29.638 18.398 26.802 18.398 26.802 7.939 23.074 7.939 23.074 5.343 33.365 5.343 33.365 7.939zM17.584 11.062L22.494 5.343 22.492 5.343 19.397 5.343 14.517 11.037 14.517 5.343 11.779 5.343 11.779 18.397 14.517 18.397 14.517 14.637 15.918 13.003 19.776 18.397 22.823 18.397z" transform="translate(-31.000000, -22.000000) translate(31.000000, 22.000000)"/>
            </g>
        </g>
    </g>
</svg>
