<svg xmlns="http://www.w3.org/2000/svg" width="228" height="38" viewBox="0 0 228 38">
    <defs>
        <linearGradient id="z3trbtqe8a" x1="5.53%" x2="84.642%" y1="66.645%" y2="27.501%">
            <stop offset="0%" stop-color="#FFF"/>
            <stop offset="11%" stop-color="#C8E1FF"/>
            <stop offset="52%" stop-color="#0076FF"/>
            <stop offset="100%" stop-color="#0076FF"/>
        </linearGradient>
        <linearGradient id="2yi7qxplrb" x1="-92.869%" x2="228.082%" y1="50.042%" y2="50.042%">
            <stop offset="0%" stop-color="#FFF"/>
            <stop offset="11%" stop-color="#C8F2FF"/>
            <stop offset="52%" stop-color="#00C1FF"/>
            <stop offset="100%" stop-color="#00C1FF"/>
        </linearGradient>
        <linearGradient id="neal2aclpc" x1="50%" x2="50%" y1="-66.394%" y2="324.313%">
            <stop offset="0%" stop-color="#FFF"/>
            <stop offset="7%" stop-color="#E1FBF6"/>
            <stop offset="52%" stop-color="#19E2BA"/>
            <stop offset="100%" stop-color="#19E2BA"/>
        </linearGradient>
    </defs>
    <g fill="none" fill-rule="evenodd">
        <g fill-rule="nonzero">
            <g>
                <g>
                    <path fill="#1C1C1C" d="M54.139 22.013c-.07-2.86 1.035-5.626 3.056-7.652 2.022-2.027 4.784-3.138 7.645-3.076 3.573 0 6.414 1.32 8.236 3.752l-2.58 2.084c-1.358-1.73-3.458-2.71-5.656-2.64-4.134 0-7.27 3.224-7.27 7.532 0 4.31 3.136 7.533 7.27 7.533 2.204.067 4.306-.925 5.656-2.667l2.607 2.083c-1.816 2.433-4.69 3.78-8.263 3.78-2.861.062-5.623-1.05-7.645-3.076-2.02-2.026-3.125-4.791-3.056-7.653zM74.898 32.273L74.898 11.198 78.121 10.232 78.121 32.273zM80.232 24.331c.006-4.554 3.7-8.242 8.254-8.24 4.554 0 8.247 3.69 8.25 8.244.005 4.554-3.681 8.25-8.235 8.26-2.207.05-4.34-.803-5.901-2.364-1.562-1.56-2.418-3.692-2.368-5.9zm13.221 0c0-2.901-2.11-5.22-4.952-5.22s-4.985 2.319-4.985 5.22c0 2.902 2.11 5.215 4.985 5.215 2.874 0 4.952-2.286 4.952-5.215zM110.029 16.652h3.223v15.62h-3.016v-2.137c-1.264 1.627-3.237 2.544-5.296 2.46-3.78 0-6.3-2.466-6.3-6.245v-9.698h3.224v9c0 2.574 1.32 3.926 3.9 3.926 2.492 0 4.248-1.636 4.248-3.9l.017-9.026zM128.633 11.198l3.191-.966v22.04h-3.016V29.9c-1.264 1.72-3.288 2.716-5.422 2.667-4.489 0-7.947-3.578-7.947-8.236 0-4.657 3.458-8.208 7.947-8.208 2.032-.048 3.97.85 5.247 2.432v-7.357zm0 13.133c0-2.988-2.11-5.22-4.958-5.22-2.847 0-4.952 2.182-4.952 5.22s2.083 5.215 4.952 5.215c2.87 0 4.958-2.198 4.958-5.215zM156.614 32.273h-4.015l-6.13-7.914h-4.31v7.914h-3.403v-20.52h8.03c5.192 0 8.033 2.232 8.033 6.306 0 3.049-1.636 5.067-4.63 5.89l6.425 8.324zM142.16 14.776v6.594h4.778c2.781 0 4.516-1.293 4.516-3.31 0-2.183-1.5-3.273-4.516-3.273l-4.778-.011zM170.675 16.592h2.378v15.68h-2.99V29.9c-1.264 1.722-3.29 2.717-5.426 2.667-4.484 0-7.942-3.578-7.942-8.236 0-4.657 3.458-8.208 7.942-8.208 1.829-.046 3.593.676 4.865 1.99l1.173-1.521zm-.791 7.74c0-2.99-2.11-5.22-4.953-5.22-2.841 0-4.952 2.181-4.952 5.22 0 3.037 2.078 5.214 4.952 5.214 2.875 0 4.953-2.198 4.953-5.215zM188.417 11.198l3.197-.966v22.04h-3.017V29.9c-1.265 1.722-3.29 2.717-5.427 2.667-4.483 0-7.94-3.578-7.94-8.236 0-4.657 3.457-8.208 7.94-8.208 2.032-.048 3.971.85 5.247 2.432v-7.357zm0 13.133c0-2.988-2.11-5.22-4.952-5.22s-4.952 2.182-4.952 5.22 2.078 5.215 4.952 5.215 4.952-2.198 4.952-5.215zM207.775 16.592h2.372v15.68h-2.989V29.9c-1.264 1.72-3.287 2.716-5.421 2.667-4.484 0-7.947-3.578-7.947-8.236 0-4.657 3.463-8.208 7.947-8.208 1.828-.046 3.593.676 4.865 1.99l1.173-1.521zm-.791 7.74c0-2.99-2.111-5.22-4.953-5.22-2.841 0-4.958 2.181-4.958 5.22 0 3.037 2.084 5.214 4.958 5.214 2.875 0 4.953-2.198 4.953-5.215zM216.867 18.495c1.2-1.434 2.989-2.078 4.985-2.078v3.164c-2.902 0-5.481 1.232-5.481 4.63v8.062h-3.197V16.592h2.373l1.32 1.903z" transform="translate(-168.000000, -80.000000) translate(168.000000, 80.000000) translate(1.000000, 1.000000)"/>
                    <g>
                        <path fill="url(#z3trbtqe8a)" d="M45.003 22.515c-.006 6.884-5.585 12.463-12.468 12.469v-4.91c4.184 0 7.576-3.391 7.576-7.575s-3.392-7.576-7.576-7.576v-4.909c3.31.004 6.485 1.324 8.823 3.668 2.338 2.345 3.65 5.522 3.645 8.833z" transform="translate(-168.000000, -80.000000) translate(168.000000, 80.000000) translate(1.000000, 1.000000)"/>
                        <path fill="#0076FF" d="M32.53 30.091V35c-4.407-.005-8.483-2.336-10.722-6.13-2.24-3.794-2.311-8.489-.187-12.349l.109-.196L26 18.714l-.092.169c-1.29 2.346-1.245 5.2.118 7.505 1.363 2.305 3.842 3.719 6.52 3.72l-.017-.017z" transform="translate(-168.000000, -80.000000) translate(168.000000, 80.000000) translate(1.000000, 1.000000)"/>
                        <path fill="url(#2yi7qxplrb)" d="M34.978 12.49c.002 2.559-.785 5.055-2.252 7.15l-4.31-2.41c1.087-1.34 1.677-3.015 1.67-4.74-.003-4.183-3.393-7.575-7.576-7.581V0c6.02.009 11.178 4.31 12.266 10.232.138.745.205 1.5.202 2.258z" transform="translate(-168.000000, -80.000000) translate(168.000000, 80.000000) translate(1.000000, 1.000000)"/>
                        <path fill="#00C1FF" d="M22.51.016v4.91c-3.204.003-6.06 2.017-7.14 5.033-.044.137-.087.268-.125.404-.906-.204-1.832-.306-2.76-.305-.754 0-1.506.068-2.247.201C11.328 4.34 16.488.04 22.51.033V.016z" transform="translate(-168.000000, -80.000000) translate(168.000000, 80.000000) translate(1.000000, 1.000000)"/>
                        <path fill="#19E2BA" d="M20.017 12.567l-2.956 3.905c-2.294-1.734-5.372-2.02-7.947-.74-2.574 1.28-4.203 3.908-4.205 6.783H0c0-3.951 1.875-7.668 5.05-10.02 1.527-1.139 3.297-1.908 5.171-2.246.742-.134 1.494-.202 2.247-.202 2.72-.005 5.366.882 7.533 2.525l.016-.005z" transform="translate(-168.000000, -80.000000) translate(168.000000, 80.000000) translate(1.000000, 1.000000)"/>
                        <path fill="url(#neal2aclpc)" d="M20.12 32.371c-3.761 2.91-8.85 3.426-13.12 1.333C2.73 31.61.02 27.27.015 22.515h4.91c0 2.9 1.656 5.545 4.264 6.812 2.608 1.268 5.71.935 7.99-.856l2.94 3.9z" transform="translate(-168.000000, -80.000000) translate(168.000000, 80.000000) translate(1.000000, 1.000000)"/>
                    </g>
                </g>
            </g>
        </g>
    </g>
</svg>
