<svg width="17" height="16" viewBox="0 0 17 16" fill="none" xmlns="http://www.w3.org/2000/svg">
<g id="&#237;&#153;&#148;&#236;&#130;&#180;&#237;&#145;&#156;">
<path id="Vector" d="M8.35368 5.14152C8.26295 5.0509 8.13996 5 8.01172 5C7.88348 5 7.76049 5.0509 7.66975 5.14152L3.15324 9.65804C3.08565 9.72571 3.03963 9.8119 3.02099 9.90571C3.00236 9.99952 3.01194 10.0968 3.04853 10.1851C3.08512 10.2735 3.14708 10.349 3.22658 10.4022C3.30608 10.4554 3.39956 10.4838 3.49521 10.4839H12.5282C12.6239 10.4838 12.7174 10.4554 12.7969 10.4022C12.8764 10.349 12.9383 10.2735 12.9749 10.1851C13.0115 10.0968 13.0211 9.99952 13.0024 9.90571C12.9838 9.8119 12.9378 9.72571 12.8702 9.65804L8.35368 5.14152Z" fill="#EA1718"/>
</g>
</svg>
