<svg xmlns="http://www.w3.org/2000/svg" width="45" height="45" viewBox="0 0 45 45">
    <defs>
        <linearGradient id="3aavamtu3a" x1="5.53%" x2="84.642%" y1="66.645%" y2="27.501%">
            <stop offset="0%" stop-color="#FFF"/>
            <stop offset="11%" stop-color="#C8E1FF"/>
            <stop offset="52%" stop-color="#0076FF"/>
            <stop offset="100%" stop-color="#0076FF"/>
        </linearGradient>
        <linearGradient id="l67wjay9fb" x1="-92.869%" x2="228.082%" y1="50.042%" y2="50.042%">
            <stop offset="0%" stop-color="#FFF"/>
            <stop offset="11%" stop-color="#C8F2FF"/>
            <stop offset="52%" stop-color="#00C1FF"/>
            <stop offset="100%" stop-color="#00C1FF"/>
        </linearGradient>
        <linearGradient id="g5apw0ii3c" x1="50%" x2="50%" y1="-66.394%" y2="324.313%">
            <stop offset="0%" stop-color="#FFF"/>
            <stop offset="7%" stop-color="#E1FBF6"/>
            <stop offset="52%" stop-color="#19E2BA"/>
            <stop offset="100%" stop-color="#19E2BA"/>
        </linearGradient>
    </defs>
    <g fill="none" fill-rule="evenodd">
        <g fill-rule="nonzero">
            <g>
                <path fill="url(#3aavamtu3a)" d="M45.003 22.515c-.006 6.884-5.585 12.463-12.468 12.469v-4.91c4.184 0 7.576-3.391 7.576-7.575s-3.392-7.576-7.576-7.576v-4.909c3.31.004 6.485 1.324 8.823 3.668 2.338 2.345 3.65 5.522 3.645 8.833z" transform="translate(-169.000000, -166.000000) translate(169.000000, 171.000000)"/>
                <path fill="#0076FF" d="M32.53 30.091V35c-4.407-.005-8.483-2.336-10.722-6.13-2.24-3.794-2.311-8.489-.187-12.349l.109-.196L26 18.714l-.092.169c-1.29 2.346-1.245 5.2.118 7.505 1.363 2.305 3.842 3.719 6.52 3.72l-.017-.017z" transform="translate(-169.000000, -166.000000) translate(169.000000, 171.000000)"/>
                <path fill="url(#l67wjay9fb)" d="M34.978 12.49c.002 2.559-.785 5.055-2.252 7.15l-4.31-2.41c1.087-1.34 1.677-3.015 1.67-4.74-.003-4.183-3.393-7.575-7.576-7.581V0c6.02.009 11.178 4.31 12.266 10.232.138.745.205 1.5.202 2.258z" transform="translate(-169.000000, -166.000000) translate(169.000000, 171.000000)"/>
                <path fill="#00C1FF" d="M22.51.016v4.91c-3.204.003-6.06 2.017-7.14 5.033-.044.137-.087.268-.125.404-.906-.204-1.832-.306-2.76-.305-.754 0-1.506.068-2.247.201C11.328 4.34 16.488.04 22.51.033V.016z" transform="translate(-169.000000, -166.000000) translate(169.000000, 171.000000)"/>
                <path fill="#19E2BA" d="M20.017 12.567l-2.956 3.905c-2.294-1.734-5.372-2.02-7.947-.74-2.574 1.28-4.203 3.908-4.205 6.783H0c0-3.951 1.875-7.668 5.05-10.02 1.527-1.139 3.297-1.908 5.171-2.246.742-.134 1.494-.202 2.247-.202 2.72-.005 5.366.882 7.533 2.525l.016-.005z" transform="translate(-169.000000, -166.000000) translate(169.000000, 171.000000)"/>
                <path fill="url(#g5apw0ii3c)" d="M20.12 32.371c-3.761 2.91-8.85 3.426-13.12 1.333C2.73 31.61.02 27.27.015 22.515h4.91c0 2.9 1.656 5.545 4.264 6.812 2.608 1.268 5.71.935 7.99-.856l2.94 3.9z" transform="translate(-169.000000, -166.000000) translate(169.000000, 171.000000)"/>
            </g>
        </g>
    </g>
</svg>
