<svg width="34" height="44" viewBox="0 0 34 44" fill="none" xmlns="http://www.w3.org/2000/svg">
<path d="M33 5.5C33 5.81568 32.8041 6.28256 32.0559 6.85569C31.3213 7.41838 30.1953 7.96702 28.7136 8.44514C25.7614 9.39778 21.62 10 17 10C12.377 10 8.23538 9.41488 5.28393 8.47101C3.80266 7.99731 2.67872 7.45126 1.94603 6.88718C1.2038 6.31574 1 5.84011 1 5.5C1 5.15989 1.2038 4.68426 1.94603 4.11282C2.67872 3.54874 3.80266 3.00269 5.28393 2.52899C8.23538 1.58513 12.377 1 17 1C21.623 1 25.7646 1.58513 28.7161 2.52899C30.1973 3.00269 31.3213 3.54874 32.054 4.11282C32.7962 4.68426 33 5.15989 33 5.5Z" stroke="#666666" stroke-width="2"/>
<path d="M1 5.77984C1 5.17547 1.34126 4.55221 2.24213 3.91291C3.1468 3.27092 4.48168 2.71832 6.11535 2.27309C9.36969 1.38618 13.5249 1 17.0001 1C20.4776 1 24.6327 1.3748 27.8863 2.25584C29.5196 2.69812 30.8532 3.2491 31.7567 3.89221C32.6545 4.53117 33 5.15997 33 5.77984V37.9598C33 38.4166 32.7521 38.9693 32.0183 39.5898C31.2854 40.2095 30.1646 40.807 28.6893 41.3251C25.7473 42.3584 21.6153 43 17 43H16.7642C12.206 42.9742 8.13473 42.3015 5.23833 41.2593C3.78552 40.7366 2.68177 40.1399 1.96019 39.5283C1.23428 38.913 1 38.3792 1 37.9598V5.77984Z" stroke="#666666" stroke-width="2"/>
<g clip-path="url(#clip0_4517_4111)">
<path d="M30.2554 15.6222C30.1802 15.5636 30.0849 15.5329 29.9874 15.5358C29.7211 15.5358 29.3769 15.7085 29.1924 15.7949L29.118 15.8303C28.808 15.9729 28.4704 16.0545 28.1257 16.0703C27.7713 16.0807 27.4656 16.1005 27.07 16.1385C24.7144 16.3664 23.6688 18.0622 22.6581 19.7018C22.1073 20.5938 21.54 21.515 20.7606 22.2299C20.5994 22.377 20.428 22.5137 20.2474 22.6392C19.4415 23.2048 18.4289 23.6037 17.6376 23.8886C16.8793 24.1614 16.0513 24.4066 15.2508 24.6432C14.5164 24.8608 13.827 25.0654 13.1908 25.2873C12.9035 25.3883 12.6593 25.46 12.4445 25.5317C11.8653 25.7139 11.4467 25.8442 10.8371 26.2371C10.5993 26.3899 10.3607 26.5566 10.1945 26.6809C9.71045 27.0447 9.282 27.4694 8.92125 27.9432C8.6126 28.3803 8.25566 28.7855 7.85638 29.152C7.72786 29.2712 7.49928 29.3247 7.15687 29.3247C6.75571 29.3247 6.26917 29.247 5.75418 29.165C5.2245 29.0786 4.67554 28.9923 4.20553 28.9923C3.82272 28.9923 3.5308 29.0501 3.3114 29.1701C3.3114 29.1701 2.9442 29.3722 2.78906 29.6329L2.94145 29.6977C3.17743 29.8176 3.39642 29.9649 3.59322 30.1363C3.79699 30.314 4.02441 30.4661 4.26978 30.5887C4.34824 30.6183 4.41923 30.663 4.47817 30.72C4.41391 30.8063 4.31936 30.922 4.22113 31.0438C3.67768 31.712 3.36097 32.1351 3.54273 32.3648C3.6276 32.4066 3.72237 32.4274 3.81813 32.4252C5.00234 32.4252 5.63759 32.136 6.44267 31.769C6.6786 31.6689 6.92003 31.5592 7.19543 31.447C7.66544 31.2553 8.17217 30.9488 8.70828 30.625C9.41881 30.1933 10.1532 29.7512 10.8646 29.5371C11.4507 29.3684 12.0612 29.2874 12.674 29.2971C13.4295 29.2971 14.219 29.3929 14.9828 29.4844C15.5528 29.5535 16.1422 29.6243 16.7205 29.6571C16.9454 29.6692 17.1538 29.6752 17.3558 29.6752C17.6265 29.6761 17.8972 29.6629 18.1664 29.6355L18.2306 29.6139C18.6364 29.3799 18.8264 28.8766 19.0109 28.3896C19.1293 28.0762 19.2285 27.7956 19.3827 27.6125C19.3924 27.604 19.4029 27.5962 19.4139 27.5892C19.4213 27.5854 19.4298 27.5839 19.4381 27.5852C19.4465 27.5865 19.4541 27.5903 19.4598 27.5961C19.4598 27.5961 19.4598 27.5961 19.4598 27.6099C19.3625 29.5138 18.551 30.7183 17.7266 31.7958L17.1758 32.351C17.1758 32.351 17.946 32.351 18.3839 32.1921C19.9831 31.7423 21.1911 30.7511 22.0697 29.1701C22.2864 28.7645 22.4801 28.3483 22.6498 27.9234C22.6645 27.888 22.8041 27.8223 22.7903 28.0097C22.7903 28.0641 22.782 28.1245 22.7774 28.1824C22.7774 28.2195 22.7719 28.2575 22.7701 28.2955C22.7471 28.5588 22.6783 29.1226 22.6783 29.1226L23.1722 28.8731C24.3656 28.1634 25.2836 26.7379 25.9776 24.5154C26.2676 23.5898 26.4797 22.6712 26.667 21.8595C26.891 20.8899 27.0847 20.0524 27.3096 19.7286C27.6566 19.2209 28.1862 18.8764 28.6985 18.544L28.9078 18.4067C29.5504 17.9819 30.193 17.4898 30.3344 16.5745V16.5547C30.4408 15.876 30.3536 15.7016 30.2554 15.6222Z" stroke="#666666" stroke-width="2"/>
</g>
<defs>
<clipPath id="clip0_4517_4111">
<rect width="30" height="20" fill="white" transform="translate(2 14)"/>
</clipPath>
</defs>
</svg>
