<svg width="40" height="44" viewBox="0 0 40 44" fill="none" xmlns="http://www.w3.org/2000/svg">
<path d="M0 11.4659V12.7911L20 24.2466L37.8611 14.0049V18.1461L20 28.4473L1.00701 17.4913L0 18.0607V25.9859L20 37.4129L37.8611 27.2101V31.3151L20 41.6214L1.00701 30.6628L0 31.2322V32.5755L20 44L40 32.5755V24.6426L38.9802 24.0784L20 35.0344L2.13384 24.728V20.6438L20 30.8362L40 19.4118V11.5901L38.9802 11.0233L20 21.9819L3.05163 12.2035L20 2.48471L33.9605 10.4927L35.1816 9.79647V8.70424L20 0L0 11.4659Z" fill="#666666"/>
</svg>
