<svg width="46" height="44" viewBox="0 0 46 44" fill="none" xmlns="http://www.w3.org/2000/svg">
<path fill-rule="evenodd" clip-rule="evenodd" d="M34.9995 31.3195C34.9995 33.0706 33.5151 34.5716 31.783 34.5716H14.2165C12.4844 34.5716 11 33.0706 11 31.3195V12.6813C11 10.9302 12.4844 9.42871 14.2165 9.42871H27.2059H29.6799H30.0514L35 14.4324V17.0594L34.9995 31.3195ZM21.1438 25.3151C21.1438 25.065 21.02 24.9402 21.02 24.8148C21.02 24.6895 20.8961 24.5647 20.7728 24.4398C20.6495 24.315 20.649 24.3145 20.5252 24.3145H20.1542C19.9065 24.3145 19.7827 24.3145 19.6594 24.4398C19.5361 24.5652 19.4117 24.69 19.2884 24.9402C19.1651 25.1903 19.1646 25.4405 19.1646 25.6906V26.8166V28.0674C19.1646 28.4429 19.2884 28.6926 19.4123 28.8179C19.5361 29.0681 19.6599 29.1934 19.7832 29.1934C19.9071 29.3187 20.0309 29.3187 20.278 29.3187C20.4019 29.3187 20.5257 29.3187 20.649 29.1934C20.7139 29.1882 20.7748 29.16 20.8203 29.1141C20.8658 29.0681 20.8929 29.0074 20.8967 28.9432C21.0205 28.8179 21.0205 28.6931 21.1438 28.5683C21.1438 28.4429 21.2676 28.3181 21.2676 28.0679C21.2676 27.9431 21.2676 27.6924 21.391 27.4423V26.6918V25.8165C21.1438 25.6912 21.1438 25.5653 21.1438 25.3151ZM26.7111 15.5579C26.7111 15.3077 26.5872 15.1829 26.5872 15.0576C26.5872 14.9322 26.4634 14.8074 26.3396 14.6821C26.2157 14.5567 26.2157 14.5567 26.0919 14.5567H25.7209C25.4738 14.5567 25.3499 14.5567 25.2261 14.6821C25.1023 14.8074 24.9784 14.9322 24.8546 15.1824C24.7308 15.4325 24.7313 15.6827 24.7313 15.9329V17.0588V18.3096C24.7313 18.6851 24.8546 18.9353 24.9784 19.0601C25.1023 19.3103 25.2261 19.4356 25.3494 19.4356C25.4732 19.561 25.5965 19.561 25.8442 19.561C25.9681 19.561 26.0914 19.561 26.2152 19.4356C26.2801 19.4304 26.3409 19.4022 26.3865 19.3563C26.432 19.3103 26.4591 19.2496 26.4629 19.1855C26.5867 19.0601 26.5867 18.9353 26.7105 18.81C26.7105 18.6851 26.8344 18.5598 26.8344 18.3096C26.8344 18.1848 26.8344 17.9347 26.9582 17.684V16.9335V16.0577C26.8344 16.0577 26.8344 15.808 26.7111 15.5579ZM29.1851 11.1798H27.2059H14.2165C13.3507 11.1798 12.7321 11.8055 12.7321 12.6808V31.3195C12.7321 32.1953 13.3507 32.8204 14.2165 32.8204H31.7835C32.1802 32.8103 32.5573 32.6477 32.8345 32.3674C33.1117 32.0871 33.2672 31.7112 33.2679 31.3195V15.3077L31.3655 13.2787L29.3095 11.1798H29.1851ZM18.175 14.9327V14.8079V14.6826L18.2988 14.5572L19.7832 13.5566H19.9071H20.0309H20.1547H20.4024H20.7734H21.0205H21.1443V13.6819V19.5615H22.2578H22.3816L22.5049 19.6868C22.6288 19.8116 22.5049 19.8116 22.5049 19.8116V20.0618V20.312V20.4368C22.5049 20.4368 22.5049 20.5621 22.3816 20.5621H22.2578H18.4226H18.2988L18.175 20.4368V20.312V20.0618V19.8116V19.6868C18.175 19.6868 18.175 19.5615 18.2988 19.5615H18.4226H19.7832V14.9333L18.6698 15.5589C18.5459 15.5589 18.5459 15.6837 18.4226 15.6837H18.2988C18.2988 15.6837 18.2988 15.5589 18.175 15.5589V15.1839V14.9327ZM22.5049 28.3176C22.3816 28.8179 22.2578 29.1934 22.0101 29.4436C21.7625 29.8185 21.5153 30.0692 21.2676 30.194C20.8967 30.3189 20.5252 30.4442 20.0304 30.4442C19.5356 30.4442 19.1646 30.3189 18.7931 30.194C18.6163 30.1388 18.4561 30.0415 18.3266 29.9106C18.1971 29.7797 18.1023 29.6193 18.0506 29.4436C17.9268 29.0686 17.6796 28.6931 17.6796 28.3176C17.5558 27.8173 17.5558 27.3169 17.5558 26.8166C17.5558 26.191 17.5558 25.6906 17.6796 25.3157C17.8035 24.8153 17.9268 24.4398 18.1744 24.1897C18.4221 23.9395 18.6692 23.564 18.9169 23.4392C19.2879 23.3139 19.6594 23.189 20.1542 23.189C20.649 23.189 21.02 23.3139 21.391 23.4392C21.5677 23.4944 21.7279 23.5918 21.8574 23.7227C21.987 23.8536 22.0817 24.014 22.1334 24.1897C22.2573 24.5652 22.5044 24.9402 22.5044 25.3157C22.6282 25.816 22.6282 26.3163 22.6282 26.8166C22.6282 27.4423 22.6288 27.9426 22.5049 28.3176ZM28.0722 30.0687V30.194C28.0722 30.194 28.0722 30.3189 27.9483 30.3189H27.8245H23.9893H23.8655L23.7417 30.194V30.0687V29.8185V29.5684V29.4436C23.7417 29.4436 23.7417 29.3187 23.8655 29.3187H23.9893H25.3505V24.6905L24.237 25.3162C24.1132 25.3162 24.1132 25.441 23.9893 25.441H23.8655C23.8655 25.441 23.8655 25.3162 23.7417 25.3162V24.9412V24.6911V24.5662V24.4409L23.8655 24.3156L25.3499 23.3149H25.4738H25.5976H25.7214H25.9691H26.3401H26.5877H26.7116V23.4403V29.3198H27.825H27.9489L28.0727 29.4446V29.5694V29.8196V30.0697L28.0722 30.0687ZM28.196 18.5603C28.0722 19.0606 27.9483 19.4361 27.7012 19.6863C27.4535 20.0613 27.2064 20.312 26.9587 20.4368C26.5877 20.5621 26.2162 20.6869 25.7214 20.6869C25.2266 20.6869 24.8557 20.5616 24.4842 20.4368C24.3074 20.3816 24.1472 20.2842 24.0177 20.1533C23.8882 20.0224 23.7934 19.862 23.7417 19.6863C23.6178 19.4361 23.3707 18.9358 23.3707 18.5603C23.3707 18.1848 23.2469 17.5597 23.2469 17.0594C23.2469 16.4337 23.2469 15.9334 23.3707 15.5584C23.4945 15.0581 23.6184 14.6826 23.8655 14.4324C24.1132 14.0574 24.3603 13.8068 24.608 13.6819C24.979 13.5566 25.3505 13.4318 25.8453 13.4318C26.3401 13.4318 26.7111 13.5571 27.0826 13.6819C27.2593 13.7371 27.4195 13.8345 27.549 13.9654C27.6786 14.0963 27.7734 14.2567 27.825 14.4324C27.9489 14.8074 28.196 15.1829 28.196 15.5584C28.3198 16.0587 28.3198 16.559 28.3198 17.0594C28.3198 17.685 28.196 18.1853 28.196 18.5603Z" fill="#666666"/>
<path d="M1.12775 22L12.0762 1H33.9233L44.8722 22L33.9233 43H12.0762L1.12775 22Z" stroke="#666666" stroke-width="2"/>
</svg>
