<svg width="44" height="26" viewBox="0 0 44 26" fill="none" xmlns="http://www.w3.org/2000/svg">
<path d="M22.3521 10.9879C23.1021 10.6421 23.6126 10.0008 23.6126 9.21126C23.6126 7.37116 21.803 6.97524 20.1536 7.00117H15.7028H15.6774H13.2098V12.8765C13.2098 13.7297 12.8869 14.0252 12.3119 14.0252C11.6941 14.0252 11.3466 13.7052 11.3466 13.1239V12.3101H9V12.6912C9 14.6561 9.81763 16 12.3512 16C14.4178 16 15.5104 15.1571 15.6774 13.4925V15.8154H20.2738C22.3244 15.8154 24 15.1739 24 13.0751C24 12.0756 23.3716 11.2607 22.3521 10.9879ZM18.1711 8.77799H20.0998C20.6236 8.77799 21.1191 8.9893 21.1191 9.6304C21.1191 10.2599 20.5297 10.4699 20.0998 10.4699H18.1711V8.77799ZM20.1673 13.9765H18.1711V11.9506H20.1673C20.9185 11.9506 21.5084 12.2109 21.5084 12.9868C21.5084 13.7164 20.9586 13.9765 20.1673 13.9765Z" fill="#666666"/>
<path d="M19 22.9999C19 21.3448 17.6569 20 16.0012 20C14.3422 20 13 21.3448 13 22.9999C13 24.658 14.3422 26 16.0012 26C17.6569 26 19 24.658 19 22.9999Z" fill="#666666"/>
<path d="M11 22.4992C11 21.1194 9.88036 20 8.49949 20C7.11882 20 6 21.1192 6 22.4992C6 23.8802 7.11862 25 8.49949 25C9.88036 25 11 23.8802 11 22.4992Z" fill="#666666"/>
<path d="M5 16.9985C5 15.895 4.10641 15 3.0009 15C1.89503 15 1 15.895 1 16.9985C1 18.105 1.89503 19 3.0009 19C4.10623 19 5 18.105 5 16.9985Z" fill="#666666"/>
<path d="M4 10.9992C4 9.89357 3.10533 9 2.0008 9C0.896479 9 0 9.89338 0 10.9992C0 12.1036 0.896473 13 2.0008 13C3.10533 13 4 12.1034 4 10.9992Z" fill="#666666"/>
<path d="M6 5.49991C6 4.67179 5.32692 4 4.49973 4C3.672 4 3 4.67179 3 5.49991C3 6.32875 3.672 7 4.49973 7C5.32692 7 6 6.32875 6 5.49991Z" fill="#666666"/>
<path d="M12 2.49931C12 1.67153 11.3291 1 10.5005 1C9.67206 1 9 1.67153 9 2.49931C9 3.32847 9.67226 4 10.5005 4C11.3293 4 12 3.32847 12 2.49931Z" fill="#666666"/>
<path d="M18 1.49965C18 0.671396 17.3297 0 16.5004 0C15.6731 0 15 0.671396 15 1.49965C15 2.32884 15.6731 3 16.5004 3C17.3297 3 18 2.32884 18 1.49965Z" fill="#666666"/>
<path d="M42.2237 11.8571C41.1748 11.6409 39.5711 11.5265 39.5711 10.9004C39.5711 10.4407 40.1781 10.4033 40.5536 10.4033C40.8359 10.4033 41.09 10.4548 41.2804 10.5686C41.4668 10.6837 41.5747 10.8624 41.5747 11.1414H43.6871C43.6059 9.42132 42.0046 9.00001 40.4742 9.00001C39.199 9.00001 37.5425 9.37616 37.3133 10.7069C37.0002 9.35157 35.5541 9.00001 34.1628 9.00001C32.7902 9.00001 30.903 9.43412 30.903 11.0279C30.903 11.056 30.9074 11.08 30.9081 11.1074C30.3757 9.84904 29.1181 9 27.5003 9C25.7506 9 24.4423 9.96876 24 11.3976C24.3382 11.8289 24.5161 12.3916 24.5161 12.979C24.5161 13.4613 24.4352 13.8882 24.2819 14.2619C24.8834 15.3158 26.0409 16 27.5003 16C29.0508 16 30.2671 15.2261 30.8347 14.0575C31.1328 15.5583 32.6821 16 34.199 16C35.5035 16 36.9441 15.5949 37.3993 14.4466C37.8705 15.6356 39.2737 16 40.6507 16C42.2239 16 44 15.4142 44 13.6414C43.9998 13.0933 43.635 12.1257 42.2237 11.8571ZM27.5003 14.3429C26.4366 14.3429 26.1134 13.3495 26.1134 12.5067C26.1134 11.6662 26.4366 10.6569 27.5003 10.6569C28.5627 10.6569 28.8988 11.6664 28.8988 12.5067C28.8986 13.3497 28.5627 14.3429 27.5003 14.3429ZM34.1855 14.5965C33.8634 14.5965 33.553 14.5222 33.3375 14.3683C33.1103 14.2026 32.9606 13.9603 32.9606 13.6298H31.0086C31.1227 13.2796 31.1857 12.9034 31.1857 12.5067C31.1857 12.3216 31.1682 12.1421 31.1427 11.9659C31.6776 12.8403 33.0202 12.9254 34.1457 13.1956C34.5475 13.2838 35.2612 13.3875 35.2612 13.8962C35.2612 14.4198 34.6276 14.5965 34.1855 14.5965ZM40.6369 14.5965C40.315 14.5965 40.0048 14.5222 39.7892 14.3683C39.5619 14.2026 39.4122 13.9603 39.4122 13.6298H37.5479C37.5431 13.0799 37.1741 12.1239 35.7721 11.8571C34.7234 11.6409 33.1899 11.5265 33.1899 10.9004C33.1899 10.4407 33.8669 10.4033 34.2424 10.4033C34.525 10.4033 34.7788 10.4549 34.9692 10.5686C35.1558 10.6837 35.2635 10.8624 35.2635 11.1414H37.2918C37.3732 12.8111 39.1891 12.8577 40.5971 13.1959C40.9991 13.284 41.7126 13.3877 41.7126 13.8964C41.7128 14.4199 41.079 14.5965 40.6369 14.5965Z" fill="#61615C"/>
</svg>
