<svg width="42" height="48" viewBox="0 0 42 48" fill="none" xmlns="http://www.w3.org/2000/svg">
<path d="M21 2L21.469 1.11681L20.9922 0.863601L20.5189 1.12333L21 2ZM1 12.9756L0.518904 12.0989L0 12.3837V12.9756H1ZM41 12.6207H42V12.0195L41.469 11.7375L41 12.6207ZM41 35.0244L41.4811 35.9011L42 35.6163V35.0244H41ZM21 46L20.5148 46.8744L20.9973 47.1422L21.4811 46.8767L21 46ZM1 34.9022H0V35.491L0.514803 35.7766L1 34.9022ZM4.69427 15.1511L4.20921 14.2766L3.69427 14.5623V15.1511H4.69427ZM21 6.10667L21.4861 5.23274L21.0007 4.96277L20.5149 5.23218L21 6.10667ZM4.69427 32.822H3.69427V33.4139L4.21313 33.6986L4.69427 32.822ZM11.0289 36.2986L10.5477 37.1753L11.0313 37.4407L11.5138 37.1732L11.0289 36.2986ZM24.1856 29.0037L24.6706 29.8782L25.2496 29.5572L25.1801 28.8988L24.1856 29.0037ZM24.5205 26.8177L23.6024 26.4213L23.6024 26.4213L24.5205 26.8177ZM24.8212 26.2412L25.6717 26.7671L26.049 26.1568L25.5918 25.6039L24.8212 26.2412ZM20.8217 23.2216L21.2274 22.3076H21.2274L20.8217 23.2216ZM16.7686 22.2597L16.8181 21.261L16.3277 21.2367L16.0086 21.6098L16.7686 22.2597ZM14.9285 23.5694L14.5591 22.64H14.5591L14.9285 23.5694ZM12.2052 23.8267L12.3927 22.8444H12.3927L12.2052 23.8267ZM9.79188 22.5891L10.4842 21.8675L10.4842 21.8675L9.79188 22.5891ZM8.50193 20.2736L9.4811 20.0706L8.50193 20.2736ZM8.77014 17.6608L9.68824 18.0571L8.77014 17.6608ZM10.5061 15.6313L11.0458 16.4731V16.4731L10.5061 15.6313ZM15.9616 15.78L15.3756 16.5903L15.8908 16.9628L16.4467 16.6545L15.9616 15.78ZM27.1925 9.5508L27.6775 10.4253L29.252 9.552L27.6786 8.67687L27.1925 9.5508ZM26.0771 32.1875L26.6548 31.3712L26.1417 31.0081L25.592 31.313L26.0771 32.1875ZM27.9555 32.9836L27.7681 33.9659H27.7681L27.9555 32.9836ZM30.6788 32.7262L30.3095 31.7969H30.3095L30.6788 32.7262ZM32.7941 31.0607L31.9735 30.4892H31.9735L32.7941 31.0607ZM32.2079 25.3506L31.5156 26.0721V26.0721L32.2079 25.3506ZM27.9495 24.1141L27.171 24.7417L27.5481 25.2095L28.1382 25.0961L27.9495 24.1141ZM25.0889 21.4149L24.5063 22.2277L25.0889 21.4149ZM18.2972 18.7215L17.8123 17.8469L15.1853 19.3035L18.1611 19.7122L18.2972 18.7215ZM31.009 11.6734L31.495 10.7995L31.0097 10.5296L30.524 10.7989L31.009 11.6734ZM37.3057 15.1756H38.3057V14.5875L37.7918 14.3016L37.3057 15.1756ZM37.3057 32.7267L37.7908 33.6012L38.3057 33.3155V32.7267H37.3057ZM21 41.7711L20.5189 42.6478L21.0026 42.9132L21.4851 42.6456L21 41.7711ZM14.8674 38.4053L14.3823 37.5309L12.7974 38.41L14.3863 39.282L14.8674 38.4053ZM20.5189 1.12333L0.518904 12.0989L1.4811 13.8522L21.4811 2.87667L20.5189 1.12333ZM41.469 11.7375L21.469 1.11681L20.531 2.88319L40.531 13.5039L41.469 11.7375ZM42 12.9756V12.6207H40V12.9756H42ZM42 35.0244V12.9756H40V35.0244H42ZM21.4811 46.8767L41.4811 35.9011L40.5189 34.1478L20.5189 45.1233L21.4811 46.8767ZM0.514803 35.7766L20.5148 46.8744L21.4852 45.1256L1.4852 34.0278L0.514803 35.7766ZM0 12.9756V34.9022H2V12.9756H0ZM5.17932 16.0256L21.4851 6.98115L20.5149 5.23218L4.20921 14.2766L5.17932 16.0256ZM5.69427 32.822V15.1511H3.69427V32.822H5.69427ZM11.51 35.422L5.1754 31.9454L4.21313 33.6986L10.5477 37.1753L11.51 35.422ZM23.7007 28.1291L10.544 35.4241L11.5138 37.1732L24.6706 29.8782L23.7007 28.1291ZM23.6024 26.4213C23.2353 27.2715 23.0948 28.1954 23.1912 29.1086L25.1801 28.8988C25.1199 28.3284 25.2073 27.7497 25.4386 27.214L23.6024 26.4213ZM23.9706 25.7154C23.8312 25.9408 23.708 26.1766 23.6024 26.4213L25.4386 27.214C25.5052 27.0596 25.5832 26.9103 25.6717 26.7671L23.9706 25.7154ZM20.416 24.1356C21.8462 24.7705 23.0877 25.7141 24.0505 26.8785L25.5918 25.6039C24.4292 24.1981 22.9369 23.0665 21.2274 22.3076L20.416 24.1356ZM16.7191 23.2585C17.9912 23.3216 19.2467 23.6165 20.416 24.1356L21.2274 22.3076C19.83 21.6873 18.3326 21.336 16.8181 21.261L16.7191 23.2585ZM15.2978 24.4987C16.1648 24.1541 16.9311 23.6085 17.5287 22.9097L16.0086 21.6098C15.6257 22.0577 15.1291 22.4135 14.5591 22.64L15.2978 24.4987ZM12.0177 24.809C13.118 25.0189 14.2589 24.9115 15.2978 24.4987L14.5591 22.64C13.8755 22.9117 13.121 22.9834 12.3927 22.8444L12.0177 24.809ZM9.09955 23.3106C9.90105 24.0796 10.9173 24.5989 12.0177 24.809L12.3927 22.8444C11.6645 22.7055 11.0011 22.3634 10.4842 21.8675L9.09955 23.3106ZM7.52275 20.4766C7.74649 21.5558 8.29762 22.5412 9.09955 23.3106L10.4842 21.8675C9.96778 21.372 9.6211 20.7458 9.4811 20.0706L7.52275 20.4766ZM7.85205 17.2644C7.41422 18.2786 7.29894 19.3971 7.52275 20.4766L9.4811 20.0706C9.34118 19.3957 9.41258 18.6957 9.68824 18.0571L7.85205 17.2644ZM9.96643 14.7894C9.02773 15.3912 8.28965 16.2508 7.85205 17.2644L9.68824 18.0571C9.96413 17.4181 10.4343 16.8652 11.0458 16.4731L9.96643 14.7894ZM13.1247 13.8691C12.0037 13.8691 10.9047 14.1879 9.96643 14.7894L11.0458 16.4731C11.6577 16.0808 12.3813 15.8691 13.1247 15.8691V13.8691ZM16.5476 14.9696C15.5627 14.2574 14.3625 13.8691 13.1247 13.8691V15.8691C13.9459 15.8691 14.7351 16.1271 15.3756 16.5903L16.5476 14.9696ZM26.7075 8.6763L15.4766 14.9055L16.4467 16.6545L27.6775 10.4253L26.7075 8.6763ZM20.5139 6.98059L26.7064 10.4247L27.6786 8.67687L21.4861 5.23274L20.5139 6.98059ZM25.4994 33.0038C26.1724 33.48 26.9465 33.8091 27.7681 33.9659L28.143 32.0013C27.5999 31.8977 27.0923 31.6809 26.6548 31.3712L25.4994 33.0038ZM27.7681 33.9659C28.8684 34.1758 30.0093 34.0684 31.0481 33.6555L30.3095 31.7969C29.6258 32.0686 28.8713 32.1403 28.143 32.0013L27.7681 33.9659ZM31.0481 33.6555C32.0872 33.2426 32.982 32.5406 33.6147 31.6322L31.9735 30.4892C31.5703 31.0681 30.9928 31.5254 30.3095 31.7969L31.0481 33.6555ZM33.6147 31.6322C34.2477 30.7232 34.5884 29.6499 34.5884 28.5483H32.5884C32.5884 29.2354 32.3763 29.9108 31.9735 30.4892L33.6147 31.6322ZM34.5884 28.5483C34.5884 27.07 33.976 25.6611 32.9002 24.629L31.5156 26.0721C32.2077 26.7362 32.5884 27.6278 32.5884 28.5483H34.5884ZM32.9002 24.629C31.8259 23.5982 30.3773 23.026 28.8751 23.026V25.026C29.873 25.026 30.8221 25.4068 31.5156 26.0721L32.9002 24.629ZM28.8751 23.026C28.4992 23.026 28.126 23.0619 27.7608 23.132L28.1382 25.0961C28.3795 25.0497 28.6263 25.026 28.8751 25.026V23.026ZM24.5063 22.2277C25.5139 22.9501 26.4092 23.7968 27.171 24.7417L28.728 23.4864C27.8521 22.4 26.8248 21.429 25.6716 20.6022L24.5063 22.2277ZM18.1611 19.7122C20.4655 20.0287 22.6471 20.8948 24.5063 22.2277L25.6716 20.6022C23.5442 19.0771 21.0553 18.0909 18.4333 17.7308L18.1611 19.7122ZM30.524 10.7989L17.8123 17.8469L18.7821 19.5961L31.4939 12.548L30.524 10.7989ZM37.7918 14.3016L31.495 10.7995L30.5229 12.5474L36.8197 16.0495L37.7918 14.3016ZM38.3057 32.7267V15.1756H36.3057V32.7267H38.3057ZM21.4851 42.6456L37.7908 33.6012L36.8207 31.8522L20.5149 40.8966L21.4851 42.6456ZM14.3863 39.282L20.5189 42.6478L21.4811 40.8945L15.3485 37.5287L14.3863 39.282ZM25.592 31.313L14.3823 37.5309L15.3525 39.2798L26.5622 33.062L25.592 31.313Z" fill="#666666"/>
</svg>
