<svg width="45" height="45" viewBox="0 0 45 45" fill="none" xmlns="http://www.w3.org/2000/svg">
<path d="M44.4968 20.4811L44.4968 20.4816C44.514 20.8189 44.4617 21.1562 44.343 21.473C44.2243 21.7898 44.0415 22.0798 43.8056 22.3251C43.5697 22.5704 43.2855 22.7659 42.9703 22.8995C42.655 23.0331 42.3153 23.1018 41.9721 23.1013H41.9714H8.93448C8.6 23.0928 8.27076 23.0179 7.96627 22.8814C7.66008 22.7441 7.38533 22.5473 7.15827 22.303C6.93122 22.0587 6.75649 21.7719 6.64425 21.4598C6.53202 21.1478 6.4845 20.8167 6.50443 20.4863L6.50445 20.4863L6.50471 20.4811C6.79238 14.7238 8.69773 9.72764 11.9379 6.17765C15.1717 2.63476 19.763 0.5 25.5007 0.5C31.2384 0.5 35.8298 2.63476 39.0635 6.17765C42.3038 9.72764 44.2091 14.7238 44.4968 20.4811Z" fill="#666666" stroke="white"/>
<path d="M8.87147 21.6346C8.61636 21.6029 8.38354 21.475 8.22176 21.2776C8.05998 21.0802 7.9818 20.8286 8.00358 20.5756C8.43753 9.25397 16.3251 1.9668 25.438 1.9668C34.5508 1.9668 42.4384 9.25397 43 20.5756C42.9987 20.8524 42.8994 21.12 42.7192 21.332C42.5185 21.5193 42.255 21.627 41.979 21.6346H8.87147Z" fill="white"/>
<path d="M28 10.3698V6.04099C30.0095 6.36729 31.9089 7.17728 33.5322 8.40005L30.6005 11.4656C29.8022 10.9564 28.9228 10.5859 28 10.3698Z" stroke="#666666" stroke-width="2" stroke-linejoin="round"/>
<path d="M24 10.4124C22.9145 10.6132 21.8752 10.9914 20.9347 11.5314L18.0505 8.90843C19.9075 7.51197 21.8124 6.42691 24 6.04281V10.4124Z" stroke="#666666" stroke-width="2" stroke-linejoin="round"/>
<path d="M34.4944 16.7011C34.259 15.8037 33.8696 14.95 33.3435 14.172L36.4546 11.2783C37.7184 12.8917 38.5445 14.7506 38.8731 16.7011H34.4944Z" stroke="#666666" stroke-width="2" stroke-linejoin="round"/>
<path d="M13.1244 16.7011C13.4507 14.7488 14.2861 12.8876 15.5697 11.2755L18.6677 14.178C18.1532 14.9579 17.7719 15.8089 17.5396 16.7011H13.1244Z" stroke="#666666" stroke-width="2" stroke-linejoin="round"/>
<path d="M37.9437 12.4651C37.8349 12.211 37.6362 12.0078 37.3871 11.8957C37.1379 11.7836 36.8564 11.7708 36.5984 11.8599L27 15.7544L27.7503 17.7016L37.3487 13.8071C37.5965 13.7016 37.7958 13.5045 37.9062 13.2554C38.0167 13.0063 38.0301 12.7238 37.9437 12.4651Z" fill="#666666"/>
<path d="M26 20.6508C27.6569 20.6508 29 19.33 29 17.7007C29 16.0713 27.6569 14.7505 26 14.7505C24.3431 14.7505 23 16.0713 23 17.7007C23 19.33 24.3431 20.6508 26 20.6508Z" fill="#666666"/>
<path fill-rule="evenodd" clip-rule="evenodd" d="M14 15.7227L1 22.7763V36.8678L14 43.9999L27 36.9463V22.8077L26.9721 22.7925L27 22.7763L21.9082 20.0135L20.4754 19.2338L20.4733 19.2349L14 15.7227ZM18.0271 20.5764L14 18.3619L3.40127 24.1744V35.5309L7.52078 37.7663L17.2494 32.433C16.5212 31.0815 15.3363 30.0006 13.8841 29.3632C12.432 28.7259 10.7964 28.5688 9.2391 28.9172L9.0321 28.0956C8.98333 28.1108 8.93354 28.1229 8.88305 28.1317C8.60924 28.1323 8.34288 28.0471 8.1254 27.8893C7.90791 27.7315 7.7515 27.5099 7.68048 27.2591C7.60946 27.0082 7.62781 26.7421 7.73268 26.5022C7.83755 26.2623 8.02307 26.0619 8.26038 25.9323L18.0271 20.5764ZM10.0158 39.1202L14 41.2822L24.5987 35.4696V24.1901L20.5078 21.9405L12.2432 26.4712C13.8442 26.6886 15.3622 27.2838 16.6578 28.2022C17.9535 29.1205 18.9854 30.3327 19.659 31.7276C19.8809 31.8228 20.0674 31.9794 20.1939 32.1769C20.2912 32.3409 20.3447 32.5249 20.3499 32.713C20.3551 32.9011 20.3118 33.0876 20.2237 33.2562C20.2295 33.2789 20.2369 33.3005 20.2444 33.3221C20.2518 33.3437 20.2593 33.3653 20.2651 33.3881L20.1409 33.4164C20.0398 33.5681 19.9025 33.6951 19.7401 33.7871L10.0158 39.1202Z" fill="#666666"/>
<path d="M1 22.7763L0.761546 22.3368L0.5 22.4787V22.7763H1ZM14 15.7227L14.2385 15.2832L14 15.1538L13.7615 15.2832L14 15.7227ZM1 36.8678H0.5V37.1638L0.759503 37.3062L1 36.8678ZM14 43.9999L13.7595 44.4383L13.9987 44.5695L14.2385 44.4394L14 43.9999ZM27 36.9463L27.2385 37.3858L27.5 37.2439V36.9463H27ZM27 22.8077H27.5V22.5108L27.2393 22.3687L27 22.8077ZM26.9721 22.7925L26.7205 22.3604L25.9537 22.8069L26.7329 23.2315L26.9721 22.7925ZM27 22.7763L27.2516 23.2084L28.0201 22.7609L27.2385 22.3368L27 22.7763ZM21.9082 20.0135L21.6692 20.4527L21.6698 20.453L21.9082 20.0135ZM20.4754 19.2338L20.7144 18.7946L20.4744 18.664L20.2349 18.7954L20.4754 19.2338ZM20.4733 19.2349L20.2348 19.6744L20.4746 19.8045L20.7138 19.6733L20.4733 19.2349ZM18.0271 20.5764L18.2675 21.0148L19.0659 20.577L18.268 20.1383L18.0271 20.5764ZM14 18.3619L14.2409 17.9237L14.0003 17.7914L13.7596 17.9235L14 18.3619ZM3.40127 24.1744L3.16085 23.736L2.90127 23.8784V24.1744H3.40127ZM3.40127 35.5309H2.90127V35.8285L3.1628 35.9704L3.40127 35.5309ZM7.52078 37.7663L7.2823 38.2058L7.522 38.3358L7.76113 38.2047L7.52078 37.7663ZM17.2494 32.433L17.4898 32.8714L17.9251 32.6328L17.6896 32.1958L17.2494 32.433ZM13.8841 29.3632L13.6832 29.8211H13.6832L13.8841 29.3632ZM9.2391 28.9172L8.75425 29.0393L8.87319 29.5114L9.34825 29.4051L9.2391 28.9172ZM9.0321 28.0956L9.51694 27.9734L9.38775 27.4606L8.88299 27.6183L9.0321 28.0956ZM8.88305 28.1317L8.88421 28.6317L8.927 28.6316L8.96916 28.6242L8.88305 28.1317ZM8.1254 27.8893L7.83175 28.294L7.83175 28.294L8.1254 27.8893ZM7.73268 26.5022L8.19083 26.7025V26.7025L7.73268 26.5022ZM8.26038 25.9323L8.50001 26.3712L8.50079 26.3707L8.26038 25.9323ZM10.0158 39.1202L9.77539 38.6818L8.97177 39.1225L9.77735 39.5597L10.0158 39.1202ZM14 41.2822L13.7615 41.7217L14.0013 41.8517L14.2404 41.7206L14 41.2822ZM24.5987 35.4696L24.8392 35.908L25.0987 35.7657V35.4696H24.5987ZM24.5987 24.1901H25.0987V23.8945L24.8397 23.752L24.5987 24.1901ZM20.5078 21.9405L20.7487 21.5024L20.5082 21.3701L20.2675 21.5021L20.5078 21.9405ZM12.2432 26.4712L12.0028 26.0327L10.6718 26.7624L12.1759 26.9666L12.2432 26.4712ZM19.659 31.7276L19.2087 31.945L19.29 32.1134L19.4618 32.1871L19.659 31.7276ZM20.1939 32.1769L20.6239 31.9218L20.6195 31.9144L20.6149 31.9072L20.1939 32.1769ZM20.3499 32.713L20.8498 32.6992V32.6992L20.3499 32.713ZM20.2237 33.2562L19.7806 33.0246L19.692 33.1941L19.7391 33.3795L20.2237 33.2562ZM20.2444 33.3221L19.7717 33.4852L19.7717 33.4852L20.2444 33.3221ZM20.2651 33.3881L20.3761 33.8757L20.8761 33.7618L20.7497 33.2648L20.2651 33.3881ZM20.1409 33.4164L20.0299 32.9289L19.8355 32.9731L19.7249 33.139L20.1409 33.4164ZM19.7401 33.7871L19.9806 34.2256L19.9868 34.2221L19.7401 33.7871ZM1.23845 23.2157L14.2385 16.1621L13.7615 15.2832L0.761546 22.3368L1.23845 23.2157ZM1.5 36.8678V22.7763H0.5V36.8678H1.5ZM14.2405 43.5616L1.2405 36.4294L0.759503 37.3062L13.7595 44.4383L14.2405 43.5616ZM26.7615 36.5069L13.7615 43.5605L14.2385 44.4394L27.2385 37.3858L26.7615 36.5069ZM26.5 22.8077V36.9463H27.5V22.8077H26.5ZM26.7329 23.2315L26.7607 23.2467L27.2393 22.3687L27.2114 22.3535L26.7329 23.2315ZM26.7484 22.3442L26.7205 22.3604L27.2237 23.2246L27.2516 23.2084L26.7484 22.3442ZM21.6698 20.453L26.7615 23.2157L27.2385 22.3368L22.1467 19.5741L21.6698 20.453ZM22.1472 19.5744L20.7144 18.7946L20.2364 19.6729L21.6692 20.4527L22.1472 19.5744ZM20.2349 18.7954L20.2327 18.7966L20.7138 19.6733L20.7159 19.6721L20.2349 18.7954ZM13.7615 16.1621L20.2348 19.6744L20.7117 18.7955L14.2385 15.2832L13.7615 16.1621ZM18.268 20.1383L14.2409 17.9237L13.7591 18.8L17.7862 21.0145L18.268 20.1383ZM13.7596 17.9235L3.16085 23.736L3.6417 24.6128L14.2404 18.8003L13.7596 17.9235ZM2.90127 24.1744V35.5309H3.90127V24.1744H2.90127ZM3.1628 35.9704L7.2823 38.2058L7.75925 37.3268L3.63975 35.0914L3.1628 35.9704ZM17.0091 31.9945L7.28042 37.3279L7.76113 38.2047L17.4898 32.8714L17.0091 31.9945ZM13.6832 29.8211C15.0368 30.4152 16.1358 31.4202 16.8093 32.6702L17.6896 32.1958C16.9066 30.7427 15.6357 29.586 14.0851 28.9054L13.6832 29.8211ZM9.34825 29.4051C10.8024 29.0798 12.3292 29.2268 13.6832 29.8211L14.0851 28.9054C12.5347 28.2249 10.7905 28.0578 9.12996 28.4292L9.34825 29.4051ZM8.54725 28.2177L8.75425 29.0393L9.72395 28.795L9.51694 27.9734L8.54725 28.2177ZM8.96916 28.6242C9.04088 28.6117 9.11173 28.5945 9.1812 28.5728L8.88299 27.6183C8.85494 27.6271 8.82619 27.634 8.79695 27.6392L8.96916 28.6242ZM7.83175 28.294C8.13666 28.5152 8.50668 28.6326 8.88421 28.6317L8.88189 27.6317C8.7118 27.6321 8.5491 27.579 8.41904 27.4846L7.83175 28.294ZM7.19939 27.3953C7.30198 27.7577 7.52643 28.0724 7.83175 28.294L8.41904 27.4846C8.2894 27.3905 8.20102 27.2622 8.16157 27.1229L7.19939 27.3953ZM7.27453 26.3019C7.1235 26.6475 7.09667 27.0325 7.19939 27.3953L8.16157 27.1229C8.12224 26.984 8.13211 26.8368 8.19083 26.7025L7.27453 26.3019ZM8.02075 25.4935C7.68959 25.6743 7.42533 25.957 7.27453 26.3019L8.19083 26.7025C8.24978 26.5676 8.35655 26.4495 8.50001 26.3712L8.02075 25.4935ZM17.7867 20.138L8.01996 25.4939L8.50079 26.3707L18.2675 21.0148L17.7867 20.138ZM9.77735 39.5597L13.7615 41.7217L14.2385 40.8427L10.2543 38.6807L9.77735 39.5597ZM14.2404 41.7206L24.8392 35.908L24.3583 35.0312L13.7596 40.8438L14.2404 41.7206ZM25.0987 35.4696V24.1901H24.0987V35.4696H25.0987ZM24.8397 23.752L20.7487 21.5024L20.2669 22.3787L24.3578 24.6283L24.8397 23.752ZM12.4835 26.9096L20.7482 22.379L20.2675 21.5021L12.0028 26.0327L12.4835 26.9096ZM16.947 27.7942C15.5843 26.8284 13.99 26.2038 12.3105 25.9757L12.1759 26.9666C13.6985 27.1734 15.14 27.7392 16.3687 28.6101L16.947 27.7942ZM20.1092 31.5102C19.3979 30.0372 18.3097 28.7602 16.947 27.7942L16.3687 28.6101C17.5972 29.4809 18.5728 30.6282 19.2087 31.945L20.1092 31.5102ZM20.6149 31.9072C20.4327 31.6229 20.1671 31.4015 19.8561 31.2681L19.4618 32.1871C19.5948 32.2441 19.702 32.336 19.7729 32.4466L20.6149 31.9072ZM20.8498 32.6992C20.8422 32.4249 20.764 32.1579 20.6239 31.9218L19.7639 32.4321C19.8183 32.5239 19.8473 32.625 19.8501 32.7268L20.8498 32.6992ZM20.6668 33.4878C20.794 33.2444 20.8573 32.9736 20.8498 32.6992L19.8501 32.7268C19.8529 32.8287 19.8296 32.9307 19.7806 33.0246L20.6668 33.4878ZM20.7171 33.1591C20.713 33.1475 20.7111 33.1417 20.7094 33.1366C20.708 33.1321 20.7079 33.1314 20.7082 33.1328L19.7391 33.3795C19.7509 33.4256 19.7653 33.4665 19.7717 33.4852L20.7171 33.1591ZM20.7497 33.2648C20.7379 33.2187 20.7235 33.1778 20.717 33.1591L19.7717 33.4852C19.7757 33.4968 19.7777 33.5026 19.7793 33.5077C19.7808 33.5121 19.7809 33.5129 19.7805 33.5114L20.7497 33.2648ZM20.2519 33.9039L20.3761 33.8757L20.1541 32.9006L20.0299 32.9289L20.2519 33.9039ZM19.9868 34.2221C20.2154 34.0924 20.4113 33.9121 20.5569 33.6938L19.7249 33.139C19.6682 33.2241 19.5895 33.2977 19.4934 33.3522L19.9868 34.2221ZM10.2562 39.5586L19.9806 34.2255L19.4997 33.3487L9.77539 38.6818L10.2562 39.5586Z" fill="white"/>
<path d="M17.3405 30.032L17.8879 30.8689C18.2166 30.6539 18.6053 30.5379 19.0047 30.5379C19.5407 30.5379 20.0505 30.7465 20.4232 31.1112C20.7951 31.4753 21 31.9644 21 32.4698C21 32.8471 20.8858 33.2177 20.6693 33.5349C20.4526 33.8524 20.1423 34.103 19.7752 34.2518C19.4079 34.4007 19.0026 34.44 18.6114 34.3638C18.2203 34.2877 17.8639 34.1002 17.5861 33.8284C17.3086 33.5567 17.1222 33.2133 17.0468 32.8427L16.0669 33.0418L17.0468 32.8427C16.9715 32.4722 17.01 32.0879 17.1583 31.7375C17.3066 31.3869 17.5594 31.0837 17.8879 30.8689L17.3405 30.032ZM7.57682 27.8916L6.89578 28.5873L7.57682 27.8916C7.29932 27.62 7.11285 27.2765 7.03753 26.9059C6.96224 26.5354 7.00067 26.1511 7.14894 25.8007C7.29732 25.4501 7.55007 25.1469 7.87858 24.9321C8.20732 24.7171 8.596 24.6011 8.99535 24.6011C9.53137 24.6011 10.0412 24.8097 10.4139 25.1744C10.7858 25.5385 10.9907 26.0276 10.9907 26.533C10.9907 26.9103 10.8765 27.2809 10.66 27.5981C10.4433 27.9156 10.1329 28.1662 9.76588 28.3151C9.39863 28.464 8.99333 28.5032 8.6021 28.4271C8.21096 28.3509 7.85455 28.1634 7.57682 27.8916Z" fill="white" stroke="#666666" stroke-width="2"/>
</svg>
