<svg width="44" height="44" viewBox="0 0 44 44" fill="none" xmlns="http://www.w3.org/2000/svg">
<path d="M42.1879 40.5553L42.1647 40.5285L42.1396 40.5034L3.49114 1.79433C3.49052 1.79369 3.48989 1.79305 3.48927 1.79241C3.4264 1.72776 3.38352 1.64597 3.36611 1.55695C3.34853 1.46704 3.35776 1.37395 3.3926 1.28934C3.42743 1.20475 3.48623 1.13254 3.56145 1.08154C3.63559 1.03126 3.72252 1.00372 3.81169 1.00203H42.4586H42.4849L42.5113 1.00064C42.5739 0.997336 42.6365 1.00684 42.6954 1.0286L43.0421 0.0906301L42.6954 1.0286C42.7543 1.05037 42.8082 1.08395 42.8539 1.12741L43.5426 0.403577L42.8539 1.12742C42.8996 1.17087 42.936 1.22328 42.9609 1.2815C42.9858 1.33974 42.9986 1.4025 42.9986 1.46593V1.46731V40.1816V40.2049L42.9996 40.2281C43.0042 40.3251 42.9784 40.4209 42.9261 40.5023C42.8738 40.5836 42.7977 40.6464 42.7086 40.6821C42.6195 40.7178 42.5216 40.7248 42.4284 40.7021C42.3352 40.6795 42.2511 40.6283 42.1879 40.5553Z" stroke="#666666" stroke-width="2"/>
<path d="M0.843297 40.7727L16.8688 24.7221C16.9443 24.6464 17.0668 24.6464 17.1423 24.7221L19.2476 26.8306C19.3231 26.9063 19.3231 27.0289 19.2476 27.1046L3.22206 43.1552C3.14654 43.2308 3.02409 43.2308 2.94857 43.1552L0.843296 41.0466C0.767775 40.971 0.767774 40.8484 0.843297 40.7727Z" stroke="#666666"/>
<path d="M0.853063 28.3821L10.7442 18.4754C10.8197 18.3998 10.9422 18.3998 11.0177 18.4754L13.123 20.584C13.1985 20.6596 13.1985 20.7823 13.123 20.8579L3.23183 30.7646C3.15631 30.8402 3.03386 30.8402 2.95834 30.7646L0.853064 28.656C0.777541 28.5804 0.777541 28.4577 0.853063 28.3821Z" stroke="#666666"/>
<path d="M13.107 40.7429L22.9981 30.8362C23.0737 30.7606 23.1961 30.7606 23.2716 30.8362L25.3769 32.9448C25.4524 33.0205 25.4524 33.1431 25.3769 33.2187L15.4857 43.1254C15.4102 43.2011 15.2878 43.2011 15.2122 43.1254L13.107 41.0168C13.0314 40.9412 13.0314 40.8186 13.107 40.7429Z" stroke="#666666"/>
<path d="M23.3756 10.0062L21.6696 11.7149C20.8985 12.4872 20.8985 13.7394 21.6696 14.5117L23.3756 16.2204C24.1467 16.9927 25.3969 16.9927 26.1681 16.2204L27.8741 14.5117C28.6452 13.7394 28.6452 12.4872 27.8741 11.7149L26.1681 10.0062C25.3969 9.23389 24.1467 9.23389 23.3756 10.0062Z" stroke="#666666" stroke-width="2"/>
<path d="M29.5358 3.82163L27.8298 5.53031C27.0587 6.30262 27.0587 7.5548 27.8298 8.32711L29.5358 10.0358C30.3069 10.8081 31.5571 10.8081 32.3282 10.0358L34.0342 8.32711C34.8053 7.5548 34.8053 6.30263 34.0342 5.53031L32.3282 3.82163C31.5571 3.04932 30.3069 3.04932 29.5358 3.82163Z" stroke="#666666" stroke-width="2"/>
<path d="M29.5465 16.1732L27.8405 17.8819C27.0694 18.6542 27.0694 19.9064 27.8405 20.6787L29.5465 22.3874C30.3176 23.1597 31.5678 23.1597 32.339 22.3874L34.0449 20.6787C34.8161 19.9064 34.8161 18.6542 34.0449 17.8819L32.339 16.1732C31.5678 15.4009 30.3176 15.4009 29.5465 16.1732Z" stroke="#666666" stroke-width="2"/>
<path d="M36.3331 9.58466L36.7185 10.5074L36.3331 9.58466C36.093 9.68497 35.8751 9.83174 35.6919 10.0165L34.0007 11.7103C33.8163 11.8938 33.6699 12.1118 33.57 12.3519L34.4931 12.7363L33.57 12.3519C33.4696 12.5929 33.418 12.8513 33.418 13.1123C33.418 13.3733 33.4696 13.6318 33.57 13.8727L34.4931 13.4883L33.57 13.8727C33.6699 14.1128 33.8163 14.3309 34.0007 14.5144L35.6919 16.2082C35.8751 16.3929 36.093 16.5397 36.3331 16.64L36.7185 15.7173L36.3331 16.64C36.5741 16.7407 36.8327 16.7925 37.094 16.7925C37.3552 16.7925 37.6138 16.7407 37.8548 16.64L37.4694 15.7173L37.8548 16.64C38.095 16.5397 38.3129 16.3929 38.496 16.2082L40.1872 14.5143C40.3716 14.3309 40.518 14.1128 40.618 13.8727L39.6948 13.4883L40.618 13.8727C40.7183 13.6318 40.77 13.3733 40.77 13.1123C40.77 12.8513 40.7183 12.5929 40.618 12.3519L39.7592 12.7095L40.618 12.3519C40.518 12.1118 40.3716 11.8937 40.1872 11.7103L38.496 10.0164C38.3128 9.83173 38.095 9.68497 37.8548 9.58466L37.4708 10.504L37.8548 9.58466C37.6138 9.48399 37.3552 9.43213 37.094 9.43213C36.8327 9.43213 36.5741 9.48398 36.3331 9.58466Z" stroke="#666666" stroke-width="2"/>
</svg>
