<svg width="46" height="46" viewBox="0 0 46 46" fill="none" xmlns="http://www.w3.org/2000/svg">
<path d="M36.5605 40.3771C31.9388 43.9595 26.0829 45.5596 20.2812 44.8254C14.4795 44.0913 9.20712 41.083 5.62393 36.4623C2.04075 31.8417 0.440281 25.9873 1.17461 20.1869C1.90895 14.3865 4.91793 9.1153 9.53962 5.53294L9.77301 5.37739C14.4212 1.90855 20.2497 0.411286 25.9947 1.21023C31.7398 2.00918 36.9383 5.03993 40.4631 9.64537C43.9879 14.2508 45.5549 20.0597 44.8244 25.8125C44.0938 31.5654 41.1246 36.7985 36.5605 40.3771Z" stroke="#666666" stroke-width="2"/>
<path d="M33.1282 20.2423L32.5383 21.0497L33.2103 21.5407L33.8151 20.969L33.1282 20.2423ZM24.6555 12.8819L24.2133 11.985L22.9801 12.593L23.9384 13.5789L24.6555 12.8819ZM39.8378 9.41101L39.8415 10.411L41.9257 10.4031L40.6154 8.78234L39.8378 9.41101ZM35.9187 5.49197L36.5205 4.6933L36.2256 4.47114L35.8572 4.49387L35.9187 5.49197ZM24.0831 8.26489L23.6945 7.34348L23.6885 7.34607L24.0831 8.26489ZM21.5659 9.47575L20.8032 10.1225L21.3254 10.7383L22.0374 10.3576L21.5659 9.47575ZM16.7155 1.96484L17.5952 1.4892L17.208 0.773228L16.4284 1.00696L16.7155 1.96484ZM13.5803 3.14055L13.1505 2.23765L12.2067 2.68691L12.6973 3.60986L13.5803 3.14055ZM18.9359 11.0442L19.4877 11.8782L20.4191 11.262L19.7042 10.404L18.9359 11.0442ZM13.4385 15.617L13.0847 16.5523L13.7007 16.7854L14.1581 16.3114L13.4385 15.617ZM8.70226 15.5079L7.76044 15.844L8.08742 16.7602L9.01227 16.4586L8.70226 15.5079ZM7.04857 8.2353L8.04313 8.13113L7.81756 5.97746L6.32435 7.54573L7.04857 8.2353ZM4.17462 12.0237L3.31542 11.512L3.1357 11.8138L3.18419 12.1617L4.17462 12.0237ZM5.47513 17.6775L6.23752 18.3246L6.59842 17.8994L6.42633 17.3689L5.47513 17.6775ZM5.97784 27.4379L6.90794 27.8052L7.15445 27.181L6.67017 26.7163L5.97784 27.4379ZM3.78271 34.2807L2.809 34.053L2.71911 34.4373L2.91589 34.7794L3.78271 34.2807ZM5.40258 36.6844L4.61505 37.3007L4.61508 37.3007L5.40258 36.6844ZM6.83956 38.3827L6.11542 39.0723L7.43805 40.4611L7.81957 38.5816L6.83956 38.3827ZM9.54125 29.2909L9.7328 28.3094L8.93156 28.1531L8.61797 28.9068L9.54125 29.2909ZM12.2919 29.2904L13.0033 28.5877L12.6264 28.2061L12.1 28.309L12.2919 29.2904ZM16.0101 32.6605L15.4054 33.457L15.4075 33.4585L16.0101 32.6605ZM21.3227 35.9054L22.3152 35.7833L22.2486 35.242L21.7576 35.0049L21.3227 35.9054ZM29.2727 38.5733L29.4659 37.5921L28.9338 37.4874L28.5558 37.8762L29.2727 38.5733ZM38.1658 39.192L38.2213 40.1904L38.5743 40.1708L38.8366 39.9336L38.1658 39.192ZM40.6841 36.136L41.5024 36.7109L41.5082 36.7025L40.6841 36.136ZM40.6845 36.1354L39.8662 35.5605L39.8605 35.5689L40.6845 36.1354ZM41.0136 35.6685L41.8293 36.247L43.1187 34.4287L40.9032 34.6746L41.0136 35.6685ZM37.7739 35.8739L37.7801 34.8739L37.7733 34.8739L37.7739 35.8739ZM30.5799 35.0418L29.5818 35.1032L29.6274 35.8452L30.3511 36.0153L30.5799 35.0418ZM22.6999 31.9937L22.2185 32.8702L22.8661 33.2259L23.3963 32.7113L22.6999 31.9937ZM16.1273 27.1599L15.3967 26.4771L14.7236 27.1973L15.4341 27.8806L16.1273 27.1599ZM16.8356 18.3111L16.1501 17.583L15.5317 18.1652L16.0062 18.8697L16.8356 18.3111ZM21.9283 14.395L22.6503 13.703L22.0897 13.1182L21.4012 13.5452L21.9283 14.395ZM31.6716 22.8892L32.6534 23.0788L32.7737 22.456L32.2616 22.0818L31.6716 22.8892ZM39.6477 27.6524L40.1949 26.8154L39.5811 26.414L39.0138 26.8789L39.6477 27.6524ZM40.5953 28.1973L40.1213 29.0778L40.1346 29.085L40.1481 29.0918L40.5953 28.1973ZM40.5954 28.1974L41.1254 27.3494L41.0851 27.3242L41.0426 27.3029L40.5954 28.1974ZM40.8045 28.328L40.2745 29.176L40.3004 29.1923L40.3274 29.2069L40.8045 28.328ZM41.7189 28.8244L41.2418 29.7033L41.2485 29.7069L41.2553 29.7105L41.7189 28.8244ZM43.9658 30.0002L43.5022 30.8862L44.5427 31.4306L44.9144 30.3167L43.9658 30.0002ZM44.8019 27.1523L44.365 28.0518L45.3566 26.3202L44.8019 27.1523ZM44.7235 27.1001L45.2782 26.268L44.025 25.4326L43.7414 26.9118L44.7235 27.1001ZM43.8874 26.7082L43.4452 27.6051L43.4505 27.6077L43.8874 26.7082ZM42.1892 25.8709L41.6345 26.703L41.6887 26.7391L41.747 26.7679L42.1892 25.8709ZM41.2521 25.2462L40.2939 24.9601L40.0824 25.6683L40.6974 26.0782L41.2521 25.2462ZM33.8151 20.969C34.5215 20.3012 35.4719 19.8932 36.5198 19.8932V17.8932C34.9409 17.8932 33.504 18.5108 32.4412 19.5156L33.8151 20.969ZM23.9384 13.5789C26.588 16.3047 29.4645 18.8042 32.5383 21.0497L33.7181 19.4348C30.7352 17.2557 27.9437 14.8301 25.3726 12.1849L23.9384 13.5789ZM39.834 8.41101C34.3314 8.43179 29.0096 9.62017 24.2133 11.985L25.0977 13.7788C29.6035 11.5572 34.6227 10.4307 39.8415 10.411L39.834 8.41101ZM35.317 6.29065C36.674 7.3131 37.9493 8.66555 39.0601 10.0397L40.6154 8.78234C39.4487 7.33908 38.0569 5.85091 36.5205 4.6933L35.317 6.29065ZM24.4718 9.18629C28.2606 7.58821 31.875 6.74333 35.9803 6.49008L35.8572 4.49387C31.5278 4.76095 27.6921 5.65738 23.6945 7.3435L24.4718 9.18629ZM22.0374 10.3576C22.8325 9.93251 23.6466 9.54074 24.4778 9.18371L23.6885 7.34607C22.805 7.72558 21.9396 8.14201 21.0944 8.59389L22.0374 10.3576ZM15.8359 2.44049C17.3002 5.14858 18.7455 7.69601 20.8032 10.1225L22.3286 8.82897C20.4161 6.57375 19.0538 4.18666 17.5952 1.4892L15.8359 2.44049ZM14.0101 4.04346C14.8696 3.63429 16.0577 3.20602 17.0027 2.92272L16.4284 1.00696C15.4216 1.30879 14.1307 1.77098 13.1505 2.23765L14.0101 4.04346ZM19.7042 10.404C17.6727 7.96621 15.9496 5.46782 14.4633 2.67125L12.6973 3.60986C14.2555 6.54176 16.0588 9.15359 18.1677 11.6844L19.7042 10.404ZM14.1581 16.3114C15.7715 14.6396 17.5594 13.154 19.4877 11.8782L18.3842 10.2102C16.3345 11.5663 14.4339 13.1455 12.7189 14.9226L14.1581 16.3114ZM10.9154 16.1579C11.681 16.1579 12.4116 16.2977 13.0847 16.5523L13.7923 14.6817C12.8966 14.3429 11.9264 14.1579 10.9154 14.1579V16.1579ZM9.01227 16.4586C9.61011 16.2637 10.2494 16.1579 10.9154 16.1579V14.1579C10.0362 14.1579 9.18782 14.2977 8.39225 14.5572L9.01227 16.4586ZM6.05402 8.33947C6.32226 10.9005 6.89524 13.4198 7.76044 15.844L9.64407 15.1718C8.83236 12.8974 8.29479 10.5338 8.04313 8.13113L6.05402 8.33947ZM5.03381 12.5353C5.80914 11.2334 6.72787 10.0223 7.7728 8.92486L6.32435 7.54573C5.17643 8.75135 4.16717 10.0817 3.31542 11.512L5.03381 12.5353ZM6.42633 17.3689C5.84661 15.5819 5.4245 13.7471 5.16504 11.8856L3.18419 12.1617C3.45979 14.139 3.90815 16.0878 4.52393 17.986L6.42633 17.3689ZM4.78271 22.2905C4.78271 20.7773 5.32952 19.3943 6.23752 18.3246L4.71274 17.0303C3.50948 18.4479 2.78271 20.2856 2.78271 22.2905H4.78271ZM6.67017 26.7163C5.50565 25.599 4.78271 24.0301 4.78271 22.2905H2.78271C2.78271 24.597 3.74419 26.6807 5.2855 28.1595L6.67017 26.7163ZM4.75643 34.5085C5.2566 32.3702 6.07481 29.9149 6.90794 27.8052L5.04774 27.0706C4.18994 29.2427 3.33739 31.794 2.809 34.053L4.75643 34.5085ZM6.19012 36.0681C5.62312 35.3436 5.10829 34.5796 4.64953 33.7821L2.91589 34.7794C3.42187 35.659 3.98969 36.5015 4.61505 37.3007L6.19012 36.0681ZM7.5637 37.693C7.07545 37.1803 6.65524 36.6625 6.19009 36.0681L4.61508 37.3007C5.09049 37.9082 5.55859 38.4876 6.11542 39.0723L7.5637 37.693ZM8.61797 28.9068C7.40113 31.8315 6.47969 35.1288 5.85955 38.1837L7.81957 38.5816C8.42109 35.6184 9.3095 32.4512 10.4645 29.6751L8.61797 28.9068ZM10.9154 28.4232C10.51 28.4232 10.1147 28.384 9.7328 28.3094L9.34971 30.2724C9.85712 30.3714 10.3807 30.4232 10.9154 30.4232V28.4232ZM12.1 28.309C11.7175 28.3838 11.3215 28.4232 10.9154 28.4232V30.4232C11.451 30.4232 11.9755 30.3712 12.4838 30.2719L12.1 28.309ZM16.6147 31.864C15.4335 30.9672 14.1221 29.7202 13.0033 28.5877L11.5805 29.9932C12.7165 31.1431 14.108 32.472 15.4054 33.457L16.6147 31.864ZM21.7576 35.0049C19.9436 34.129 18.2203 33.0764 16.6127 31.8624L15.4075 33.4585C17.1199 34.7516 18.9556 35.8728 20.8879 36.8059L21.7576 35.0049ZM20.3302 36.0276C20.6739 38.8203 23.0529 40.9821 25.9382 40.9821V38.9821C24.0754 38.9821 22.5371 37.5859 22.3152 35.7833L20.3302 36.0276ZM25.9382 40.9821C27.5271 40.9821 28.9642 40.325 29.9897 39.2704L28.5558 37.8762C27.8913 38.5595 26.965 38.9821 25.9382 38.9821V40.9821ZM38.1103 38.1935C35.215 38.3543 32.311 38.1523 29.4659 37.5921L29.0796 39.5545C32.0883 40.1468 35.1594 40.3605 38.2213 40.1904L38.1103 38.1935ZM39.8659 35.5611C39.0838 36.6742 38.4176 37.6159 37.495 38.4503L38.8366 39.9336C39.9504 38.9263 40.7365 37.8009 41.5023 36.7108L39.8659 35.5611ZM39.8605 35.5689L39.8601 35.5694L41.5082 36.7025L41.5085 36.7019L39.8605 35.5689ZM40.1978 35.0901C40.0851 35.249 39.9745 35.4065 39.8663 35.5605L41.5027 36.7103C41.6114 36.5557 41.7195 36.4018 41.8293 36.247L40.1978 35.0901ZM37.7677 36.8738C38.9959 36.8814 39.9492 36.7928 41.1239 36.6624L40.9032 34.6746C39.753 34.8023 38.891 34.8807 37.7801 34.8739L37.7677 36.8738ZM30.3511 36.0153C32.7841 36.5873 35.2752 36.8754 37.7745 36.8739L37.7733 34.8739C35.4284 34.8753 33.0914 34.605 30.8088 34.0684L30.3511 36.0153ZM31.5781 34.9805C31.3963 32.0228 28.9411 29.6809 25.9382 29.6809V31.6809C27.8777 31.6809 29.4645 33.1939 29.5818 35.1032L31.5781 34.9805ZM25.9382 29.6809C24.409 29.6809 23.0199 30.2897 22.0035 31.276L23.3963 32.7113C24.0546 32.0726 24.9497 31.6809 25.9382 31.6809V29.6809ZM15.4341 27.8806C17.4662 29.8351 19.7473 31.5128 22.2185 32.8702L23.1814 31.1172C20.8645 29.8445 18.7257 28.2716 16.8205 26.4392L15.4341 27.8806ZM17.048 22.2905C17.048 23.9096 16.4219 25.3802 15.3967 26.4771L16.8579 27.8427C18.2155 26.3901 19.048 24.4364 19.048 22.2905H17.048ZM16.0062 18.8697C16.664 19.8465 17.048 21.0222 17.048 22.2905H19.048C19.048 20.6118 18.5383 19.0491 17.665 17.7525L16.0062 18.8697ZM21.4012 13.5452C19.5429 14.6978 17.7849 16.0439 16.1501 17.583L17.5211 19.0392C19.0582 17.592 20.7101 16.3273 22.4554 15.2448L21.4012 13.5452ZM32.2616 22.0818C28.8931 19.6202 25.5867 16.7668 22.6503 13.703L21.2064 15.0869C24.2296 18.2411 27.6254 21.1709 31.0816 23.6966L32.2616 22.0818ZM32.5818 23.8312C32.5818 23.573 32.6065 23.3216 32.6534 23.0788L30.6897 22.6995C30.6188 23.0666 30.5818 23.4451 30.5818 23.8312H32.5818ZM36.5198 27.7692C34.3449 27.7692 32.5818 26.0061 32.5818 23.8312H30.5818C30.5818 27.1107 33.2403 29.7692 36.5198 29.7692V27.7692ZM39.0138 26.8789C38.3344 27.4358 37.4674 27.7692 36.5198 27.7692V29.7692C37.9463 29.7692 39.2577 29.2649 40.2816 28.4258L39.0138 26.8789ZM41.0694 27.3169C40.7392 27.139 40.454 26.9848 40.1949 26.8154L39.1005 28.4893C39.4431 28.7134 39.8047 28.9074 40.1213 29.0778L41.0694 27.3169ZM41.0426 27.3029L41.0426 27.3029L40.1481 29.0918L40.1482 29.0918L41.0426 27.3029ZM41.1255 27.3494L41.1254 27.3494L40.0654 29.0454L40.0655 29.0454L41.1255 27.3494ZM41.3345 27.48L41.1255 27.3494L40.0655 29.0454L40.2745 29.176L41.3345 27.48ZM42.196 27.9456L41.2816 27.4492L40.3274 29.2069L41.2418 29.7033L42.196 27.9456ZM44.4294 29.1141L42.1825 27.9384L41.2553 29.7105L43.5022 30.8862L44.4294 29.1141ZM43.7389 26.9246C43.5596 27.8592 43.3185 28.7809 43.0172 29.6836L44.9144 30.3167C45.2436 29.3301 45.5071 28.3229 45.7031 27.3015L43.7389 26.9246ZM45.2388 26.2528L45.1579 26.2135L44.2841 28.0126L44.365 28.0518L45.2388 26.2528ZM44.1688 27.9321L44.2472 27.9844L45.3566 26.3202L45.2782 26.268L44.1688 27.9321ZM45.7031 27.3013L45.7056 27.2884L43.7414 26.9118L43.7389 26.9247L45.7031 27.3013ZM43.4505 27.6077L44.2841 28.0125L45.1579 26.2135L44.3243 25.8087L43.4505 27.6077ZM41.747 26.7679L43.4453 27.6051L44.3296 25.8112L42.6314 24.974L41.747 26.7679ZM40.6974 26.0782L41.6345 26.703L42.7439 25.0389L41.8068 24.4141L40.6974 26.0782ZM40.4578 23.8312C40.4578 24.225 40.4003 24.6037 40.2939 24.9601L42.2103 25.5323C42.3715 24.9922 42.4578 24.4209 42.4578 23.8312H40.4578ZM36.5198 19.8932C38.6947 19.8932 40.4578 21.6563 40.4578 23.8312H42.4578C42.4578 20.5518 39.7993 17.8932 36.5198 17.8932V19.8932Z" fill="#666666"/>
</svg>
