<svg width="38" height="44" viewBox="0 0 38 44" fill="none" xmlns="http://www.w3.org/2000/svg">
<path d="M8.0036 21.4078L8.02457 21.3963L8.04497 21.3838L12.2253 18.8199L19.0505 14.7306L25.8512 18.8039L29.4735 21.3495L29.539 21.3955L29.611 21.4306L33.7707 23.4542V30.132L19.0506 38.7792L4.33984 30.1321V23.4203L8.0036 21.4078Z" stroke="#666666" stroke-width="2"/>
<path d="M25.89 26.8876L25.8899 26.8877L19.0505 30.9044L12.2139 26.888L12.2135 26.8877L8.02915 24.4265L8.029 24.4264L5.31226 22.8291L19.0506 14.7451L32.7979 22.8294L30.0821 24.4261L30.0816 24.4264L25.89 26.8876Z" fill="white" stroke="#666666" stroke-width="2"/>
<path d="M38.0002 32.2873V12.0772L37.0002 12.6648M38.0002 32.2873L37.0002 12.6648M38.0002 32.2873C38.0009 32.5296 37.9378 32.7679 37.8173 32.9781C37.6968 33.1884 37.5231 33.3632 37.3137 33.485L38.0002 32.2873ZM37.0002 12.6648L20.0552 22.6226V42.4708L36.8069 32.6229L36.8109 32.6206C36.8685 32.5871 36.9164 32.5389 36.9497 32.4809C36.9829 32.4228 37.0004 32.357 37.0002 32.29L37.0002 32.2873L37.0002 12.6648ZM19.7583 43.8043L19.7584 43.8045L19.7583 43.8043Z" stroke="white" stroke-width="2"/>
<path d="M36.0304 10.9204L19.0325 20.8836L2.07937 10.9201L18.8669 1.05243C18.8676 1.05205 18.8683 1.05167 18.8689 1.05129C18.9278 1.01767 18.9944 1 19.0621 1C19.1298 1 19.1963 1.01765 19.2551 1.05122C19.2558 1.05162 19.2565 1.05203 19.2572 1.05243L36.0304 10.9204Z" stroke="white" stroke-width="2"/>
<path d="M18.075 42.4734L1.28012 32.6178L1.27632 32.6156C1.21811 32.5818 1.16994 32.5333 1.13656 32.4752C1.10319 32.417 1.08575 32.3512 1.08594 32.2843V32.2815V12.6385L18.075 22.6085V42.4734Z" stroke="white" stroke-width="2"/>
<path d="M37 32.2882L37 32.2909C37.0001 32.3579 36.9827 32.4237 36.9494 32.4818C36.9162 32.5398 36.8683 32.588 36.8106 32.6215L36.8067 32.6238L19.2564 42.9411C19.2452 42.9374 19.2317 42.9324 19.2159 42.9257C19.1809 42.911 19.1398 42.8905 19.0931 42.8635L1.49945 32.6909C1.19036 32.5121 1 32.1822 1 31.8252V12.1543C1 11.7971 1.19063 11.4669 1.50006 11.2883L18.5459 1.44852C18.8577 1.26852 19.2422 1.27004 19.5526 1.45249L20.0593 0.590402L19.5526 1.45249L36.8518 11.6214C36.8979 11.6486 36.9356 11.6739 36.9655 11.6969C36.9797 11.7078 36.991 11.7174 37 11.7255L37 32.2882Z" stroke="#666666" stroke-width="2"/>
<path d="M36.0309 10.9204L19.033 20.8836L2.07986 10.9201L18.8674 1.05243C18.8681 1.05205 18.8688 1.05167 18.8694 1.05129C18.9283 1.01767 18.9948 1 19.0626 1C19.1303 1 19.1968 1.01765 19.2556 1.05122C19.2563 1.05162 19.257 1.05203 19.2577 1.05243L36.0309 10.9204Z" stroke="#666666" stroke-width="2" stroke-linejoin="round"/>
<line x1="19.0742" y1="43" x2="19.0742" y2="21" stroke="#666666" stroke-width="2"/>
</svg>
