<svg width="44" height="44" viewBox="0 0 44 44" fill="none" xmlns="http://www.w3.org/2000/svg">
<mask id="path-1-inside-1_4517_2015" fill="white">
<path fill-rule="evenodd" clip-rule="evenodd" d="M0.000235349 3.8819H11.0001C13.4053 3.8819 14.4749 3.88187 15.3452 3.88186C16.6757 3.88183 17.5405 3.88181 22 3.8819V25.8343L22.0258 25.8084L32.3787 15.4556C32.4294 15.4038 32.4944 15.3685 32.5654 15.354C32.6364 15.3396 32.71 15.3468 32.7769 15.3747C32.8438 15.4025 32.9007 15.4498 32.9405 15.5103C32.9802 15.5709 33.0009 15.642 32.9998 15.7144V25.8343L43.3786 15.4556C43.4292 15.4038 43.4943 15.3685 43.5652 15.354C43.6362 15.3396 43.7099 15.3468 43.7768 15.3747C43.8436 15.4025 43.9006 15.4498 43.9404 15.5103C43.9801 15.5709 44.0008 15.642 43.9997 15.7144V42.5282C44.0032 42.7229 43.9675 42.9164 43.8946 43.0969C43.8217 43.2775 43.7131 43.4415 43.5754 43.5792C43.4377 43.7169 43.2737 43.8255 43.0931 43.8984C42.9126 43.9713 42.7191 44.007 42.5244 44.0035H11.2589V43.9991H1.47551C1.28081 44.0026 1.0874 43.9669 0.906824 43.894C0.726249 43.8211 0.562216 43.7125 0.424518 43.5748C0.286821 43.4371 0.178283 43.2731 0.105386 43.0925C0.0324882 42.9119 -0.00327366 42.7185 0.000235349 42.5238V18.557V3.8819Z"/>
</mask>
<path d="M0.000235349 3.8819V1.8819H-1.99976V3.8819H0.000235349ZM15.3452 3.88186L15.3452 5.88186L15.3452 3.88186ZM22 3.8819H24V1.88193L22 1.8819L22 3.8819ZM22 25.8343H20V30.6627L23.4142 27.2485L22 25.8343ZM22.0258 25.8084L23.4401 27.2226L22.0258 25.8084ZM32.3787 15.4556L33.7929 16.8698L33.8002 16.8625L33.8074 16.8551L32.3787 15.4556ZM32.5654 15.354L32.1671 13.3941L32.167 13.3941L32.5654 15.354ZM32.7769 15.3747L32.0076 17.2208L32.0077 17.2208L32.7769 15.3747ZM32.9405 15.5103L34.6126 14.4131L34.6126 14.413L32.9405 15.5103ZM32.9998 15.7144L31 15.6853L30.9998 15.6999V15.7144H32.9998ZM32.9998 25.8343H30.9998V30.6627L34.4141 27.2485L32.9998 25.8343ZM43.3786 15.4556L44.7928 16.8698L44.8001 16.8625L44.8073 16.8551L43.3786 15.4556ZM43.5652 15.354L43.167 13.3941L43.1669 13.3941L43.5652 15.354ZM43.7768 15.3747L43.0075 17.2208L43.0075 17.2208L43.7768 15.3747ZM43.9404 15.5103L42.2682 16.6076L42.2683 16.6076L43.9404 15.5103ZM43.9997 15.7144L41.9999 15.6853L41.9997 15.6999V15.7144H43.9997ZM43.9997 42.5282H41.9997V42.5462L42 42.5642L43.9997 42.5282ZM43.8946 43.0969L42.04 42.3482L42.04 42.3483L43.8946 43.0969ZM43.5754 43.5792L42.1612 42.165L42.1612 42.165L43.5754 43.5792ZM43.0931 43.8984L43.8418 45.7529L43.8418 45.7529L43.0931 43.8984ZM42.5244 44.0035L42.5605 42.0038L42.5425 42.0035H42.5244V44.0035ZM11.2589 44.0035H9.25889V46.0035H11.2589V44.0035ZM11.2589 43.9991H13.2589V41.9991H11.2589V43.9991ZM1.47551 43.9991V41.9991H1.45749L1.43947 41.9994L1.47551 43.9991ZM0.906824 43.894L0.158123 45.7485L0.158157 45.7486L0.906824 43.894ZM0.424518 43.5748L-0.989703 44.989L-0.989684 44.9891L0.424518 43.5748ZM0.105386 43.0925L-1.7492 43.8412L-1.74919 43.8412L0.105386 43.0925ZM0.000235349 42.5238L1.99991 42.5599L2.00024 42.5419V42.5238H0.000235349ZM11.0001 1.8819H0.000235349V5.8819H11.0001V1.8819ZM15.3451 1.88186C14.4748 1.88187 13.4053 1.8819 11.0001 1.8819V5.8819C13.4053 5.8819 14.4749 5.88187 15.3452 5.88186L15.3451 1.88186ZM22 1.8819C17.5405 1.88181 16.6757 1.88183 15.3451 1.88186L15.3452 5.88186C16.6757 5.88183 17.5405 5.88181 22 5.8819L22 1.8819ZM24 25.8343V3.8819H20V25.8343H24ZM20.6116 24.3942L20.5858 24.42L23.4142 27.2485L23.4401 27.2226L20.6116 24.3942ZM30.9645 14.0414L20.6116 24.3942L23.4401 27.2226L33.7929 16.8698L30.9645 14.0414ZM32.167 13.3941C31.7044 13.4881 31.2804 13.7187 30.9499 14.0561L33.8074 16.8551C33.5783 17.089 33.2844 17.2488 32.9637 17.314L32.167 13.3941ZM33.5462 13.5285C33.1102 13.3469 32.6298 13.3001 32.1671 13.3941L32.9636 17.314C32.6429 17.3792 32.3099 17.3467 32.0076 17.2208L33.5462 13.5285ZM34.6126 14.413C34.3535 14.0183 33.982 13.7101 33.5461 13.5285L32.0077 17.2208C31.7055 17.0949 31.448 16.8813 31.2684 16.6076L34.6126 14.413ZM34.9996 15.7435C35.0065 15.2713 34.8717 14.8079 34.6126 14.4131L31.2683 16.6076C31.0887 16.3338 30.9953 16.0126 31 15.6853L34.9996 15.7435ZM34.9998 25.8343V15.7144H30.9998V25.8343H34.9998ZM41.9643 14.0414L31.5856 24.4201L34.4141 27.2485L44.7928 16.8698L41.9643 14.0414ZM43.1669 13.3941C42.7042 13.4882 42.2802 13.7187 41.9498 14.0561L44.8073 16.8551C44.5783 17.0889 44.2844 17.2488 43.9636 17.314L43.1669 13.3941ZM44.546 13.5285C44.1101 13.3469 43.6297 13.3001 43.167 13.3941L43.9635 17.314C43.6427 17.3792 43.3097 17.3467 43.0075 17.2208L44.546 13.5285ZM45.6125 14.413C45.3534 14.0182 44.9819 13.7101 44.546 13.5285L43.0075 17.2208C42.7054 17.0949 42.4479 16.8813 42.2682 16.6076L45.6125 14.413ZM45.9995 15.7435C46.0064 15.2713 45.8716 14.8079 45.6125 14.413L42.2683 16.6076C42.0886 16.3339 41.9952 16.0126 41.9999 15.6853L45.9995 15.7435ZM45.9997 42.5282V15.7144H41.9997V42.5282H45.9997ZM45.7491 43.8456C45.9226 43.4159 46.0077 42.9556 45.9994 42.4922L42 42.5642C41.9987 42.4903 42.0123 42.4169 42.04 42.3482L45.7491 43.8456ZM44.9896 44.9935C45.3174 44.6658 45.5757 44.2754 45.7492 43.8456L42.04 42.3483C42.0677 42.2797 42.1089 42.2173 42.1612 42.165L44.9896 44.9935ZM43.8418 45.7529C44.2715 45.5795 44.6619 45.3212 44.9897 44.9934L42.1612 42.165C42.2135 42.1127 42.2759 42.0715 42.3444 42.0438L43.8418 45.7529ZM42.4884 46.0032C42.9518 46.0115 43.4121 45.9264 43.8418 45.7529L42.3444 42.0438C42.4131 42.0161 42.4865 42.0025 42.5605 42.0038L42.4884 46.0032ZM11.2589 46.0035H42.5244V42.0035H11.2589V46.0035ZM9.25889 43.9991V44.0035H13.2589V43.9991H9.25889ZM1.47551 45.9991H11.2589V41.9991H1.47551V45.9991ZM0.158157 45.7486C0.587886 45.922 1.04818 46.0071 1.51156 45.9988L1.43947 41.9994C1.51344 41.9981 1.58691 42.0117 1.65549 42.0394L0.158157 45.7486ZM-0.989684 44.9891C-0.661991 45.3167 -0.271621 45.5751 0.158123 45.7485L1.65552 42.0394C1.72412 42.0671 1.78642 42.1083 1.83872 42.1606L-0.989684 44.9891ZM-1.74919 43.8412C-1.57571 44.271 -1.31741 44.6613 -0.989703 44.989L1.83874 42.1606C1.89105 42.2129 1.93227 42.2752 1.95996 42.3438L-1.74919 43.8412ZM-1.99944 42.4878C-2.00779 42.9512 -1.92268 43.4115 -1.7492 43.8412L1.95997 42.3438C1.98766 42.4124 2.00124 42.4859 1.99991 42.5599L-1.99944 42.4878ZM-1.99976 18.557V42.5238H2.00024V18.557H-1.99976ZM-1.99976 3.8819V18.557H2.00024V3.8819H-1.99976Z" fill="#666666" mask="url(#path-1-inside-1_4517_2015)"/>
<path d="M37.2706 32.2715H32.8448C32.4446 32.2715 32.1201 32.5959 32.1201 32.9962V37.422C32.1201 37.8223 32.4446 38.1467 32.8448 38.1467H37.2706C37.6709 38.1467 37.9953 37.8223 37.9953 37.422V32.9962C37.9953 32.5959 37.6709 32.2715 37.2706 32.2715Z" stroke="#666666" stroke-width="2"/>
<path d="M27.0724 32.2715H22.6466C22.2463 32.2715 21.9219 32.5959 21.9219 32.9962V37.422C21.9219 37.8223 22.2463 38.1467 22.6466 38.1467H27.0724C27.4726 38.1467 27.7971 37.8223 27.7971 37.422V32.9962C27.7971 32.5959 27.4726 32.2715 27.0724 32.2715Z" stroke="#666666" stroke-width="2"/>
<path d="M16.8751 32.2715H12.4493C12.0491 32.2715 11.7246 32.5959 11.7246 32.9962V37.422C11.7246 37.8223 12.0491 38.1467 12.4493 38.1467H16.8751C17.2754 38.1467 17.5998 37.8223 17.5998 37.422V32.9962C17.5998 32.5959 17.2754 32.2715 16.8751 32.2715Z" stroke="#666666" stroke-width="2"/>
<path d="M20.9998 3.88231C20.9998 4.03013 20.9202 4.30125 20.4854 4.67407C20.0541 5.04394 19.3711 5.42241 18.4398 5.76012C16.5854 6.43251 13.9561 6.86815 10.9999 6.86815C8.03687 6.86815 5.40705 6.45667 3.55455 5.79699C2.62438 5.46576 1.94582 5.09147 1.51813 4.72102C1.09311 4.35287 1 4.06877 1 3.88231C1 3.69908 1.08983 3.42336 1.51049 3.06633C1.93566 2.70547 2.61235 2.34272 3.5436 2.02322C5.3978 1.38706 8.0307 1 10.9999 1C13.9555 1 16.5874 1.43547 18.4452 2.09704C19.3787 2.42945 20.0643 2.80051 20.4971 3.16026C20.9387 3.52737 20.9998 3.7773 20.9998 3.88231Z" fill="white" stroke="#666666" stroke-width="2"/>
</svg>
