<svg width="44" height="44" viewBox="0 0 44 44" fill="none" xmlns="http://www.w3.org/2000/svg">
<path d="M1.00388 34.9427C1.00666 34.4823 1.01056 34.0274 1.01425 33.6467L42.7148 33.2756C42.7121 33.6754 42.7086 34.1539 42.704 34.6364C42.6982 35.2368 42.6909 35.8407 42.6819 36.306C42.6774 36.5394 42.6726 36.7334 42.6675 36.8732C42.6654 36.9294 42.6634 36.9729 42.6617 37.0047C42.5181 37.5175 42.0677 38.1596 41.0906 38.8582C40.0921 39.5722 38.6353 40.2773 36.6866 40.9104C26.7865 43.682 16.26 43.6967 6.35142 40.9527C4.56715 40.3508 3.2539 39.6857 2.36858 39.017C1.49332 38.356 1.11796 37.756 1.01425 37.2798C1.01406 37.2685 1.0111 37.2217 1.0085 37.1198C1.00492 36.9794 1.00255 36.7881 1.00125 36.5598C0.998654 36.1044 1.00038 35.5208 1.00388 34.9427ZM42.6578 37.0582C42.6578 37.058 42.6581 37.0535 42.659 37.0458C42.6583 37.0546 42.6579 37.0585 42.6578 37.0582ZM42.6782 36.9405L42.6767 36.947C42.6772 36.9448 42.6777 36.9427 42.6782 36.9405Z" fill="white" stroke="#666666" stroke-width="2"/>
<path d="M42.9274 32.191C42.9333 32.7503 42.5983 33.4486 41.6099 34.2369C40.6337 35.0156 39.155 35.7661 37.2355 36.4212C33.4072 37.7279 28.0451 38.5818 22.0673 38.6391C16.0896 38.6964 10.7107 37.9456 6.85567 36.7126C4.92282 36.0944 3.42858 35.3724 2.43624 34.6126C1.43156 33.8434 1.08195 33.1516 1.07607 32.5923C1.0702 32.033 1.40521 31.3347 2.39353 30.5463C3.36972 29.7677 4.84849 29.0172 6.76796 28.362C10.5963 27.0554 15.9584 26.2015 21.9361 26.1442C27.9138 26.0868 33.2928 26.8377 37.1478 28.0707C39.0806 28.6889 40.5749 29.4109 41.5672 30.1707C42.5719 30.9399 42.9215 31.6317 42.9274 32.191Z" fill="white" stroke="#666666" stroke-width="2"/>
<path d="M24.688 33.0724L25.379 33.7952L24.688 33.0724C24.6484 33.1102 24.5868 33.1392 24.5137 33.1416H5.98526C5.91357 33.1416 5.85336 33.1139 5.81575 33.078C5.77967 33.0435 5.76825 33.0065 5.76825 32.978V1.16356V1.15452L5.76808 1.14549C5.76766 1.12222 5.77629 1.09064 5.80737 1.05982C5.83902 1.02844 5.89082 1.00257 5.95436 1H24.5243C24.596 1 24.6562 1.02765 24.6938 1.0636C24.7299 1.0981 24.7413 1.13504 24.7413 1.16356V32.9651C24.7396 32.9975 24.7254 33.0366 24.688 33.0724Z" fill="white" stroke="#666666" stroke-width="2"/>
<path d="M7.34384 11.964L7.34384 11.9645C7.34091 12.3201 7.4113 12.6721 7.55036 13.0004C7.6894 13.3286 7.89407 13.6259 8.15153 13.8759C8.40894 14.1259 8.71412 14.3238 9.0491 14.4594C9.38405 14.595 9.74292 14.6659 10.1054 14.6686V14.6686H10.1091L20.6353 14.6687L20.6384 14.6686C21.3711 14.664 22.0763 14.3826 22.5992 13.8794C23.1228 13.3754 23.421 12.689 23.421 11.9686V11.9271V11.9199L23.4208 11.9127C23.4105 11.5571 23.3271 11.2076 23.1759 10.8844C23.0247 10.5612 22.8092 10.2712 22.5426 10.0303C22.2761 9.78938 21.9638 9.6021 21.624 9.47813C21.2864 9.35498 20.9275 9.29642 20.5674 9.30531H10.1091V9.3053L10.1054 9.30533C9.38227 9.31072 8.68612 9.58737 8.16805 10.0821C7.64924 10.5776 7.35048 11.2529 7.34384 11.964ZM10.0931 8.18083L10.1011 8.18109H10.1091H20.6156C21.3454 8.18608 22.0517 7.91438 22.5787 7.41901C23.104 6.92507 23.4085 6.248 23.4183 5.53372C23.4199 5.50011 23.4198 5.46644 23.418 5.43283C23.4069 5.07967 23.3235 4.73265 23.1733 4.41153C23.0222 4.08836 22.8066 3.79835 22.5401 3.5574C22.2736 3.31649 21.9613 3.12922 21.6214 3.00525C21.2839 2.8821 20.925 2.82354 20.5649 2.83242H10.1091H10.1011L10.0931 2.83268C9.3803 2.85553 8.70032 3.14227 8.19806 3.63884C7.69511 4.1361 7.40986 4.80546 7.40986 5.50676C7.40986 6.20805 7.69511 6.87741 8.19806 7.37467C8.70032 7.87124 9.3803 8.15798 10.0931 8.18083Z" stroke="#666666"/>
<path d="M10.2269 4.03906C10.5303 4.03906 10.8269 4.12508 11.0792 4.28624C11.3315 4.4474 11.5281 4.67646 11.6442 4.94446C11.7603 5.21246 11.7907 5.50736 11.7315 5.79186C11.6723 6.07637 11.5262 6.3377 11.3117 6.54282C11.0971 6.74794 10.8238 6.88762 10.5262 6.94421C10.2286 7.00081 9.92018 6.97176 9.63987 6.86075C9.35956 6.74974 9.11997 6.56176 8.95141 6.32056C8.78284 6.07937 8.69287 5.79581 8.69287 5.50573C8.69287 5.31312 8.73255 5.1224 8.80964 4.94446C8.88674 4.76652 8.99973 4.60483 9.14218 4.46864C9.28463 4.33245 9.45375 4.22441 9.63987 4.15071C9.82599 4.077 10.0255 4.03906 10.2269 4.03906ZM8.69287 11.9615C8.69287 12.2516 8.78284 12.5352 8.95141 12.7763C9.11997 13.0175 9.35956 13.2055 9.63987 13.3165C9.92018 13.4275 10.2286 13.4566 10.5262 13.4C10.8238 13.3434 11.0971 13.2037 11.3117 12.9986C11.5262 12.7935 11.6723 12.5321 11.7315 12.2476C11.7907 11.9631 11.7603 11.6682 11.6442 11.4002C11.5281 11.1322 11.3315 10.9032 11.0792 10.742C10.8269 10.5809 10.5303 10.4948 10.2269 10.4948C9.82007 10.4948 9.42988 10.6494 9.14218 10.9244C8.85449 11.1995 8.69287 11.5725 8.69287 11.9615Z" fill="#707070"/>
<path d="M42.0768 27.5272L42.0775 27.4979L42.0765 27.4686C42.0123 25.5981 41.2567 23.8174 39.9551 22.441C38.8374 21.2589 37.3796 20.4405 35.7827 20.0785C35.4686 17.8519 34.3513 15.7979 32.6217 14.2776C30.6954 12.5843 28.1616 11.6853 25.5632 11.7602C23.4703 11.7191 21.4112 12.2955 19.6661 13.4162C18.081 14.4341 16.8228 15.8578 16.0349 17.5269C14.001 17.8828 12.1312 18.8658 10.7183 20.3423C9.171 21.9594 8.27508 24.0615 8.20509 26.2686L8.20395 26.3046L8.20541 26.3407C8.30524 28.8115 9.42551 31.1333 11.3044 32.8011C13.1774 34.4637 15.6532 35.3437 18.1902 35.2618H33.9591H33.9669L33.9747 35.2617C36.0893 35.2287 38.1168 34.4147 39.63 32.9778C41.1447 31.5396 42.0268 29.5873 42.0768 27.5272Z" fill="white" stroke="#666666" stroke-width="2"/>
<path d="M32.77 28.2678V21.4063H30.7834V29.8274H36.017V28.2776L32.77 28.2678ZM17.6059 24.897C17.2146 24.7338 16.8482 24.5209 16.5167 24.2638C16.4308 24.1768 16.3639 24.0742 16.32 23.9622C16.2761 23.8501 16.2561 23.7308 16.261 23.6112C16.255 23.4911 16.2814 23.3715 16.3379 23.264C16.3943 23.1565 16.4788 23.0648 16.5832 22.9976C16.8449 22.8218 17.1612 22.7356 17.4806 22.7532C18.2401 22.7265 18.9885 22.9339 19.6155 23.3447V21.5896C18.9283 21.368 18.2055 21.2645 17.4806 21.2841C16.6462 21.2433 15.8228 21.4809 15.1514 21.9563C14.8686 22.1743 14.6426 22.452 14.4909 22.7675C14.3392 23.083 14.2659 23.4279 14.277 23.775C14.3119 24.3292 14.5227 24.8601 14.8813 25.2968C15.2399 25.7335 15.7292 26.0554 16.284 26.2194C16.752 26.4037 17.1901 26.6506 17.5854 26.9527C17.6852 27.0328 17.7657 27.1327 17.8213 27.2453C17.8769 27.358 17.9063 27.4808 17.9076 27.6054C17.9136 27.7255 17.8871 27.8451 17.8307 27.9526C17.7742 28.0601 17.6898 28.1518 17.5854 28.219C17.2999 28.3952 16.9634 28.4808 16.6241 28.4634C15.773 28.4567 14.9541 28.1514 14.323 27.6054V29.4852C15.0077 29.8055 15.7621 29.9664 16.5243 29.9545C17.3853 30.0181 18.245 29.8177 18.9788 29.3825C19.2789 29.1679 19.5195 28.8865 19.68 28.5627C19.8404 28.239 19.9156 27.8826 19.8993 27.5247C19.9196 27.0002 19.7283 26.4882 19.3649 26.0947C18.8759 25.5787 18.2758 25.1701 17.6059 24.897ZM28.6357 28.1163C29.1182 27.3383 29.3627 26.4465 29.3414 25.5423C29.3692 24.7494 29.1853 23.9628 28.807 23.2567C28.4808 22.6266 27.9689 22.1015 27.3343 21.7461C26.6435 21.3656 25.8524 21.184 25.0562 21.223C24.3055 21.2547 23.5735 21.4575 22.9213 21.8145C22.2536 22.1835 21.712 22.7294 21.3617 23.3863C20.9814 24.1081 20.7835 24.9052 20.7839 25.7134C20.7712 26.4569 20.9466 27.1924 21.2952 27.8572C21.6263 28.4785 22.1284 29.0017 22.7475 29.3703C23.3922 29.7438 24.1287 29.9479 24.8824 29.9618L26.6977 32.003H29.2544L26.713 29.7565C27.5309 29.4356 28.2094 28.8568 28.6357 28.1163ZM26.6491 27.6054C26.4514 27.8312 26.2039 28.0125 25.9244 28.1362C25.6449 28.26 25.3403 28.3232 25.0322 28.3213C24.7242 28.3194 24.4205 28.2525 24.1426 28.1254C23.8648 27.9983 23.6197 27.814 23.425 27.5858C22.9775 26.9945 22.7653 26.2699 22.8267 25.5423C22.7641 24.8124 22.9843 24.0859 23.4455 23.5012C23.6353 23.2577 23.884 23.0618 24.1703 22.9302C24.4566 22.7987 24.772 22.7354 25.0895 22.7459C25.3984 22.7346 25.7053 22.7979 25.9819 22.9299C26.2585 23.0619 26.4959 23.2584 26.6721 23.5012C27.1123 24.095 27.3237 24.8163 27.2704 25.5423C27.3354 26.2834 27.1104 27.0212 26.6389 27.6127L26.6491 27.6054Z" fill="#666666"/>
</svg>
