<svg width="34" height="44" viewBox="0 0 34 44" fill="none" xmlns="http://www.w3.org/2000/svg">
<path d="M33 6C33 6.41386 32.7645 6.94789 32.0234 7.56617C31.2881 8.17963 30.1642 8.77713 28.6877 9.29843C25.7438 10.3378 21.6116 11 17 11C12.3841 11 8.25146 10.3626 5.30873 9.33598C3.83297 8.82113 2.71202 8.22747 1.97913 7.61194C1.24492 6.9953 1 6.44833 1 6C1 5.55167 1.24492 5.0047 1.97913 4.38806C2.71202 3.77253 3.83297 3.17887 5.30873 2.66402C8.25146 1.63739 12.3841 1 17 1C21.6159 1 25.7485 1.63739 28.6913 2.66402C30.167 3.17887 31.288 3.77253 32.0209 4.38806C32.7551 5.0047 33 5.55167 33 6Z" stroke="#666666" stroke-width="2"/>
<path d="M1 5.77984C1 5.17547 1.34126 4.55221 2.24213 3.91291C3.1468 3.27092 4.48168 2.71832 6.11535 2.27309C9.36969 1.38618 13.5249 1 17.0001 1C20.4776 1 24.6327 1.3748 27.8863 2.25584C29.5196 2.69812 30.8532 3.2491 31.7567 3.89221C32.6545 4.53117 33 5.15997 33 5.77984V37.9598C33 38.4166 32.7521 38.9693 32.0183 39.5898C31.2854 40.2095 30.1646 40.807 28.6893 41.3251C25.7473 42.3584 21.6153 43 17 43H16.7642C12.206 42.9742 8.13473 42.3015 5.23833 41.2593C3.78552 40.7366 2.68177 40.1399 1.96019 39.5283C1.23428 38.913 1 38.3792 1 37.9598V5.77984Z" stroke="#666666" stroke-width="2"/>
<g clip-path="url(#clip0_4517_4108)">
<path d="M16.4218 30.1685C16.3415 33.0389 16.4419 35.9294 16.7228 36.6319C17.0039 37.3344 17.6053 38.7008 19.6735 38.2577C21.4014 37.8873 22.0301 37.1704 22.3029 35.5881C22.5039 34.4239 22.8912 31.1908 22.9409 30.5283" stroke="#666666" stroke-width="1.5" stroke-linecap="round" stroke-linejoin="round"/>
<path d="M13.943 15.7784C13.943 15.7784 4.57942 11.9514 5.01472 20.6543C5.1073 22.5058 7.66858 34.6638 10.7233 30.9915C11.8396 29.6485 12.8492 28.5952 12.8492 28.5952" stroke="#666666" stroke-width="1.5" stroke-linecap="round" stroke-linejoin="round"/>
<path d="M19.0004 15.0802C18.6763 15.1819 24.209 13.0577 27.3533 17.0754C28.464 18.4948 27.1769 24.2939 24.0981 28.8626" stroke="#666666" stroke-width="1.5" stroke-linecap="round" stroke-linejoin="round"/>
<path d="M24.0983 28.8622C24.0983 28.8622 24.299 29.8498 27.2151 29.2479C28.4928 28.984 27.7238 29.9884 26.428 30.5902C25.3645 31.0837 22.9802 31.2102 22.9413 30.5282C22.8411 28.7685 24.1961 29.3031 24.0983 28.8622ZM24.0983 28.8622C24.0099 28.4651 23.404 28.0753 23.0031 27.1035C22.6531 26.2552 18.2033 19.7499 24.2371 20.716C24.4582 20.6703 22.6634 14.9768 17.0167 14.8842C11.3711 14.7916 11.5564 21.8269 11.5564 21.8269" stroke="#666666" stroke-width="1.5" stroke-linecap="round" stroke-linejoin="bevel"/>
<path d="M14.8415 29.464C14.0544 30.3432 14.2859 30.4976 12.7126 30.8216C11.1208 31.1497 12.056 31.7336 12.6664 31.8862C13.4066 32.0714 15.119 32.3336 16.276 30.7135C16.6284 30.2202 16.274 29.4331 15.79 29.2325C15.5561 29.1356 15.2434 29.0142 14.8415 29.464Z" stroke="#666666" stroke-width="1.5" stroke-linecap="round" stroke-linejoin="round"/>
<path d="M14.7902 29.4488C14.7109 28.9319 14.96 28.3167 15.2271 27.5971C15.6283 26.5173 16.5542 25.4374 15.8136 22.0122C15.2615 19.4598 11.5587 21.481 11.5564 21.8271C11.5541 22.1731 11.7239 23.5813 11.4945 25.2212C11.1953 27.3611 12.8562 29.1709 14.7687 28.9857" stroke="#666666" stroke-width="1.5" stroke-linecap="round" stroke-linejoin="round"/>
<path d="M13.909 21.7756C13.8924 21.8938 14.1255 22.2092 14.4294 22.2514C14.7328 22.2937 14.9925 22.0472 15.009 21.9291C15.0255 21.8109 14.7926 21.6807 14.4886 21.6384C14.185 21.596 13.9252 21.6577 13.9091 21.7756H13.909Z" fill="#666666"/>
<path d="M23.1509 21.5334C23.1674 21.6516 22.9346 21.967 22.6306 22.0092C22.3269 22.0515 22.0672 21.805 22.0506 21.6869C22.0345 21.5687 22.2674 21.4385 22.5711 21.3962C22.8748 21.3538 23.1345 21.4155 23.1509 21.5334V21.5334Z" fill="#666666"/>
<path d="M24.2369 20.7163C24.287 21.6435 24.0372 22.275 24.0057 23.262C23.9591 24.6967 24.6897 26.3388 23.5889 27.9829" stroke="#666666" stroke-width="1.5" stroke-linecap="round" stroke-linejoin="round"/>
</g>
<defs>
<clipPath id="clip0_4517_4108">
<rect width="25" height="25" fill="white" transform="translate(4 14)"/>
</clipPath>
</defs>
</svg>
