<svg width="46" height="42" viewBox="0 0 46 42" fill="none" xmlns="http://www.w3.org/2000/svg">
<path d="M1.53333 1H44.4667C44.7821 1 45 1.24446 45 1.5V28.5C45 28.7555 44.7821 29 44.4667 29H1.53333C1.21795 29 1 28.7555 1 28.5V1.5C1 1.24446 1.21795 1 1.53333 1Z" stroke="#666666" stroke-width="2"/>
<path d="M32.0691 40.4146L32.0919 40.4182L32.1148 40.4208C32.4951 40.4631 32.8478 40.646 33.1042 40.936C33.1227 40.9569 33.1405 40.9782 33.1578 41H12.8422C12.8595 40.9782 12.8773 40.9569 12.8958 40.936C13.1522 40.646 13.5049 40.4631 13.8852 40.4208L13.9081 40.4182L13.9309 40.4146C15.2736 40.2019 16.3398 39.6321 17.1535 38.775C17.9529 37.933 18.4609 36.8647 18.7921 35.7182C19.3633 33.7411 19.459 31.3338 19.474 29H26.5007C26.5171 31.3355 26.6184 33.7429 27.1959 35.7209C27.5306 36.8675 28.0422 37.9351 28.8438 38.7764C29.6595 39.6324 30.7266 40.202 32.0691 40.4146Z" stroke="#666666" stroke-width="2"/>
<path d="M15.5156 10.3295L14.7948 9.89578L23 5.15492L31.2052 9.89578L30.4844 10.3295L23.4844 14.5414L23 14.8329L22.5156 14.5414L15.5156 10.3295Z" stroke="#666666" stroke-width="2"/>
</svg>
