<svg width="44" height="38" viewBox="0 0 44 38" fill="none" xmlns="http://www.w3.org/2000/svg">
<path d="M36.6334 9.03157L36.669 9.86829L37.499 9.98011C38.9844 10.1802 40.3546 10.9109 41.3636 12.0459C42.3657 13.1733 42.946 14.6263 42.9992 16.1493C42.9316 17.8277 42.2332 19.4132 41.0518 20.5796C39.8632 21.753 38.278 22.4117 36.6278 22.4233L36.4903 22.4242L36.3582 22.4622C36.316 22.4744 36.2727 22.4812 36.2292 22.4826H21.3563H21.2888L21.222 22.4916C21.0335 22.5172 20.8323 22.5187 20.5464 22.5187H20.5286L20.5108 22.5193C18.4311 22.5934 16.4042 21.8272 14.8746 20.3834C13.3525 18.9467 12.4463 16.9552 12.3566 14.8396C12.4208 12.9608 13.1412 11.1687 14.3856 9.78415C15.6372 8.39164 17.3354 7.50387 19.171 7.27739L19.7779 7.20251L19.9878 6.62814C20.6018 4.94784 21.7132 3.5058 23.1656 2.49943C24.6177 1.49321 26.3396 0.971529 28.0933 1.00431L28.1184 1.00478L28.1434 1.00399C30.3059 0.93611 32.4106 1.7368 34.0008 3.23752C35.5916 4.73876 36.5393 6.82003 36.6334 9.03157Z" stroke="#666666" stroke-width="2"/>
<path d="M27.9522 9.60208C28.013 9.58071 28.0688 9.54674 28.116 9.50232C28.1632 9.4579 28.2008 9.40401 28.2264 9.34405M27.9522 9.60208L28.2264 9.34405M27.9522 9.60208C27.8914 9.62505 27.8267 9.63558 27.7618 9.63305L27.9522 9.60208ZM28.2264 9.34405L27.7969 9.16039L27.7924 9.15845L27.7924 9.15844L27.7833 9.15455L27.7806 9.15339L27.7739 9.15053M28.2264 9.34405L27.7971 9.16089L27.7931 9.15916L27.793 9.15916L27.7835 9.15507L27.7805 9.15382L27.7728 9.15053M27.7739 9.15053H27.7807H27.7818H27.7849H27.7935H28.2671L27.7916 9.14528L27.7809 9.14516L27.7799 9.14515L27.7797 9.14515L27.7618 9.14495L27.7608 9.14494M27.7739 9.15053L27.7618 9.14538L27.7608 9.14494M27.7739 9.15053H27.7728M27.7608 9.14494L27.307 8.95088C27.3351 8.885 27.377 8.82462 27.4307 8.77408C27.479 8.72857 27.5361 8.69196 27.5991 8.66675C27.6025 8.66538 27.606 8.66403 27.6095 8.66273M27.7608 9.14494L27.7597 9.14493M27.6095 8.66273C27.6132 8.66142 27.6169 8.66016 27.6206 8.65894C27.6661 8.64404 27.7137 8.63553 27.7618 8.63376C27.7748 8.63329 27.7878 8.6333 27.8008 8.63381L27.7813 8.63305H27.7618C27.6123 8.63305 27.4467 8.63517 27.2671 8.64107V9.15053H27.7618H27.7728M27.6095 8.66273C27.6131 8.66135 27.6168 8.66001 27.6205 8.65871L27.6097 8.6625L27.599 8.66654C27.6025 8.66523 27.606 8.66396 27.6095 8.66273ZM27.7728 9.15053L27.7618 9.14584L27.7597 9.14493M27.7597 9.14493L27.2671 9.13949C27.2678 9.07529 27.2811 9.01148 27.3066 8.95165L27.7597 9.14493ZM33.7634 10.1774L29.7833 6.25715L33.7634 10.1774Z" stroke="#666666" stroke-width="2"/>
<path d="M22.5939 25.8231L22.6297 26.6582L23.4579 26.7712L24.4988 26.9131L24.5 26.9133C25.6837 27.0732 26.7752 27.6586 27.576 28.5681C28.3734 29.4739 28.8293 30.6412 28.8586 31.8613C28.8378 33.2231 28.2955 34.5201 27.3513 35.4777C26.405 36.4374 25.1305 36.9802 23.8009 36.9955H7.81188H7.7944L7.77694 36.9961C6.91624 37.0262 6.05786 36.8832 5.25093 36.5749C4.44396 36.2667 3.70382 35.7991 3.07338 35.1981C2.44291 34.5971 1.93458 33.8746 1.57838 33.0715C1.22636 32.2779 1.02997 31.4216 1.00056 30.5507C1.05934 28.9983 1.65921 27.5197 2.6899 26.3788C3.72715 25.2307 5.13163 24.5007 6.64781 24.3166L6.64781 24.3166L6.65162 24.3161L7.41326 24.2207L8.03098 24.1432L8.23414 23.5548L8.48628 22.8244C8.99753 21.3949 9.93378 20.1659 11.1617 19.3067C12.3908 18.4467 13.8515 17.9995 15.3399 18.0253L15.3485 18.0254H15.3572H15.413H15.4279L15.4427 18.025C17.2524 17.9713 19.0132 18.6433 20.3438 19.9007C21.6751 21.1587 22.4688 22.902 22.5483 24.7549L22.5939 25.8231Z" fill="white" stroke="#666666" stroke-width="2"/>
</svg>
