<svg width="44" height="44" viewBox="0 0 44 44" fill="none" xmlns="http://www.w3.org/2000/svg">
<mask id="path-1-inside-1_4517_4110" fill="white">
<path d="M6 12C5.94117 12.0003 5.88285 11.989 5.82844 11.9666C5.77402 11.9443 5.72458 11.9113 5.68298 11.8697C5.64138 11.8281 5.60845 11.7787 5.58609 11.7243C5.56373 11.6699 5.55239 11.6116 5.55273 11.5527C5.55071 10.1993 5.01217 8.90187 4.05515 7.94485C3.09812 6.98783 1.8007 6.44929 0.447268 6.44727C0.329084 6.44727 0.215703 6.4005 0.131897 6.31717C0.0480906 6.23384 0.000671499 6.12072 0 6.00254C0 5.88392 0.0471227 5.77015 0.131002 5.68628C0.214881 5.6024 0.328645 5.55527 0.447268 5.55527C1.80114 5.55326 3.09895 5.01436 4.05604 4.05679C5.01314 3.09922 5.55138 1.80115 5.55273 0.447275C5.55239 0.388445 5.56373 0.330132 5.58609 0.275715C5.60845 0.221298 5.64138 0.171857 5.68298 0.130257C5.72458 0.0886574 5.77402 0.0557247 5.82844 0.0333668C5.88285 0.0110089 5.94117 -0.000329841 6 7.30334e-06C6.05883 -0.000329841 6.11714 0.0110089 6.17156 0.0333668C6.22597 0.0557247 6.27541 0.0886574 6.31701 0.130257C6.35861 0.171857 6.39155 0.221298 6.41391 0.275715C6.43626 0.330132 6.4476 0.388445 6.44726 0.447275C6.44928 1.80071 6.98782 3.09813 7.94485 4.05515C8.90187 5.01217 10.1993 5.55072 11.5527 5.55273C11.6116 5.5524 11.6699 5.56373 11.7243 5.58609C11.7787 5.60845 11.8281 5.64138 11.8697 5.68298C11.9113 5.72458 11.9443 5.77402 11.9666 5.82844C11.989 5.88286 12.0003 5.94117 12 6C12.0003 6.05883 11.989 6.11714 11.9666 6.17156C11.9443 6.22598 11.9113 6.27542 11.8697 6.31702C11.8281 6.35862 11.7787 6.39155 11.7243 6.41391C11.6699 6.43627 11.6116 6.44761 11.5527 6.44727C10.1991 6.44861 8.90127 6.98694 7.94411 7.94411C6.98694 8.90128 6.44861 10.1991 6.44726 11.5527C6.4466 11.6711 6.39926 11.7845 6.31553 11.8683C6.23179 11.952 6.11841 11.9993 6 12Z"/>
</mask>
<path d="M6 12L5.98873 10L5.98854 10L6 12ZM5.55273 11.5527L7.5527 11.5642L7.55274 11.557L7.55273 11.5497L5.55273 11.5527ZM0.447268 6.44727L0.450248 4.44727H0.447236L0.447268 6.44727ZM0 6.00254H-2.00003L-1.99997 6.01391L0 6.00254ZM0.447268 5.55527V7.55528L0.450249 7.55527L0.447268 5.55527ZM5.55273 0.447275L7.55277 0.449261L7.5527 0.435813L5.55273 0.447275ZM6 7.30334e-06L5.98854 1.99997L6 2.00004L6.01146 1.99997L6 7.30334e-06ZM6.44726 0.447275L4.4473 0.435813L4.44726 0.443034L4.44727 0.450255L6.44726 0.447275ZM11.5527 5.55273L11.5497 7.55273L11.557 7.55274L11.5642 7.5527L11.5527 5.55273ZM12 6L10 5.98854L9.99996 6L10 6.01146L12 6ZM11.5527 6.44727L11.5642 4.44726L11.5507 4.44727L11.5527 6.44727ZM6.44726 11.5527L8.44725 11.564L8.44726 11.5547L6.44726 11.5527ZM5.98854 10C6.19427 9.99885 6.39819 10.0385 6.58851 10.1167L5.06837 13.8166C5.36751 13.9395 5.68807 14.0018 6.01146 14L5.98854 10ZM6.58851 10.1167C6.77881 10.1949 6.95171 10.31 7.09719 10.4555L4.26877 13.284C4.49745 13.5126 4.76923 13.6937 5.06837 13.8166L6.58851 10.1167ZM7.09719 10.4555C7.24267 10.601 7.35784 10.7739 7.43603 10.9642L3.73614 12.4844C3.85905 12.7835 4.04008 13.0553 4.26877 13.284L7.09719 10.4555ZM7.43603 10.9642C7.51422 11.1545 7.55388 11.3585 7.5527 11.5642L3.55276 11.5413C3.55091 11.8647 3.61324 12.1852 3.73614 12.4844L7.43603 10.9642ZM7.55273 11.5497C7.54992 9.66691 6.80073 7.862 5.46936 6.53064L2.64093 9.35906C3.22361 9.94174 3.5515 10.7317 3.55273 11.5557L7.55273 11.5497ZM5.46936 6.53064C4.13799 5.19927 2.33308 4.45008 0.450248 4.44727L0.444288 8.44727C1.26832 8.44849 2.05825 8.77638 2.64093 9.35906L5.46936 6.53064ZM0.447236 4.44727C0.857522 4.44726 1.25113 4.60964 1.54208 4.89893L-1.27828 7.7354C-0.819727 8.19135 -0.199353 8.44728 0.4473 8.44727L0.447236 4.44727ZM1.54208 4.89893C1.83302 5.18822 1.99764 5.5809 1.99997 5.99118L-1.99997 6.01391C-1.99629 6.66055 -1.73684 7.27945 -1.27828 7.7354L1.54208 4.89893ZM2 6.00254C2 6.41435 1.83641 6.8093 1.54521 7.10049L-1.28321 4.27206C-1.74216 4.73101 -2 5.35348 -2 6.00254H2ZM1.54521 7.10049C1.25402 7.39168 0.859077 7.55527 0.447268 7.55527V3.55527C-0.201787 3.55527 -0.824259 3.81311 -1.28321 4.27206L1.54521 7.10049ZM0.450249 7.55527C2.33369 7.55246 4.13914 6.80278 5.47061 5.47065L2.64148 2.64293C2.05875 3.22595 1.26859 3.55405 0.444287 3.55528L0.450249 7.55527ZM5.47061 5.47065C6.80207 4.13853 7.55086 2.33271 7.55273 0.449261L3.55273 0.445289C3.55191 1.26959 3.2242 2.05992 2.64148 2.64293L5.47061 5.47065ZM7.5527 0.435813C7.55388 0.641544 7.51422 0.845472 7.43603 1.03578L3.73614 -0.484355C3.61324 -0.185208 3.55091 0.135345 3.55276 0.458736L7.5527 0.435813ZM7.43603 1.03578C7.35784 1.22609 7.24267 1.39899 7.09719 1.54447L4.26877 -1.28396C4.04008 -1.05528 3.85905 -0.783495 3.73614 -0.484355L7.43603 1.03578ZM7.09719 1.54447C6.95171 1.68995 6.77881 1.80512 6.58851 1.88331L5.06837 -1.81658C4.76923 -1.69367 4.49745 -1.51264 4.26877 -1.28396L7.09719 1.54447ZM6.58851 1.88331C6.3982 1.9615 6.19427 2.00115 5.98854 1.99997L6.01146 -1.99996C5.68806 -2.00181 5.36751 -1.93948 5.06837 -1.81658L6.58851 1.88331ZM6.01146 1.99997C5.80572 2.00115 5.60179 1.9615 5.41149 1.88331L6.93163 -1.81658C6.63249 -1.93948 6.31193 -2.00181 5.98854 -1.99996L6.01146 1.99997ZM5.41149 1.88331C5.22118 1.80512 5.04828 1.68995 4.9028 1.54447L7.73123 -1.28396C7.50255 -1.51264 7.23077 -1.69367 6.93163 -1.81658L5.41149 1.88331ZM4.9028 1.54447C4.75732 1.39899 4.64215 1.22609 4.56396 1.03578L8.26385 -0.484355C8.14094 -0.783495 7.95991 -1.05528 7.73123 -1.28396L4.9028 1.54447ZM4.56396 1.03578C4.48577 0.845485 4.44612 0.641558 4.4473 0.435813L8.44723 0.458736C8.44909 0.135331 8.38675 -0.185221 8.26385 -0.484355L4.56396 1.03578ZM4.44727 0.450255C4.45007 2.33309 5.19927 4.138 6.53063 5.46937L9.35906 2.64094C8.77638 2.05826 8.44849 1.26833 8.44726 0.444295L4.44727 0.450255ZM6.53063 5.46937C7.862 6.80073 9.66691 7.54993 11.5497 7.55273L11.5557 3.55274C10.7317 3.55151 9.94174 3.22362 9.35906 2.64094L6.53063 5.46937ZM11.5642 7.5527C11.3585 7.55388 11.1545 7.51423 10.9642 7.43604L12.4844 3.73615C12.1852 3.61324 11.8647 3.55091 11.5413 3.55277L11.5642 7.5527ZM10.9642 7.43604C10.7739 7.35785 10.601 7.24268 10.4555 7.0972L13.284 4.26877C13.0553 4.04009 12.7835 3.85905 12.4844 3.73615L10.9642 7.43604ZM10.4555 7.0972C10.3101 6.95172 10.1949 6.77882 10.1167 6.58851L13.8166 5.06837C13.6937 4.76923 13.5126 4.49745 13.284 4.26877L10.4555 7.0972ZM10.1167 6.58851C10.0385 6.3982 9.99885 6.19427 10 5.98854L14 6.01146C14.0018 5.68807 13.9395 5.36752 13.8166 5.06837L10.1167 6.58851ZM10 6.01146C9.99885 5.80573 10.0385 5.6018 10.1167 5.41149L13.8166 6.93163C13.9395 6.63248 14.0018 6.31193 14 5.98854L10 6.01146ZM10.1167 5.41149C10.1949 5.22119 10.3101 5.04829 10.4555 4.9028L13.284 7.73123C13.5126 7.50255 13.6937 7.23077 13.8166 6.93163L10.1167 5.41149ZM10.4555 4.9028C10.601 4.75732 10.7739 4.64215 10.9642 4.56396L12.4844 8.26385C12.7835 8.14095 13.0553 7.95991 13.284 7.73123L10.4555 4.9028ZM10.9642 4.56396C11.1545 4.48578 11.3584 4.44612 11.5642 4.4473L11.5413 8.44724C11.8647 8.44909 12.1852 8.38676 12.4844 8.26385L10.9642 4.56396ZM11.5507 4.44727C9.66735 4.44914 7.86165 5.19814 6.52989 6.52989L9.35832 9.35832C9.9409 8.77574 10.7308 8.44809 11.5547 8.44727L11.5507 4.44727ZM6.52989 6.52989C5.19814 7.86165 4.44914 9.66736 4.44727 11.5507L8.44726 11.5547C8.44808 10.7308 8.77574 9.9409 9.35832 9.35832L6.52989 6.52989ZM4.4473 11.5415C4.4496 11.1334 4.61274 10.7426 4.90131 10.454L7.72974 13.2825C8.18579 12.8264 8.4436 12.2089 8.44723 11.564L4.4473 11.5415ZM4.90131 10.454C5.1899 10.1655 5.58064 10.0023 5.98873 10L6.01126 14C6.65619 13.9963 7.27368 13.7385 7.72974 13.2825L4.90131 10.454Z" fill="#666666" mask="url(#path-1-inside-1_4517_4110)"/>
<mask id="path-3-inside-2_4517_4110" fill="white">
<path d="M39 44C38.901 44 38.8061 43.9607 38.7361 43.8907C38.6661 43.8207 38.6268 43.7257 38.6268 43.6267C38.6254 42.4987 38.1768 41.4173 37.3794 40.6197C36.582 39.8221 35.5009 39.3734 34.3732 39.372C34.2747 39.372 34.1802 39.333 34.1102 39.2636C34.0403 39.1941 34.0007 39.0999 34 39.0013C34 38.9023 34.0393 38.8074 34.1093 38.7374C34.1793 38.6673 34.2742 38.628 34.3732 38.628C35.5011 38.6273 36.5826 38.1788 37.3802 37.3811C38.1777 36.5833 38.6261 35.5015 38.6268 34.3733C38.6268 34.2743 38.6661 34.1794 38.7361 34.1093C38.8061 34.0393 38.901 34 39 34C39.099 34 39.1939 34.0393 39.2639 34.1093C39.3339 34.1794 39.3732 34.2743 39.3732 34.3733C39.3739 35.5015 39.8223 36.5833 40.6198 37.3811C41.4174 38.1788 42.4989 38.6273 43.6268 38.628C43.7258 38.628 43.8207 38.6673 43.8907 38.7374C43.9607 38.8074 44 38.9023 44 39.0013C44 39.1003 43.9607 39.1953 43.8907 39.2653C43.8207 39.3353 43.7258 39.3746 43.6268 39.3746C42.4991 39.376 41.418 39.8247 40.6206 40.6224C39.8232 41.42 39.3746 42.5014 39.3732 43.6293C39.3725 43.7279 39.3329 43.8222 39.263 43.8916C39.1931 43.961 39.0985 44 39 44Z"/>
</mask>
<path d="M39 44L39.0001 42H39V44ZM38.6268 43.6267H40.6268L40.6268 43.6242L38.6268 43.6267ZM34.3732 39.372L34.3757 37.372H34.3732L34.3732 39.372ZM34 39.0013H32V39.0084L32.0001 39.0155L34 39.0013ZM34.3732 38.628V40.628L34.3745 40.628L34.3732 38.628ZM38.6268 34.3733L40.6268 34.3746V34.3733H38.6268ZM39 34V36V34ZM39.3732 34.3733H37.3732L37.3732 34.3746L39.3732 34.3733ZM43.6268 38.628L43.6255 40.628H43.6268V38.628ZM43.6268 39.3746V37.3746L43.6243 37.3746L43.6268 39.3746ZM39.3732 43.6293L41.3732 43.6435L41.3732 43.6318L39.3732 43.6293ZM39 42C39.4316 42 39.8455 42.1715 40.1505 42.4766L37.3217 45.3047C37.7667 45.7498 38.3704 46 39 46V42ZM40.1505 42.4766C40.4555 42.7817 40.6268 43.1954 40.6268 43.6267H36.6268C36.6268 44.256 36.8767 44.8596 37.3217 45.3047L40.1505 42.4766ZM40.6268 43.6242C40.6247 41.9668 39.9656 40.3778 38.7938 39.2057L35.965 42.0337C36.388 42.4568 36.626 43.0306 36.6268 43.6292L40.6268 43.6242ZM38.7938 39.2057C37.622 38.0336 36.0331 37.3741 34.3757 37.372L34.3707 41.372C34.9687 41.3727 35.542 41.6107 35.965 42.0337L38.7938 39.2057ZM34.3732 37.372C34.8028 37.372 35.2149 37.5419 35.5196 37.8445L32.7009 40.6826C33.1454 41.1241 33.7466 41.372 34.3733 41.372L34.3732 37.372ZM35.5196 37.8445C35.8243 38.1472 35.9969 38.5579 35.9999 38.9871L32.0001 39.0155C32.0045 39.6419 32.2564 40.2411 32.7009 40.6826L35.5196 37.8445ZM36 39.0013C36 39.4326 35.8287 39.8463 35.5237 40.1514L32.6949 37.3233C32.2499 37.7684 32 38.3721 32 39.0013H36ZM35.5237 40.1514C35.2187 40.4565 34.8048 40.628 34.3732 40.628V36.628C33.7436 36.628 33.1399 36.8782 32.6949 37.3233L35.5237 40.1514ZM34.3745 40.628C36.0325 40.627 37.6223 39.9677 38.7946 38.7951L35.9658 35.967C35.5429 36.39 34.9697 36.6276 34.372 36.628L34.3745 40.628ZM38.7946 38.7951C39.9668 37.6225 40.6258 36.0326 40.6268 34.3746L36.6268 34.3721C36.6264 34.9704 36.3886 35.5441 35.9658 35.967L38.7946 38.7951ZM40.6268 34.3733C40.6268 34.8046 40.4555 35.2183 40.1505 35.5234L37.3217 32.6953C36.8767 33.1404 36.6268 33.744 36.6268 34.3733H40.6268ZM40.1505 35.5234C39.8455 35.8285 39.4316 36 39 36V32C38.3704 32 37.7667 32.2502 37.3217 32.6953L40.1505 35.5234ZM39 36C38.5684 36 38.1545 35.8285 37.8495 35.5234L40.6783 32.6953C40.2333 32.2502 39.6296 32 39 32V36ZM37.8495 35.5234C37.5445 35.2183 37.3732 34.8046 37.3732 34.3733H41.3732C41.3732 33.744 41.1233 33.1404 40.6783 32.6953L37.8495 35.5234ZM37.3732 34.3746C37.3742 36.0326 38.0332 37.6225 39.2054 38.7951L42.0342 35.967C41.6114 35.5441 41.3736 34.9704 41.3732 34.3721L37.3732 34.3746ZM39.2054 38.7951C40.3777 39.9677 41.9675 40.627 43.6255 40.628L43.628 36.628C43.0303 36.6276 42.4571 36.39 42.0342 35.967L39.2054 38.7951ZM43.6268 40.628C43.1952 40.628 42.7813 40.4565 42.4763 40.1514L45.3051 37.3233C44.8601 36.8782 44.2564 36.628 43.6268 36.628V40.628ZM42.4763 40.1514C42.1713 39.8463 42 39.4326 42 39.0013H46C46 38.3721 45.7501 37.7684 45.3051 37.3233L42.4763 40.1514ZM42 39.0013C42 38.5701 42.1713 38.1564 42.4763 37.8513L45.3051 40.6793C45.7501 40.2342 46 39.6306 46 39.0013H42ZM42.4763 37.8513C42.7813 37.5461 43.1952 37.3746 43.6268 37.3746V41.3746C44.2564 41.3746 44.8601 41.1245 45.3051 40.6793L42.4763 37.8513ZM43.6243 37.3746C41.9669 37.3767 40.378 38.0362 39.2062 39.2083L42.035 42.0364C42.458 41.6133 43.0313 41.3754 43.6293 41.3746L43.6243 37.3746ZM39.2062 39.2083C38.0344 40.3804 37.3753 41.9695 37.3732 43.6269L41.3732 43.6318C41.374 43.0332 41.612 42.4595 42.035 42.0364L39.2062 39.2083ZM37.3733 43.6152C37.3763 43.1859 37.5489 42.7752 37.8536 42.4725L40.6723 45.3106C41.1169 44.8692 41.3687 44.2699 41.3732 43.6435L37.3733 43.6152ZM37.8536 42.4725C38.1583 42.1699 38.5704 42 39.0001 42L38.9999 46C39.6266 46 40.2278 45.7522 40.6723 45.3106L37.8536 42.4725Z" fill="#666666" mask="url(#path-3-inside-2_4517_4110)"/>
<path d="M36.4973 18.3008C37.1882 21.1929 37.0061 24.225 35.9738 27.0136C34.9415 29.8023 33.1054 32.2221 30.6978 33.9673C28.2903 35.7124 25.4192 36.7044 22.4479 36.8178C19.4765 36.9313 16.5382 36.161 14.0046 34.6045C11.4709 33.048 9.45576 30.7752 8.21386 28.0734C6.97197 25.3716 6.55915 22.3622 7.02759 19.4258C7.49603 16.4894 8.8247 13.7578 10.8456 11.5766C12.8665 9.39527 15.4888 7.86223 18.381 7.17131C22.2592 6.24481 26.3466 6.89687 29.7441 8.98406C33.1416 11.0712 35.5708 14.4226 36.4973 18.3008Z" stroke="#666666" stroke-width="2"/>
<mask id="mask0_4517_4110" style="mask-type:luminance" maskUnits="userSpaceOnUse" x="5" y="5" width="33" height="33">
<path d="M37.4699 18.0665C38.2068 21.151 38.0125 24.3848 36.9116 27.3589C35.8106 30.3329 33.8525 32.9138 31.2847 34.775C28.717 36.6362 25.655 37.6942 22.486 37.8152C19.317 37.9361 16.1833 37.1147 13.4811 35.4546C10.779 33.7946 8.62975 31.3706 7.30526 28.4891C5.98076 25.6076 5.54047 22.3981 6.04007 19.2663C6.53968 16.1346 7.95672 13.2214 10.112 10.895C12.2673 8.56861 15.0641 6.93361 18.1486 6.19672C22.2848 5.2086 26.6441 5.90404 30.2675 8.13004C33.891 10.3561 36.4818 13.9303 37.4699 18.0665Z" fill="white"/>
</mask>
<g mask="url(#mask0_4517_4110)">
<path d="M13.3016 31.6633L13.2885 31.6629H13.2754H10.3732C8.99803 30.0794 7.96129 28.2294 7.32883 26.2265C6.74063 24.3638 6.51459 22.4085 6.6599 20.4659H8.96695V20.4659L8.97305 20.4659C9.85016 20.4605 10.6936 20.8032 11.3185 21.4187C11.9428 22.0335 12.2981 22.8706 12.3068 23.7467C12.307 23.8322 12.3027 23.9177 12.2938 24.0027L12.1764 25.1322L13.3116 25.1059C13.749 25.0958 14.184 25.1733 14.5909 25.3338C14.9979 25.4943 15.3687 25.7347 15.6814 26.0407C15.994 26.3467 16.2423 26.7122 16.4116 27.1156C16.5809 27.519 16.6678 27.9522 16.6671 28.3897C16.6665 28.8272 16.5783 29.2602 16.4077 29.6631C16.2372 30.066 15.9878 30.4307 15.6742 30.7357C15.3606 31.0408 14.9891 31.28 14.5816 31.4393C14.1741 31.5986 13.7389 31.6747 13.3016 31.6633Z" stroke="#666666" stroke-width="2"/>
<path d="M37.6496 18.6988C37.1328 15.9029 35.8627 13.3012 33.9761 11.174C33.7313 11.0749 33.4788 10.9962 33.221 10.9389C32.5345 10.743 31.8124 10.7055 31.1092 10.8291C30.4061 10.9527 29.7402 11.2343 29.1616 11.6526C28.583 12.071 28.1069 12.6151 27.7692 13.2441C27.4314 13.8731 27.2408 14.5705 27.2117 15.2839C27.0382 15.2639 26.8638 15.2525 26.6891 15.2499C25.619 15.2498 24.5832 15.6279 23.7647 16.3174C22.9463 17.0069 22.3978 17.9635 22.2162 19.0181C22.0346 20.0728 22.2315 21.1577 22.7722 22.0812C23.3129 23.0047 24.1626 23.7075 25.1711 24.0654C25.6213 24.2418 26.1011 24.3305 26.5846 24.3266H34.0232" stroke="#666666" stroke-width="2"/>
</g>
<path d="M32.4993 5.62912L32.5019 5.62873C37.7843 4.83805 41.3744 5.92257 42.8788 8.43969C44.3802 10.9589 43.6341 14.651 40.442 18.9409C36.8498 23.4538 32.4431 27.2449 27.453 30.1155L27.4529 30.1153L27.4413 30.1226C22.5548 33.1754 17.1403 35.2761 11.4808 36.3152C10.4295 36.4792 9.36755 36.5644 8.30368 36.5701L8.28288 36.5702L8.26222 36.5726C6.90317 36.7312 5.52648 36.5283 4.26976 35.9842C3.01886 35.4427 1.93033 34.5819 1.11208 33.487C-0.377294 30.9697 0.373651 27.2797 3.55168 23.0073L3.55171 23.0074L3.5548 23.0031C4.23652 22.0592 4.8131 21.3212 5.51735 20.5494C5.45142 21.6341 5.49602 22.7849 5.6019 23.8085C5.4856 23.901 5.34465 24.0407 5.18877 24.2509C3.94846 25.9181 3.10113 27.4924 2.69336 28.8788C2.2871 30.2599 2.30366 31.5065 2.87475 32.4598C3.44556 33.4126 4.53368 34.0163 5.93994 34.3103C7.35118 34.6054 9.13441 34.6011 11.1852 34.2926L11.1853 34.2928L11.198 34.2905C16.5893 33.2878 21.745 31.2754 26.3965 28.3581C31.1538 25.6284 35.3575 22.0232 38.7881 17.7308L38.7883 17.731L38.7966 17.7198C40.0365 16.0452 40.8838 14.469 41.2915 13.0822C41.6978 11.7001 41.681 10.4546 41.1104 9.49904L41.0932 9.47035L41.0713 9.44513C40.4086 8.68359 39.5667 8.10052 38.6223 7.74919C37.6861 7.40087 36.6786 7.29132 35.69 7.4302C34.7243 7.43784 33.7603 7.51663 32.806 7.66594C32.4815 7.71523 32.1528 7.80215 31.8395 7.88951C31.7813 7.90576 31.7237 7.92199 31.6666 7.93807C31.464 7.99515 31.2682 8.05031 31.0745 8.0976C30.1706 7.49268 29.1917 6.97445 28.1845 6.55206C29.6067 6.16312 31.0663 5.83327 32.4993 5.62912Z" fill="#666666" stroke="white" stroke-width="0.75"/>
</svg>
