<svg width="44" height="44" viewBox="0 0 44 44" fill="none" xmlns="http://www.w3.org/2000/svg">
<mask id="path-1-inside-1_4517_1794" fill="white">
<path fill-rule="evenodd" clip-rule="evenodd" d="M25.3339 11.4189C24.3099 12.145 23.0593 12.5717 21.709 12.5717C20.3629 12.5717 19.1158 12.1476 18.0936 11.4256L12.2086 15.6763C12.4345 16.3247 12.5572 17.0214 12.5572 17.7468C12.5572 19.896 11.4798 21.7933 9.83628 22.9269L12.2078 30.3123C15.4481 30.5608 18.0001 33.2718 18.0001 36.5796C18.0001 40.0512 15.189 42.8654 11.7215 42.8654C8.2539 42.8654 5.44287 40.0512 5.44287 36.5796C5.44287 34.2451 6.71397 32.2079 8.60106 31.1238L6.25843 24.0326C2.80013 24.0218 0 21.2117 0 17.7468C0 14.2752 2.81103 11.461 6.2786 11.461C7.6511 11.461 8.92075 11.9019 9.95393 12.6499L15.818 8.46524C15.5673 7.78626 15.4304 7.05206 15.4304 6.28585C15.4304 2.81427 18.2414 0 21.709 0C25.1766 0 27.9876 2.81427 27.9876 6.28585C27.9876 7.04899 27.8518 7.78037 27.603 8.45708L33.7696 12.8621C34.8487 11.9859 36.2238 11.461 37.7215 11.461C41.189 11.461 44.0001 14.2752 44.0001 17.7468C44.0001 21.2184 41.189 24.0327 37.7215 24.0327C34.2539 24.0327 31.4429 21.2184 31.4429 17.7468C31.4429 17.1361 31.5299 16.5458 31.6921 15.9875L25.3339 11.4189Z"/>
</mask>
<path d="M25.3339 11.4189L26.5009 9.7947L25.3416 8.96166L24.177 9.78745L25.3339 11.4189ZM18.0936 11.4256L19.2475 9.79203L18.0806 8.96785L16.9226 9.80432L18.0936 11.4256ZM12.2086 15.6763L11.0376 14.055L9.8299 14.9273L10.3199 16.3342L12.2086 15.6763ZM9.83628 22.9269L8.70076 21.2805L7.47787 22.1239L7.93205 23.5383L9.83628 22.9269ZM12.2078 30.3123L10.3036 30.9238L10.7146 32.2037L12.0549 32.3064L12.2078 30.3123ZM8.60106 31.1238L9.59735 32.858L11.0118 32.0453L10.5001 30.4964L8.60106 31.1238ZM6.25843 24.0326L8.15748 23.4053L7.70552 22.0372L6.26472 22.0327L6.25843 24.0326ZM9.95393 12.6499L8.78104 14.2699L9.94548 15.113L11.1157 14.2779L9.95393 12.6499ZM15.818 8.46524L16.9798 10.0932L18.2234 9.20575L17.6942 7.77249L15.818 8.46524ZM27.603 8.45708L25.7258 7.76694L25.1996 9.19815L26.4405 10.0845L27.603 8.45708ZM33.7696 12.8621L32.607 14.4895L33.8471 15.3753L35.0302 14.4148L33.7696 12.8621ZM31.6921 15.9875L33.6126 16.5456L34.0072 15.1882L32.8591 14.3633L31.6921 15.9875ZM21.709 14.5717C23.4873 14.5717 25.14 14.0082 26.4908 13.0504L24.177 9.78745C23.4799 10.2817 22.6312 10.5717 21.709 10.5717V14.5717ZM16.9398 13.0592C18.2883 14.0117 19.9362 14.5717 21.709 14.5717V10.5717C20.7897 10.5717 19.9433 10.2835 19.2475 9.79203L16.9398 13.0592ZM16.9226 9.80432L11.0376 14.055L13.3797 17.2976L19.2647 13.0469L16.9226 9.80432ZM10.3199 16.3342C10.4731 16.7739 10.5572 17.2484 10.5572 17.7468H14.5572C14.5572 16.7944 14.3958 15.8755 14.0973 15.0185L10.3199 16.3342ZM10.5572 17.7468C10.5572 19.2115 9.82567 20.5046 8.70076 21.2805L10.9718 24.5733C13.134 23.082 14.5572 20.5806 14.5572 17.7468H10.5572ZM7.93205 23.5383L10.3036 30.9238L14.112 29.7008L11.7405 22.3154L7.93205 23.5383ZM12.0549 32.3064C14.2591 32.4755 16.0001 34.3232 16.0001 36.5796H20.0001C20.0001 32.2205 16.6371 28.6461 12.3608 28.3182L12.0549 32.3064ZM16.0001 36.5796C16.0001 38.9488 14.0823 40.8654 11.7215 40.8654V44.8654C16.2958 44.8654 20.0001 41.1536 20.0001 36.5796H16.0001ZM11.7215 40.8654C9.36064 40.8654 7.44287 38.9488 7.44287 36.5796H3.44287C3.44287 41.1536 7.14715 44.8654 11.7215 44.8654V40.8654ZM7.44287 36.5796C7.44287 34.9893 8.30639 33.5996 9.59735 32.858L7.60477 29.3896C5.12155 30.8162 3.44287 33.501 3.44287 36.5796H7.44287ZM10.5001 30.4964L8.15748 23.4053L4.35937 24.66L6.70201 31.7511L10.5001 30.4964ZM6.26472 22.0327C3.91035 22.0252 2 20.1114 2 17.7468H-2C-2 22.312 1.68991 26.0183 6.25213 26.0326L6.26472 22.0327ZM2 17.7468C2 15.3776 3.91777 13.461 6.2786 13.461V9.46097C1.70428 9.46097 -2 13.1729 -2 17.7468H2ZM6.2786 13.461C7.21583 13.461 8.07749 13.7605 8.78104 14.2699L11.1268 11.0299C9.76401 10.0432 8.08638 9.46097 6.2786 9.46097V13.461ZM11.1157 14.2779L16.9798 10.0932L14.6563 6.83725L8.79219 11.0219L11.1157 14.2779ZM13.4304 6.28585C13.4304 7.29194 13.6105 8.2605 13.9418 9.158L17.6942 7.77249C17.5242 7.31202 17.4304 6.81218 17.4304 6.28585H13.4304ZM21.709 -2C17.1347 -2 13.4304 1.71188 13.4304 6.28585H17.4304C17.4304 3.91666 19.3482 2 21.709 2V-2ZM29.9876 6.28585C29.9876 1.71188 26.2833 -2 21.709 -2V2C24.0698 2 25.9876 3.91666 25.9876 6.28585H29.9876ZM29.4801 9.14721C29.809 8.25273 29.9876 7.2879 29.9876 6.28585H25.9876C25.9876 6.81009 25.8945 7.30802 25.7258 7.76694L29.4801 9.14721ZM26.4405 10.0845L32.607 14.4895L34.9321 11.2346L28.7655 6.82965L26.4405 10.0845ZM35.0302 14.4148C35.7661 13.8173 36.6997 13.461 37.7215 13.461V9.46097C35.748 9.46097 33.9313 10.1546 32.5089 11.3094L35.0302 14.4148ZM37.7215 13.461C40.0823 13.461 42.0001 15.3776 42.0001 17.7468H46.0001C46.0001 13.1729 42.2958 9.46097 37.7215 9.46097V13.461ZM42.0001 17.7468C42.0001 20.116 40.0823 22.0327 37.7215 22.0327V26.0327C42.2958 26.0327 46.0001 22.3208 46.0001 17.7468H42.0001ZM37.7215 22.0327C35.3606 22.0327 33.4429 20.116 33.4429 17.7468H29.4429C29.4429 22.3208 33.1472 26.0327 37.7215 26.0327V22.0327ZM33.4429 17.7468C33.4429 17.3269 33.5026 16.9244 33.6126 16.5456L29.7716 15.4293C29.5572 16.1671 29.4429 16.9453 29.4429 17.7468H33.4429ZM32.8591 14.3633L26.5009 9.7947L24.1669 13.0431L30.5251 17.6117L32.8591 14.3633Z" fill="#666666" mask="url(#path-1-inside-1_4517_1794)"/>
<path d="M32.4753 40.2581L33.9256 39.6504L36.443 40.811L37.9505 39.3018L37.8037 39.0079L36.7564 37.0156L37.1793 35.5063L39.5873 34.5102V32.3584L39.4753 32.2663L37.2365 31.4943L36.6669 30.0224L37.8062 27.8134L37.9156 27.5644L37.2365 26.8297L36.4281 25.9829L36.1345 26.1299L33.9828 27.2331L32.5127 26.8098L31.5773 24.4189H29.4455L29.3336 24.5285L28.5997 26.7176L27.0923 27.2879L24.6047 26.1099L23.0972 27.6192L23.244 27.913L24.3659 30.0473L23.7589 31.5192L21.1719 32.4581V34.6098L21.4853 34.7019L23.7639 35.4491L24.3709 37.0131L23.1943 39.5035L24.7017 41.0301L24.9953 40.9031L27.1445 39.7999L28.6147 40.405L29.5525 43.0001H31.7216M30.5624 36.505C29.9661 36.5085 29.3822 36.3348 28.8845 36.006C28.3868 35.6772 27.9977 35.208 27.7663 34.6578C27.535 34.1076 27.4718 33.5011 27.5847 32.9149C27.6977 32.3287 27.9817 31.7892 28.4009 31.3647C28.8201 30.9401 29.3556 30.6496 29.9398 30.5297C30.5239 30.4099 31.1305 30.4661 31.6827 30.6914C32.2349 30.9166 32.708 31.3008 33.0421 31.7952C33.3763 32.2897 33.5565 32.8722 33.5599 33.4692C33.56 34.2683 33.2453 35.0353 32.6841 35.6036C32.123 36.1719 31.3606 36.4958 30.5624 36.505Z" stroke="#666666" stroke-width="2"/>
</svg>
