<svg width="38" height="46" viewBox="0 0 38 46" fill="none" xmlns="http://www.w3.org/2000/svg">
<mask id="path-1-inside-1_4517_1731" fill="white">
<path fill-rule="evenodd" clip-rule="evenodd" d="M1.51467 1.85839e-08H36.4581C36.6629 -3.20706e-05 36.8656 0.0414928 37.0544 0.122151C37.2432 0.202808 37.4144 0.320983 37.5579 0.469777C37.7014 0.618571 37.8144 0.795002 37.8903 0.988773C37.9661 1.18254 38.0034 1.38977 37.9998 1.59836V11.657C38.0034 11.8656 37.9661 12.0728 37.8903 12.2666C37.8144 12.4603 37.7014 12.6368 37.5579 12.7856C37.4144 12.9344 37.2432 13.0525 37.0544 13.1332C36.8656 13.2139 36.6629 13.2554 36.4581 13.2553H19.7629V17.7725H36.4799C36.8833 17.7869 37.266 17.9625 37.5488 18.2628C37.8317 18.5632 37.9932 18.9654 37.9999 19.3864V29.7493C38 30.1725 37.8407 30.5788 37.5564 30.8806C37.2721 31.1825 36.8855 31.3558 36.4799 31.3632H19.7629V37.7491C21.6584 38.1109 23.0927 39.8044 23.0927 41.839C23.0927 44.1372 21.2626 46.0002 19.0049 46.0002C16.7472 46.0002 14.917 44.1372 14.917 41.839C14.917 39.8434 16.297 38.1759 18.1386 37.7714V31.3632H1.54738C1.34319 31.3671 1.14036 31.3279 0.950989 31.2482C0.76162 31.1684 0.589597 31.0497 0.445194 30.8991C0.30079 30.7484 0.186966 30.569 0.110518 30.3714C0.0340708 30.1739 -0.0034331 29.9623 0.000246809 29.7493V19.3864C-0.00124805 18.9818 0.142994 18.5913 0.404398 18.2924C0.665802 17.9935 1.0253 17.8079 1.41166 17.7725H18.1386V13.2553H1.54172C1.13038 13.2481 0.7383 13.0765 0.449942 12.7776C0.161583 12.4786 3.06796e-05 12.0762 9.18305e-05 11.657V1.59836C-0.000150113 1.18383 0.157675 0.785412 0.440258 0.487197C0.722842 0.188982 1.10808 0.0142942 1.51467 1.85839e-08Z"/>
</mask>
<path d="M36.4581 1.85839e-08V2H36.4585L36.4581 1.85839e-08ZM1.51467 1.85839e-08V-2H1.47952L1.4444 -1.99877L1.51467 1.85839e-08ZM37.0544 0.122151L37.8401 -1.71708L37.0544 0.122151ZM37.8903 0.988773L39.7526 0.259643L39.7526 0.259612L37.8903 0.988773ZM37.9998 1.59836L36.0001 1.56391L35.9998 1.58113V1.59836H37.9998ZM37.9998 11.657H35.9998V11.6742L36.0001 11.6914L37.9998 11.657ZM37.8903 12.2666L39.7526 12.9957L39.7526 12.9957L37.8903 12.2666ZM37.5579 12.7856L38.9974 14.174L38.9974 14.174L37.5579 12.7856ZM36.4581 13.2553L36.4585 11.2553H36.4581V13.2553ZM19.7629 13.2553V11.2553H17.7629V13.2553H19.7629ZM19.7629 17.7725H17.7629V19.7725H19.7629V17.7725ZM36.4799 17.7725L36.5516 15.7737L36.5158 15.7725H36.4799V17.7725ZM37.5488 18.2628L36.0929 19.634L36.0929 19.634L37.5488 18.2628ZM37.9999 19.3864H39.9999V19.3704L39.9997 19.3544L37.9999 19.3864ZM37.9999 29.7493H35.9999V29.7496L37.9999 29.7493ZM36.4799 31.3632V33.3632H36.4982L36.5165 33.3629L36.4799 31.3632ZM19.7629 31.3632V29.3632H17.7629V31.3632H19.7629ZM19.7629 37.7491H17.7629V39.4035L19.3879 39.7137L19.7629 37.7491ZM18.1386 37.7714L18.5677 39.7248L20.1386 39.3797V37.7714H18.1386ZM18.1386 31.3632H20.1386V29.3632H18.1386V31.3632ZM1.54738 31.3632V29.3632H1.52858L1.50979 29.3636L1.54738 31.3632ZM0.950989 31.2482L0.174762 33.0914L0.174778 33.0914L0.950989 31.2482ZM0.110518 30.3714L-1.75468 31.0933L0.110518 30.3714ZM0.000246809 29.7493L1.99995 29.7839L2.00025 29.7666V29.7493H0.000246809ZM0.000246809 19.3864H2.00026L2.00023 19.379L0.000246809 19.3864ZM0.404398 18.2924L1.9099 19.609H1.9099L0.404398 18.2924ZM1.41166 17.7725V15.7725H1.32L1.22873 15.7808L1.41166 17.7725ZM18.1386 17.7725V19.7725H20.1386V17.7725H18.1386ZM18.1386 13.2553H20.1386V11.2553H18.1386V13.2553ZM1.54172 13.2553L1.50658 15.255L1.52415 15.2553H1.54172V13.2553ZM0.449942 12.7776L1.88947 11.3891L1.88947 11.3891L0.449942 12.7776ZM9.18305e-05 11.657L2.00009 11.6573V11.657H9.18305e-05ZM9.18305e-05 1.59836H2.00009L2.00009 1.59719L9.18305e-05 1.59836ZM0.440258 0.487197L-1.01149 -0.888457V-0.888457L0.440258 0.487197ZM36.4581 -2H1.51467V2H36.4581V-2ZM37.8401 -1.71708C37.4035 -1.90355 36.9335 -2.00007 36.4578 -2L36.4585 2C36.3923 2.00001 36.3277 1.98653 36.2688 1.96138L37.8401 -1.71708ZM38.9974 -0.91866C38.6696 -1.25857 38.2765 -1.53064 37.8401 -1.71708L36.2688 1.96138C36.21 1.93626 36.1592 1.90053 36.1184 1.85821L38.9974 -0.91866ZM39.7526 0.259612C39.5813 -0.177947 39.3252 -0.57882 38.9974 -0.91866L36.1184 1.85821C36.0776 1.81596 36.0475 1.76795 36.0279 1.71793L39.7526 0.259612ZM39.9995 1.63281C40.0075 1.16386 39.9239 0.697174 39.7526 0.259643L36.0279 1.7179C36.0083 1.66791 35.9992 1.61569 36.0001 1.56391L39.9995 1.63281ZM39.9998 11.657V1.59836H35.9998V11.657H39.9998ZM39.7526 12.9957C39.9239 12.5582 40.0075 12.0915 39.9995 11.6225L36.0001 11.6914C35.9992 11.6397 36.0083 11.5874 36.0279 11.5374L39.7526 12.9957ZM38.9974 14.174C39.3252 13.8342 39.5813 13.4333 39.7526 12.9957L36.0279 11.5374C36.0475 11.4874 36.0776 11.4394 36.1184 11.3971L38.9974 14.174ZM37.8401 14.9724C38.2765 14.786 38.6696 14.5139 38.9974 14.174L36.1184 11.3971C36.1592 11.3548 36.21 11.3191 36.2688 11.294L37.8401 14.9724ZM36.4578 15.2553C36.9335 15.2554 37.4035 15.1589 37.8401 14.9724L36.2688 11.294C36.3277 11.2688 36.3923 11.2553 36.4585 11.2553L36.4578 15.2553ZM19.7629 15.2553H36.4581V11.2553H19.7629V15.2553ZM21.7629 17.7725V13.2553H17.7629V17.7725H21.7629ZM36.4799 15.7725H19.7629V19.7725H36.4799V15.7725ZM39.0048 16.8916C38.37 16.2176 37.4939 15.8075 36.5516 15.7737L36.4083 19.7712C36.2728 19.7663 36.162 19.7074 36.0929 19.634L39.0048 16.8916ZM39.9997 19.3544C39.9852 18.4461 39.6372 17.5631 39.0048 16.8916L36.0929 19.634C36.0262 19.5632 36.0012 19.4846 36.0002 19.4183L39.9997 19.3544ZM39.9999 29.7493V19.3864H35.9999V29.7493H39.9999ZM39.0123 32.2518C39.6541 31.5705 40 30.6704 39.9999 29.749L35.9999 29.7496C35.9999 29.6746 36.0273 29.587 36.1005 29.5094L39.0123 32.2518ZM36.5165 33.3629C37.4738 33.3454 38.368 32.936 39.0123 32.2518L36.1005 29.5094C36.1762 29.429 36.2972 29.3662 36.4433 29.3636L36.5165 33.3629ZM19.7629 33.3632H36.4799V29.3632H19.7629V33.3632ZM21.7629 37.7491V31.3632H17.7629V37.7491H21.7629ZM25.0927 41.839C25.0927 38.8515 22.9832 36.3277 20.1379 35.7846L19.3879 39.7137C20.3336 39.8942 21.0927 40.7574 21.0927 41.839H25.0927ZM19.0049 48.0002C22.4005 48.0002 25.0927 45.208 25.0927 41.839H21.0927C21.0927 43.0663 20.1246 44.0002 19.0049 44.0002V48.0002ZM12.917 41.839C12.917 45.208 15.6093 48.0002 19.0049 48.0002V44.0002C17.8852 44.0002 16.917 43.0663 16.917 41.839H12.917ZM17.7095 35.8179C14.9469 36.4247 12.917 38.908 12.917 41.839H16.917C16.917 40.7788 17.6472 39.927 18.5677 39.7248L17.7095 35.8179ZM16.1386 31.3632V37.7714H20.1386V31.3632H16.1386ZM1.54738 33.3632H18.1386V29.3632H1.54738V33.3632ZM0.174778 33.0914C0.619889 33.2789 1.0998 33.372 1.58496 33.3629L1.50979 29.3636C1.58658 29.3621 1.66083 29.377 1.7272 29.405L0.174778 33.0914ZM-0.998573 32.2831C-0.668337 32.6276 -0.270112 32.9041 0.174762 33.0914L1.72722 29.405C1.79335 29.4328 1.84753 29.4718 1.88896 29.515L-0.998573 32.2831ZM-1.75468 31.0933C-1.58435 31.5334 -1.32862 31.9388 -0.998573 32.2831L1.88896 29.515C1.9302 29.5581 1.95828 29.6046 1.97572 29.6496L-1.75468 31.0933ZM-1.99945 29.7148C-2.00757 30.1847 -1.92497 30.6533 -1.75468 31.0933L1.97572 29.6496C1.99311 29.6946 2.00071 29.7399 1.99995 29.7839L-1.99945 29.7148ZM-1.99975 19.3864V29.7493H2.00025V19.3864H-1.99975ZM-1.1011 16.9758C-1.68959 17.6487 -2.003 18.5125 -1.99974 19.3938L2.00023 19.379C2.0005 19.451 1.97558 19.5339 1.9099 19.609L-1.1011 16.9758ZM1.22873 15.7808C0.31806 15.8645 -0.510599 16.3006 -1.1011 16.9758L1.9099 19.609C1.8422 19.6865 1.73253 19.7514 1.59459 19.7641L1.22873 15.7808ZM18.1386 15.7725H1.41166V19.7725H18.1386V15.7725ZM16.1386 13.2553V17.7725H20.1386V13.2553H16.1386ZM1.54172 15.2553H18.1386V11.2553H1.54172V15.2553ZM-0.989591 14.166C-0.336762 14.8429 0.558811 15.2384 1.50658 15.255L1.57685 11.2557C1.70196 11.2579 1.81336 11.3102 1.88947 11.3891L-0.989591 14.166ZM-1.99991 11.6567C-2.00004 12.5886 -1.64124 13.4904 -0.989589 14.166L1.88947 11.3891C1.9644 11.4668 2.00011 11.5637 2.00009 11.6573L-1.99991 11.6567ZM-1.99991 1.59836V11.657H2.00009V1.59836H-1.99991ZM-1.01149 -0.888457C-1.64991 -0.214725 -2.00045 0.67792 -1.99991 1.59953L2.00009 1.59719C2.00015 1.68973 1.96526 1.78555 1.89201 1.86285L-1.01149 -0.888457ZM1.4444 -1.99877C0.507661 -1.96583 -0.371959 -1.56337 -1.01149 -0.888457L1.89201 1.86285C1.81764 1.94133 1.7085 1.99442 1.58494 1.99877L1.4444 -1.99877Z" fill="#666666" mask="url(#path-1-inside-1_4517_1731)"/>
<path d="M34.165 2.4751H32.1346C31.9103 2.4751 31.7285 2.66017 31.7285 2.88847V4.95531C31.7285 5.18361 31.9103 5.36868 32.1346 5.36868H34.165C34.3893 5.36868 34.5711 5.18361 34.5711 4.95531V2.88847C34.5711 2.66017 34.3893 2.4751 34.165 2.4751Z" fill="#666666"/>
<path d="M34.165 7.45801H32.1346C31.9103 7.45801 31.7285 7.64308 31.7285 7.87138V9.93822C31.7285 10.1665 31.9103 10.3516 32.1346 10.3516H34.165C34.3893 10.3516 34.5711 10.1665 34.5711 9.93822V7.87138C34.5711 7.64308 34.3893 7.45801 34.165 7.45801Z" fill="#666666"/>
<path d="M34.165 20.3701H32.1346C31.9103 20.3701 31.7285 20.5552 31.7285 20.7835V22.8503C31.7285 23.0786 31.9103 23.2637 32.1346 23.2637H34.165C34.3893 23.2637 34.5711 23.0786 34.5711 22.8503V20.7835C34.5711 20.5552 34.3893 20.3701 34.165 20.3701Z" fill="#666666"/>
<path d="M34.165 25.3535H32.1346C31.9103 25.3535 31.7285 25.5386 31.7285 25.7669V27.8337C31.7285 28.062 31.9103 28.2471 32.1346 28.2471H34.165C34.3893 28.2471 34.5711 28.062 34.5711 27.8337V25.7669C34.5711 25.5386 34.3893 25.3535 34.165 25.3535Z" fill="#666666"/>
</svg>
