<svg width="44" height="40" viewBox="0 0 44 40" fill="none" xmlns="http://www.w3.org/2000/svg">
<path d="M24 23.2223V4.83549C25.5246 4.83543 26.6883 4.83545 28.3263 4.83548C29.6188 4.8355 31.2065 4.83553 33.5 4.83553C35.7934 4.83553 37.2581 4.83555 38.4504 4.83556C40.0166 4.83558 41.1128 4.83559 43 4.83556V23.2223C43 23.299 42.9567 23.5194 42.5428 23.8574C42.1366 24.189 41.4883 24.5322 40.5988 24.8397C38.8293 25.4513 36.3198 25.8484 33.5 25.8484H33.3714C30.5784 25.8343 28.1024 25.4306 26.3594 24.8197C25.4829 24.5125 24.8455 24.1715 24.4469 23.8436C24.0403 23.5093 24 23.2937 24 23.2223Z" fill="white" stroke="#666666" stroke-width="2"/>
<path d="M1 23.2223V4.83545H1.00483H1.01904H1.03326H1.04749H1.06173H1.07599H1.09025H1.10453H1.11882H1.13312H1.14743H1.16175H1.17609H1.19044H1.2048H1.21918H1.23356H1.24796H1.26238H1.27681H1.29125H1.3057H1.32017H1.33465H1.34915H1.36366H1.37819H1.39273H1.40728H1.42186H1.43644H1.45104H1.46566H1.48029H1.49494H1.5096H1.52428H1.53898H1.55369H1.56842H1.58317H1.59793H1.61271H1.62751H1.64232H1.65715H1.672H1.68687H1.70175H1.71666H1.73158H1.74652H1.76148H1.77646H1.79145H1.80647H1.8215H1.83656H1.85163H1.86672H1.88184H1.89697H1.91212H1.9273H1.94249H1.95771H1.97294H1.9882H2.00348H2.01877H2.0341H2.04944H2.0648H2.08019H2.09559H2.11102H2.12647H2.14195H2.15745H2.17297H2.18851H2.20407H2.21966H2.23528H2.25091H2.26657H2.28226H2.29796H2.3137H2.32945H2.34523H2.36104H2.37687H2.39273H2.40861H2.42451H2.44044H2.4564H2.47239H2.48839H2.50443H2.52049H2.53658H2.55269H2.56883H2.585H2.6012H2.61742H2.63367H2.64994H2.66625H2.68258H2.69894H2.71533H2.73174H2.74819H2.76466H2.78117H2.7977H2.81426H2.83085H2.84747H2.86411H2.88079H2.8975H2.91424H2.93101H2.9478H2.96463H2.98149H2.99838H3.0153H3.03225H3.04924H3.06625H3.0833H3.10038H3.11749H3.13463H3.1518H3.16901H3.18625H3.20352H3.22082H3.23816H3.25553H3.27294H3.29037H3.30784H3.32535H3.34289H3.36046H3.37807H3.39571H3.41338H3.43109H3.44884H3.46662H3.48443H3.50228H3.52017H3.53809H3.55605H3.57404H3.59207H3.61013H3.62824H3.64637H3.66455H3.68276H3.70101H3.7193H3.73762H3.75598H3.77438H3.79281H3.81129H3.8298H3.84835H3.86694H3.88557H3.90423H3.92294H3.94168H3.96047H3.97929H3.99815H4.01705H4.036H4.05498H4.074H4.09306H4.11216H4.13131H4.15049H4.16972H4.18898H4.20829H4.22764H4.24703H4.26646H4.28593H4.30545H4.32501H4.34461H4.36425H4.38394H4.40366H4.42344H4.44325H4.46311H4.48301H4.50295H4.52294H4.54297H4.56305H4.58317H4.60333H4.62354H4.6438H4.66409H4.68444H4.70483H4.72526H4.74574H4.76626H4.78683H4.80745H4.82811H4.84882H4.86958H4.89038H4.91123H4.93212H4.95307H4.97405H4.99509H5.01618H5.03731H5.05849H5.07971H5.10099H5.12231H5.14369H5.16511H5.18658H5.2081H5.22966H5.25128H5.27295H5.29466H5.31643H5.33824H5.36011H5.38202H5.40399H5.426H5.44807H5.47019H5.49235H5.51457H5.53684H5.55917H5.58154H5.60396H5.62644H5.64897H5.67155H5.69418H5.71687H5.73961H5.7624H5.78524H5.80814H5.83109H5.85409H5.87715H5.90026H5.92343H5.94665H5.96992H5.99325H6.01663H6.04006H6.06356H6.0871H6.1107H6.13436H6.15807H6.18184H6.20566H6.22954H6.25348H6.27747H6.30152H6.32562H6.34978H6.374H6.39828H6.42261H6.447H6.47144H6.49595H6.52051H6.54513H6.56981H6.59455H6.61934H6.64419H6.66911H6.69408H6.71911H6.7442H6.76935H6.79455H6.81982H6.84515H6.87054H6.89598H6.92149H6.94706H6.97269H6.99838H7.02413H7.04994H7.07581H7.10175H7.12774H7.1538H7.17992H7.2061H7.23234H7.25865H7.28502H7.31145H7.33794H7.3645H7.39112H7.4178H7.44454H7.47135H7.49823H7.52516H7.55217H7.57923H7.60636H7.63355H7.66081H7.68814H7.71552H7.74298H7.7705H7.79808H7.82573H7.85345H7.88123H7.90907H7.93699H7.96497H7.99301H8.02113H8.04931H8.07755H8.10587H8.13425H8.1627H8.19122H8.2198H8.24845H8.27717H8.30596H8.33482H8.36374H8.39274H8.4218H8.45093H8.48013H8.5094H8.53874H8.56815H8.59763H8.62718H8.6568H8.68649H8.71625H8.74608H8.77598H8.80595H8.836H8.86611H8.8963H8.92655H8.95688H8.98728H9.01775H9.0483H9.07892H9.10961H9.14037H9.1712H9.20211H9.23309H9.26415H9.29527H9.32647H9.35775H9.3891H9.42052H9.45202H9.48359H9.51523H9.54695H9.57875H9.61062H9.64256H9.67458H9.70668H9.73885H9.7711H9.80342H9.83582H9.86829H9.90084H9.93347H9.96618H9.99896H10.0318H10.0647H10.0978H10.1309H10.164H10.1973H10.2306H10.264H10.2975H10.331H10.3647H10.3984H10.4322H10.466H10.5H10.5339H10.5678H10.6015H10.6351H10.6686H10.702H10.7353H10.7685H10.8015H10.8345H10.8674H10.9001H10.9328H10.9653H10.9978H11.0301H11.0623H11.0945H11.1265H11.1584H11.1902H11.2219H11.2536H11.2851H11.3165H11.3478H11.379H11.4101H11.4411H11.472H11.5028H11.5336H11.5642H11.5947H11.6251H11.6554H11.6856H11.7158H11.7458H11.7757H11.8056H11.8353H11.8649H11.8945H11.924H11.9533H11.9826H12.0118H12.0408H12.0698H12.0987H12.1275H12.1562H12.1848H12.2134H12.2418H12.2701H12.2984H12.3266H12.3546H12.3826H12.4105H12.4383H12.466H12.4937H12.5212H12.5487H12.576H12.6033H12.6305H12.6576H12.6846H12.7116H12.7384H12.7652H12.7919H12.8185H12.845H12.8714H12.8978H12.924H12.9502H12.9763H13.0023H13.0283H13.0541H13.0799H13.1056H13.1312H13.1567H13.1822H13.2076H13.2329H13.2581H13.2832H13.3083H13.3333H13.3582H13.383H13.4078H13.4325H13.4571H13.4816H13.506H13.5304H13.5547H13.5789H13.6031H13.6272H13.6512H13.6751H13.699H13.7228H13.7465H13.7702H13.7937H13.8172H13.8407H13.864H13.8873H13.9106H13.9337H13.9568H13.9798H14.0028H14.0257H14.0485H14.0712H14.0939H14.1165H14.1391H14.1616H14.184H14.2063H14.2286H14.2508H14.273H14.2951H14.3171H14.3391H14.361H14.3828H14.4046H14.4263H14.448H14.4696H14.4911H14.5126H14.534H14.5554H14.5767H14.5979H14.6191H14.6402H14.6613H14.6823H14.7032H14.7241H14.7449H14.7657H14.7864H14.8071H14.8277H14.8483H14.8688H14.8892H14.9096H14.9299H14.9502H14.9704H14.9906H15.0107H15.0308H15.0508H15.0708H15.0907H15.1106H15.1304H15.1501H15.1699H15.1895H15.2091H15.2287H15.2482H15.2677H15.2871H15.3065H15.3258H15.3451H15.3643H15.3835H15.4026H15.4217H15.4408H15.4598H15.4788H15.4977H15.5165H15.5354H15.5542H15.5729H15.5916H15.6103H15.6289H15.6474H15.666H15.6845H15.7029H15.7213H15.7397H15.758H15.7763H15.7946H15.8128H15.831H15.8491H15.8672H15.8853H15.9033H15.9213H15.9392H15.9572H15.975H15.9929H16.0107H16.0285H16.0462H16.0639H16.0816H16.0993H16.1169H16.1344H16.152H16.1695H16.187H16.2044H16.2218H16.2392H16.2566H16.2739H16.2912H16.3085H16.3257H16.3429H16.3601H16.3773H16.3944H16.4115H16.4286H16.4456H16.4626H16.4796H16.4966H16.5135H16.5304H16.5473H16.5642H16.5811H16.5979H16.6147H16.6314H16.6482H16.6649H16.6816H16.6983H16.715H16.7316H16.7483H16.7649H16.7814H16.798H16.8145H16.8311H16.8476H16.8641H16.8805H16.897H16.9134H16.9298H16.9462H16.9626H16.979H16.9953H17.0117H17.028H17.0443H17.0606H17.0769H17.0931H17.1094H17.1256H17.1419H17.1581H17.1743H17.1905H17.2066H17.2228H17.239H17.2551H17.2712H17.2874H17.3035H17.3196H17.3357H17.3518H17.3679H17.3839H17.4H17.4161H17.4321H17.4482H17.4642H17.4803H17.4963H17.5123H17.5283H17.5443H17.5604H17.5764H17.5924H17.6084H17.6244H17.6404H17.6564H17.6724H17.6883H17.7043H17.7203H17.7363H17.7523H17.7683H17.7843H17.8003H17.8163H17.8323H17.8483H17.8643H17.8803H17.8963H17.9123H17.9283H17.9443H17.9603H17.9763H17.9924H18.0084H18.0244H18.0405H18.0565H18.0726H18.0886H18.1047H18.1208H18.1369H18.153H18.1691H18.1852H18.2013H18.2174H18.2336H18.2497H18.2659H18.2821H18.2982H18.3144H18.3307H18.3469H18.3631H18.3793H18.3956H18.4119H18.4282H18.4445H18.4608H18.4771H18.4934H18.5098H18.5262H18.5426H18.559H18.5754H18.5918H18.6083H18.6248H18.6413H18.6578H18.6743H18.6909H18.7074H18.724H18.7407H18.7573H18.7739H18.7906H18.8073H18.824H18.8408H18.8575H18.8743H18.8911H18.9079H18.9248H18.9417H18.9586H18.9755H18.9925H19.0095H19.0265H19.0435H19.0605H19.0776H19.0947H19.1119H19.129H19.1462H19.1635H19.1807H19.198H19.2153H19.2327H19.25H19.2674H19.2849H19.3023H19.3198H19.3373H19.3549H19.3725H19.3901H19.4078H19.4255H19.4432H19.4609H19.4787H19.4966H19.5144H19.5323H19.5503H19.5682H19.5862H19.6043H19.6224H19.6405H19.6586H19.6768H19.6951H19.7133H19.7316H19.75H19.7684H19.7868H19.8053H19.8238H19.8423H19.8609H19.8796H19.8982H19.917H19.9357H19.9545H19.9734H19.9923H20V23.2223C20 23.299 19.9567 23.5194 19.5428 23.8574C19.1366 24.189 18.4883 24.5322 17.5988 24.8397C15.8298 25.4511 13.3213 25.8482 10.5025 25.8484C7.64186 25.8343 5.13249 25.4301 3.37321 24.8188C2.48856 24.5114 1.84756 24.1702 1.44745 23.8424C1.03968 23.5084 1 23.2931 1 23.2223Z" fill="white" stroke="#666666" stroke-width="2"/>
<path d="M32 17.9873V36.4055C32 36.4742 31.9609 36.69 31.5461 37.0257C31.14 37.3544 30.4914 37.6949 29.6013 37.9999C27.831 38.6065 25.3205 39.0002 22.5 39.0002H22.3714C19.5757 38.9863 17.0985 38.5926 15.3552 37.9901C14.4785 37.6871 13.8422 37.35 13.4448 37.025C13.0408 36.6946 13 36.4801 13 36.4055V18.1727C13.4746 18.1616 14.0003 18.1445 14.5919 18.1252C14.9728 18.1128 15.3811 18.0995 15.8206 18.0864C17.4744 18.0368 19.6117 17.9873 22.5 17.9873H22.5339H22.5677H22.6014H22.6349H22.6683H22.7016H22.7348H22.7678H22.8007H22.8335H22.8662H22.8987H22.9311H22.9634H22.9956H23.0276H23.0595H23.0913H23.123H23.1545H23.186H23.2173H23.2485H23.2795H23.3105H23.3413H23.372H23.4026H23.4331H23.4635H23.4937H23.5239H23.5539H23.5838H23.6136H23.6433H23.6728H23.7023H23.7316H23.7609H23.79H23.819H23.8479H23.8767H23.9053H23.9339H23.9624H23.9907H24.019H24.0471H24.0751H24.103H24.1308H24.1586H24.1862H24.2137H24.241H24.2683H24.2955H24.3226H24.3496H24.3765H24.4032H24.4299H24.4565H24.483H24.5093H24.5356H24.5618H24.5879H24.6139H24.6397H24.6655H24.6912H24.7168H24.7423H24.7677H24.793H24.8182H24.8433H24.8684H24.8933H24.9181H24.9429H24.9676H24.9921H25.0166H25.041H25.0653H25.0895H25.1136H25.1376H25.1616H25.1854H25.2092H25.2328H25.2564H25.2799H25.3034H25.3267H25.3499H25.3731H25.3962H25.4192H25.4421H25.465H25.4877H25.5104H25.533H25.5555H25.5779H25.6003H25.6225H25.6447H25.6668H25.6889H25.7108H25.7327H25.7545H25.7763H25.7979H25.8195H25.841H25.8624H25.8838H25.9051H25.9263H25.9474H25.9685H25.9895H26.0104H26.0313H26.0521H26.0728H26.0934H26.114H26.1345H26.1549H26.1753H26.1956H26.2159H26.236H26.2561H26.2762H26.2962H26.3161H26.3359H26.3557H26.3754H26.3951H26.4147H26.4342H26.4537H26.4731H26.4925H26.5118H26.531H26.5502H26.5693H26.5884H26.6074H26.6263H26.6452H26.6641H26.6829H26.7016H26.7203H26.7389H26.7574H26.7759H26.7944H26.8128H26.8311H26.8494H26.8677H26.8859H26.904H26.9221H26.9402H26.9582H26.9761H26.994H27.0119H27.0297H27.0475H27.0652H27.0828H27.1005H27.118H27.1356H27.1531H27.1705H27.1879H27.2053H27.2226H27.2399H27.2571H27.2743H27.2915H27.3086H27.3257H27.3427H27.3597H27.3766H27.3936H27.4105H27.4273H27.4441H27.4609H27.4776H27.4943H27.511H27.5276H27.5442H27.5608H27.5774H27.5939H27.6103H27.6268H27.6432H27.6596H27.6759H27.6922H27.7085H27.7248H27.741H27.7572H27.7734H27.7896H27.8057H27.8218H27.8379H27.8539H27.87H27.886H27.9019H27.9179H27.9338H27.9497H27.9656H27.9815H27.9973H28.0131H28.029H28.0447H28.0605H28.0763H28.092H28.1077H28.1234H28.1391H28.1547H28.1704H28.186H28.2016H28.2172H28.2328H28.2484H28.2639H28.2795H28.295H28.3105H28.326H28.3415H28.357H28.3725H28.3879H28.4034H28.4188H28.4343H28.4497H28.4651H28.4806H28.496H28.5114H28.5268H28.5422H28.5575H28.5729H28.5883H28.6037H28.6191H28.6344H28.6498H28.6652H28.6805H28.6959H28.7113H28.7266H28.742H28.7574H28.7727H28.7881H28.8035H28.8189H28.8342H28.8496H28.865H28.8804H28.8958H28.9112H28.9266H28.942H28.9574H28.9729H28.9883H29.0037H29.0192H29.0347H29.0501H29.0656H29.0811H29.0966H29.1121H29.1277H29.1432H29.1587H29.1743H29.1899H29.2055H29.2211H29.2367H29.2524H29.268H29.2837H29.2994H29.3151H29.3308H29.3465H29.3623H29.3781H29.3939H29.4097H29.4255H29.4414H29.4573H29.4732H29.4891H29.505H29.521H29.537H29.553H29.5691H29.5851H29.6012H29.6173H29.6335H29.6496H29.6658H29.6821H29.6983H29.7146H29.7309H29.7473H29.7636H29.78H29.7965H29.8129H29.8294H29.8459H29.8625H29.8791H29.8957H29.9124H29.9291H29.9458H29.9626H29.9794H29.9962H30.0131H30.03H30.0469H30.0639H30.0809H30.098H30.1151H30.1322H30.1494H30.1666H30.1839H30.2012H30.2186H30.2359H30.2534H30.2709H30.2884H30.3059H30.3235H30.3412H30.3589H30.3766H30.3944H30.4123H30.4302H30.4481H30.4661H30.4841H30.5022H30.5203H30.5385H30.5567H30.575H30.5933H30.6117H30.6302H30.6486H30.6672H30.6858H30.7044H30.7231H30.7419H30.7607H30.7796H30.7985H30.8175H30.8366H30.8557H30.8748H30.894H30.9133H30.9326H30.952H30.9715H30.991H31.0106H31.0302H31.0499H31.0697H31.0895H31.1094H31.1294H31.1494H31.1695H31.1896H31.2099H31.2301H31.2505H31.2709H31.2914H31.3119H31.3326H31.3533H31.374H31.3948H31.4158H31.4367H31.4578H31.4789H31.5001H31.5213H31.5427H31.5641H31.5855H31.6071H31.6287H31.6504H31.6722H31.6941H31.716H31.738H31.7601H31.7823H31.8045H31.8268H31.8492H31.8717H31.8943H31.9169H31.9397H31.9625H31.9853H32Z" fill="white" stroke="#666666" stroke-width="2"/>
<path d="M32.2333 15.7805C32.2333 17.4242 27.6333 18.7393 21.9999 18.7393C16.3666 18.7393 11.7666 17.4242 11.7666 15.7805C11.7666 14.1367 16.3666 12.9678 21.9999 12.9678C27.6333 12.9678 32.2333 14.2828 32.2333 15.9266" fill="white"/>
<path d="M32 16.9745C32 16.9949 31.9745 17.2103 31.5316 17.5827C31.1139 17.9339 30.4545 18.3091 29.5654 18.6522C27.7958 19.3352 25.2951 19.8228 22.5 19.8228C19.7049 19.8228 17.2042 19.3352 15.4346 18.6522C14.5455 18.3091 13.8861 17.9339 13.4684 17.5827C13.0255 17.2103 13 16.9949 13 16.9745C13 16.9551 13.0243 16.7416 13.4663 16.372C13.8835 16.0231 14.5425 15.6508 15.4318 15.3106C17.2018 14.6335 19.7034 14.1519 22.5 14.1519C25.295 14.1519 27.7962 14.6394 29.5668 15.3198C30.4564 15.6616 31.1165 16.0349 31.5347 16.3837C31.9801 16.7552 32 16.9652 32 16.9745Z" fill="white" stroke="#666666" stroke-width="2"/>
<path d="M43 3.83549C43 3.99054 42.9106 4.28833 42.4818 4.70086C42.0628 5.10404 41.407 5.52705 40.5256 5.91157C38.7686 6.67815 36.2825 7.21891 33.5001 7.21891C30.7176 7.21891 28.2315 6.67815 26.4744 5.91157C25.5931 5.52705 24.9372 5.10404 24.5182 4.70085C24.0894 4.28832 24 3.99053 24 3.83549C24 3.69835 24.0716 3.4441 24.4792 3.09128C24.8851 2.73998 25.531 2.37901 26.4168 2.05643C28.1802 1.4142 30.6839 1 33.5001 1C36.3142 1 38.8176 1.42118 40.5817 2.06711C41.4677 2.39157 42.1149 2.75378 42.5219 3.10496C42.9326 3.45931 43 3.70975 43 3.83549Z" fill="white" stroke="#666666" stroke-width="2"/>
<path d="M20 3.83549C20 3.99054 19.9106 4.28833 19.4818 4.70086C19.0628 5.10404 18.407 5.52705 17.5256 5.91157C15.7686 6.67815 13.2825 7.21891 10.5001 7.21891C7.71763 7.21891 5.23151 6.67815 3.47444 5.91157C2.59307 5.52705 1.93722 5.10404 1.51818 4.70085C1.08943 4.28832 1 3.99053 1 3.83549C1 3.69835 1.07158 3.4441 1.47924 3.09128C1.88515 2.73998 2.531 2.37901 3.41675 2.05643C5.18024 1.4142 7.68387 1 10.5001 1C13.3142 1 15.8176 1.42118 17.5817 2.06711C18.4677 2.39157 19.1149 2.75378 19.5219 3.10496C19.9326 3.45931 20 3.70975 20 3.83549Z" fill="white" stroke="#666666" stroke-width="2"/>
</svg>
