<svg width="44" height="44" viewBox="0 0 44 44" fill="none" xmlns="http://www.w3.org/2000/svg">
<path d="M22 30.6743H22.0713H22.1423H22.2132H22.2839H22.3544H22.4247H22.4948H22.5648H22.6345H22.7041H22.7736H22.8428H22.9118H22.9807H23.0494H23.1179H23.1863H23.2544H23.3224H23.3902H23.4579H23.5253H23.5926H23.6597H23.7267H23.7934H23.86H23.9264H23.9927H24.0587H24.1246H24.1904H24.2559H24.3213H24.3865H24.4516H24.5164H24.5811H24.6457H24.7101H24.7743H24.8383H24.9022H24.9659H25.0294H25.0928H25.156H25.219H25.2819H25.3447H25.4072H25.4696H25.5318H25.5939H25.6558H25.7176H25.7791H25.8406H25.9018H25.9629H26.0239H26.0847H26.1453H26.2058H26.2661H26.3263H26.3863H26.4461H26.5058H26.5654H26.6248H26.684H26.7431H26.802H26.8608H26.9194H26.9779H27.0362H27.0944H27.1524H27.2102H27.268H27.3255H27.3829H27.4402H27.4973H27.5543H27.6112H27.6678H27.7244H27.7808H27.837H27.8931H27.9491H28.0049H28.0605H28.1161H28.1715H28.2267H28.2818H28.3368H28.3916H28.4462H28.5008H28.5552H28.6094H28.6636H28.7175H28.7714H28.8251H28.8787H28.9321H28.9854H29.0385H29.0916H29.1445H29.1972H29.2498H29.3023H29.3547H29.4069H29.459H29.5109H29.5628H29.6145H29.666H29.7175H29.7688H29.8199H29.871H29.9219H29.9727H30.0234H30.0739H30.1243H30.1746H30.2248H30.2748H30.3247H30.3745H30.4241H30.4737H30.5231H30.5724H30.6215H30.6706H30.7195H30.7683H30.817H30.8655H30.914H30.9623H31.0105H31.0586H31.1066H31.1544H31.2022H31.2498H31.2973H31.3447H31.3919H31.4391H31.4861H31.533H31.5798H31.6265H31.6731H31.7196H31.766H31.8122H31.8584H31.9044H31.9503H31.9961H32.0418H32.0874H32.1329H32.1782H32.2235H32.2687H32.3137H32.3587H32.4035H32.4482H32.4929H32.5374H32.5818H32.6261H32.6703H32.7145H32.7585H32.8024H32.8462H32.8899H32.9335H32.977H33.0204H33.0637H33.1069H33.15H33.193H33.2359H33.2787H33.3214H33.3641H33.4066H33.449H33.4913H33.5336H33.5757H33.6178H33.6597H33.7016H33.7434H33.785H33.8266H33.8681H33.9095H33.9509H33.9921H34.0332H34.0743H34.1152H34.1561H34.1969H34.2376H34.2782H34.3187H34.3591H34.3995H34.4398H34.4799H34.52H34.5601H34.6H34.6398H34.6796H34.7193H34.7589H34.7984H34.8378H34.8772H34.9165H34.9557H34.9948H35.0338H35.0728H35.1117H35.1505H35.1892H35.2279H35.2665H35.305H35.3434H35.3817H35.42H35.4582H35.4964H35.5344H35.5724H35.6103H35.6482H35.6859H35.7236H35.7613H35.7988H35.8363H35.8737H35.9111H35.9484H35.9856H36.0227H36.0598H36.0968H36.1338H36.1707H36.2075H36.2442H36.2809H36.3176H36.3541H36.3906H36.4271H36.4634H36.4998H36.536H36.5722H36.6083H36.6444H36.6804H36.7164H36.7523H36.7881H36.8239H36.8596H36.8952H36.9309H36.9664H37.0019H37.0373H37.0727H37.1081H37.1433H37.1785H37.2137H37.2488H37.2839H37.3189H37.3539H37.3888H37.4236H37.4585H37.4932H37.5279H37.5626H37.5972H37.6318H37.6663H37.7008H37.7352H37.7696H37.8039H37.8382H37.8724H37.9066H37.9408H37.9749H38.009H38.043H38.077H38.1109H38.1448H38.1787H38.2125H38.2463H38.28H38.3137H38.3474H38.381H38.4146H38.4481H38.4816H38.5151H38.5485H38.5819H38.6153H38.6486H38.6819H38.7152H38.7484H38.7816H38.8148H38.8479H38.881H38.9141H38.9471H38.9801H39.0131H39.046H39.0789H39.1118H39.1447H39.1775H39.2103H39.2431H39.2758H39.3086H39.3413H39.3739H39.4066H39.4392H39.4718H39.5044H39.5369H39.5695H39.602H39.6345H39.6669H39.6994H39.7318H39.7642H39.7966H39.8289H39.8613H39.8936H39.9259H39.9582H39.9905H40.0227H40.055H40.0872H40.1194H40.1516H40.1838H40.2159H40.2481H40.2802H40.3123H40.3444H40.3765H40.4086H40.4407H40.4728H40.5048H40.5369H40.5689H40.6009H40.633H40.665H40.697H40.729H40.761H40.7929H40.8249H40.8569H40.8889H40.9208H40.9528H40.9847H41.0167H41.0486H41.0806H41.1125H41.1445H41.1764H41.2084H41.2403H41.2722H41.3042H41.3361H41.3681H41.4H41.432H41.4639H41.4959H41.5278H41.5598H41.5917H41.6237H41.6557H41.6877H41.7197H41.7516H41.7836H41.8157H41.8477H41.8797H41.9117H41.9438H41.9758H42.0079H42.04H42.072H42.1041H42.1363H42.1684H42.2005H42.2327H42.2648H42.297H42.3292H42.3614H42.3936H42.4258H42.4581H42.4903H42.5226H42.5549H42.5872H42.6196H42.6519H42.6843H42.7167H42.7491H42.7816H42.814H42.8465H42.879H42.9115H42.944H42.9766H43L43 35.1514C42.9141 36.0181 42.4109 36.9432 41.3893 37.8768C40.3538 38.8233 38.8484 39.7169 36.9382 40.4865C33.1215 42.0243 27.8559 42.9999 22 42.9999C16.1451 42.9999 10.7783 42.0026 6.91161 40.4257C4.97563 39.6362 3.46444 38.7211 2.45339 37.7556C1.44393 36.7916 1 35.8474 1 34.9622V30.6743H1.00335H1.0232H1.04317H1.06328H1.08352H1.10389H1.12439H1.14503H1.16579H1.18669H1.20772H1.22888H1.25017H1.2716H1.29315H1.31484H1.33665H1.3586H1.38068H1.40289H1.42523H1.4477H1.4703H1.49303H1.51589H1.53889H1.56201H1.58526H1.60865H1.63216H1.6558H1.67958H1.70348H1.72751H1.75168H1.77597H1.80039H1.82494H1.84962H1.87443H1.89937H1.92444H1.94964H1.97497H2.00043H2.02601H2.05173H2.07757H2.10354H2.12964H2.15587H2.18223H2.20872H2.23533H2.26208H2.28895H2.31595H2.34308H2.37034H2.39772H2.42523H2.45287H2.48064H2.50854H2.53656H2.56471H2.59299H2.6214H2.64993H2.67859H2.70738H2.7363H2.76534H2.79451H2.8238H2.85323H2.88278H2.91245H2.94226H2.97219H3.00225H3.03243H3.06274H3.09318H3.12374H3.15443H3.18524H3.21618H3.24725H3.27844H3.30976H3.34121H3.37278H3.40447H3.43629H3.46824H3.50031H3.53251H3.56483H3.59728H3.62986H3.66255H3.69538H3.72833H3.7614H3.7946H3.82792H3.86137H3.89494H3.92864H3.96246H3.9964H4.03047H4.06467H4.09899H4.13343H4.168H4.20269H4.2375H4.27244H4.3075H4.34269H4.378H4.41343H4.44899H4.48467H4.52047H4.5564H4.59245H4.62862H4.66492H4.70134H4.73788H4.77454H4.81133H4.84824H4.88527H4.92243H4.95971H4.99711H5.03463H5.07228H5.11004H5.14793H5.18594H5.22408H5.26233H5.30071H5.33921H5.37783H5.41657H5.45544H5.49442H5.53353H5.57276H5.61211H5.65158H5.69118H5.73089H5.77072H5.81068H5.85076H5.89095H5.93127H5.97171H6.01227H6.05295H6.09375H6.13467H6.17571H6.21688H6.25816H6.29956H6.34108H6.38272H6.42449H6.46637H6.50837H6.55049H6.59273H6.63509H6.67757H6.72017H6.76289H6.80573H6.84869H6.89176H6.93496H6.97827H7.02171H7.06526H7.10893H7.15272H7.19663H7.24066H7.28481H7.32907H7.37345H7.41795H7.46257H7.50731H7.55217H7.59714H7.64223H7.68744H7.73277H7.77822H7.82378H7.86946H7.91526H7.96117H8.00721H8.05336H8.09962H8.14601H8.19251H8.23913H8.28587H8.33272H8.37969H8.42678H8.47398H8.5213H8.56874H8.61629H8.66396H8.71175H8.75965H8.80767H8.8558H8.90405H8.95242H9.0009H9.0495H9.09822H9.14705H9.19599H9.24505H9.29423H9.34352H9.39293H9.44246H9.49209H9.54185H9.59172H9.6417H9.6918H9.74201H9.79234H9.84278H9.89334H9.94402H9.9948H10.0457H10.0967H10.1479H10.1991H10.2505H10.3019H10.3535H10.4052H10.457H10.509H10.561H10.6132H10.6654H10.7178H10.7703H10.8229H10.8756H10.9285H10.9814H11.0345H11.0877H11.141H11.1944H11.2479H11.3015H11.3553H11.4091H11.4631H11.5172H11.5713H11.6257H11.6801H11.7346H11.7892H11.844H11.8989H11.9538H12.0089H12.0641H12.1194H12.1749H12.2304H12.286H12.3418H12.3977H12.4537H12.5097H12.566H12.6223H12.6787H12.7352H12.7919H12.8486H12.9055H12.9625H13.0196H13.0768H13.1341H13.1915H13.249H13.3067H13.3644H13.4223H13.4803H13.5384H13.5966H13.6549H13.7133H13.7718H13.8304H13.8892H13.948H14.007H14.0661H14.1252H14.1845H14.2439H14.3034H14.3631H14.4228H14.4826H14.5426H14.6026H14.6628H14.723H14.7834H14.8439H14.9045H14.9652H15.026H15.0869H15.148H15.2091H15.2704H15.3317H15.3932H15.4547H15.5164H15.5782H15.6401H15.7021H15.7642H15.8264H15.8887H15.9512H16.0137H16.0763H16.1391H16.2019H16.2649H16.328H16.3911H16.4544H16.5178H16.5813H16.6449H16.7086H16.7724H16.8364H16.9004H16.9645H17.0288H17.0931H17.1576H17.2221H17.2868H17.3516H17.4164H17.4814H17.5465H17.6117H17.677H17.7424H17.8079H17.8735H17.9392H18.005H18.071H18.137H18.2031H18.2694H18.3357H18.4022H18.4687H18.5354H18.6022H18.669H18.736H18.8031H18.8703H18.9375H19.0049H19.0724H19.14H19.2077H19.2755H19.3434H19.4114H19.4796H19.5478H19.6161H19.6845H19.7531H19.8217H19.8904H19.9593H20.0282H20.0972H20.1664H20.2356H20.305H20.3744H20.444H20.5137H20.5834H20.6533H20.7232H20.7933H20.8635H20.9338H21.0041H21.0746H21.1452H21.2159H21.2866H21.3575H21.4285H21.4996H21.5708H21.6421H21.7135H21.7849H21.8565H21.9282H22Z" stroke="#666666" stroke-width="2"/>
<path d="M43 29.3198C43 30.2448 42.5491 31.2398 41.5423 32.2562C40.5348 33.2734 39.0292 34.2473 37.0968 35.0931C33.2359 36.7828 27.8478 37.8839 21.8827 37.8839C15.9178 37.8839 10.5905 36.7828 6.79094 35.0953C4.88941 34.2507 3.41381 33.2784 2.42794 32.2632C1.44382 31.2499 1 30.2529 1 29.3198C1 28.3949 1.43621 27.4492 2.40658 26.5086C3.38366 25.5614 4.85211 24.6741 6.75582 23.914C10.5589 22.3956 15.8965 21.4653 21.8827 21.4653C27.8689 21.4653 33.2673 22.3955 37.1316 23.9158C39.0663 24.677 40.5649 25.566 41.5639 26.5154C42.5571 27.4594 43 28.4033 43 29.3198Z" fill="white" stroke="#666666" stroke-width="2"/>
<path d="M22.5 31.721C26.6421 31.721 30 30.8047 30 29.6744C30 28.5442 26.6421 27.6279 22.5 27.6279C18.3579 27.6279 15 28.5442 15 29.6744C15 30.8047 18.3579 31.721 22.5 31.721Z" stroke="#666666" stroke-width="2"/>
<path d="M22 10.2931C28.0891 10.2931 32.8211 10.2722 36.4158 10.2513C37.6074 10.2443 38.6731 10.2374 39.6213 10.2312C40.9804 10.2224 42.0982 10.2152 43 10.2117V14.5738C42.9137 15.4601 42.4066 16.401 41.3847 17.3469C40.3488 18.3059 38.8435 19.2108 36.9342 19.99C33.1186 21.5471 27.8545 22.5351 22 22.5351C16.1465 22.5351 10.7813 21.5252 6.91578 19.9285C4.98059 19.1291 3.4695 18.2025 2.458 17.2241C1.4486 16.2477 1 15.287 1 14.3809V10.2106C2.54506 10.214 4.14653 10.2246 6.0396 10.2372C6.7218 10.2417 7.44186 10.2465 8.2108 10.2512C11.5747 10.2722 15.8668 10.2931 22 10.2931Z" fill="white" stroke="#666666" stroke-width="2"/>
<path d="M43 9.08923C43 10.0114 42.5517 10.9896 41.5492 11.982C40.5445 12.9768 39.0412 13.9225 37.1081 14.7402C33.2463 16.3739 27.8547 17.4186 21.8827 17.4186C15.9107 17.4186 10.58 16.3739 6.77948 14.7423C4.87733 13.9257 3.40409 12.9816 2.42108 11.989C1.44136 10.9997 1 10.0196 1 9.08923C1 8.16161 1.43878 7.19889 2.41385 6.2342C3.39389 5.26459 4.86471 4.34923 6.76759 3.56122C10.5693 1.98688 15.9035 1 21.8827 1C27.8618 1 33.2569 1.98686 37.1199 3.56319C39.0537 4.35231 40.5547 5.2693 41.5565 6.24111C42.5544 7.20903 43 8.16992 43 9.08923Z" fill="white" stroke="#666666" stroke-width="2"/>
<path d="M22.5 11.2556C26.6421 11.2556 30 10.3394 30 9.20911C30 8.07885 26.6421 7.1626 22.5 7.1626C18.3579 7.1626 15 8.07885 15 9.20911C15 10.3394 18.3579 11.2556 22.5 11.2556Z" stroke="#666666" stroke-width="2"/>
</svg>
