<svg width="44" height="22" viewBox="0 0 44 22" fill="none" xmlns="http://www.w3.org/2000/svg">
<path d="M42.9273 9.12675C42.707 9.39168 42.4499 9.62542 42.1642 9.8199C42.4086 9.81389 42.6875 9.81251 42.9226 9.81135C42.9384 9.81127 42.9539 9.81119 42.9692 9.81111C42.9577 9.58035 42.9442 9.35202 42.9273 9.12675ZM42.9273 9.12675C43.3327 8.63918 43.6131 8.04596 43.7164 7.3973C43.9096 8.40413 43.9611 9.46885 43.9987 10.4861C44 10.5206 44.0013 10.5556 43.9974 10.5894C43.9195 10.5427 43.8471 10.513 43.7909 10.4939C43.7908 10.4938 43.7908 10.4938 43.7907 10.4938C43.7719 10.4874 43.7548 10.4822 43.74 10.4779C43.6501 10.452 43.5704 10.4413 43.5152 10.4362C43.5099 10.4357 43.5049 10.4352 43.5 10.4348C43.4975 10.4346 43.4949 10.4344 43.4924 10.4342C43.3862 10.4261 43.2852 10.4307 43.2171 10.435C43.2122 10.4353 43.2073 10.4356 43.2023 10.4359L43.2009 10.2932L43.2008 10.2777L43.1985 10.0454C43.242 9.99545 43.2868 9.95596 43.3275 9.92579C43.4058 9.86769 43.4739 9.8399 43.508 9.82781C43.5395 9.81666 43.5618 9.81205 43.5702 9.81061" stroke="#666666" stroke-width="2"/>
<circle cx="41" cy="7" r="1" fill="#666666"/>
</svg>
