<svg width="33" height="44" viewBox="0 0 33 44" fill="none" xmlns="http://www.w3.org/2000/svg">
<path d="M1 5.77984C1 5.16196 1.33831 4.53809 2.20469 3.90464C3.07812 3.26604 4.36834 2.71533 5.95062 2.27105C9.10301 1.38588 13.1305 1 16.5001 1C19.872 1 23.8994 1.37453 27.0511 2.25382C28.633 2.69515 29.9219 3.24422 30.7942 3.88391C31.6576 4.51706 32 5.1465 32 5.77984V37.9598C32 38.4287 31.7534 38.9836 31.0464 39.5994C30.3384 40.2162 29.255 40.8115 27.8269 41.3283C24.9783 42.3591 20.9747 43 16.5 43H16.2715C11.8524 42.9742 7.90762 42.3023 5.10325 41.2626C3.69687 40.7413 2.62987 40.1467 1.93274 39.5379C1.23348 38.9273 1 38.3914 1 37.9598V5.77984Z" stroke="#666666" stroke-width="2"/>
<path d="M32 6C32 6.43479 31.763 6.97403 31.0508 7.58714C30.341 8.19824 29.2553 8.79266 27.8262 9.311C24.976 10.3447 20.9719 11 16.5 11C12.0247 11 8.02035 10.3632 5.17113 9.33912C3.74255 8.82563 2.65902 8.23412 1.95105 7.6215C1.24383 7.00952 1 6.46055 1 6C1 5.53945 1.24383 4.99048 1.95105 4.3785C2.65902 3.76588 3.74255 3.17437 5.17113 2.66088C8.02035 1.63676 12.0247 1 16.5 1C20.9753 1 24.9796 1.63676 27.8289 2.66088C29.2575 3.17437 30.341 3.76588 31.0489 4.3785C31.7562 4.99048 32 5.53945 32 6Z" stroke="#666666" stroke-width="2"/>
<path d="M25.899 28.2373V19.14H23.533V30.1905H30V28.2373H25.899ZM7.1288 23.7689C6.64031 23.569 6.18737 23.2888 5.78807 22.9395C5.68204 22.8254 5.5995 22.6908 5.54533 22.5438C5.49115 22.3967 5.46642 22.2402 5.47261 22.0832C5.46455 21.9262 5.49664 21.7696 5.56575 21.629C5.63487 21.4883 5.73864 21.3682 5.86694 21.2805C6.19027 21.0528 6.57834 20.94 6.97106 20.9595C7.90737 20.9166 8.83141 21.1894 9.59994 21.7354V19.4343C8.76004 19.1163 7.86654 18.9707 6.97106 19.0062C5.93968 18.9503 4.92285 19.2731 4.10559 19.9159C3.74938 20.1955 3.46351 20.5572 3.27155 20.9712C3.07958 21.3852 2.98701 21.8397 3.00147 22.2973C3.00147 23.6619 3.84271 24.7322 5.63034 25.5349C6.21094 25.7856 6.75848 26.1092 7.26024 26.4981C7.38315 26.6031 7.48209 26.7341 7.5502 26.8819C7.6183 27.0298 7.65392 27.191 7.65457 27.3543C7.65464 27.5167 7.61649 27.6768 7.54331 27.8211C7.47013 27.9654 7.36405 28.0898 7.23395 28.1838C6.87618 28.397 6.46503 28.4993 6.05096 28.4781C4.99358 28.4692 3.97533 28.0699 3.18549 27.3543V29.8427C4.05364 30.2983 5.0222 30.5194 5.99838 30.4849C7.10027 30.5514 8.19232 30.2405 9.10045 29.6019C9.4212 29.2927 9.66664 28.9116 9.81724 28.4889C9.96785 28.0662 10.0195 27.6136 9.96798 27.167C9.98062 26.482 9.74689 25.8159 9.31076 25.2941C8.69654 24.6356 7.95313 24.116 7.1288 23.7689ZM20.9041 28.0232C21.5009 27.0057 21.8018 25.8366 21.7716 24.6519C21.7122 23.649 21.4145 22.6757 20.9041 21.8157C20.4937 20.9801 19.8546 20.2832 19.0639 19.8089C18.2626 19.3467 17.356 19.1068 16.435 19.1132C15.4421 19.091 14.4616 19.3405 13.5958 19.8357C12.7843 20.2966 12.1186 20.9835 11.6767 21.8157C11.2114 22.7617 10.9769 23.8081 10.9932 24.8659C10.9987 25.7953 11.2146 26.7109 11.6242 27.5416C12.0254 28.3681 12.6561 29.0565 13.4381 29.5216C14.2321 30.0145 15.1375 30.291 16.067 30.3243L18.3278 33H21.5087L18.2752 30.0568C19.3641 29.7244 20.2979 29.002 20.9041 28.0232ZM18.2752 27.3543C18.0359 27.6568 17.7309 27.8988 17.3843 28.0613C17.0376 28.2238 16.6587 28.3023 16.2773 28.2908C15.893 28.3034 15.5113 28.2226 15.1638 28.0551C14.8164 27.8876 14.5132 27.6382 14.2793 27.3276C13.7236 26.5548 13.4537 25.6073 13.517 24.6519C13.4559 23.6967 13.7257 22.75 14.2793 21.9762C14.5268 21.6658 14.8394 21.4157 15.1942 21.2444C15.5491 21.0731 15.9371 20.9849 16.3299 20.9862C16.7138 20.9694 17.0956 21.0512 17.4402 21.2243C17.7848 21.3973 18.081 21.6559 18.3015 21.9762C18.8194 22.765 19.0688 23.705 19.0113 24.6519C19.103 25.6144 18.8408 26.5773 18.2752 27.3543Z" fill="#666666"/>
</svg>
