<svg width="44" height="38" viewBox="0 0 44 38" fill="none" xmlns="http://www.w3.org/2000/svg">
<path d="M34.4209 12.2727L34.4567 13.1078L35.2848 13.2208C37.368 13.505 39.29 14.5404 40.7053 16.1489C42.1142 17.7502 42.9286 19.8151 42.9994 21.9789C42.9098 24.3607 41.9316 26.6116 40.2738 28.2673C38.6093 29.9296 36.3889 30.8639 34.0769 30.8833L33.9454 30.8844L33.8186 30.9195C33.7326 30.9433 33.6441 30.9547 33.5556 30.9536L33.5556 30.9535H33.5427H13.4811H13.4393L13.3976 30.957C13.062 30.9851 12.7259 31.0011 12.3884 31.0011H12.3705L12.3525 31.0018C9.45867 31.1059 6.63775 30.0298 4.50818 28.0008C2.38584 25.9788 1.1227 23.1739 1.00063 20.1944C1.08931 17.5466 2.09524 15.0215 3.83259 13.0722C5.5769 11.115 7.94215 9.86822 10.4976 9.55051L11.1063 9.47483L11.3147 8.89793C12.167 6.53877 13.7115 4.51442 15.7299 3.1021C17.7478 1.69005 20.1406 0.95858 22.5772 1.00542L22.602 1.0059L22.6268 1.00515C25.6299 0.91393 28.5521 2.03863 30.7608 4.14413C32.9704 6.25045 34.2881 9.16972 34.4209 12.2727Z" stroke="#666666" stroke-width="2"/>
<path d="M28.3503 15.7769C28.355 14.6569 28.071 13.5554 27.5272 12.5843C26.9833 11.6131 26.1988 10.8068 25.2533 10.2469C24.3078 9.68711 23.2348 9.39372 22.1432 9.3965C21.0515 9.39929 19.98 9.69815 19.0372 10.2628C18.0944 10.8274 17.3139 11.6378 16.7747 12.6117C16.2355 13.5856 15.9569 14.6885 15.9671 15.8085C15.9772 16.9285 16.2758 18.0259 16.8325 18.9894C17.3892 19.9528 18.1843 20.7481 19.1372 21.2947V29.5187H25.0796V21.3549C26.0658 20.816 26.8909 20.0125 27.4669 19.0301C28.043 18.0477 28.3483 16.9234 28.3503 15.7769ZM23.2463 27.6251H20.9705V22.007C21.3619 22.0861 21.7596 22.1273 22.1585 22.1299C22.5237 22.1255 22.8877 22.0877 23.2463 22.017V27.6251ZM23.2463 20.0858C22.8917 20.1857 22.5262 20.2388 22.1585 20.2438C21.7557 20.2383 21.3557 20.1742 20.9705 20.0532L23.2463 20.0858ZM25.0796 19.0826L19.1372 18.9898C18.5038 18.3682 18.0675 17.5653 17.8852 16.6857C17.7029 15.8061 17.783 14.8906 18.115 14.0583C18.4471 13.2261 19.0157 12.5157 19.7468 12.0198C20.478 11.5239 21.3377 11.2654 22.2141 11.278C23.0905 11.2905 23.9429 11.5736 24.6602 12.0903C25.3775 12.607 25.9266 13.3334 26.2358 14.1749C26.545 15.0163 26.6001 15.9338 26.3939 16.8078C26.1877 17.6818 25.7297 18.4719 25.0796 19.075V19.0826Z" fill="#666666"/>
<path d="M26.5078 15.7733C26.5122 14.9399 26.2895 14.1219 25.8649 13.4114C25.4402 12.7009 24.8305 12.1264 24.1046 11.7525C23.3786 11.3787 22.5653 11.2204 21.7563 11.2956C20.9474 11.3708 20.175 11.6764 19.5263 12.178C18.8776 12.6796 18.3784 13.3572 18.0851 14.1344C17.7918 14.9115 17.716 15.7574 17.8662 16.5764C18.0165 17.3954 18.3868 18.1551 18.9354 18.7697C19.484 19.3843 20.1891 19.8293 20.9712 20.0546V27.6215H23.247V20.0973C24.1809 19.8497 25.0081 19.2905 25.5985 18.5078C26.1888 17.725 26.5087 16.7631 26.5078 15.7733Z" fill="white"/>
<path d="M36.0676 26.6279H8.21315C7.08599 26.6279 6.21582 27.5582 6.21582 28.6512V34.9766C6.21582 36.0696 7.08599 36.9999 8.21315 36.9999H36.0676C37.1948 36.9999 38.0649 36.0696 38.0649 34.9766V28.6512C38.0649 27.5582 37.1948 26.6279 36.0676 26.6279Z" fill="white" stroke="#666666" stroke-width="2"/>
<path d="M34.2736 29.0884H33.0416C32.7662 29.0884 32.543 29.3175 32.543 29.6V30.8641C32.543 31.1467 32.7662 31.3757 33.0416 31.3757H34.2736C34.549 31.3757 34.7723 31.1467 34.7723 30.8641V29.6C34.7723 29.3175 34.549 29.0884 34.2736 29.0884Z" fill="#666666"/>
<path d="M34.2736 32.2427H33.0416C32.7662 32.2427 32.543 32.4717 32.543 32.7543V34.0184C32.543 34.301 32.7662 34.53 33.0416 34.53H34.2736C34.549 34.53 34.7723 34.301 34.7723 34.0184V32.7543C34.7723 32.4717 34.549 32.2427 34.2736 32.2427Z" fill="#666666"/>
</svg>
