<svg width="48" height="42" viewBox="0 0 48 42" fill="none" xmlns="http://www.w3.org/2000/svg">
<path d="M34.2758 11.9214L33.5642 12.624L34.0137 13.0792L34.6154 12.8619L34.2758 11.9214ZM30.4567 9.22848L30.88 8.32247L30.8747 8.32L30.4567 9.22848ZM37.326 10.8201L38.0548 10.1354L37.6047 9.6562L36.9863 9.87949L37.326 10.8201ZM39.3061 13.6086L39.6436 14.55L40.7764 14.1439L40.1698 13.1045L39.3061 13.6086ZM33.0273 15.8596L32.6899 14.9183L31.5721 15.319L32.1571 16.3523L33.0273 15.8596ZM34.6637 23.5541L33.6667 23.4779L33.5486 25.0223L35.0047 24.4941L34.6637 23.5541ZM37.9568 22.3596L38.9508 22.4684L39.1256 20.8719L37.6158 21.4195L37.9568 22.3596ZM36.807 26.5071L37.7118 26.9328L37.7152 26.9254L36.807 26.5071ZM24.3488 33.9889L24.3929 32.9898L24.3929 32.9898L24.3488 33.9889ZM19.38 32.7791L18.9567 33.6851L18.9596 33.6864L19.38 32.7791ZM15.5609 30.0862L16.2725 29.3836L15.8228 28.9281L15.2208 29.1458L15.5609 30.0862ZM11.9048 31.4085L11.1655 32.0819L11.6159 32.5764L12.245 32.3489L11.9048 31.4085ZM8.71687 24.6951L8.37939 23.7538L7.56833 24.0445L7.73598 24.8897L8.71687 24.6951ZM14.9848 22.448L15.3223 23.3894L16.1283 23.1004L15.9669 22.2595L14.9848 22.448ZM14.7722 18.7983L15.7699 18.866L15.8737 17.3367L14.4322 17.8579L14.7722 18.7983ZM11.9011 19.8364L10.9048 19.7507L10.7709 21.3084L12.2411 20.7768L11.9011 19.8364ZM13.0693 15.5005L12.165 15.0736L12.1647 15.0743L13.0693 15.5005ZM20.4537 8.80437L20.1144 7.8637L20.4537 8.80437ZM41.6667 20.6749L40.6715 20.7721L40.7966 22.0524L42.0065 21.6154L41.6667 20.6749ZM45.0532 19.4516L46.0501 19.3719L45.9457 18.0661L44.7135 18.5111L45.0532 19.4516ZM43.1715 29.585L44.0734 30.0169L43.1715 29.585ZM26.6507 40.9286L26.7342 41.9251H26.7342L26.6507 40.9286ZM16.4088 39.1197L16.829 38.2122L16.8256 38.2107L16.4088 39.1197ZM8.71764 32.8895L9.52096 32.294L9.07745 31.6957L8.37723 31.9492L8.71764 32.8895ZM5.10222 34.1984L4.28702 34.7776L4.72752 35.3976L5.44263 35.1387L5.10222 34.1984ZM2 27.0482L1.66297 26.1067L0.802102 26.4149L1.03217 27.2998L2 27.0482ZM8.27309 24.8026L8.61013 25.7441L9.47985 25.4327L9.2383 24.5411L8.27309 24.8026ZM7.72211 21.5076L8.71877 21.4259L8.61209 20.1235L7.38281 20.5669L7.72211 21.5076ZM4.81562 22.5559L3.81881 22.6358L3.92333 23.9408L5.15492 23.4966L4.81562 22.5559ZM7.95293 10.1788L7.11399 9.63461L7.95293 10.1788ZM18.0154 2.20799L17.6759 1.2674V1.2674L18.0154 2.20799ZM30.8968 1.89611L30.6033 2.85206V2.85206L30.8968 1.89611ZM41.2634 9.2641L40.456 9.85413L40.898 10.459L41.6027 10.2048L41.2634 9.2641ZM44.3016 8.16819L45.1211 7.59501L44.6824 6.9678L43.9623 7.22751L44.3016 8.16819ZM45.9998 11.2112L46.3369 12.1527L47.389 11.7761L46.8983 10.7721L45.9998 11.2112ZM39.7301 13.4811L39.3785 12.545L38.3497 12.9314L38.8312 13.9193L39.7301 13.4811ZM34.9874 11.2188C33.8027 10.0188 32.4117 9.03808 30.88 8.32248L30.0334 10.1345C31.351 10.75 32.5466 11.5932 33.5642 12.624L34.9874 11.2188ZM36.9863 9.87949L33.9362 10.9808L34.6154 12.8619L37.6656 11.7606L36.9863 9.87949ZM40.1698 13.1045C39.6036 12.1345 38.8937 11.0285 38.0548 10.1354L36.5971 11.5047C37.2782 12.2298 37.8973 13.1787 38.4425 14.1127L40.1698 13.1045ZM38.9687 12.6673L32.6899 14.9183L33.3648 16.801L39.6436 14.55L38.9687 12.6673ZM32.1571 16.3523C33.3114 18.391 33.8478 21.1073 33.6667 23.4779L35.6608 23.6303C35.8691 20.905 35.267 17.7857 33.8976 15.3669L32.1571 16.3523ZM35.0047 24.4941L38.2978 23.2997L37.6158 21.4195L34.3228 22.614L35.0047 24.4941ZM37.7152 26.9254C38.3652 25.5142 38.7822 24.0093 38.9508 22.4684L36.9627 22.2508C36.8175 23.5773 36.4586 24.8731 35.8987 26.0887L37.7152 26.9254ZM34.4536 31.3345C35.8208 30.0941 36.9281 28.5985 37.7118 26.9328L35.9021 26.0813C35.231 27.5076 34.2823 28.7894 33.1098 29.8533L34.4536 31.3345ZM29.7452 34.1624C31.4865 33.5357 33.0865 32.5749 34.4536 31.3345L33.1098 29.8533C31.9372 30.9172 30.5637 31.7422 29.0679 32.2805L29.7452 34.1624ZM24.3047 34.9879C26.1552 35.0695 28.0039 34.7891 29.7452 34.1624L29.0679 32.2805C27.572 32.8189 25.9833 33.06 24.3929 32.9898L24.3047 34.9879ZM18.9596 33.6864C20.6379 34.4641 22.4543 34.9062 24.3047 34.9879L24.3929 32.9898C22.8024 32.9197 21.2418 32.5396 19.8004 31.8718L18.9596 33.6864ZM14.8493 30.7888C16.0341 31.9888 17.4251 32.9695 18.9567 33.6851L19.8033 31.8731C18.4858 31.2575 17.2902 30.4144 16.2725 29.3836L14.8493 30.7888ZM12.245 32.3489L15.901 31.0266L15.2208 29.1458L11.5647 30.4681L12.245 32.3489ZM7.73598 24.8897C8.23306 27.3956 9.36523 30.1053 11.1655 32.0819L12.6441 30.7352C11.1511 29.0959 10.1443 26.7518 9.69775 24.5005L7.73598 24.8897ZM14.6473 21.5067L8.37939 23.7538L9.05434 25.6364L15.3223 23.3894L14.6473 21.5067ZM13.7745 18.7306C13.69 19.9763 13.7653 21.3994 14.0027 22.6365L15.9669 22.2595C15.7638 21.2016 15.6963 19.9512 15.7699 18.866L13.7745 18.7306ZM12.2411 20.7768L15.1122 19.7387L14.4322 17.8579L11.5611 18.896L12.2411 20.7768ZM12.1647 15.0743C11.4705 16.5478 11.0441 18.1309 10.9048 19.7507L12.8974 19.922C13.0164 18.5387 13.3806 17.1862 13.9739 15.9267L12.1647 15.0743ZM20.1144 7.8637C16.6079 9.12857 13.7481 11.7203 12.165 15.0736L13.9736 15.9274C15.329 13.0562 17.7805 10.8317 20.793 9.74504L20.1144 7.8637ZM30.8747 8.32C27.49 6.76287 23.6206 6.59891 20.1144 7.8637L20.793 9.74504C23.8059 8.65824 27.1312 8.79933 30.0388 10.137L30.8747 8.32ZM42.0065 21.6154L45.393 20.3922L44.7135 18.5111L41.327 19.7343L42.0065 21.6154ZM44.0564 19.5313C44.3208 22.8378 43.7048 26.1554 42.2695 29.1532L44.0734 30.0169C45.6608 26.7013 46.3426 23.0308 46.0501 19.3719L44.0564 19.5313ZM42.2695 29.1532C40.8342 32.151 38.6293 34.7247 35.874 36.6166L37.0061 38.2653C40.0488 36.1762 42.486 33.3323 44.0734 30.0169L42.2695 29.1532ZM35.874 36.6166C33.1187 38.5084 29.9097 39.652 26.5672 39.9321L26.7342 41.9251C30.4217 41.6161 33.9635 40.3544 37.0061 38.2653L35.874 36.6166ZM26.5672 39.9321C23.2247 40.2122 19.8668 39.619 16.829 38.2122L15.9886 40.0271C19.3416 41.5798 23.0468 42.2341 26.7342 41.9251L26.5672 39.9321ZM16.8256 38.2107C13.923 36.8795 11.4107 34.843 9.52096 32.294L7.91433 33.4851C10.0057 36.306 12.7842 38.5575 15.9919 40.0286L16.8256 38.2107ZM8.37723 31.9492L4.7618 33.2581L5.44263 35.1387L9.05805 33.8298L8.37723 31.9492ZM5.91741 33.6192C4.55564 31.7026 3.58452 29.1686 2.96783 26.7966L1.03217 27.2998C1.68038 29.7931 2.72955 32.5855 4.28702 34.7776L5.91741 33.6192ZM2.33703 27.9897L8.61013 25.7441L7.93606 23.8611L1.66297 26.1067L2.33703 27.9897ZM9.2383 24.5411C8.97899 23.5839 8.8028 22.4517 8.71877 21.4259L6.72545 21.5892C6.81694 22.706 7.00957 23.9629 7.30789 25.0641L9.2383 24.5411ZM7.38281 20.5669L4.47631 21.6153L5.15492 23.4966L8.06142 22.4482L7.38281 20.5669ZM5.81243 22.4761C5.48135 18.3421 6.52746 14.2137 8.79187 10.7231L7.11399 9.63461C4.61037 13.494 3.45243 18.0609 3.81881 22.6358L5.81243 22.4761ZM8.79187 10.7231C11.0564 7.23222 14.415 4.57088 18.355 3.14858L17.6759 1.2674C13.328 2.83698 9.61749 5.77537 7.11399 9.63461L8.79187 10.7231ZM18.355 3.14858C22.295 1.72623 26.5976 1.62203 30.6033 2.85206L31.1903 0.940166C26.7705 -0.417029 22.0236 -0.302131 17.6759 1.2674L18.355 3.14858ZM30.6033 2.85206C34.5688 4.06976 38.0253 6.52806 40.456 9.85413L42.0707 8.67408C39.384 4.99759 35.5661 2.28383 31.1903 0.940166L30.6033 2.85206ZM41.6027 10.2048L44.6409 9.10887L43.9623 7.22751L40.924 8.32343L41.6027 10.2048ZM43.4822 8.74137C44.0723 9.58488 44.6095 10.6438 45.1014 11.6504L46.8983 10.7721C46.4102 9.77363 45.8119 8.5826 45.1211 7.59501L43.4822 8.74137ZM45.9998 11.2112C45.6628 10.2697 45.6628 10.2698 45.6628 10.2698C45.6627 10.2698 45.6627 10.2698 45.6626 10.2698C45.6624 10.2699 45.6622 10.27 45.6619 10.2701C45.6613 10.2703 45.6604 10.2706 45.6593 10.271C45.6569 10.2718 45.6535 10.2731 45.6489 10.2747C45.6397 10.278 45.626 10.2829 45.6081 10.2893C45.5724 10.3021 45.5198 10.321 45.4524 10.3451C45.3175 10.3934 45.1233 10.4631 44.8857 10.5483C44.4106 10.7188 43.762 10.9518 43.0681 11.2018C41.6835 11.7006 40.1089 12.2706 39.3785 12.545L40.0817 14.4173C40.7967 14.1487 42.3571 13.5838 43.746 13.0834C44.4388 12.8338 45.0866 12.6011 45.5612 12.4308C45.7985 12.3457 45.9925 12.2761 46.1271 12.2279C46.1944 12.2038 46.2469 12.185 46.2825 12.1722C46.3003 12.1658 46.3139 12.161 46.3231 12.1577C46.3276 12.156 46.3311 12.1548 46.3334 12.154C46.3346 12.1536 46.3354 12.1532 46.336 12.153C46.3363 12.1529 46.3365 12.1529 46.3367 12.1528C46.3367 12.1528 46.3368 12.1528 46.3368 12.1527C46.3369 12.1527 46.3369 12.1527 45.9998 11.2112ZM42.662 20.5776C42.4184 18.0853 41.738 15.3185 40.629 13.043L38.8312 13.9193C39.8157 15.9393 40.4461 18.466 40.6715 20.7721L42.662 20.5776Z" fill="#666666"/>
</svg>
