<svg width="34" height="44" viewBox="0 0 34 44" fill="none" xmlns="http://www.w3.org/2000/svg">
<path d="M33 6C33 6.42249 32.7621 6.95977 32.0228 7.57761C31.288 8.19159 30.1649 8.78813 28.6886 9.30782C25.745 10.344 21.6126 11 17 11C12.3841 11 8.25146 10.3626 5.30873 9.33598C3.83297 8.82113 2.71202 8.22747 1.97913 7.61194C1.24492 6.9953 1 6.44833 1 6C1 5.55167 1.24492 5.0047 1.97913 4.38806C2.71202 3.77253 3.83297 3.17887 5.30873 2.66402C8.25146 1.63739 12.3841 1 17 1C21.6159 1 25.7485 1.63739 28.6913 2.66402C30.167 3.17887 31.288 3.77253 32.0209 4.38806C32.7551 5.0047 33 5.55167 33 6Z" stroke="#666666" stroke-width="2"/>
<path d="M26.5975 22V26.1056H24.0985C23.9597 26.1022 23.8233 26.069 23.6983 26.0082C23.5733 25.9474 23.4627 25.8604 23.3737 25.753V22H20V26.4834C20.009 26.799 20.0819 27.1095 20.2143 27.3957C20.3466 27.6819 20.5356 27.9378 20.7697 28.1477C21.0037 28.3576 21.2778 28.5171 21.5752 28.6164C21.8726 28.7157 22.187 28.7527 22.4991 28.7251H26.2227L26.8724 28.3977C26.8724 28.3977 26.5975 29.4304 26.2227 29.4807H20.2749V31.9995H26.9224C27.3366 32.0069 27.748 31.9285 28.1308 31.769C28.5137 31.6096 28.86 31.3725 29.1483 31.0726C29.4365 30.7726 29.6605 30.4162 29.8064 30.0254C29.9522 29.6346 30.0169 29.2177 29.9963 28.8007V22H26.5975Z" stroke="#666666" stroke-width="2" stroke-linejoin="round"/>
<path d="M17.9805 21.5706V20.2658C18.043 19.828 17.9539 19.3812 17.7292 19.0055C17.5044 18.6298 17.1586 18.3498 16.7537 18.2154C16.34 18.0799 15.9095 18.0081 15.4758 18.0024C14.9828 17.9798 14.4951 18.116 14.079 18.3923C13.6628 18.6686 13.3385 19.0717 13.15 19.5469L11.1564 24.6063L8.60054 19.5469C8.42284 19.0911 8.11887 18.7008 7.72739 18.4257C7.33592 18.1506 6.87468 18.0033 6.4025 18.0024C5.95768 17.9996 5.51604 18.0808 5.09902 18.2421C4.20447 18.535 4 19.1474 4 20.1859V29H6.99035V23.0618L8.60054 27.2425C8.81246 27.7656 9.16826 28.2116 9.62309 28.5244C10.0779 28.8371 10.6114 29.0026 11.1564 29C12.281 29 12.741 28.3076 13.2011 27.2425L14.9135 23.2216V28.9467H17.9294V21.5706H17.9805Z" stroke="#666666" stroke-width="2" stroke-linejoin="round"/>
<path d="M1 5.77984C1 5.17547 1.34126 4.55221 2.24213 3.91291C3.1468 3.27092 4.48168 2.71832 6.11535 2.27309C9.36969 1.38618 13.5249 1 17.0001 1C20.4776 1 24.6327 1.3748 27.8863 2.25584C29.5196 2.69812 30.8532 3.2491 31.7567 3.89221C32.6545 4.53117 33 5.15997 33 5.77984V37.9598C33 38.4166 32.7521 38.9693 32.0183 39.5898C31.2854 40.2095 30.1646 40.807 28.6893 41.3251C25.7473 42.3584 21.6153 43 17 43H16.7642C12.206 42.9742 8.13473 42.3015 5.23833 41.2593C3.78552 40.7366 2.68177 40.1399 1.96019 39.5283C1.23428 38.913 1 38.3792 1 37.9598V5.77984Z" stroke="#666666" stroke-width="2"/>
</svg>
