<svg width="44" height="34" viewBox="0 0 44 34" fill="none" xmlns="http://www.w3.org/2000/svg">
<mask id="path-1-inside-1_4517_1822" fill="white">
<path d="M29.3495 19.5949C32.2412 19.5949 36.4251 18.9857 36.4251 15.4724C36.4338 15.2012 36.4097 14.93 36.3535 14.6649L34.6314 7.02431C34.2338 5.34319 33.8847 4.58056 30.9953 3.10486C28.7531 1.93375 23.8689 0 22.4242 0C21.0789 0 20.6882 1.77083 19.084 1.77083C17.5399 1.77083 16.3934 0.448611 14.9487 0.448611C13.5618 0.448611 12.6579 1.41431 11.9599 3.4C11.9599 3.4 10.0159 9.00056 9.76622 9.81278C9.72654 9.96193 9.70939 10.1164 9.71537 10.2708C9.71537 12.4478 18.1062 19.5854 29.3495 19.5854M36.8689 16.8985C37.2688 18.8322 37.2688 19.0353 37.2688 19.2903C37.2688 22.5958 33.6305 24.4304 28.8479 24.4304C18.0392 24.4375 8.57116 17.9681 8.57116 13.6921C8.57053 13.0969 8.68932 12.5079 8.9202 11.9614C5.0322 12.1597 0 12.8681 0 17.4061C0 24.8389 17.2417 34 30.8936 34C41.3602 34 44 29.1644 44 25.3465C44 22.3432 41.4573 18.9338 36.8735 16.8985"/>
</mask>
<path d="M36.4251 15.4724L34.4261 15.4086L34.4251 15.4405V15.4724H36.4251ZM36.3535 14.6649L38.3099 14.2499L38.3073 14.2375L38.3045 14.2251L36.3535 14.6649ZM34.6314 7.02431L36.5824 6.58456L36.5801 6.57427L36.5777 6.564L34.6314 7.02431ZM30.9953 3.10486L30.0694 4.87762L30.0775 4.88185L30.0856 4.88601L30.9953 3.10486ZM11.9599 3.4L10.073 2.73668L10.0704 2.74417L11.9599 3.4ZM9.76622 9.81278L7.85448 9.22518L7.84326 9.26169L7.83345 9.2986L9.76622 9.81278ZM9.71537 10.2708H11.7154V10.2322L11.7139 10.1935L9.71537 10.2708ZM28.8479 24.4304V22.4304H28.8466L28.8479 24.4304ZM8.57116 13.6921H10.5712L10.5712 13.69L8.57116 13.6921ZM8.9202 11.9614L10.7625 12.7397L12.0039 9.80149L8.81831 9.96399L8.9202 11.9614ZM29.3495 21.5949C30.8754 21.5949 32.9665 21.443 34.7465 20.6949C35.6568 20.3124 36.5859 19.7327 37.2928 18.842C38.0239 17.9207 38.4251 16.7807 38.4251 15.4724H34.4251C34.4251 15.9207 34.3033 16.1743 34.1596 16.3554C33.9916 16.5671 33.694 16.7984 33.1969 17.0073C32.1621 17.4422 30.7153 17.5949 29.3495 17.5949V21.5949ZM38.4241 15.5361C38.4379 15.1044 38.3996 14.6725 38.3099 14.2499L34.397 15.0798C34.4198 15.1875 34.4297 15.298 34.4261 15.4086L38.4241 15.5361ZM38.3045 14.2251L36.5824 6.58456L32.6803 7.46405L34.4024 15.1046L38.3045 14.2251ZM36.5777 6.564C36.3687 5.68022 36.098 4.66317 35.2708 3.69125C34.5029 2.78905 33.3918 2.08304 31.905 1.32371L30.0856 4.88601C31.4883 5.60237 31.9964 6.01553 32.2248 6.28385C32.3938 6.48245 32.4965 6.68728 32.6851 7.48461L36.5777 6.564ZM31.9212 1.3321C30.7063 0.697504 28.8446 -0.110935 27.1121 -0.759723C26.2413 -1.08581 25.3723 -1.38318 24.6088 -1.60209C23.9127 -1.80167 23.0949 -2 22.4242 -2V2C22.4133 2 22.5001 2.002 22.7236 2.04664C22.9296 2.0878 23.1918 2.15281 23.5063 2.24298C24.135 2.42324 24.8982 2.68251 25.7093 2.98625C27.3406 3.59712 29.0422 4.34111 30.0694 4.87762L31.9212 1.3321ZM22.4242 -2C20.8054 -2 19.7794 -0.854791 19.4742 -0.565088C19.2376 -0.34045 19.1447 -0.267975 19.0821 -0.231305C19.0629 -0.22002 19.0624 -0.222211 19.0755 -0.225997C19.0901 -0.230255 19.0963 -0.229167 19.084 -0.229167V3.77083C20.7476 3.77083 21.7612 2.77914 22.2281 2.33592C22.8557 1.74021 22.6976 2 22.4242 2V-2ZM19.084 -0.229167C18.8547 -0.229167 18.5913 -0.319743 17.8744 -0.678655C17.3135 -0.959525 16.2299 -1.55139 14.9487 -1.55139V2.44861C15.1122 2.44861 15.3242 2.51786 16.0837 2.8981C16.6873 3.2003 17.7692 3.77083 19.084 3.77083V-0.229167ZM14.9487 -1.55139C13.7173 -1.55139 12.6356 -1.09377 11.7773 -0.230106C10.9883 0.563833 10.465 1.62184 10.0731 2.73668L13.8467 4.06332C14.1528 3.19246 14.4304 2.77478 14.6146 2.58945C14.6933 2.51019 14.7433 2.48534 14.7664 2.47568C14.7891 2.46618 14.8401 2.44861 14.9487 2.44861V-1.55139ZM11.9599 3.4C10.0704 2.74417 10.0704 2.74419 10.0704 2.74424C10.0704 2.74429 10.0704 2.74436 10.0704 2.74444C10.0703 2.74462 10.0702 2.74488 10.0701 2.74523C10.0698 2.74592 10.0695 2.74695 10.069 2.74831C10.0681 2.75103 10.0667 2.75508 10.0648 2.76042C10.0611 2.77109 10.0556 2.78692 10.0484 2.80759C10.0341 2.84892 10.0131 2.9096 9.98619 2.98709C9.93246 3.14207 9.85544 3.36432 9.76225 3.63353C9.57589 4.17188 9.32473 4.89837 9.06568 5.65051C8.55656 7.12869 7.99207 8.77756 7.85448 9.22518L11.678 10.4004C11.79 10.0358 12.3223 8.47825 12.8476 6.9531C13.1058 6.20357 13.3562 5.47917 13.5422 4.94203C13.6351 4.67349 13.7119 4.45185 13.7655 4.29738C13.7923 4.22014 13.8132 4.15971 13.8275 4.1186C13.8346 4.09805 13.8401 4.08233 13.8437 4.07176C13.8456 4.06648 13.847 4.06249 13.8479 4.05982C13.8484 4.05848 13.8487 4.05748 13.8489 4.05681C13.8491 4.05648 13.8491 4.05623 13.8492 4.05607C13.8492 4.05599 13.8492 4.05593 13.8493 4.05589C13.8493 4.05585 13.8493 4.05583 11.9599 3.4ZM7.83345 9.2986C7.74241 9.6408 7.70319 9.99465 7.71686 10.3481L11.7139 10.1935C11.7156 10.2381 11.7107 10.2831 11.699 10.327L7.83345 9.2986ZM7.71537 10.2708C7.71537 11.1053 8.08287 11.8441 8.40037 12.3537C8.7525 12.9189 9.22848 13.492 9.77847 14.0494C10.8832 15.169 12.4283 16.3683 14.3037 17.4692C18.056 19.6721 23.3104 21.5854 29.3495 21.5854V17.5854C24.1454 17.5854 19.5827 15.93 16.3287 14.0197C14.701 13.0642 13.4457 12.0709 12.6258 11.2399C12.2134 10.822 11.946 10.4803 11.7954 10.2385C11.6101 9.9411 11.7154 9.98059 11.7154 10.2708H7.71537ZM34.9104 17.3035C35.3172 19.271 35.2688 19.2739 35.2688 19.2903H39.2688C39.2688 18.7967 39.2204 18.3935 38.8275 16.4934L34.9104 17.3035ZM35.2688 19.2903C35.2688 20.0673 34.894 20.7651 33.8505 21.3686C32.746 22.0075 31.0223 22.4304 28.8479 22.4304V26.4304C31.4561 26.4304 33.9428 25.9361 35.8531 24.8312C37.8245 23.6911 39.2688 21.8188 39.2688 19.2903H35.2688ZM28.8466 22.4304C23.8225 22.4337 19.0964 20.9255 15.6578 18.9362C13.9381 17.9414 12.6034 16.8624 11.7247 15.858C10.8069 14.8088 10.5712 14.0594 10.5712 13.6921H6.57116C6.57116 15.4628 7.51897 17.1255 8.71413 18.4917C9.94849 19.9027 11.6563 21.2425 13.6548 22.3986C17.6523 24.7112 23.0646 26.4342 28.8492 26.4304L28.8466 22.4304ZM10.5712 13.69C10.5708 13.362 10.6363 13.0384 10.7625 12.7397L7.07787 11.1831C6.74231 11.9773 6.57025 12.8318 6.57116 13.6942L10.5712 13.69ZM8.81831 9.96399C6.86527 10.0636 4.30614 10.2954 2.19509 11.2264C1.111 11.7045 0.0446281 12.4088 -0.751051 13.4662C-1.56607 14.5493 -2 15.8752 -2 17.4061H2C2 16.668 2.19509 16.2036 2.44511 15.8713C2.71447 15.5134 3.14915 15.1774 3.80912 14.8863C5.18616 14.279 7.08713 14.0575 9.02209 13.9588L8.81831 9.96399ZM-2 17.4061C-2 20.0217 -0.510955 22.4639 1.46523 24.5204C3.48262 26.6198 6.25327 28.5788 9.38381 30.2538C15.6317 33.5967 23.6772 36 30.8936 36V32C24.4581 32 17.0569 29.8227 11.2709 26.7269C8.3845 25.1825 5.99148 23.4576 4.34942 21.7488C2.66617 19.9972 2 18.5069 2 17.4061H-2ZM30.8936 36C36.4058 36 40.2157 34.7289 42.6729 32.6239C45.1655 30.4886 46 27.7241 46 25.3465H42C42 26.7869 41.5146 28.3491 40.0706 29.5861C38.5913 30.8534 35.848 32 30.8936 32V36ZM46 25.3465C46 21.2392 42.6534 17.2766 37.6852 15.0706L36.0619 18.7264C40.2612 20.5909 42 23.4472 42 25.3465H46Z" fill="#666666" mask="url(#path-1-inside-1_4517_1822)"/>
</svg>
