<svg width="46" height="44" viewBox="0 0 46 44" fill="none" xmlns="http://www.w3.org/2000/svg">
<path d="M28.7705 11.0668V2.24587C29.7845 2.25227 30.8171 2.25227 33.1088 2.25227H33.1118H37.453V11.0668C37.453 11.1124 37.4296 11.2189 37.2458 11.3774C37.0631 11.5348 36.7696 11.699 36.3634 11.8466C35.5549 12.1404 34.4051 12.331 33.1118 12.331H33.0436C31.7653 12.3185 30.6332 12.1233 29.8383 11.8304C29.4386 11.6831 29.1505 11.5206 28.9717 11.3659C28.7913 11.2099 28.7705 11.1073 28.7705 11.0668Z" stroke="#666666"/>
<mask id="path-2-inside-1_4517_2038" fill="white">
<path d="M37.9455 1.75152C37.9455 2.72179 35.7806 3.51564 33.1042 3.51564C30.4278 3.51564 28.2705 2.73187 28.2705 1.75152C28.2705 0.771174 30.4353 0 33.1118 0C35.7882 0 37.953 0.786295 37.953 1.76412"/>
</mask>
<path d="M37.9455 1.75152C37.9455 2.72179 35.7806 3.51564 33.1042 3.51564C30.4278 3.51564 28.2705 2.73187 28.2705 1.75152C28.2705 0.771174 30.4353 0 33.1118 0C35.7882 0 37.953 0.786295 37.953 1.76412" fill="white"/>
<path d="M36.9455 1.75152C36.9455 1.59315 37.0367 1.57207 36.9127 1.67887C36.7923 1.78262 36.5596 1.92149 36.1855 2.05808C35.4455 2.32829 34.3565 2.51564 33.1042 2.51564V4.51564C34.5284 4.51564 35.86 4.30608 36.8715 3.93678C37.3731 3.75363 37.849 3.51211 38.2181 3.19413C38.5836 2.87919 38.9455 2.39503 38.9455 1.75152H36.9455ZM33.1042 2.51564C31.8504 2.51564 30.7635 2.33041 30.0261 2.06167C29.6534 1.92584 29.4229 1.78772 29.304 1.68478C29.1833 1.58025 29.2705 1.59985 29.2705 1.75152H27.2705C27.2705 2.39337 27.6274 2.87857 27.9948 3.19672C28.364 3.51646 28.8401 3.7581 29.3413 3.94076C30.3516 4.30899 31.6816 4.51564 33.1042 4.51564V2.51564ZM29.2705 1.75152C29.2705 1.90548 29.1814 1.92654 29.302 1.82298C29.421 1.72085 29.6521 1.58371 30.0263 1.449C30.7663 1.18252 31.8563 1 33.1118 1V-1C31.6908 -1 30.3602 -0.796934 29.3487 -0.432736C28.8471 -0.252117 28.3698 -0.0126418 27.9992 0.305548C27.6302 0.622305 27.2705 1.10739 27.2705 1.75152H29.2705ZM33.1118 1C34.3652 1 35.4542 1.18576 36.194 1.45505C36.5679 1.59117 36.7998 1.72964 36.9196 1.83304C37.0419 1.93859 36.953 1.91848 36.953 1.76412H38.953C38.953 1.12086 38.5935 0.635774 38.2263 0.318872C37.8565 -0.000173564 37.38 -0.241617 36.8781 -0.424299C35.8663 -0.792617 34.5348 -1 33.1118 -1V1Z" fill="#666666" mask="url(#path-2-inside-1_4517_2038)"/>
<path d="M36.057 15.9525L36.0932 16.7901L36.9243 16.9006C38.7687 17.1458 40.4659 18.0387 41.7126 19.4198C42.952 20.7926 43.6661 22.559 43.7294 24.4068C43.647 26.443 42.7858 28.3703 41.323 29.7904C39.8523 31.2182 37.887 32.0228 35.8372 32.0365L35.7016 32.0374L35.571 32.0744C35.5023 32.0939 35.4316 32.1049 35.3602 32.107H17.4239H17.3849L17.3461 32.1101C17.0385 32.1341 16.7412 32.1499 16.4486 32.1499H16.4306L16.4126 32.1505C13.8428 32.2432 11.3412 31.3128 9.45651 29.5634C7.58026 27.8219 6.46791 25.4104 6.36052 22.8537C6.43871 20.5819 7.32438 18.412 8.85903 16.734C10.4015 15.0476 12.4973 13.9699 14.7663 13.6965L15.3719 13.6235L15.5842 13.0518C16.3368 11.0248 17.7006 9.28162 19.487 8.06338C21.2733 6.84513 23.3941 6.21195 25.556 6.25137L25.5807 6.25182L25.6054 6.25105C28.2736 6.16767 30.8671 7.13935 32.8235 8.95542C34.78 10.7715 35.9418 13.2856 36.057 15.9525Z" fill="white" stroke="#666666" stroke-width="2"/>
<path d="M43.8755 7.33406C43.0033 6.2778 41.7938 5.55425 40.4506 5.28516V8.01955C40.9723 8.19703 41.4352 8.51435 41.7888 8.93689C44.0141 11.8553 39.9693 21.4218 28.326 30.3735C16.6828 39.3252 6.43076 40.7591 4.20544 37.8383C3.11421 36.4068 3.56028 33.3624 5.65202 29.5847C5.0633 28.7265 4.59046 27.7944 4.24577 26.8125C0.99474 31.9562 -0.000729203 36.6412 2.11622 39.431C5.94436 44.4487 18.394 41.3287 29.9264 32.4602C41.4587 23.5917 47.6986 12.3517 43.8755 7.33406Z" fill="#666666" stroke="white"/>
<path d="M13.5 40.9926V25.5018C16.5627 25.5126 17.0398 25.5126 21.5 25.5126C23.3582 25.5126 24.5958 25.5106 25.6029 25.509C26.9986 25.5068 27.9515 25.5053 29.5 25.5107V40.9926C29.5 41.2018 29.3815 41.4701 29.0113 41.7798C28.6437 42.0874 28.082 42.3868 27.3439 42.6479C25.8723 43.1686 23.8063 43.5 21.5 43.5H21.3851C19.106 43.4887 17.0694 43.1538 15.6202 42.6344C14.8933 42.3739 14.3409 42.0764 13.9798 41.7717C13.6163 41.4648 13.5 41.1995 13.5 40.9926Z" fill="white" stroke="#666666"/>
<path d="M26.6952 36.1171V31.7421H25.4906V37.0899H28.6761V36.1171H26.6952ZM17.4562 33.9573C17.2156 33.858 16.9913 33.7229 16.7909 33.5566C16.7366 33.5022 16.6941 33.4372 16.6659 33.3657C16.6377 33.2941 16.6245 33.2176 16.6271 33.1408C16.6258 33.0637 16.6435 32.9875 16.6787 32.9189C16.7139 32.8504 16.7654 32.7915 16.8287 32.7476C16.9908 32.6416 17.1822 32.5895 17.3756 32.5989C17.8151 32.5924 18.2458 32.7228 18.608 32.9719V31.858C18.192 31.7089 17.7518 31.6388 17.3101 31.6513C16.8043 31.6268 16.3058 31.7802 15.9013 32.0848C15.7281 32.222 15.5896 32.3978 15.4968 32.5983C15.404 32.7988 15.3595 33.0183 15.367 33.239C15.3901 33.5925 15.5191 33.9307 15.7371 34.2099C15.955 34.489 16.252 34.696 16.5893 34.8041C16.8744 34.9238 17.1429 35.0797 17.3882 35.2678C17.449 35.3198 17.4978 35.3843 17.5313 35.457C17.5648 35.5296 17.5822 35.6087 17.5823 35.6887C17.5846 35.7665 17.5671 35.8437 17.5314 35.9129C17.4957 35.9821 17.4429 36.0411 17.3781 36.0843C17.2072 36.1937 17.0062 36.2466 16.8035 36.2355C16.2815 36.2307 15.7791 36.0364 15.3897 35.6887V36.8832C15.8191 37.0956 16.2946 37.1977 16.7733 37.1806C17.3134 37.2137 17.8494 37.0675 18.298 36.7648C18.4791 36.628 18.624 36.449 18.7202 36.2435C18.8164 36.0379 18.8609 35.812 18.8499 35.5853C18.8627 35.2529 18.7492 34.9279 18.5324 34.6755C18.2256 34.3662 17.8596 34.122 17.4562 33.9573ZM24.1675 36.0163C24.43 35.5525 24.5769 35.0324 24.5958 34.4998C24.6147 33.9672 24.5049 33.4379 24.2758 32.9568C24.0735 32.5531 23.7583 32.217 23.3686 31.989C22.9665 31.7602 22.5106 31.6427 22.048 31.6488C21.5572 31.6408 21.0729 31.7625 20.6443 32.0016C20.2355 32.2372 19.9051 32.5877 19.6942 33.0097C19.4622 33.4687 19.3463 33.9774 19.3565 34.4916C19.3509 34.9636 19.4581 35.4301 19.669 35.8525C19.8662 36.2487 20.171 36.5815 20.5485 36.8127C20.9363 37.0489 21.3797 37.1785 21.8338 37.1882L22.9427 38.4331H24.5127L22.9628 36.9966C23.4694 36.8222 23.8985 36.4752 24.175 36.0163H24.1675ZM22.9628 35.6887C22.8455 35.8367 22.6949 35.955 22.5232 36.0338C22.3515 36.1126 22.1637 36.1498 21.9749 36.1423C21.7859 36.1485 21.5982 36.1091 21.4275 36.0275C21.2569 35.946 21.1084 35.8245 20.9946 35.6735C20.7482 35.2995 20.6169 34.8614 20.6169 34.4134C20.6169 33.9655 20.7482 33.5274 20.9946 33.1534C21.1128 32.9999 21.2659 32.8768 21.4412 32.7944C21.6166 32.712 21.809 32.6726 22.0026 32.6796C22.1904 32.6716 22.3772 32.7105 22.5461 32.7928C22.7151 32.875 22.8609 32.9981 22.9704 33.1508C23.2248 33.5294 23.3487 33.9807 23.3232 34.4361C23.3562 34.8821 23.2314 35.3255 22.9704 35.6887H22.9628Z" fill="#666666"/>
<mask id="path-8-inside-2_4517_2038" fill="white">
<path d="M30 25.01C30 26.6605 26.1953 28 21.5 28C16.8047 28 13 26.648 13 25.01C13 23.3721 16.8073 22 21.5 22C26.1927 22 30 23.3395 30 24.9925"/>
</mask>
<path d="M30 25.01C30 26.6605 26.1953 28 21.5 28C16.8047 28 13 26.648 13 25.01C13 23.3721 16.8073 22 21.5 22C26.1927 22 30 23.3395 30 24.9925" fill="white"/>
<path d="M29 25.01C29 25.0161 29 25.0459 28.963 25.1095C28.9227 25.1788 28.8422 25.2804 28.6927 25.4047C28.3877 25.6584 27.8863 25.9317 27.1788 26.1806C25.773 26.6753 23.7654 27 21.5 27V29C23.9299 29 26.1723 28.655 27.8426 28.0673C28.6732 27.775 29.4165 27.404 29.9716 26.9424C30.5207 26.4857 31 25.8375 31 25.01H29ZM21.5 27C19.2357 27 17.2282 26.6724 15.822 26.1762C15.1144 25.9265 14.6123 25.6527 14.3067 25.3989C14.1568 25.2744 14.0762 25.173 14.036 25.1042C13.9991 25.0411 14 25.0131 14 25.01H12C12 25.8365 12.4817 26.4831 13.029 26.9376C13.5835 27.398 14.3261 27.7692 15.1565 28.0623C16.8265 28.6516 19.069 29 21.5 29V27ZM14 25.01C14 25.007 13.9992 24.9784 14.0366 24.9141C14.0773 24.8444 14.1585 24.742 14.3088 24.6166C14.6153 24.3609 15.1181 24.0848 15.8257 23.8328C17.2318 23.3322 19.2386 23 21.5 23V21C19.0688 21 16.8255 21.3539 15.1548 21.9487C14.324 22.2445 13.5816 22.6186 13.0276 23.0808C12.4811 23.5368 12 24.1842 12 25.01H14ZM21.5 23C23.764 23 25.7716 23.3247 27.1777 23.8196C27.8854 24.0687 28.3869 24.3422 28.6921 24.5962C28.8417 24.7207 28.9223 24.8225 28.9627 24.8919C28.9999 24.9558 29 24.9859 29 24.9925H31C31 24.1646 30.5208 23.516 29.9714 23.0589C29.4161 22.5968 28.6726 22.2255 27.8418 21.9331C26.1711 21.345 23.9287 21 21.5 21V23Z" fill="#666666" mask="url(#path-8-inside-2_4517_2038)"/>
</svg>
