<svg xmlns="http://www.w3.org/2000/svg" width="51" height="40" viewBox="0 0 51 40">
    <g fill="none" fill-rule="evenodd">
        <g>
            <g>
                <g>
                    <g>
                        <g stroke="#999" stroke-width="1.9">
                            <g>
                                <path d="M23.147 26.5h0H2c-1.105 0-2-.895-2-2V2C0 .895.895 0 2 0h34c1.105 0 2 .895 2 2v8.613h0" transform="translate(-935.000000, -3567.000000) translate(878.000000, 3567.000000) translate(57.000000, 0.000000) translate(0.000000, 0.000000) translate(1.000000, 1.000000)"/>
                                <g>
                                    <g stroke-linecap="round">
                                        <path d="M10.7 2.75L10.7 5M5.475 5.3L5.475 8.271M.25 0L.25 11.95" transform="translate(-935.000000, -3567.000000) translate(878.000000, 3567.000000) translate(57.000000, 0.000000) translate(0.000000, 0.000000) translate(1.000000, 1.000000) translate(5.500000, 7.500000) translate(15.000000, 0.000000)"/>
                                    </g>
                                    <g transform="translate(-935.000000, -3567.000000) translate(878.000000, 3567.000000) translate(57.000000, 0.000000) translate(0.000000, 0.000000) translate(1.000000, 1.000000) translate(5.500000, 7.500000) translate(0.000000, 1.000000)">
                                        <circle cx="5" cy="5" r="5"/>
                                        <path stroke-linecap="round" stroke-linejoin="round" d="M4.5 1L4.5 5.125 9.5 7"/>
                                    </g>
                                </g>
                            </g>
                        </g>
                        <g>
                            <path stroke="#999" stroke-width="2" d="M14.574 1.111C13.516.566 12.348.202 11.111.066 10.746.024 10.376 0 10 0s-.746.024-1.111.066C8.117.15 7.376.333 6.667.583c-.427.153-.845.323-1.241.528C2.84 2.443.92 4.87.258 7.778.096 8.494 0 9.236 0 10c0 5.148 3.889 9.381 8.889 9.936.359.038.723.062 1.092.063.407-.001.771-.025 1.13-.063 2.125-.236 4.046-1.14 5.556-2.494C18.71 15.613 20 12.96 20 10c0-2.959-1.29-5.612-3.333-7.442-.631-.566-1.331-1.055-2.093-1.447z" transform="translate(-935.000000, -3567.000000) translate(878.000000, 3567.000000) translate(57.000000, 0.000000) translate(0.000000, 0.000000) translate(26.500000, 15.000000)"/>
                            <path fill="#999" d="M17.293 17.707l4.243 4.243c.39.39 1.023.39 1.414 0 .39-.39.39-1.024 0-1.414l-4.243-4.243c-.39-.39-1.024-.39-1.414 0-.39.39-.39 1.024 0 1.414zM9.72 13.57c.359 0 .662.12.91.357.246.238.37.517.37.837 0 .32-.124.596-.37.829-.248.232-.551.349-.91.349-.35 0-.64-.117-.873-.35-.232-.232-.349-.508-.349-.828 0-.32.117-.6.35-.837.232-.237.523-.356.872-.356zM7.204 6.677c-.04.049-.083.059-.131.03C7.024 6.675 7 6.632 7 6.574V4.916c.388-.29.827-.516 1.316-.676.49-.16.968-.24 1.433-.24 1.057 0 1.864.235 2.422.705.557.47.836 1.118.836 1.942 0 .3-.05.59-.152.866s-.228.538-.379.785c-.15.247-.32.478-.509.691-.189.213-.37.403-.545.567-.146.146-.279.282-.4.408s-.226.254-.313.385-.153.27-.196.415c-.044.145-.066.32-.066.523 0 .185.01.366.03.546.019.18.077.424.174.734H8.993c-.078-.223-.129-.45-.153-.683-.024-.233-.036-.451-.036-.655 0-.271.029-.516.087-.734.058-.219.14-.425.247-.619.107-.194.23-.38.371-.56.14-.179.298-.356.473-.53.32-.301.599-.602.836-.902.238-.301.357-.65.357-1.048 0-.465-.141-.804-.422-1.018-.281-.213-.684-.32-1.208-.32-.378 0-.77.092-1.178.277-.407.184-.795.484-1.163.901z" transform="translate(-935.000000, -3567.000000) translate(878.000000, 3567.000000) translate(57.000000, 0.000000) translate(0.000000, 0.000000) translate(26.500000, 15.000000)"/>
                        </g>
                    </g>
                </g>
            </g>
        </g>
    </g>
</svg>
