<svg xmlns="http://www.w3.org/2000/svg" width="49" height="40" viewBox="0 0 49 40">
    <g fill="none" fill-rule="evenodd">
        <g fill="#999">
            <g>
                <g>
                    <path d="M10 5c0-.552.448-1 1-1s1 .448 1 1-.448 1-1 1-1-.448-1-1zM7 5c0-.552.448-1 1-1s1 .448 1 1-.448 1-1 1-1-.448-1-1zM5 6c-.552 0-1-.448-1-1s.448-1 1-1 1 .448 1 1-.448 1-1 1zM2 3.006C2 2.454 2.454 2 2.998 2h32.004c.553 0 .998.447.998 1.006V8H2V3.006zM36 36v.994c0 .552-.453 1.006-.998 1.006H2.998C2.445 38 2 37.553 2 36.994V10h34v2h2V3.006C38 1.343 36.658 0 35.002 0H2.998C2.647 0 2.314.072 2 .186.842.601 0 1.701 0 3.006v33.988C0 38.658 1.342 40 2.998 40h32.004c1.293 0 2.395-.837 2.812-2 .113-.316.186-.651.186-1.006V36h-2zM19 15h5v2h-6v-2h1zm-4.714 2H5v-2h10v2h-.714zm-.12 6H5v-2h15v2h-5.833zM5 27h6v2H5v-2zm36.857 1.118c-1.214 2.01-3.289 3.443-5.714 3.792-.374.053-.753.09-1.143.09s-.77-.037-1.143-.09C29.982 31.354 27 28.027 27 24c0-.795.12-1.561.336-2.286.65-2.18 2.21-3.964 4.235-4.927.712-.337 1.478-.579 2.286-.696.374-.053.753-.091 1.143-.091s.77.038 1.143.091c2.425.348 4.5 1.78 5.714 3.79C42.583 21.083 43 22.493 43 24c0 1.506-.417 2.915-1.143 4.118zM35 14c.376 0 .746.024 1.111.066 1.237.136 2.405.5 3.463 1.045.762.392 1.462.881 2.093 1.447C43.71 18.388 45 21.04 45 24c0 2.146-.678 4.13-1.83 5.756l3.78 3.78c.39.39.39 1.023 0 1.414-.39.39-1.024.39-1.414 0l-3.682-3.681-.187.173c-1.422 1.274-3.207 2.15-5.183 2.445l-.373.049c-.359.038-.723.062-1.13.063-.369-.001-.733-.025-1.092-.063C28.889 33.38 25 29.148 25 24c0-.764.096-1.506.258-2.222.662-2.908 2.582-5.335 5.168-6.667.396-.205.814-.375 1.24-.528.71-.25 1.45-.432 2.223-.517.365-.042.735-.066 1.111-.066z" transform="translate(-943.000000, -433.000000) translate(884.500000, 433.000000) translate(58.500000, 0.000000)"/>
                    <path d="M34.72 27.57c.359 0 .662.12.91.357.246.238.37.517.37.837 0 .32-.124.596-.37.829-.248.232-.551.349-.91.349-.35 0-.64-.117-.873-.35-.232-.232-.349-.508-.349-.828 0-.32.117-.6.35-.837.232-.237.523-.356.872-.356zm-2.516-6.894c-.04.049-.083.059-.131.03-.049-.03-.073-.073-.073-.131v-1.659c.388-.29.827-.516 1.316-.676.49-.16.968-.24 1.433-.24 1.057 0 1.864.235 2.422.705.557.47.836 1.118.836 1.942 0 .3-.05.59-.152.866s-.228.538-.379.785c-.15.247-.32.478-.509.691-.189.213-.37.403-.545.567-.146.146-.279.282-.4.408s-.226.254-.313.385-.153.27-.196.415c-.044.145-.066.32-.066.523 0 .185.01.366.03.546.019.18.077.424.174.734h-1.658c-.078-.223-.129-.45-.153-.683-.024-.233-.036-.451-.036-.655 0-.271.029-.516.087-.734.058-.219.14-.425.247-.619.107-.194.23-.38.371-.56.14-.179.298-.356.473-.53.32-.301.599-.602.836-.902.238-.301.357-.65.357-1.048 0-.465-.141-.804-.422-1.018-.281-.213-.684-.32-1.208-.32-.378 0-.77.092-1.178.277-.407.184-.795.484-1.163.901z" transform="translate(-943.000000, -433.000000) translate(884.500000, 433.000000) translate(58.500000, 0.000000)"/>
                </g>
            </g>
        </g>
    </g>
</svg>
